<?xml version="1.0" encoding="UTF-8"?>
<svg width="204px" height="51px" viewBox="0 0 204 51" version="1.1" xmlns="http://www.w3.org/2000/svg" xmlns:xlink="http://www.w3.org/1999/xlink">
    <!-- Generator: Sketch 47.1 (45422) - http://www.bohemiancoding.com/sketch -->
    <title>01_section</title>
    <desc>Created with Sketch.</desc>
    <defs></defs>
    <g id="Symbols" stroke="none" stroke-width="1" fill="none" fill-rule="evenodd">
        <g id="01_section">
            <rect id="Rectangle-6-Copy" fill="#003057" x="0" y="0" width="204" height="51"></rect>
            <path d="M71.808,34 L74.736,34 L74.736,17.08 L72.696,17.08 L68.16,18.52 L68.784,20.92 L71.808,20.08 L71.808,34 Z M78.672,34 L81.864,34 L81.864,30.688 L78.672,30.688 L78.672,34 Z M90.792,34.288 C94.512,34.288 97.032,32.032 97.032,28.6 L97.032,28.552 C97.032,25 94.44,23.272 91.176,23.272 C90.048,23.272 89.304,23.464 88.512,23.752 L88.776,19.816 L96.288,19.816 L96.288,17.2 L86.232,17.2 L85.752,25.432 L87.528,26.608 C88.392,26.2 89.424,25.864 90.624,25.864 C92.664,25.864 94.104,26.944 94.104,28.648 L94.104,28.696 C94.104,30.448 92.784,31.6 90.768,31.6 C89.208,31.6 87.792,30.832 86.448,29.584 L84.624,31.72 C86.208,33.256 88.224,34.288 90.792,34.288 Z M100.272,34 L103.176,34 L103.176,26.848 C103.176,24.904 104.28,23.704 105.888,23.704 C107.496,23.704 108.456,24.808 108.456,26.776 L108.456,34 L111.36,34 L111.36,26.848 C111.36,24.808 112.488,23.704 114.072,23.704 C115.704,23.704 116.64,24.784 116.64,26.8 L116.64,34 L119.544,34 L119.544,25.912 C119.544,22.816 117.864,21.064 115.104,21.064 C113.184,21.064 111.84,21.952 110.832,23.296 C110.16,21.952 108.864,21.064 107.04,21.064 C105.096,21.064 103.992,22.12 103.176,23.248 L103.176,21.328 L100.272,21.328 L100.272,34 Z M127.488,31.456 L130.224,31.456 L130.224,26.872 L134.832,26.872 L134.832,24.208 L130.224,24.208 L130.224,19.648 L127.488,19.648 L127.488,24.208 L122.88,24.208 L122.88,26.872 L127.488,26.872 L127.488,31.456 Z" id="1.5m+" fill="#FFFFFF"></path>
            <path d="M9.004,14.132 C6.947,14.132 5.594,12.405 5.594,10.172 L5.594,10.15 C5.594,7.917 6.98,6.168 9.026,6.168 C11.061,6.168 12.436,7.895 12.436,10.128 L12.436,10.15 C12.436,12.383 11.061,14.132 9.004,14.132 Z M9.026,12.603 C10.049,12.603 10.698,11.569 10.698,10.172 L10.698,10.15 C10.698,8.753 10.016,7.697 9.004,7.697 C7.992,7.697 7.332,8.72 7.332,10.128 L7.332,10.15 C7.332,11.558 8.003,12.603 9.026,12.603 Z M15.637,14 L17.309,14 L17.309,6.245 L16.154,6.245 L13.943,6.905 L14.295,8.291 L15.637,7.961 L15.637,14 Z" id="01" fill="#FFFFFF"></path>
            <path d="M8.5,28.5 L19.011898,17.988102" id="Line-Copy" stroke="#FFFFFF" stroke-linecap="square"></path>
        </g>
    </g>
</svg>