<?xml version="1.0" encoding="UTF-8"?>
<svg width="204px" height="51px" viewBox="0 0 204 51" version="1.1" xmlns="http://www.w3.org/2000/svg" xmlns:xlink="http://www.w3.org/1999/xlink">
    <!-- Generator: Sketch 47.1 (45422) - http://www.bohemiancoding.com/sketch -->
    <title>02_section</title>
    <desc>Created with Sketch.</desc>
    <defs></defs>
    <g id="Symbols" stroke="none" stroke-width="1" fill="none" fill-rule="evenodd">
        <g id="02_section">
            <rect id="Rectangle-6" fill="#003057" x="0" y="0" width="204" height="51"></rect>
            <path d="M38.592,34 L41.52,34 L41.52,17.08 L39.48,17.08 L34.944,18.52 L35.568,20.92 L38.592,20.08 L38.592,34 Z M45.456,34 L48.648,34 L48.648,30.688 L45.456,30.688 L45.456,34 Z M58.464,34.288 C54.048,34.288 51.168,30.448 51.168,25.648 L51.168,25.6 C51.168,20.8 54.096,16.912 58.512,16.912 C62.904,16.912 65.808,20.752 65.808,25.552 L65.808,25.6 C65.808,30.4 62.88,34.288 58.464,34.288 Z M58.512,31.624 C61.128,31.624 62.76,28.936 62.76,25.648 L62.76,25.6 C62.76,22.288 61.056,19.576 58.464,19.576 C55.872,19.576 54.216,22.216 54.216,25.552 L54.216,25.6 C54.216,28.912 55.896,31.624 58.512,31.624 Z M69,34 L71.904,34 L71.904,26.848 C71.904,24.904 73.008,23.704 74.616,23.704 C76.224,23.704 77.184,24.808 77.184,26.776 L77.184,34 L80.088,34 L80.088,26.848 C80.088,24.808 81.216,23.704 82.8,23.704 C84.432,23.704 85.368,24.784 85.368,26.8 L85.368,34 L88.272,34 L88.272,25.912 C88.272,22.816 86.592,21.064 83.832,21.064 C81.912,21.064 80.568,21.952 79.56,23.296 C78.888,21.952 77.592,21.064 75.768,21.064 C73.824,21.064 72.72,22.12 71.904,23.248 L71.904,21.328 L69,21.328 L69,34 Z M91.32,28.072 L98.424,28.072 L98.424,25.216 L91.32,25.216 L91.32,28.072 Z M103.32,34 L106.248,34 L106.248,17.08 L104.208,17.08 L99.672,18.52 L100.296,20.92 L103.32,20.08 L103.32,34 Z M110.184,34 L113.376,34 L113.376,30.688 L110.184,30.688 L110.184,34 Z M124.896,34 L124.896,30.232 L116.424,30.232 L115.872,28.12 L125.208,17.08 L127.728,17.08 L127.728,27.808 L130.128,27.808 L130.128,30.232 L127.728,30.232 L127.728,34 L124.896,34 Z M119.376,27.808 L124.896,27.808 L124.896,21.16 L119.376,27.808 Z M138.384,31.6 C141.36,31.6 142.44,28.528 142.464,26.296 C141.528,27.424 140.232,28.096 138.504,28.096 C134.928,28.096 132.552,26.008 132.552,22.768 L132.552,22.72 C132.552,19.432 135.096,16.912 138.816,16.912 C140.928,16.912 142.296,17.512 143.496,18.688 C144.72,19.936 145.512,21.784 145.512,25.096 L145.512,25.144 C145.512,30.544 142.848,34.288 138.312,34.288 C135.984,34.288 134.352,33.448 132.936,32.272 L134.544,30.016 C135.816,31.072 136.944,31.6 138.384,31.6 Z M138.936,25.624 C141.072,25.624 142.344,24.232 142.344,22.6 L142.344,22.552 C142.344,20.8 140.976,19.456 138.84,19.456 C136.752,19.456 135.504,20.848 135.504,22.576 L135.504,22.624 C135.504,24.376 136.848,25.624 138.936,25.624 Z M148.704,34 L151.608,34 L151.608,26.848 C151.608,24.904 152.712,23.704 154.32,23.704 C155.928,23.704 156.888,24.808 156.888,26.776 L156.888,34 L159.792,34 L159.792,26.848 C159.792,24.808 160.92,23.704 162.504,23.704 C164.136,23.704 165.072,24.784 165.072,26.8 L165.072,34 L167.976,34 L167.976,25.912 C167.976,22.816 166.296,21.064 163.536,21.064 C161.616,21.064 160.272,21.952 159.264,23.296 C158.592,21.952 157.296,21.064 155.472,21.064 C153.528,21.064 152.424,22.12 151.608,23.248 L151.608,21.328 L148.704,21.328 L148.704,34 Z" id="1.0m-1.49m" fill="#FFFFFF"></path>
            <path d="M9.004,14.132 C6.947,14.132 5.594,12.405 5.594,10.172 L5.594,10.15 C5.594,7.917 6.98,6.168 9.026,6.168 C11.061,6.168 12.436,7.895 12.436,10.128 L12.436,10.15 C12.436,12.383 11.061,14.132 9.004,14.132 Z M9.026,12.603 C10.049,12.603 10.698,11.569 10.698,10.172 L10.698,10.15 C10.698,8.753 10.016,7.697 9.004,7.697 C7.992,7.697 7.332,8.72 7.332,10.128 L7.332,10.15 C7.332,11.558 8.003,12.603 9.026,12.603 Z M14.163,14 L19.861,14 L19.861,12.537 L16.506,12.537 L17.76,11.569 C19.124,10.513 19.784,9.875 19.784,8.588 L19.784,8.566 C19.784,7.125 18.728,6.19 17.133,6.19 C15.758,6.19 15.021,6.751 14.262,7.785 L15.45,8.742 C16.022,8.038 16.429,7.708 17.023,7.708 C17.628,7.708 18.057,8.06 18.057,8.709 C18.057,9.347 17.683,9.765 16.726,10.557 L14.163,12.658 L14.163,14 Z" id="02" fill="#FFFFFF"></path>
            <path d="M8.5,28.5 L19.011898,17.988102" id="Line" stroke="#FFFFFF" stroke-linecap="square"></path>
        </g>
    </g>
</svg>