<?xml version="1.0" encoding="UTF-8"?>
<svg width="39px" height="51px" viewBox="0 0 39 51" version="1.1" xmlns="http://www.w3.org/2000/svg" xmlns:xlink="http://www.w3.org/1999/xlink">
    <!-- Generator: Sketch 47.1 (45422) - http://www.bohemiancoding.com/sketch -->
    <title>02_tab</title>
    <desc>Created with Sketch.</desc>
    <defs></defs>
    <g id="Symbols" stroke="none" stroke-width="1" fill="none" fill-rule="evenodd">
        <g id="02_tab">
            <path d="M39,33.8700577 L39,0 L0,0 L0,51 L21.8700577,51 L39,33.8700577 Z" id="Combined-Shape" fill="#0099D8"></path>
            <path d="M9.004,14.132 C6.947,14.132 5.594,12.405 5.594,10.172 L5.594,10.15 C5.594,7.917 6.98,6.168 9.026,6.168 C11.061,6.168 12.436,7.895 12.436,10.128 L12.436,10.15 C12.436,12.383 11.061,14.132 9.004,14.132 Z M9.026,12.603 C10.049,12.603 10.698,11.569 10.698,10.172 L10.698,10.15 C10.698,8.753 10.016,7.697 9.004,7.697 C7.992,7.697 7.332,8.72 7.332,10.128 L7.332,10.15 C7.332,11.558 8.003,12.603 9.026,12.603 Z M14.163,14 L19.861,14 L19.861,12.537 L16.506,12.537 L17.76,11.569 C19.124,10.513 19.784,9.875 19.784,8.588 L19.784,8.566 C19.784,7.125 18.728,6.19 17.133,6.19 C15.758,6.19 15.021,6.751 14.262,7.785 L15.45,8.742 C16.022,8.038 16.429,7.708 17.023,7.708 C17.628,7.708 18.057,8.06 18.057,8.709 C18.057,9.347 17.683,9.765 16.726,10.557 L14.163,12.658 L14.163,14 Z" id="02" fill="#FFFFFF"></path>
            <path d="M8.5,28.5 L19.011898,17.988102" id="Line" stroke="#FFFFFF" stroke-linecap="square"></path>
        </g>
    </g>
</svg>