<?xml version="1.0" encoding="UTF-8"?>
<svg width="204px" height="51px" viewBox="0 0 204 51" version="1.1" xmlns="http://www.w3.org/2000/svg" xmlns:xlink="http://www.w3.org/1999/xlink">
    <!-- Generator: Sketch 47.1 (45422) - http://www.bohemiancoding.com/sketch -->
    <title>03_section</title>
    <desc>Created with Sketch.</desc>
    <defs></defs>
    <g id="Symbols" stroke="none" stroke-width="1" fill="none" fill-rule="evenodd">
        <g id="03_section">
            <rect id="Rectangle-6-Copy-2" fill="#003057" x="0" y="0" width="204" height="51"></rect>
            <path d="M37.86,34 L41.196,34 L48.756,19.432 L48.756,17.2 L36.948,17.2 L36.948,19.792 L45.396,19.792 L37.86,34 Z M58.116,34.288 C53.7,34.288 50.82,30.448 50.82,25.648 L50.82,25.6 C50.82,20.8 53.748,16.912 58.164,16.912 C62.556,16.912 65.46,20.752 65.46,25.552 L65.46,25.6 C65.46,30.4 62.532,34.288 58.116,34.288 Z M58.164,31.624 C60.78,31.624 62.412,28.936 62.412,25.648 L62.412,25.6 C62.412,22.288 60.708,19.576 58.116,19.576 C55.524,19.576 53.868,22.216 53.868,25.552 L53.868,25.6 C53.868,28.912 55.548,31.624 58.164,31.624 Z M75.492,34.288 C71.076,34.288 68.196,30.448 68.196,25.648 L68.196,25.6 C68.196,20.8 71.124,16.912 75.54,16.912 C79.932,16.912 82.836,20.752 82.836,25.552 L82.836,25.6 C82.836,30.4 79.908,34.288 75.492,34.288 Z M75.54,31.624 C78.156,31.624 79.788,28.936 79.788,25.648 L79.788,25.6 C79.788,22.288 78.084,19.576 75.492,19.576 C72.9,19.576 71.244,22.216 71.244,25.552 L71.244,25.6 C71.244,28.912 72.924,31.624 75.54,31.624 Z M86.028,34 L88.932,34 L88.932,30.376 L90.732,28.504 L94.476,34 L97.884,34 L92.676,26.488 L97.716,21.328 L94.188,21.328 L88.932,26.944 L88.932,16.48 L86.028,16.48 L86.028,34 Z M99.036,28.072 L106.14,28.072 L106.14,25.216 L99.036,25.216 L99.036,28.072 Z M114.732,31.6 C117.708,31.6 118.788,28.528 118.812,26.296 C117.876,27.424 116.58,28.096 114.852,28.096 C111.276,28.096 108.9,26.008 108.9,22.768 L108.9,22.72 C108.9,19.432 111.444,16.912 115.164,16.912 C117.276,16.912 118.644,17.512 119.844,18.688 C121.068,19.936 121.86,21.784 121.86,25.096 L121.86,25.144 C121.86,30.544 119.196,34.288 114.66,34.288 C112.332,34.288 110.7,33.448 109.284,32.272 L110.892,30.016 C112.164,31.072 113.292,31.6 114.732,31.6 Z M115.284,25.624 C117.42,25.624 118.692,24.232 118.692,22.6 L118.692,22.552 C118.692,20.8 117.324,19.456 115.188,19.456 C113.1,19.456 111.852,20.848 111.852,22.576 L111.852,22.624 C111.852,24.376 113.196,25.624 115.284,25.624 Z M130.476,31.6 C133.452,31.6 134.532,28.528 134.556,26.296 C133.62,27.424 132.324,28.096 130.596,28.096 C127.02,28.096 124.644,26.008 124.644,22.768 L124.644,22.72 C124.644,19.432 127.188,16.912 130.908,16.912 C133.02,16.912 134.388,17.512 135.588,18.688 C136.812,19.936 137.604,21.784 137.604,25.096 L137.604,25.144 C137.604,30.544 134.94,34.288 130.404,34.288 C128.076,34.288 126.444,33.448 125.028,32.272 L126.636,30.016 C127.908,31.072 129.036,31.6 130.476,31.6 Z M131.028,25.624 C133.164,25.624 134.436,24.232 134.436,22.6 L134.436,22.552 C134.436,20.8 133.068,19.456 130.932,19.456 C128.844,19.456 127.596,20.848 127.596,22.576 L127.596,22.624 C127.596,24.376 128.94,25.624 131.028,25.624 Z M146.22,31.6 C149.196,31.6 150.276,28.528 150.3,26.296 C149.364,27.424 148.068,28.096 146.34,28.096 C142.764,28.096 140.388,26.008 140.388,22.768 L140.388,22.72 C140.388,19.432 142.932,16.912 146.652,16.912 C148.764,16.912 150.132,17.512 151.332,18.688 C152.556,19.936 153.348,21.784 153.348,25.096 L153.348,25.144 C153.348,30.544 150.684,34.288 146.148,34.288 C143.82,34.288 142.188,33.448 140.772,32.272 L142.38,30.016 C143.652,31.072 144.78,31.6 146.22,31.6 Z M146.772,25.624 C148.908,25.624 150.18,24.232 150.18,22.6 L150.18,22.552 C150.18,20.8 148.812,19.456 146.676,19.456 C144.588,19.456 143.34,20.848 143.34,22.576 L143.34,22.624 C143.34,24.376 144.684,25.624 146.772,25.624 Z M156.54,34 L159.444,34 L159.444,30.376 L161.244,28.504 L164.988,34 L168.396,34 L163.188,26.488 L168.228,21.328 L164.7,21.328 L159.444,26.944 L159.444,16.48 L156.54,16.48 L156.54,34 Z" id="700k-999k" fill="#FFFFFF"></path>
            <path d="M9.004,14.132 C6.947,14.132 5.594,12.405 5.594,10.172 L5.594,10.15 C5.594,7.917 6.98,6.168 9.026,6.168 C11.061,6.168 12.436,7.895 12.436,10.128 L12.436,10.15 C12.436,12.383 11.061,14.132 9.004,14.132 Z M9.026,12.603 C10.049,12.603 10.698,11.569 10.698,10.172 L10.698,10.15 C10.698,8.753 10.016,7.697 9.004,7.697 C7.992,7.697 7.332,8.72 7.332,10.128 L7.332,10.15 C7.332,11.558 8.003,12.603 9.026,12.603 Z M17.045,14.132 C18.761,14.132 19.817,13.065 19.817,11.613 L19.817,11.591 C19.817,10.161 18.794,9.611 17.749,9.435 L19.696,7.576 L19.696,6.3 L14.493,6.3 L14.493,7.752 L17.518,7.752 L15.681,9.6 L15.945,10.678 L16.649,10.678 C17.595,10.678 18.156,11.03 18.156,11.657 L18.156,11.679 C18.156,12.251 17.705,12.614 17.067,12.614 C16.286,12.614 15.736,12.284 15.208,11.69 L14.042,12.801 C14.702,13.582 15.659,14.132 17.045,14.132 Z" id="03" fill="#FFFFFF"></path>
            <path d="M8.5,28.5 L19.011898,17.988102" id="Line-Copy-2" stroke="#FFFFFF" stroke-linecap="square"></path>
        </g>
    </g>
</svg>