<?xml version="1.0" encoding="UTF-8"?>
<svg width="39px" height="51px" viewBox="0 0 39 51" version="1.1" xmlns="http://www.w3.org/2000/svg" xmlns:xlink="http://www.w3.org/1999/xlink">
    <!-- Generator: Sketch 47.1 (45422) - http://www.bohemiancoding.com/sketch -->
    <title>03_tab</title>
    <desc>Created with Sketch.</desc>
    <defs></defs>
    <g id="Symbols" stroke="none" stroke-width="1" fill="none" fill-rule="evenodd">
        <g id="03_tab">
            <path d="M39,33.8700577 L39,0 L0,0 L0,51 L21.8700577,51 L39,33.8700577 Z" id="Combined-Shape-Copy-5" fill="#0099D8"></path>
            <path d="M9.004,14.132 C6.947,14.132 5.594,12.405 5.594,10.172 L5.594,10.15 C5.594,7.917 6.98,6.168 9.026,6.168 C11.061,6.168 12.436,7.895 12.436,10.128 L12.436,10.15 C12.436,12.383 11.061,14.132 9.004,14.132 Z M9.026,12.603 C10.049,12.603 10.698,11.569 10.698,10.172 L10.698,10.15 C10.698,8.753 10.016,7.697 9.004,7.697 C7.992,7.697 7.332,8.72 7.332,10.128 L7.332,10.15 C7.332,11.558 8.003,12.603 9.026,12.603 Z M17.045,14.132 C18.761,14.132 19.817,13.065 19.817,11.613 L19.817,11.591 C19.817,10.161 18.794,9.611 17.749,9.435 L19.696,7.576 L19.696,6.3 L14.493,6.3 L14.493,7.752 L17.518,7.752 L15.681,9.6 L15.945,10.678 L16.649,10.678 C17.595,10.678 18.156,11.03 18.156,11.657 L18.156,11.679 C18.156,12.251 17.705,12.614 17.067,12.614 C16.286,12.614 15.736,12.284 15.208,11.69 L14.042,12.801 C14.702,13.582 15.659,14.132 17.045,14.132 Z" id="03" fill="#FFFFFF"></path>
            <path d="M8.5,28.5 L19.011898,17.988102" id="Line-Copy-6" stroke="#FFFFFF" stroke-linecap="square"></path>
        </g>
    </g>
</svg>