<?xml version="1.0" encoding="UTF-8"?>
<svg width="204px" height="51px" viewBox="0 0 204 51" version="1.1" xmlns="http://www.w3.org/2000/svg" xmlns:xlink="http://www.w3.org/1999/xlink">
    <!-- Generator: Sketch 47.1 (45422) - http://www.bohemiancoding.com/sketch -->
    <title>04_section</title>
    <desc>Created with Sketch.</desc>
    <defs></defs>
    <g id="Symbols" stroke="none" stroke-width="1" fill="none" fill-rule="evenodd">
        <g id="04_section">
            <rect id="Rectangle-6-Copy-3" fill="#003057" x="0" y="0" width="204" height="51"></rect>
            <path d="M45.42,34 L45.42,30.232 L36.948,30.232 L36.396,28.12 L45.732,17.08 L48.252,17.08 L48.252,27.808 L50.652,27.808 L50.652,30.232 L48.252,30.232 L48.252,34 L45.42,34 Z M39.9,27.808 L45.42,27.808 L45.42,21.16 L39.9,27.808 Z M59.196,34.288 C62.916,34.288 65.436,32.032 65.436,28.6 L65.436,28.552 C65.436,25 62.844,23.272 59.58,23.272 C58.452,23.272 57.708,23.464 56.916,23.752 L57.18,19.816 L64.692,19.816 L64.692,17.2 L54.636,17.2 L54.156,25.432 L55.932,26.608 C56.796,26.2 57.828,25.864 59.028,25.864 C61.068,25.864 62.508,26.944 62.508,28.648 L62.508,28.696 C62.508,30.448 61.188,31.6 59.172,31.6 C57.612,31.6 56.196,30.832 54.852,29.584 L53.028,31.72 C54.612,33.256 56.628,34.288 59.196,34.288 Z M75.516,34.288 C71.1,34.288 68.22,30.448 68.22,25.648 L68.22,25.6 C68.22,20.8 71.148,16.912 75.564,16.912 C79.956,16.912 82.86,20.752 82.86,25.552 L82.86,25.6 C82.86,30.4 79.932,34.288 75.516,34.288 Z M75.564,31.624 C78.18,31.624 79.812,28.936 79.812,25.648 L79.812,25.6 C79.812,22.288 78.108,19.576 75.516,19.576 C72.924,19.576 71.268,22.216 71.268,25.552 L71.268,25.6 C71.268,28.912 72.948,31.624 75.564,31.624 Z M86.052,34 L88.956,34 L88.956,30.376 L90.756,28.504 L94.5,34 L97.908,34 L92.7,26.488 L97.74,21.328 L94.212,21.328 L88.956,26.944 L88.956,16.48 L86.052,16.48 L86.052,34 Z M99.06,28.072 L106.164,28.072 L106.164,25.216 L99.06,25.216 L99.06,28.072 Z M115.596,34.288 C113.532,34.288 112.044,33.64 110.916,32.512 C109.644,31.24 108.876,29.488 108.876,26.104 L108.876,26.056 C108.876,20.92 111.324,16.912 116.076,16.912 C118.26,16.912 119.748,17.608 121.212,18.784 L119.628,21.064 C118.452,20.152 117.468,19.6 115.98,19.6 C113.052,19.6 111.996,22.648 111.948,24.952 C112.932,23.92 114.18,23.248 115.98,23.248 C119.22,23.248 121.836,25.168 121.836,28.528 L121.836,28.576 C121.836,31.912 119.124,34.288 115.596,34.288 Z M115.524,31.72 C117.612,31.72 118.884,30.424 118.884,28.696 L118.884,28.648 C118.884,26.968 117.54,25.72 115.452,25.72 C113.364,25.72 112.044,27.064 112.044,28.672 L112.044,28.72 C112.044,30.424 113.436,31.72 115.524,31.72 Z M130.26,31.6 C133.236,31.6 134.316,28.528 134.34,26.296 C133.404,27.424 132.108,28.096 130.38,28.096 C126.804,28.096 124.428,26.008 124.428,22.768 L124.428,22.72 C124.428,19.432 126.972,16.912 130.692,16.912 C132.804,16.912 134.172,17.512 135.372,18.688 C136.596,19.936 137.388,21.784 137.388,25.096 L137.388,25.144 C137.388,30.544 134.724,34.288 130.188,34.288 C127.86,34.288 126.228,33.448 124.812,32.272 L126.42,30.016 C127.692,31.072 128.82,31.6 130.26,31.6 Z M130.812,25.624 C132.948,25.624 134.22,24.232 134.22,22.6 L134.22,22.552 C134.22,20.8 132.852,19.456 130.716,19.456 C128.628,19.456 127.38,20.848 127.38,22.576 L127.38,22.624 C127.38,24.376 128.724,25.624 130.812,25.624 Z M146.004,31.6 C148.98,31.6 150.06,28.528 150.084,26.296 C149.148,27.424 147.852,28.096 146.124,28.096 C142.548,28.096 140.172,26.008 140.172,22.768 L140.172,22.72 C140.172,19.432 142.716,16.912 146.436,16.912 C148.548,16.912 149.916,17.512 151.116,18.688 C152.34,19.936 153.132,21.784 153.132,25.096 L153.132,25.144 C153.132,30.544 150.468,34.288 145.932,34.288 C143.604,34.288 141.972,33.448 140.556,32.272 L142.164,30.016 C143.436,31.072 144.564,31.6 146.004,31.6 Z M146.556,25.624 C148.692,25.624 149.964,24.232 149.964,22.6 L149.964,22.552 C149.964,20.8 148.596,19.456 146.46,19.456 C144.372,19.456 143.124,20.848 143.124,22.576 L143.124,22.624 C143.124,24.376 144.468,25.624 146.556,25.624 Z M156.324,34 L159.228,34 L159.228,30.376 L161.028,28.504 L164.772,34 L168.18,34 L162.972,26.488 L168.012,21.328 L164.484,21.328 L159.228,26.944 L159.228,16.48 L156.324,16.48 L156.324,34 Z" id="450k-699k" fill="#FFFFFF"></path>
            <path d="M9.004,14.132 C6.947,14.132 5.594,12.405 5.594,10.172 L5.594,10.15 C5.594,7.917 6.98,6.168 9.026,6.168 C11.061,6.168 12.436,7.895 12.436,10.128 L12.436,10.15 C12.436,12.383 11.061,14.132 9.004,14.132 Z M9.026,12.603 C10.049,12.603 10.698,11.569 10.698,10.172 L10.698,10.15 C10.698,8.753 10.016,7.697 9.004,7.697 C7.992,7.697 7.332,8.72 7.332,10.128 L7.332,10.15 C7.332,11.558 8.003,12.603 9.026,12.603 Z M18.112,14 L18.112,12.339 L14.35,12.339 L14.075,11.14 L18.299,6.245 L19.729,6.245 L19.729,10.964 L20.763,10.964 L20.763,12.339 L19.729,12.339 L19.729,14 L18.112,14 Z M16.066,10.964 L18.112,10.964 L18.112,8.566 L16.066,10.964 Z" id="04" fill="#FFFFFF"></path>
            <path d="M8.5,28.5 L19.011898,17.988102" id="Line-Copy-3" stroke="#FFFFFF" stroke-linecap="square"></path>
        </g>
    </g>
</svg>