<?xml version="1.0" encoding="UTF-8"?>
<svg width="39px" height="51px" viewBox="0 0 39 51" version="1.1" xmlns="http://www.w3.org/2000/svg" xmlns:xlink="http://www.w3.org/1999/xlink">
    <!-- Generator: Sketch 47.1 (45422) - http://www.bohemiancoding.com/sketch -->
    <title>04_tab</title>
    <desc>Created with Sketch.</desc>
    <defs></defs>
    <g id="Symbols" stroke="none" stroke-width="1" fill="none" fill-rule="evenodd">
        <g id="04_tab">
            <path d="M39,33.8700577 L39,0 L0,0 L0,51 L21.8700577,51 L39,33.8700577 Z" id="Combined-Shape-Copy-6" fill="#0099D8"></path>
            <path d="M9.004,14.132 C6.947,14.132 5.594,12.405 5.594,10.172 L5.594,10.15 C5.594,7.917 6.98,6.168 9.026,6.168 C11.061,6.168 12.436,7.895 12.436,10.128 L12.436,10.15 C12.436,12.383 11.061,14.132 9.004,14.132 Z M9.026,12.603 C10.049,12.603 10.698,11.569 10.698,10.172 L10.698,10.15 C10.698,8.753 10.016,7.697 9.004,7.697 C7.992,7.697 7.332,8.72 7.332,10.128 L7.332,10.15 C7.332,11.558 8.003,12.603 9.026,12.603 Z M18.112,14 L18.112,12.339 L14.35,12.339 L14.075,11.14 L18.299,6.245 L19.729,6.245 L19.729,10.964 L20.763,10.964 L20.763,12.339 L19.729,12.339 L19.729,14 L18.112,14 Z M16.066,10.964 L18.112,10.964 L18.112,8.566 L16.066,10.964 Z" id="04" fill="#FFFFFF"></path>
            <path d="M8.5,28.5 L19.011898,17.988102" id="Line-Copy-7" stroke="#FFFFFF" stroke-linecap="square"></path>
        </g>
    </g>
</svg>