<?xml version="1.0" encoding="UTF-8"?>
<svg width="204px" height="51px" viewBox="0 0 204 51" version="1.1" xmlns="http://www.w3.org/2000/svg" xmlns:xlink="http://www.w3.org/1999/xlink">
    <!-- Generator: Sketch 47.1 (45422) - http://www.bohemiancoding.com/sketch -->
    <title>05_section</title>
    <desc>Created with Sketch.</desc>
    <defs></defs>
    <g id="Symbols" stroke="none" stroke-width="1" fill="none" fill-rule="evenodd">
        <g id="05_section">
            <rect id="Rectangle-6-Copy-4" fill="#003057" x="0" y="0" width="204" height="51"></rect>
            <path d="M41.992,34 L41.992,30.232 L33.52,30.232 L32.968,28.12 L42.304,17.08 L44.824,17.08 L44.824,27.808 L47.224,27.808 L47.224,30.232 L44.824,30.232 L44.824,34 L41.992,34 Z M36.472,27.808 L41.992,27.808 L41.992,21.16 L36.472,27.808 Z M58.36,34 L58.36,30.232 L49.888,30.232 L49.336,28.12 L58.672,17.08 L61.192,17.08 L61.192,27.808 L63.592,27.808 L63.592,30.232 L61.192,30.232 L61.192,34 L58.36,34 Z M52.84,27.808 L58.36,27.808 L58.36,21.16 L52.84,27.808 Z M71.848,31.6 C74.824,31.6 75.904,28.528 75.928,26.296 C74.992,27.424 73.696,28.096 71.968,28.096 C68.392,28.096 66.016,26.008 66.016,22.768 L66.016,22.72 C66.016,19.432 68.56,16.912 72.28,16.912 C74.392,16.912 75.76,17.512 76.96,18.688 C78.184,19.936 78.976,21.784 78.976,25.096 L78.976,25.144 C78.976,30.544 76.312,34.288 71.776,34.288 C69.448,34.288 67.816,33.448 66.4,32.272 L68.008,30.016 C69.28,31.072 70.408,31.6 71.848,31.6 Z M72.4,25.624 C74.536,25.624 75.808,24.232 75.808,22.6 L75.808,22.552 C75.808,20.8 74.44,19.456 72.304,19.456 C70.216,19.456 68.968,20.848 68.968,22.576 L68.968,22.624 C68.968,24.376 70.312,25.624 72.4,25.624 Z M82.168,34 L85.072,34 L85.072,30.376 L86.872,28.504 L90.616,34 L94.024,34 L88.816,26.488 L93.856,21.328 L90.328,21.328 L85.072,26.944 L85.072,16.48 L82.168,16.48 L82.168,34 Z M95.176,28.072 L102.28,28.072 L102.28,25.216 L95.176,25.216 L95.176,28.072 Z M109.816,34.264 C111.784,34.264 112.96,33.232 113.776,32.032 L113.776,34 L116.704,34 L116.704,21.328 L113.776,21.328 L113.776,28.48 C113.776,30.448 112.6,31.6 110.92,31.6 C109.192,31.6 108.208,30.496 108.208,28.528 L108.208,21.328 L105.304,21.328 L105.304,29.392 C105.304,32.344 106.96,34.264 109.816,34.264 Z M120.328,34 L123.232,34 L123.232,26.848 C123.232,24.88 124.408,23.704 126.088,23.704 C127.816,23.704 128.8,24.832 128.8,26.8 L128.8,34 L131.704,34 L131.704,25.912 C131.704,22.984 130.048,21.064 127.192,21.064 C125.224,21.064 124.048,22.096 123.232,23.272 L123.232,21.328 L120.328,21.328 L120.328,34 Z M140.44,34.264 C137.464,34.264 134.56,31.888 134.56,27.688 L134.56,27.64 C134.56,23.44 137.416,21.064 140.44,21.064 C142.528,21.064 143.848,22.096 144.76,23.296 L144.76,16.48 L147.664,16.48 L147.664,34 L144.76,34 L144.76,31.888 C143.824,33.208 142.504,34.264 140.44,34.264 Z M141.136,31.744 C143.08,31.744 144.808,30.112 144.808,27.688 L144.808,27.64 C144.808,25.192 143.08,23.584 141.136,23.584 C139.144,23.584 137.488,25.12 137.488,27.64 L137.488,27.688 C137.488,30.136 139.168,31.744 141.136,31.744 Z M157.12,34.288 C153.448,34.288 150.616,31.624 150.616,27.712 L150.616,27.664 C150.616,24.04 153.184,21.064 156.808,21.064 C160.84,21.064 162.88,24.232 162.88,27.88 C162.88,28.144 162.856,28.408 162.832,28.696 L153.52,28.696 C153.832,30.76 155.296,31.912 157.168,31.912 C158.584,31.912 159.592,31.384 160.6,30.4 L162.304,31.912 C161.104,33.352 159.448,34.288 157.12,34.288 Z M153.496,26.776 L160,26.776 C159.808,24.904 158.704,23.44 156.784,23.44 C155.008,23.44 153.76,24.808 153.496,26.776 Z M165.808,34 L168.712,34 L168.712,29.176 C168.712,25.816 170.488,24.16 173.032,24.16 L173.2,24.16 L173.2,21.088 C170.968,20.992 169.504,22.288 168.712,24.184 L168.712,21.328 L165.808,21.328 L165.808,34 Z" id="449k-under" fill="#FFFFFF"></path>
            <path d="M9.004,14.132 C6.947,14.132 5.594,12.405 5.594,10.172 L5.594,10.15 C5.594,7.917 6.98,6.168 9.026,6.168 C11.061,6.168 12.436,7.895 12.436,10.128 L12.436,10.15 C12.436,12.383 11.061,14.132 9.004,14.132 Z M9.026,12.603 C10.049,12.603 10.698,11.569 10.698,10.172 L10.698,10.15 C10.698,8.753 10.016,7.697 9.004,7.697 C7.992,7.697 7.332,8.72 7.332,10.128 L7.332,10.15 C7.332,11.558 8.003,12.603 9.026,12.603 Z M17.089,14.132 C18.86,14.132 20.015,13.098 20.015,11.47 L20.015,11.448 C20.015,9.71 18.816,8.984 17.32,8.984 C16.891,8.984 16.616,9.039 16.308,9.116 L16.396,7.785 L19.674,7.785 L19.674,6.3 L14.944,6.3 L14.724,10.095 L15.703,10.744 C16.066,10.59 16.506,10.458 16.99,10.458 C17.793,10.458 18.354,10.843 18.354,11.503 L18.354,11.525 C18.354,12.207 17.859,12.592 17.067,12.592 C16.385,12.592 15.813,12.284 15.23,11.756 L14.207,12.977 C14.955,13.692 15.857,14.132 17.089,14.132 Z" id="05" fill="#FFFFFF"></path>
            <path d="M8.5,28.5 L19.011898,17.988102" id="Line-Copy-4" stroke="#FFFFFF" stroke-linecap="square"></path>
        </g>
    </g>
</svg>