<?xml version="1.0" encoding="UTF-8"?>
<svg width="39px" height="51px" viewBox="0 0 39 51" version="1.1" xmlns="http://www.w3.org/2000/svg" xmlns:xlink="http://www.w3.org/1999/xlink">
    <!-- Generator: Sketch 47.1 (45422) - http://www.bohemiancoding.com/sketch -->
    <title>05_tab</title>
    <desc>Created with Sketch.</desc>
    <defs></defs>
    <g id="Symbols" stroke="none" stroke-width="1" fill="none" fill-rule="evenodd">
        <g id="05_tab">
            <g id="Group">
                <path d="M39,33.8700577 L39,0 L0,0 L0,51 L21.8700577,51 L39,33.8700577 Z" id="Combined-Shape-Copy-7" fill="#0099D8"></path>
                <path d="M9.004,14.132 C6.947,14.132 5.594,12.405 5.594,10.172 L5.594,10.15 C5.594,7.917 6.98,6.168 9.026,6.168 C11.061,6.168 12.436,7.895 12.436,10.128 L12.436,10.15 C12.436,12.383 11.061,14.132 9.004,14.132 Z M9.026,12.603 C10.049,12.603 10.698,11.569 10.698,10.172 L10.698,10.15 C10.698,8.753 10.016,7.697 9.004,7.697 C7.992,7.697 7.332,8.72 7.332,10.128 L7.332,10.15 C7.332,11.558 8.003,12.603 9.026,12.603 Z M17.089,14.132 C18.86,14.132 20.015,13.098 20.015,11.47 L20.015,11.448 C20.015,9.71 18.816,8.984 17.32,8.984 C16.891,8.984 16.616,9.039 16.308,9.116 L16.396,7.785 L19.674,7.785 L19.674,6.3 L14.944,6.3 L14.724,10.095 L15.703,10.744 C16.066,10.59 16.506,10.458 16.99,10.458 C17.793,10.458 18.354,10.843 18.354,11.503 L18.354,11.525 C18.354,12.207 17.859,12.592 17.067,12.592 C16.385,12.592 15.813,12.284 15.23,11.756 L14.207,12.977 C14.955,13.692 15.857,14.132 17.089,14.132 Z" id="05" fill="#FFFFFF"></path>
                <path d="M8.5,28.5 L19.011898,17.988102" id="Line-Copy-8" stroke="#FFFFFF" stroke-linecap="square"></path>
            </g>
        </g>
    </g>
</svg>