<?xml version="1.0" encoding="UTF-8"?>
<svg width="85px" height="85px" viewBox="0 0 85 85" version="1.1" xmlns="http://www.w3.org/2000/svg" xmlns:xlink="http://www.w3.org/1999/xlink">
    <!-- Generator: Sketch 47.1 (45422) - http://www.bohemiancoding.com/sketch -->
    <title>1st_triangle</title>
    <desc>Created with Sketch.</desc>
    <defs>
        <path d="M84.4232127,-1 L0,-1 L0,83.4232127 C12.6738476,43.3308731 44.3308731,11.6738476 84.4232127,-1 Z" id="path-1"></path>
    </defs>
    <g id="Symbols" stroke="none" stroke-width="1" fill="none" fill-rule="evenodd">
        <g id="1st_triangle">
            <g id="Dogear" transform="translate(0.000000, 1.000000)">
                <mask id="mask-2" fill="white">
                    <use xlink:href="#path-1"></use>
                </mask>
                <use id="Combined-Shape-Copy-4" fill="#003057" xlink:href="#path-1"></use>
                <path d="M10.08,20.1 L13.12,20.1 L13.12,6 L11.02,6 L7,7.2 L7.64,9.72 L10.08,9.12 L10.08,20.1 Z M20.08,20.3 C22.4,20.3 24.18,19.22 24.18,16.84 L24.18,16.8 C24.18,14.84 22.44,14.12 20.94,13.62 C19.78,13.22 18.76,12.94 18.76,12.34 L18.76,12.3 C18.76,11.88 19.14,11.56 19.88,11.56 C20.66,11.56 21.72,11.94 22.78,12.56 L23.94,10.46 C22.78,9.68 21.3,9.22 19.94,9.22 C17.78,9.22 16.02,10.44 16.02,12.62 L16.02,12.66 C16.02,14.74 17.72,15.44 19.22,15.88 C20.4,16.24 21.44,16.46 21.44,17.12 L21.44,17.16 C21.44,17.64 21.04,17.96 20.16,17.96 C19.16,17.96 17.94,17.52 16.78,16.68 L15.48,18.68 C16.9,19.8 18.58,20.3 20.08,20.3 Z M29.78,20.28 C30.8,20.28 31.54,20.04 32.18,19.66 L32.18,17.22 C31.74,17.46 31.24,17.6 30.68,17.6 C30,17.6 29.7,17.26 29.7,16.56 L29.7,11.98 L32.22,11.98 L32.22,9.38 L29.7,9.38 L29.7,6.64 L26.66,6.64 L26.66,9.38 L25.38,9.38 L25.38,11.98 L26.66,11.98 L26.66,17.06 C26.66,19.54 27.92,20.28 29.78,20.28 Z" id="1st-copy" fill="#FFFFFF" mask="url(#mask-2)"></path>
            </g>
        </g>
    </g>
</svg>