<?xml version="1.0" encoding="UTF-8"?>
<svg width="63px" height="63px" viewBox="0 0 63 63" version="1.1" xmlns="http://www.w3.org/2000/svg" xmlns:xlink="http://www.w3.org/1999/xlink">
    <!-- Generator: Sketch 47.1 (45422) - http://www.bohemiancoding.com/sketch -->
    <title>2nd_triangle</title>
    <desc>Created with Sketch.</desc>
    <defs></defs>
    <g id="Symbols" stroke="none" stroke-width="1" fill="none" fill-rule="evenodd">
        <g id="2nd_triangle">
            <g id="Group-12">
                <path d="M62.3630798,0 L0,0 L0,62.3630877 C6.95478504,31.3606934 31.3606869,6.95478889 62.3630798,-1.01461062e-11 Z" id="Combined-Shape" fill="#003057"></path>
                <path d="M4.686,14.6448649 L11.686,14.6448649 L11.686,12.8475676 L7.56437838,12.8475676 L9.10491892,11.6583784 C10.7805946,10.3610811 11.5914054,9.5772973 11.5914054,7.99621622 L11.5914054,7.96918919 C11.5914054,6.19891892 10.2941081,5.05027027 8.33464865,5.05027027 C6.64545946,5.05027027 5.74005405,5.73945946 4.80762162,7.00972973 L6.26708108,8.18540541 C6.96978378,7.32054054 7.46978378,6.91513514 8.19951351,6.91513514 C8.94275676,6.91513514 9.46978378,7.34756757 9.46978378,8.14486486 C9.46978378,8.92864865 9.01032432,9.44216216 7.83464865,10.4151351 L4.686,12.9962162 L4.686,14.6448649 Z M12.3964247,14.6448649 L14.4504788,14.6448649 L14.4504788,10.6043243 C14.4504788,9.63135135 14.9504788,9.13135135 15.7342625,9.13135135 C16.5180463,9.13135135 16.9775058,9.63135135 16.9775058,10.6043243 L16.9775058,14.6448649 L19.0315598,14.6448649 L19.0315598,9.95567568 C19.0315598,8.29351351 18.1261544,7.26648649 16.5721004,7.26648649 C15.5315598,7.26648649 14.9234517,7.82054054 14.4504788,8.42864865 L14.4504788,7.40162162 L12.3964247,7.40162162 L12.3964247,14.6448649 Z M22.8230656,14.78 C21.1338764,14.78 19.5257683,13.4556757 19.5257683,11.0367568 L19.5257683,11.0097297 C19.5257683,8.59081081 21.1068494,7.26648649 22.8230656,7.26648649 C23.9176602,7.26648649 24.5933359,7.76648649 25.0798224,8.34756757 L25.0798224,4.78 L27.1338764,4.78 L27.1338764,14.6448649 L25.0798224,14.6448649 L25.0798224,13.6043243 C24.5798224,14.28 23.8906332,14.78 22.8230656,14.78 Z M23.3500927,13.0367568 C24.3095521,13.0367568 25.1068494,12.2394595 25.1068494,11.0367568 L25.1068494,11.0097297 C25.1068494,9.80702703 24.3095521,9.00972973 23.3500927,9.00972973 C22.3906332,9.00972973 21.5798224,9.79351351 21.5798224,11.0097297 L21.5798224,11.0367568 C21.5798224,12.2394595 22.3906332,13.0367568 23.3500927,13.0367568 Z" id="2nd" fill="#FFFFFF"></path>
            </g>
        </g>
    </g>
</svg>