<?xml version="1.0" encoding="UTF-8"?>
<svg width="63px" height="63px" viewBox="0 0 63 63" version="1.1" xmlns="http://www.w3.org/2000/svg" xmlns:xlink="http://www.w3.org/1999/xlink">
    <!-- Generator: Sketch 47.1 (45422) - http://www.bohemiancoding.com/sketch -->
    <title>3rd_triangle</title>
    <desc>Created with Sketch.</desc>
    <defs></defs>
    <g id="Symbols" stroke="none" stroke-width="1" fill="none" fill-rule="evenodd">
        <g id="3rd_triangle">
            <g id="Group-13">
                <path d="M62.3630798,0 L0,0 L0,62.3630877 C6.95478504,31.3606934 31.3606869,6.95478889 62.3630798,-1.01461062e-11 Z" id="Combined-Shape-Copy-2" fill="#003057"></path>
                <path d="M8.21124528,14.78 C10.3136712,14.78 11.6074717,13.4727224 11.6074717,11.6937466 L11.6074717,11.6667925 C11.6074717,9.91477089 10.3541024,9.24091644 9.07377898,9.02528302 L11.4592237,6.74765499 L11.4592237,5.18431267 L5.08456065,5.18431267 L5.08456065,6.96328841 L8.79076011,6.96328841 L6.54008625,9.22743935 L6.86353639,10.5481941 L7.72607008,10.5481941 C8.88509973,10.5481941 9.57243127,10.9794609 9.57243127,11.747655 L9.57243127,11.7746092 C9.57243127,12.4754178 9.01987062,12.9201617 8.23819946,12.9201617 C7.28132615,12.9201617 6.6074717,12.5158491 5.96057143,11.7880863 L4.532,13.1492722 C5.34062534,14.1061456 6.51313208,14.78 8.21124528,14.78 Z M12.3429357,14.6182749 L12.3429357,7.39455526 L14.3914532,7.39455526 L14.3914532,8.85008086 C14.809243,7.85277628 15.4830974,7.20587601 16.6960354,7.25978437 L16.6960354,9.40264151 L16.5882187,9.40264151 C15.2270327,9.40264151 14.3914532,10.2247439 14.3914532,11.9498113 L14.3914532,14.6182749 L12.3429357,14.6182749 Z M19.8438983,14.7530458 C18.1592622,14.7530458 16.5554886,13.4322911 16.5554886,11.0198922 L16.5554886,10.992938 C16.5554886,8.58053908 18.132308,7.25978437 19.8438983,7.25978437 C20.9355425,7.25978437 21.609397,7.75843666 22.0945722,8.33795148 L22.0945722,4.78 L24.1430897,4.78 L24.1430897,14.6182749 L22.0945722,14.6182749 L22.0945722,13.5805391 C21.5959199,14.2543935 20.9085884,14.7530458 19.8438983,14.7530458 Z M20.3695048,13.0145013 C21.3263781,13.0145013 22.1215264,12.2193531 22.1215264,11.0198922 L22.1215264,10.992938 C22.1215264,9.79347709 21.3263781,8.99832884 20.3695048,8.99832884 C19.4126315,8.99832884 18.6040062,9.78 18.6040062,10.992938 L18.6040062,11.0198922 C18.6040062,12.2193531 19.4126315,13.0145013 20.3695048,13.0145013 Z" id="3rd" fill="#FFFFFF"></path>
            </g>
        </g>
    </g>
</svg>