<?xml version="1.0" encoding="UTF-8"?>
<svg width="63px" height="63px" viewBox="0 0 63 63" version="1.1" xmlns="http://www.w3.org/2000/svg" xmlns:xlink="http://www.w3.org/1999/xlink">
    <!-- Generator: Sketch 47.1 (45422) - http://www.bohemiancoding.com/sketch -->
    <title>4th_triangle</title>
    <desc>Created with Sketch.</desc>
    <defs></defs>
    <g id="Symbols" stroke="none" stroke-width="1" fill="none" fill-rule="evenodd">
        <g id="4th_triangle">
            <g id="Group-14">
                <path d="M62.3630798,0 L0,0 L0,62.3630877 C6.95478504,31.3606934 31.3606869,6.95478889 62.3630798,-1.01461062e-11 Z" id="Combined-Shape-Copy-3" fill="#003057"></path>
                <path d="M9.4001705,14.6582138 L9.4001705,12.614912 L4.77229499,12.614912 L4.434,11.1399459 L9.6302111,5.11829499 L11.3893451,5.11829499 L11.3893451,10.9234371 L12.6613342,10.9234371 L12.6613342,12.614912 L11.3893451,12.614912 L11.3893451,14.6582138 L9.4001705,14.6582138 Z M6.88325575,10.9234371 L9.4001705,10.9234371 L9.4001705,7.97350474 L6.88325575,10.9234371 Z M15.7407852,14.78 C16.430907,14.78 16.9315836,14.6176184 17.3646012,14.3605142 L17.3646012,12.7096346 C17.0669016,12.8720162 16.7286066,12.9667388 16.3497162,12.9667388 C15.889635,12.9667388 15.686658,12.7366982 15.686658,12.2630853 L15.686658,9.16430311 L17.3916648,9.16430311 L17.3916648,7.40516915 L15.686658,7.40516915 L15.686658,5.55131258 L13.6298245,5.55131258 L13.6298245,7.40516915 L12.7637893,7.40516915 L12.7637893,9.16430311 L13.6298245,9.16430311 L13.6298245,12.6013802 C13.6298245,14.2793234 14.4823279,14.78 15.7407852,14.78 Z M17.9406692,14.6582138 L19.9975028,14.6582138 L19.9975028,10.6122057 C19.9975028,9.6379161 20.4981794,9.13723951 21.2830238,9.13723951 C22.0678682,9.13723951 22.5279494,9.6379161 22.5279494,10.6122057 L22.5279494,14.6582138 L24.5847829,14.6582138 L24.5847829,9.9626793 C24.5847829,8.29826793 23.6781523,7.26985115 22.1219954,7.26985115 C21.0800468,7.26985115 20.4711158,7.82465494 19.9975028,8.43358593 L19.9975028,4.78 L17.9406692,4.78 L17.9406692,14.6582138 Z" id="4th" fill="#FFFFFF"></path>
            </g>
        </g>
    </g>
</svg>