<?xml version="1.0" encoding="UTF-8"?>
<svg width="63px" height="63px" viewBox="0 0 63 63" version="1.1" xmlns="http://www.w3.org/2000/svg" xmlns:xlink="http://www.w3.org/1999/xlink">
    <!-- Generator: Sketch 47.1 (45422) - http://www.bohemiancoding.com/sketch -->
    <title>5th_triangle</title>
    <desc>Created with Sketch.</desc>
    <defs></defs>
    <g id="Symbols" stroke="none" stroke-width="1" fill="none" fill-rule="evenodd">
        <g id="5th_triangle">
            <g id="Group-15">
                <path d="M62.3630798,0 L0,0 L0,62.3630877 C6.95478504,31.3606934 31.3606869,6.95478889 62.3630798,-1.01461062e-11 Z" id="Combined-Shape-Copy-8" fill="#003057"></path>
                <path d="M8.1329973,14.78 C10.3028086,14.78 11.717903,13.5131536 11.717903,11.5185445 L11.717903,11.4915903 C11.717903,9.36221024 10.2489003,8.47272237 8.41601617,8.47272237 C7.8904097,8.47272237 7.55348248,8.54010782 7.17612399,8.63444744 L7.2839407,7.00371968 L11.3001132,7.00371968 L11.3001132,5.18431267 L5.50496496,5.18431267 L5.23542318,9.83390836 L6.4348841,10.6290566 C6.87962803,10.4403774 7.41871159,10.2786523 8.0117035,10.2786523 C8.995531,10.2786523 9.68286253,10.7503504 9.68286253,11.5589757 L9.68286253,11.5859299 C9.68286253,12.4215094 9.07639353,12.8932075 8.10604313,12.8932075 C7.27046361,12.8932075 6.56965499,12.5158491 5.85536927,11.8689488 L4.602,13.3649057 C5.51844205,14.2409164 6.62356334,14.78 8.1329973,14.78 Z M14.9061972,14.7395687 C15.5935287,14.7395687 16.092181,14.5778437 16.5234478,14.321779 L16.5234478,12.6775741 C16.2269519,12.8392992 15.8900246,12.9336388 15.5126662,12.9336388 C15.0544451,12.9336388 14.8522888,12.7045283 14.8522888,12.2328302 L14.8522888,9.14657682 L16.550402,9.14657682 L16.550402,7.39455526 L14.8522888,7.39455526 L14.8522888,5.54819407 L12.8037713,5.54819407 L12.8037713,7.39455526 L11.9412376,7.39455526 L11.9412376,9.14657682 L12.8037713,9.14657682 L12.8037713,12.5697574 C12.8037713,14.2409164 13.6528279,14.7395687 14.9061972,14.7395687 Z M17.0971868,14.6182749 L19.1457043,14.6182749 L19.1457043,10.5886253 C19.1457043,9.61827493 19.6443566,9.11962264 20.4260277,9.11962264 C21.2076989,9.11962264 21.6659199,9.61827493 21.6659199,10.5886253 L21.6659199,14.6182749 L23.7144374,14.6182749 L23.7144374,9.94172507 C23.7144374,8.28404313 22.8114725,7.25978437 21.2616072,7.25978437 C20.2238714,7.25978437 19.6174024,7.81234501 19.1457043,8.41881402 L19.1457043,4.78 L17.0971868,4.78 L17.0971868,14.6182749 Z" id="5th" fill="#FFFFFF"></path>
            </g>
        </g>
    </g>
</svg>