<?xml version="1.0" encoding="UTF-8"?>
<svg width="68px" height="68px" viewBox="0 0 68 68" version="1.1" xmlns="http://www.w3.org/2000/svg" xmlns:xlink="http://www.w3.org/1999/xlink">
    <!-- Generator: Sketch 47.1 (45422) - http://www.bohemiancoding.com/sketch -->
    <title>Group 10</title>
    <desc>Created with Sketch.</desc>
    <defs></defs>
    <g id="Leaderboard" stroke="none" stroke-width="1" fill="none" fill-rule="evenodd">
        <g transform="translate(-433.000000, -1354.000000)" id="Group-3-Copy">
            <g transform="translate(408.000000, 1329.000000)">
                <g id="Group-16">
                    <g id="Group-6">
                        <g id="Group-10" transform="translate(25.000000, 25.000000)">
                            <path d="M68,0 L0,0 L0,68 C5.49324748,33.0785998 33.0785998,5.49324748 68,-6.19060359e-13 Z" id="Combined-Shape" fill="#003057"></path>
                            <path d="M9.085,17.18 C7.72,17.18 6.79,16.79 6.055,16.055 C5.29,15.29 4.81,14.165 4.81,12.08 L4.81,12.05 C4.81,8.81 6.28,6.32 9.415,6.32 C10.84,6.32 11.77,6.74 12.7,7.475 L11.485,9.26 C10.795,8.735 10.24,8.42 9.34,8.42 C8.035,8.42 7.375,9.47 7.225,10.85 C7.75,10.505 8.365,10.175 9.4,10.175 C11.485,10.175 13.09,11.33 13.09,13.52 L13.09,13.55 C13.09,15.695 11.365,17.18 9.085,17.18 Z M8.995,15.2 C10.135,15.2 10.795,14.555 10.795,13.655 L10.795,13.625 C10.795,12.74 10.105,12.095 8.965,12.095 C7.825,12.095 7.165,12.725 7.165,13.61 L7.165,13.64 C7.165,14.525 7.855,15.2 8.995,15.2 Z M17.265,17.135 C18.03,17.135 18.585,16.955 19.065,16.67 L19.065,14.84 C18.735,15.02 18.36,15.125 17.94,15.125 C17.43,15.125 17.205,14.87 17.205,14.345 L17.205,10.91 L19.095,10.91 L19.095,8.96 L17.205,8.96 L17.205,6.905 L14.925,6.905 L14.925,8.96 L13.965,8.96 L13.965,10.91 L14.925,10.91 L14.925,14.72 C14.925,16.58 15.87,17.135 17.265,17.135 Z M20.375,17 L22.655,17 L22.655,12.515 C22.655,11.435 23.21,10.88 24.08,10.88 C24.95,10.88 25.46,11.435 25.46,12.515 L25.46,17 L27.74,17 L27.74,11.795 C27.74,9.95 26.735,8.81 25.01,8.81 C23.855,8.81 23.18,9.425 22.655,10.1 L22.655,6.05 L20.375,6.05 L20.375,17 Z" id="6th" fill="#FFFFFF"></path>
                        </g>
                    </g>
                </g>
            </g>
        </g>
    </g>
</svg>