<?xml version="1.0" encoding="UTF-8"?>
<svg width="68px" height="68px" viewBox="0 0 68 68" version="1.1" xmlns="http://www.w3.org/2000/svg" xmlns:xlink="http://www.w3.org/1999/xlink">
    <!-- Generator: Sketch 47.1 (45422) - http://www.bohemiancoding.com/sketch -->
    <title>Group 10</title>
    <desc>Created with Sketch.</desc>
    <defs></defs>
    <g id="Leaderboard" stroke="none" stroke-width="1" fill="none" fill-rule="evenodd">
        <g transform="translate(-433.000000, -1354.000000)" id="Group-3-Copy">
            <g transform="translate(408.000000, 1329.000000)">
                <g id="Group-16">
                    <g id="Group-6">
                        <g id="Group-10" transform="translate(25.000000, 25.000000)">
                            <path d="M68,0 L0,0 L0,68 C5.49324748,33.0785998 33.0785998,5.49324748 68,-6.19060359e-13 Z" id="Combined-Shape" fill="#003057"></path>
                            <path d="M5.26,17 L7.87,17 L12.58,8.24 L12.58,6.5 L5.02,6.5 L5.02,8.495 L9.955,8.495 L5.26,17 Z M16.62,17.135 C17.385,17.135 17.94,16.955 18.42,16.67 L18.42,14.84 C18.09,15.02 17.715,15.125 17.295,15.125 C16.785,15.125 16.56,14.87 16.56,14.345 L16.56,10.91 L18.45,10.91 L18.45,8.96 L16.56,8.96 L16.56,6.905 L14.28,6.905 L14.28,8.96 L13.32,8.96 L13.32,10.91 L14.28,10.91 L14.28,14.72 C14.28,16.58 15.225,17.135 16.62,17.135 Z M19.73,17 L22.01,17 L22.01,12.515 C22.01,11.435 22.565,10.88 23.435,10.88 C24.305,10.88 24.815,11.435 24.815,12.515 L24.815,17 L27.095,17 L27.095,11.795 C27.095,9.95 26.09,8.81 24.365,8.81 C23.21,8.81 22.535,9.425 22.01,10.1 L22.01,6.05 L19.73,6.05 L19.73,17 Z" id="7th" fill="#FFFFFF"></path>
                        </g>
                    </g>
                </g>
            </g>
        </g>
    </g>
</svg>