<?xml version="1.0" encoding="UTF-8"?>
<svg width="68px" height="68px" viewBox="0 0 68 68" version="1.1" xmlns="http://www.w3.org/2000/svg" xmlns:xlink="http://www.w3.org/1999/xlink">
    <!-- Generator: Sketch 47.1 (45422) - http://www.bohemiancoding.com/sketch -->
    <title>Group 10</title>
    <desc>Created with Sketch.</desc>
    <defs></defs>
    <g id="Leaderboard" stroke="none" stroke-width="1" fill="none" fill-rule="evenodd">
        <g transform="translate(-433.000000, -1354.000000)" id="Group-3-Copy">
            <g transform="translate(408.000000, 1329.000000)">
                <g id="Group-16">
                    <g id="Group-6">
                        <g id="Group-10" transform="translate(25.000000, 25.000000)">
                            <path d="M68,0 L0,0 L0,68 C5.49324748,33.0785998 33.0785998,5.49324748 68,-6.19060359e-13 Z" id="Combined-Shape" fill="#003057"></path>
                            <path d="M8.725,17.15 C6.4,17.15 4.675,15.95 4.675,14.12 L4.675,14.09 C4.675,12.815 5.26,12.065 6.37,11.555 C5.56,11.06 5.035,10.385 5.035,9.26 L5.035,9.23 C5.035,7.625 6.505,6.35 8.725,6.35 C10.945,6.35 12.415,7.61 12.415,9.23 L12.415,9.26 C12.415,10.385 11.89,11.06 11.08,11.555 C12.145,12.11 12.775,12.785 12.775,14.03 L12.775,14.06 C12.775,16.01 11.05,17.15 8.725,17.15 Z M8.725,10.79 C9.64,10.79 10.225,10.25 10.225,9.515 L10.225,9.485 C10.225,8.84 9.67,8.255 8.725,8.255 C7.78,8.255 7.225,8.825 7.225,9.47 L7.225,9.5 C7.225,10.235 7.81,10.79 8.725,10.79 Z M8.725,15.245 C9.865,15.245 10.54,14.675 10.54,13.94 L10.54,13.91 C10.54,13.1 9.775,12.62 8.725,12.62 C7.675,12.62 6.91,13.1 6.91,13.91 L6.91,13.94 C6.91,14.66 7.585,15.245 8.725,15.245 Z M16.785,17.135 C17.55,17.135 18.105,16.955 18.585,16.67 L18.585,14.84 C18.255,15.02 17.88,15.125 17.46,15.125 C16.95,15.125 16.725,14.87 16.725,14.345 L16.725,10.91 L18.615,10.91 L18.615,8.96 L16.725,8.96 L16.725,6.905 L14.445,6.905 L14.445,8.96 L13.485,8.96 L13.485,10.91 L14.445,10.91 L14.445,14.72 C14.445,16.58 15.39,17.135 16.785,17.135 Z M19.895,17 L22.175,17 L22.175,12.515 C22.175,11.435 22.73,10.88 23.6,10.88 C24.47,10.88 24.98,11.435 24.98,12.515 L24.98,17 L27.26,17 L27.26,11.795 C27.26,9.95 26.255,8.81 24.53,8.81 C23.375,8.81 22.7,9.425 22.175,10.1 L22.175,6.05 L19.895,6.05 L19.895,17 Z" id="8th" fill="#FFFFFF"></path>
                        </g>
                    </g>
                </g>
            </g>
        </g>
    </g>
</svg>