<?xml version="1.0" encoding="UTF-8"?>
<svg width="97px" height="11px" viewBox="0 0 97 11" version="1.1" xmlns="http://www.w3.org/2000/svg" xmlns:xlink="http://www.w3.org/1999/xlink">
    <!-- Generator: Sketch 47.1 (45422) - http://www.bohemiancoding.com/sketch -->
    <title>continue_read_button</title>
    <desc>Created with Sketch.</desc>
    <defs></defs>
    <g id="Symbols" stroke="none" stroke-width="1" fill="none" fill-rule="evenodd">
        <g id="continue_read_button" fill="#003057">
            <polygon id="Triangle-2" points="95 5.5 90 10 90 1"></polygon>
            <path d="M4.51,8.42 C5.78,8.42 6.58,7.93 7.31,7.19 L6.79,6.68 C6.12,7.32 5.49,7.69 4.53,7.69 C2.99,7.69 1.82,6.42 1.82,4.8 L1.82,4.78 C1.82,3.17 2.98,1.91 4.53,1.91 C5.48,1.91 6.14,2.31 6.73,2.87 L7.27,2.29 C6.57,1.63 5.81,1.18 4.54,1.18 C2.48,1.18 1,2.82 1,4.8 L1,4.82 C1,6.83 2.49,8.42 4.51,8.42 Z M10.82,8.42 C9.27,8.42 8.14,7.2 8.14,5.74 L8.14,5.72 C8.14,4.26 9.28,3.02 10.84,3.02 C12.39,3.02 13.53,4.24 13.53,5.7 L13.53,5.72 C13.53,7.18 12.38,8.42 10.82,8.42 Z M10.84,7.73 C11.96,7.73 12.74,6.83 12.74,5.74 L12.74,5.72 C12.74,4.61 11.91,3.7 10.82,3.7 C9.7,3.7 8.93,4.61 8.93,5.7 L8.93,5.72 C8.93,6.83 9.75,7.73 10.84,7.73 Z M14.92,8.3 L15.69,8.3 L15.69,5.34 C15.69,4.37 16.35,3.72 17.24,3.72 C18.15,3.72 18.67,4.32 18.67,5.28 L18.67,8.3 L19.44,8.3 L19.44,5.09 C19.44,3.86 18.71,3.02 17.46,3.02 C16.57,3.02 16.03,3.47 15.69,4.03 L15.69,3.13 L14.92,3.13 L14.92,8.3 Z M22.81,8.39 C23.18,8.39 23.47,8.31 23.74,8.17 L23.74,7.51 C23.47,7.64 23.25,7.69 22.99,7.69 C22.47,7.69 22.12,7.46 22.12,6.83 L22.12,3.81 L23.76,3.81 L23.76,3.13 L22.12,3.13 L22.12,1.57 L21.35,1.57 L21.35,3.13 L20.63,3.13 L20.63,3.81 L21.35,3.81 L21.35,6.93 C21.35,7.98 21.98,8.39 22.81,8.39 Z M25.14,2 L26.02,2 L26.02,1.15 L25.14,1.15 L25.14,2 Z M25.19,8.3 L25.96,8.3 L25.96,3.13 L25.19,3.13 L25.19,8.3 Z M27.75,8.3 L28.52,8.3 L28.52,5.34 C28.52,4.37 29.18,3.72 30.07,3.72 C30.98,3.72 31.5,4.32 31.5,5.28 L31.5,8.3 L32.27,8.3 L32.27,5.09 C32.27,3.86 31.54,3.02 30.29,3.02 C29.4,3.02 28.86,3.47 28.52,4.03 L28.52,3.13 L27.75,3.13 L27.75,8.3 Z M35.81,8.41 C36.7,8.41 37.23,7.96 37.58,7.4 L37.58,8.3 L38.34,8.3 L38.34,3.13 L37.58,3.13 L37.58,6.09 C37.58,7.06 36.91,7.71 36.03,7.71 C35.12,7.71 34.6,7.11 34.6,6.15 L34.6,3.13 L33.83,3.13 L33.83,6.34 C33.83,7.57 34.56,8.41 35.81,8.41 Z M42.33,8.42 C40.91,8.42 39.75,7.33 39.75,5.73 L39.75,5.71 C39.75,4.22 40.8,3.02 42.23,3.02 C43.76,3.02 44.64,4.24 44.64,5.75 C44.64,5.85 44.64,5.91 44.63,6 L40.53,6 C40.64,7.12 41.43,7.75 42.35,7.75 C43.06,7.75 43.56,7.46 43.98,7.02 L44.46,7.45 C43.94,8.03 43.31,8.42 42.33,8.42 Z M40.53,5.43 L43.86,5.43 C43.78,4.49 43.24,3.67 42.21,3.67 C41.31,3.67 40.63,4.42 40.53,5.43 Z M48.99,8.3 L49.76,8.3 L49.76,6.24 C49.76,4.68 50.68,3.87 51.81,3.87 L51.87,3.87 L51.87,3.04 C50.89,3 50.14,3.62 49.76,4.48 L49.76,3.13 L48.99,3.13 L48.99,8.3 Z M55.08,8.42 C53.66,8.42 52.5,7.33 52.5,5.73 L52.5,5.71 C52.5,4.22 53.55,3.02 54.98,3.02 C56.51,3.02 57.39,4.24 57.39,5.75 C57.39,5.85 57.39,5.91 57.38,6 L53.28,6 C53.39,7.12 54.18,7.75 55.1,7.75 C55.81,7.75 56.31,7.46 56.73,7.02 L57.21,7.45 C56.69,8.03 56.06,8.42 55.08,8.42 Z M53.28,5.43 L56.61,5.43 C56.53,4.49 55.99,3.67 54.96,3.67 C54.06,3.67 53.38,4.42 53.28,5.43 Z M60.28,8.41 C59.32,8.41 58.35,7.86 58.35,6.8 L58.35,6.78 C58.35,5.69 59.25,5.11 60.56,5.11 C61.22,5.11 61.69,5.2 62.15,5.33 L62.15,5.15 C62.15,4.22 61.58,3.74 60.61,3.74 C60,3.74 59.52,3.9 59.04,4.12 L58.81,3.49 C59.38,3.23 59.94,3.06 60.69,3.06 C61.42,3.06 61.98,3.25 62.36,3.63 C62.71,3.98 62.89,4.48 62.89,5.14 L62.89,8.3 L62.15,8.3 L62.15,7.52 C61.79,7.99 61.19,8.41 60.28,8.41 Z M60.43,7.8 C61.38,7.8 62.16,7.22 62.16,6.4 L62.16,5.9 C61.78,5.79 61.27,5.68 60.64,5.68 C59.67,5.68 59.13,6.1 59.13,6.75 L59.13,6.77 C59.13,7.42 59.73,7.8 60.43,7.8 Z M66.7,8.41 C65.46,8.41 64.23,7.43 64.23,5.73 L64.23,5.71 C64.23,4.02 65.46,3.02 66.7,3.02 C67.66,3.02 68.28,3.54 68.68,4.12 L68.68,1 L69.45,1 L69.45,8.3 L68.68,8.3 L68.68,7.26 C68.26,7.88 67.65,8.41 66.7,8.41 Z M66.84,7.72 C67.8,7.72 68.71,6.91 68.71,5.72 L68.71,5.7 C68.71,4.51 67.8,3.71 66.84,3.71 C65.84,3.71 65.02,4.45 65.02,5.7 L65.02,5.72 C65.02,6.94 65.87,7.72 66.84,7.72 Z M71.19,2 L72.07,2 L72.07,1.15 L71.19,1.15 L71.19,2 Z M71.24,8.3 L72.01,8.3 L72.01,3.13 L71.24,3.13 L71.24,8.3 Z M73.8,8.3 L74.57,8.3 L74.57,5.34 C74.57,4.37 75.23,3.72 76.12,3.72 C77.03,3.72 77.55,4.32 77.55,5.28 L77.55,8.3 L78.32,8.3 L78.32,5.09 C78.32,3.86 77.59,3.02 76.34,3.02 C75.45,3.02 74.91,3.47 74.57,4.03 L74.57,3.13 L73.8,3.13 L73.8,8.3 Z M82.25,9.92 C81.39,9.92 80.59,9.68 79.9,9.2 L80.25,8.6 C80.84,9.03 81.5,9.26 82.24,9.26 C83.38,9.26 84.12,8.63 84.12,7.42 L84.12,6.81 C83.67,7.41 83.04,7.9 82.09,7.9 C80.85,7.9 79.66,6.97 79.66,5.48 L79.66,5.46 C79.66,3.95 80.86,3.02 82.09,3.02 C83.06,3.02 83.69,3.5 84.11,4.06 L84.11,3.13 L84.88,3.13 L84.88,7.4 C84.88,8.2 84.64,8.81 84.22,9.23 C83.76,9.69 83.07,9.92 82.25,9.92 Z M82.24,7.22 C83.22,7.22 84.14,6.51 84.14,5.47 L84.14,5.45 C84.14,4.39 83.22,3.7 82.24,3.7 C81.26,3.7 80.45,4.38 80.45,5.44 L80.45,5.46 C80.45,6.5 81.28,7.22 82.24,7.22 Z" id="Continue-reading"></path>
        </g>
    </g>
</svg>