<?xml version="1.0" encoding="UTF-8"?>
<svg width="47px" height="38px" viewBox="0 0 47 38" version="1.1" xmlns="http://www.w3.org/2000/svg" xmlns:xlink="http://www.w3.org/1999/xlink">
    <!-- Generator: Sketch 47.1 (45422) - http://www.bohemiancoding.com/sketch -->
    <title>standings</title>
    <desc>Created with Sketch.</desc>
    <defs></defs>
    <g id="Symbols" stroke="none" stroke-width="1" fill="none" fill-rule="evenodd">
        <g id="standings" fill="#FFFFFF">
            <g id="Standings" transform="translate(1.000000, 1.000000)">
                <g id="Group-2" transform="translate(15.000000, 0.000000)">
                    <g id="Group" transform="translate(2.000000, 0.000000)">
                        <circle id="Oval" cx="6" cy="3" r="3"></circle>
                        <path d="M9.04613385,16.4451039 L11,16.4451039 L9.07017544,6 L1.92982456,6 L0,16.4451039 L1.95386615,16.4451039 L3.37231969,28 L7.62768031,28 L9.04613385,16.4451039 Z" id="Combined-Shape"></path>
                    </g>
                    <rect id="Rectangle-4" x="0" y="28" width="15" height="8"></rect>
                </g>
                <g id="Group-2-Copy-2" transform="translate(0.000000, 2.000000)">
                    <g id="Group" transform="translate(2.000000, 0.000000)">
                        <circle id="Oval" cx="6" cy="3" r="3"></circle>
                        <path d="M9.04613385,16.4451039 L11,16.4451039 L9.07017544,6 L1.92982456,6 L0,16.4451039 L1.95386615,16.4451039 L3.37231969,28 L7.62768031,28 L9.04613385,16.4451039 Z" id="Combined-Shape"></path>
                    </g>
                    <rect id="Rectangle-4" x="0" y="28" width="15" height="6"></rect>
                </g>
                <g id="Group-2-Copy" transform="translate(30.000000, 4.000000)">
                    <g id="Group" transform="translate(2.000000, 0.000000)">
                        <circle id="Oval" cx="6" cy="3" r="3"></circle>
                        <path d="M9.04613385,16.4451039 L11,16.4451039 L9.07017544,6 L1.92982456,6 L0,16.4451039 L1.95386615,16.4451039 L3.37231969,28 L7.62768031,28 L9.04613385,16.4451039 Z" id="Combined-Shape"></path>
                    </g>
                    <rect id="Rectangle-4" x="0" y="28" width="15" height="4"></rect>
                </g>
            </g>
        </g>
    </g>
</svg>