<?xml version="1.0" encoding="UTF-8"?>
<svg width="47px" height="36px" viewBox="0 0 47 36" version="1.1" xmlns="http://www.w3.org/2000/svg" xmlns:xlink="http://www.w3.org/1999/xlink">
    <!-- Generator: Sketch 47.1 (45422) - http://www.bohemiancoding.com/sketch -->
    <title>overview</title>
    <desc>Created with Sketch.</desc>
    <defs></defs>
    <g id="Symbols" stroke="none" stroke-width="1" fill="none" fill-rule="evenodd">
        <g id="overview">
            <g id="Overview" transform="translate(1.000000, 1.000000)">
                <g id="overview" transform="translate(0.000000, 8.058824)">
                    <path d="M3.01736414e-12,12.5 C4.36607291,5.04888172 12.8053111,3.55271368e-15 22.5,3.55271368e-15 C32.1946889,3.55271368e-15 40.6339271,5.04888172 45,12.5 C40.6339271,19.9511183 32.1946889,25 22.5,25 C12.8053111,25 4.36607291,19.9511183 -2.58215671e-12,12.5 Z" id="Combined-Shape" fill="#FFFFFF"></path>
                    <path d="M12.9396266,6.10649472 C11.7145492,7.93475715 11,10.1339326 11,12.5 C11,18.8512746 16.1487254,24 22.5,24 C28.8512746,24 34,18.8512746 34,12.5 C34,6.14872538 28.8512746,1 22.5,1 C21.4806714,1 20.4923176,1.1326192 19.5512518,1.3815445 C21.0622079,2.13555502 22.1,3.69658285 22.1,5.5 C22.1,8.04050985 20.0405098,10.1 17.5,10.1 C15.1650841,10.1 13.2364839,8.36035584 12.9396266,6.10649472 Z" id="Combined-Shape" fill="#0099D8"></path>
                </g>
                <polygon id="Rectangle-5" fill="#FFFFFF" points="3 0 43 0 43 4 3 4"></polygon>
            </g>
        </g>
    </g>
</svg>