<?xml version="1.0" encoding="UTF-8"?>
<svg width="47px" height="17px" viewBox="0 0 47 17" version="1.1" xmlns="http://www.w3.org/2000/svg" xmlns:xlink="http://www.w3.org/1999/xlink">
    <!-- Generator: Sketch 47.1 (45422) - http://www.bohemiancoding.com/sketch -->
    <title>show_more</title>
    <desc>Created with Sketch.</desc>
    <defs></defs>
    <g id="Symbols" stroke="none" stroke-width="1" fill="none" fill-rule="evenodd">
        <g id="show_more" fill="#003057">
            <g id="Group-3" transform="translate(41.500000, 9.500000) rotate(-360.000000) translate(-41.500000, -9.500000) translate(37.000000, 3.000000)">
                <polygon id="Triangle-2" transform="translate(4.500000, 9.966667) rotate(-270.000000) translate(-4.500000, -9.966667) " points="7.36363636 9.96666667 1.63636364 14.7333333 1.63636364 5.2"></polygon>
                <rect id="Rectangle-14" x="0" y="3.46666667" width="9" height="1.73333333"></rect>
                <rect id="Rectangle-14-Copy" x="0" y="0" width="9" height="1.73333333"></rect>
            </g>
            <path d="M1,13.8 L2.078,13.8 L2.078,5.876 L5.648,11.112 L5.704,11.112 L9.274,5.862 L9.274,13.8 L10.38,13.8 L10.38,4 L9.26,4 L5.69,9.348 L2.12,4 L1,4 L1,13.8 Z M16.274,13.968 C14.104,13.968 12.522,12.26 12.522,10.216 L12.522,10.188 C12.522,8.144 14.118,6.408 16.302,6.408 C18.472,6.408 20.068,8.116 20.068,10.16 L20.068,10.188 C20.068,12.232 18.458,13.968 16.274,13.968 Z M16.302,13.002 C17.87,13.002 18.962,11.742 18.962,10.216 L18.962,10.188 C18.962,8.634 17.8,7.36 16.274,7.36 C14.706,7.36 13.628,8.634 13.628,10.16 L13.628,10.188 C13.628,11.742 14.776,13.002 16.302,13.002 Z M22.014,13.8 L23.092,13.8 L23.092,10.916 C23.092,8.732 24.38,7.598 25.962,7.598 L26.046,7.598 L26.046,6.436 C24.674,6.38 23.624,7.248 23.092,8.452 L23.092,6.562 L22.014,6.562 L22.014,13.8 Z M30.54,13.968 C28.552,13.968 26.928,12.442 26.928,10.202 L26.928,10.174 C26.928,8.088 28.398,6.408 30.4,6.408 C32.542,6.408 33.774,8.116 33.774,10.23 C33.774,10.37 33.774,10.454 33.76,10.58 L28.02,10.58 C28.174,12.148 29.28,13.03 30.568,13.03 C31.562,13.03 32.262,12.624 32.85,12.008 L33.522,12.61 C32.794,13.422 31.912,13.968 30.54,13.968 Z M28.02,9.782 L32.682,9.782 C32.57,8.466 31.814,7.318 30.372,7.318 C29.112,7.318 28.16,8.368 28.02,9.782 Z" id="More"></path>
        </g>
    </g>
</svg>