<?xml version="1.0" encoding="UTF-8"?>
<svg width="41px" height="11px" viewBox="0 0 41 11" version="1.1" xmlns="http://www.w3.org/2000/svg" xmlns:xlink="http://www.w3.org/1999/xlink">
    <!-- Generator: Sketch 47.1 (45422) - http://www.bohemiancoding.com/sketch -->
    <title>show_less</title>
    <desc>Created with Sketch.</desc>
    <defs></defs>
    <g id="Symbols" stroke="none" stroke-width="1" fill="none" fill-rule="evenodd">
        <g id="show_less" fill="#003057">
            <path d="M3,8.86516854 L8.31460674,8.86516854 L8.31460674,8.04494382 L3.88764045,8.04494382 L3.88764045,1 L3,1 L3,8.86516854 Z M12.2359551,9 C10.6404494,9 9.33707865,7.7752809 9.33707865,5.97752809 L9.33707865,5.95505618 C9.33707865,4.28089888 10.5168539,2.93258427 12.1235955,2.93258427 C13.8426966,2.93258427 14.8314607,4.30337079 14.8314607,6 C14.8314607,6.11235955 14.8314607,6.17977528 14.8202247,6.28089888 L10.2134831,6.28089888 C10.3370787,7.53932584 11.2247191,8.24719101 12.258427,8.24719101 C13.0561798,8.24719101 13.6179775,7.92134831 14.0898876,7.42696629 L14.6292135,7.91011236 C14.0449438,8.56179775 13.3370787,9 12.2359551,9 Z M10.2134831,5.64044944 L13.9550562,5.64044944 C13.8651685,4.58426966 13.258427,3.66292135 12.1011236,3.66292135 C11.0898876,3.66292135 10.3258427,4.50561798 10.2134831,5.64044944 Z M18.2696629,8.97752809 C19.4269663,8.97752809 20.3370787,8.33707865 20.3370787,7.23595506 L20.3370787,7.21348315 C20.3370787,6.16853933 19.3707865,5.82022472 18.4719101,5.5505618 C17.6966292,5.31460674 16.9775281,5.1011236 16.9775281,4.5505618 L16.9775281,4.52808989 C16.9775281,4.04494382 17.4157303,3.68539326 18.1011236,3.68539326 C18.6629213,3.68539326 19.2808989,3.8988764 19.8202247,4.24719101 L20.2134831,3.59550562 C19.6179775,3.20224719 18.8314607,2.95505618 18.1235955,2.95505618 C16.9775281,2.95505618 16.1460674,3.61797753 16.1460674,4.61797753 L16.1460674,4.64044944 C16.1460674,5.70786517 17.1573034,6.02247191 18.0674157,6.28089888 C18.8314607,6.49438202 19.5168539,6.71910112 19.5168539,7.30337079 L19.5168539,7.3258427 C19.5168539,7.88764045 19.011236,8.24719101 18.3146067,8.24719101 C17.6292135,8.24719101 16.9325843,7.97752809 16.3033708,7.50561798 L15.8651685,8.12359551 C16.5168539,8.65168539 17.4382022,8.97752809 18.2696629,8.97752809 Z M23.752809,8.97752809 C24.9101124,8.97752809 25.8202247,8.33707865 25.8202247,7.23595506 L25.8202247,7.21348315 C25.8202247,6.16853933 24.8539326,5.82022472 23.9550562,5.5505618 C23.1797753,5.31460674 22.4606742,5.1011236 22.4606742,4.5505618 L22.4606742,4.52808989 C22.4606742,4.04494382 22.8988764,3.68539326 23.5842697,3.68539326 C24.1460674,3.68539326 24.7640449,3.8988764 25.3033708,4.24719101 L25.6966292,3.59550562 C25.1011236,3.20224719 24.3146067,2.95505618 23.6067416,2.95505618 C22.4606742,2.95505618 21.6292135,3.61797753 21.6292135,4.61797753 L21.6292135,4.64044944 C21.6292135,5.70786517 22.6404494,6.02247191 23.5505618,6.28089888 C24.3146067,6.49438202 25,6.71910112 25,7.30337079 L25,7.3258427 C25,7.88764045 24.494382,8.24719101 23.7977528,8.24719101 C23.1123596,8.24719101 22.4157303,7.97752809 21.7865169,7.50561798 L21.3483146,8.12359551 C22,8.65168539 22.9213483,8.97752809 23.752809,8.97752809 Z" id="Less"></path>
            <g id="Group" transform="translate(36.500000, 5.500000) rotate(180.000000) translate(-36.500000, -5.500000) translate(33.000000, 1.000000)">
                <polygon id="Triangle-2" transform="translate(3.500000, 7.396970) rotate(-630.000000) translate(-3.500000, -7.396970) " points="4.8969697 7.3969697 2.1030303 10.8969697 2.1030303 3.8969697"></polygon>
                <rect id="Rectangle-14" transform="translate(3.500000, 3.500000) rotate(-360.000000) translate(-3.500000, -3.500000) " x="0" y="3" width="7" height="1"></rect>
                <rect id="Rectangle-14-Copy" transform="translate(3.500000, 0.500000) rotate(-360.000000) translate(-3.500000, -0.500000) " x="0" y="0" width="7" height="1"></rect>
            </g>
        </g>
    </g>
</svg>