<?xml version="1.0" encoding="UTF-8"?>
<svg width="41px" height="11px" viewBox="0 0 41 11" version="1.1" xmlns="http://www.w3.org/2000/svg" xmlns:xlink="http://www.w3.org/1999/xlink">
    <!-- Generator: Sketch 47.1 (45422) - http://www.bohemiancoding.com/sketch -->
    <title>show_more</title>
    <desc>Created with Sketch.</desc>
    <defs></defs>
    <g id="Symbols" stroke="none" stroke-width="1" fill="none" fill-rule="evenodd">
        <g id="show_more" fill="#003057">
            <g id="Group" transform="translate(33.000000, 1.000000)">
                <polygon id="Triangle-2" transform="translate(3.500000, 7.396970) rotate(-630.000000) translate(-3.500000, -7.396970) " points="4.8969697 7.3969697 2.1030303 10.8969697 2.1030303 3.8969697"></polygon>
                <rect id="Rectangle-14" transform="translate(3.500000, 3.500000) rotate(-360.000000) translate(-3.500000, -3.500000) " x="0" y="3" width="7" height="1"></rect>
                <rect id="Rectangle-14-Copy" transform="translate(3.500000, 0.500000) rotate(-360.000000) translate(-3.500000, -0.500000) " x="0" y="0" width="7" height="1"></rect>
            </g>
            <path d="M1,8.86516854 L1.85519009,8.86516854 L1.85519009,2.50561798 L4.68731311,6.70786517 L4.73173857,6.70786517 L7.5638616,2.49438202 L7.5638616,8.86516854 L8.44126442,8.86516854 L8.44126442,1 L7.55275523,1 L4.72063221,5.29213483 L1.88850918,1 L1,1 L1,8.86516854 Z M13.117044,9 C11.3955575,9 10.1405382,7.62921348 10.1405382,5.98876404 L10.1405382,5.96629213 C10.1405382,4.3258427 11.4066638,2.93258427 13.1392567,2.93258427 C14.8607433,2.93258427 16.1268689,4.30337079 16.1268689,5.94382022 L16.1268689,5.96629213 C16.1268689,7.60674157 14.8496369,9 13.117044,9 Z M13.1392567,8.2247191 C14.3831696,8.2247191 15.249466,7.21348315 15.249466,5.98876404 L15.249466,5.96629213 C15.249466,4.71910112 14.3276378,3.69662921 13.117044,3.69662921 C11.8731311,3.69662921 11.0179411,4.71910112 11.0179411,5.94382022 L11.0179411,5.96629213 C11.0179411,7.21348315 11.928663,8.2247191 13.1392567,8.2247191 Z M17.6706536,8.86516854 L18.5258437,8.86516854 L18.5258437,6.5505618 C18.5258437,4.79775281 19.5476292,3.88764045 20.8026484,3.88764045 L20.8692866,3.88764045 L20.8692866,2.95505618 C19.7808629,2.91011236 18.9478855,3.60674157 18.5258437,4.57303371 L18.5258437,3.05617978 L17.6706536,3.05617978 L17.6706536,8.86516854 Z M24.4344297,9 C22.8573259,9 21.5689876,7.7752809 21.5689876,5.97752809 L21.5689876,5.95505618 C21.5689876,4.28089888 22.7351559,2.93258427 24.3233661,2.93258427 C26.0226399,2.93258427 27,4.30337079 27,6 C27,6.11235955 27,6.17977528 26.9888936,6.28089888 L22.4352841,6.28089888 C22.5574541,7.53932584 23.4348569,8.24719101 24.4566425,8.24719101 C25.2451944,8.24719101 25.8005126,7.92134831 26.2669799,7.42696629 L26.8000854,7.91011236 C26.2225545,8.56179775 25.5228535,9 24.4344297,9 Z M22.4352841,5.64044944 L26.1337035,5.64044944 C26.0448526,4.58426966 25.4451089,3.66292135 24.3011534,3.66292135 C23.3015805,3.66292135 22.5463477,4.50561798 22.4352841,5.64044944 Z" id="More"></path>
        </g>
    </g>
</svg>