<?xml version="1.0" encoding="UTF-8"?>
<svg width="47px" height="17px" viewBox="0 0 47 17" version="1.1" xmlns="http://www.w3.org/2000/svg" xmlns:xlink="http://www.w3.org/1999/xlink">
    <!-- Generator: Sketch 47.1 (45422) - http://www.bohemiancoding.com/sketch -->
    <title>show_less</title>
    <desc>Created with Sketch.</desc>
    <defs></defs>
    <g id="Symbols" stroke="none" stroke-width="1" fill="none" fill-rule="evenodd">
        <g id="show_less" fill="#003057">
            <g id="Group-3" transform="translate(41.500000, 9.500000) rotate(-180.000000) translate(-41.500000, -9.500000) translate(37.000000, 3.000000)">
                <polygon id="Triangle-2" transform="translate(4.500000, 9.966667) rotate(-270.000000) translate(-4.500000, -9.966667) " points="7.36363636 9.96666667 1.63636364 14.7333333 1.63636364 5.2"></polygon>
                <rect id="Rectangle-14" x="0" y="3.46666667" width="9" height="1.73333333"></rect>
                <rect id="Rectangle-14-Copy" x="0" y="0" width="9" height="1.73333333"></rect>
            </g>
            <path d="M3,13.8 L9.622,13.8 L9.622,12.778 L4.106,12.778 L4.106,4 L3,4 L3,13.8 Z M14.508,13.968 C12.52,13.968 10.896,12.442 10.896,10.202 L10.896,10.174 C10.896,8.088 12.366,6.408 14.368,6.408 C16.51,6.408 17.742,8.116 17.742,10.23 C17.742,10.37 17.742,10.454 17.728,10.58 L11.988,10.58 C12.142,12.148 13.248,13.03 14.536,13.03 C15.53,13.03 16.23,12.624 16.818,12.008 L17.49,12.61 C16.762,13.422 15.88,13.968 14.508,13.968 Z M11.988,9.782 L16.65,9.782 C16.538,8.466 15.782,7.318 14.34,7.318 C13.08,7.318 12.128,8.368 11.988,9.782 Z M22.026,13.94 C23.468,13.94 24.602,13.142 24.602,11.77 L24.602,11.742 C24.602,10.44 23.398,10.006 22.278,9.67 C21.312,9.376 20.416,9.11 20.416,8.424 L20.416,8.396 C20.416,7.794 20.962,7.346 21.816,7.346 C22.516,7.346 23.286,7.612 23.958,8.046 L24.448,7.234 C23.706,6.744 22.726,6.436 21.844,6.436 C20.416,6.436 19.38,7.262 19.38,8.508 L19.38,8.536 C19.38,9.866 20.64,10.258 21.774,10.58 C22.726,10.846 23.58,11.126 23.58,11.854 L23.58,11.882 C23.58,12.582 22.95,13.03 22.082,13.03 C21.228,13.03 20.36,12.694 19.576,12.106 L19.03,12.876 C19.842,13.534 20.99,13.94 22.026,13.94 Z M28.858,13.94 C30.3,13.94 31.434,13.142 31.434,11.77 L31.434,11.742 C31.434,10.44 30.23,10.006 29.11,9.67 C28.144,9.376 27.248,9.11 27.248,8.424 L27.248,8.396 C27.248,7.794 27.794,7.346 28.648,7.346 C29.348,7.346 30.118,7.612 30.79,8.046 L31.28,7.234 C30.538,6.744 29.558,6.436 28.676,6.436 C27.248,6.436 26.212,7.262 26.212,8.508 L26.212,8.536 C26.212,9.866 27.472,10.258 28.606,10.58 C29.558,10.846 30.412,11.126 30.412,11.854 L30.412,11.882 C30.412,12.582 29.782,13.03 28.914,13.03 C28.06,13.03 27.192,12.694 26.408,12.106 L25.862,12.876 C26.674,13.534 27.822,13.94 28.858,13.94 Z" id="Less"></path>
        </g>
    </g>
</svg>