<?xml version="1.0" encoding="UTF-8"?>
<svg width="105px" height="35px" viewBox="0 0 105 35" version="1.1" xmlns="http://www.w3.org/2000/svg" xmlns:xlink="http://www.w3.org/1999/xlink">
    <!-- Generator: Sketch 47.1 (45422) - http://www.bohemiancoding.com/sketch -->
    <title>ae_pdf</title>
    <desc>Created with Sketch.</desc>
    <defs></defs>
    <g id="Symbols" stroke="none" stroke-width="1" fill="none" fill-rule="evenodd">
        <g id="ae_pdf">
            <g id="Group-14" transform="translate(3.000000, 3.000000)">
                <path d="M29.42,15 L33.732,5.13 L35.328,5.13 L39.64,15 L37.82,15 L36.826,12.634 L32.192,12.634 L31.184,15 L29.42,15 Z M32.822,11.108 L36.196,11.108 L34.502,7.188 L32.822,11.108 Z M41.32,15 L48.656,15 L48.656,13.46 L43.042,13.46 L43.042,10.828 L47.956,10.828 L47.956,9.288 L43.042,9.288 L43.042,6.74 L48.586,6.74 L48.586,5.2 L41.32,5.2 L41.32,15 Z M30.26,29 L30.26,19.2 L33.914,19.2 C36.994,19.2 39.122,21.314 39.122,24.072 L39.122,24.1 C39.122,26.858 36.994,29 33.914,29 L30.26,29 Z M33.914,20.768 L31.982,20.768 L31.982,27.432 L33.914,27.432 C35.972,27.432 37.316,26.046 37.316,24.128 L37.316,24.1 C37.316,22.182 35.972,20.768 33.914,20.768 Z M44.526,29.168 C42.272,29.168 40.606,27.446 40.606,25.346 L40.606,25.318 C40.606,23.204 42.286,21.454 44.554,21.454 C46.822,21.454 48.488,23.176 48.488,25.29 L48.488,25.318 C48.488,27.418 46.808,29.168 44.526,29.168 Z M44.554,27.684 C45.926,27.684 46.794,26.62 46.794,25.346 L46.794,25.318 C46.794,24.016 45.856,22.938 44.526,22.938 C43.168,22.938 42.3,24.002 42.3,25.29 L42.3,25.318 C42.3,26.606 43.238,27.684 44.554,27.684 Z M51.638,29.056 L53.15,29.056 L54.816,24.002 L56.468,29.056 L57.994,29.056 L60.416,21.608 L58.708,21.608 L57.196,26.676 L55.558,21.58 L54.102,21.58 L52.464,26.676 L50.98,21.608 L49.244,21.608 L51.638,29.056 Z M61.914,29 L63.608,29 L63.608,24.828 C63.608,23.68 64.294,22.994 65.274,22.994 C66.282,22.994 66.856,23.652 66.856,24.8 L66.856,29 L68.55,29 L68.55,24.282 C68.55,22.574 67.584,21.454 65.918,21.454 C64.77,21.454 64.084,22.056 63.608,22.742 L63.608,21.608 L61.914,21.608 L61.914,29 Z M70.692,29 L72.386,29 L72.386,18.78 L70.692,18.78 L70.692,29 Z M78.112,29.168 C75.858,29.168 74.192,27.446 74.192,25.346 L74.192,25.318 C74.192,23.204 75.872,21.454 78.14,21.454 C80.408,21.454 82.074,23.176 82.074,25.29 L82.074,25.318 C82.074,27.418 80.394,29.168 78.112,29.168 Z M78.14,27.684 C79.512,27.684 80.38,26.62 80.38,25.346 L80.38,25.318 C80.38,24.016 79.442,22.938 78.112,22.938 C76.754,22.938 75.886,24.002 75.886,25.29 L75.886,25.318 C75.886,26.606 76.824,27.684 78.14,27.684 Z M85.924,29.154 C84.538,29.154 83.306,28.356 83.306,26.872 L83.306,26.844 C83.306,25.248 84.552,24.464 86.358,24.464 C87.184,24.464 87.772,24.59 88.346,24.772 L88.346,24.59 C88.346,23.54 87.702,22.98 86.512,22.98 C85.686,22.98 85.07,23.162 84.398,23.442 L83.95,22.112 C84.762,21.748 85.56,21.51 86.736,21.51 C87.842,21.51 88.668,21.804 89.186,22.336 C89.732,22.868 89.984,23.652 89.984,24.618 L89.984,29 L88.332,29 L88.332,28.076 C87.828,28.678 87.058,29.154 85.924,29.154 Z M86.4,27.922 C87.52,27.922 88.374,27.278 88.374,26.34 L88.374,25.836 C87.94,25.668 87.366,25.542 86.694,25.542 C85.602,25.542 84.958,26.004 84.958,26.774 L84.958,26.802 C84.958,27.516 85.588,27.922 86.4,27.922 Z M95.066,29.154 C93.33,29.154 91.636,27.768 91.636,25.318 L91.636,25.29 C91.636,22.84 93.302,21.454 95.066,21.454 C96.284,21.454 97.054,22.056 97.586,22.756 L97.586,18.78 L99.28,18.78 L99.28,29 L97.586,29 L97.586,27.768 C97.04,28.538 96.27,29.154 95.066,29.154 Z M95.472,27.684 C96.606,27.684 97.614,26.732 97.614,25.318 L97.614,25.29 C97.614,23.862 96.606,22.924 95.472,22.924 C94.31,22.924 93.344,23.82 93.344,25.29 L93.344,25.318 C93.344,26.746 94.324,27.684 95.472,27.684 Z" id="AE-Download" fill="#003159"></path>
                <polyline id="Path-2" stroke="#003057" stroke-width="2" transform="translate(11.500000, 21.500000) rotate(-180.000000) translate(-11.500000, -21.500000) " points="6 24 11.4439587 19 17 24"></polyline>
                <path d="M5.67294737,-1 L24,-1 L24,30 L-1,30 L-1,4.92076329 L5.67294737,-1 Z" id="Rectangle-15" stroke="#0099D8" stroke-width="2" transform="translate(11.500000, 14.500000) scale(-1, 1) translate(-11.500000, -14.500000) "></path>
                <path d="M1.84,16 L1.84,9 L4.7,9 C6.37,9 7.38,9.99 7.38,11.42 L7.38,11.44 C7.38,13.06 6.12,13.9 4.55,13.9 L3.38,13.9 L3.38,16 L1.84,16 Z M3.38,12.53 L4.6,12.53 C5.37,12.53 5.82,12.07 5.82,11.47 L5.82,11.45 C5.82,10.76 5.34,10.39 4.57,10.39 L3.38,10.39 L3.38,12.53 Z M8.24222221,16 L8.24222221,9 L10.9722222,9 C13.1722222,9 14.6922222,10.51 14.6922222,12.48 L14.6922222,12.5 C14.6922222,14.47 13.1722222,16 10.9722222,16 L8.24222221,16 Z M10.9722222,10.39 L9.78222221,10.39 L9.78222221,14.61 L10.9722222,14.61 C12.2322222,14.61 13.0822222,13.76 13.0822222,12.52 L13.0822222,12.5 C13.0822222,11.26 12.2322222,10.39 10.9722222,10.39 Z M15.7844444,16 L17.3244444,16 L17.3244444,13.29 L20.6644444,13.29 L20.6644444,11.89 L17.3244444,11.89 L17.3244444,10.4 L21.1144444,10.4 L21.1144444,9 L15.7844444,9 L15.7844444,16 Z" id="PDF" fill="#003159"></path>
            </g>
        </g>
    </g>
</svg>