<?xml version="1.0" encoding="UTF-8"?>
<svg width="137px" height="86px" viewBox="0 0 137 86" version="1.1" xmlns="http://www.w3.org/2000/svg" xmlns:xlink="http://www.w3.org/1999/xlink">
    <!-- Generator: Sketch 47.1 (45422) - http://www.bohemiancoding.com/sketch -->
    <title>Combined Shape Copy</title>
    <desc>Created with Sketch.</desc>
    <defs></defs>
    <g id="MockUp" stroke="none" stroke-width="1" fill="none" fill-rule="evenodd">
        <g id="Registration-Image-Upload" transform="translate(-119.000000, -249.000000)" fill="#0099D8">
            <g id="Image-Upload-Icon" transform="translate(67.000000, 204.000000)">
                <path d="M129.125926,131 L161.6,131 L161.6,130.956104 C162.103677,130.985233 162.61122,131 163.122222,131 C177.414124,131 189,119.448947 189,105.2 C189,92.0743866 179.16889,81.2380507 166.447575,79.6110367 C166.597109,78.3811431 166.674074,77.1289444 166.674074,75.8588235 C166.674074,58.8159659 152.816458,45 135.722222,45 C122.164823,45 110.64327,53.690298 106.455971,65.788411 C103.398689,61.7642836 98.5538416,59.1647059 93.1,59.1647059 C83.8522987,59.1647059 76.3555556,66.6389169 76.3555556,75.8588235 C76.3555556,76.740327 76.4240835,77.6058731 76.5561178,78.4504552 C62.8372467,79.3869683 52,90.7787595 52,104.694118 C52,119.222455 63.8130498,131 78.3851852,131 C78.7249978,131 79.0633101,130.993595 79.4000072,130.980901 L79.4,131 L111.874074,131 L111.874074,111.776471 L94.6222222,111.776471 L119.992593,78.3882353 L145.362963,111.776471 L129.125926,111.776471 L129.125926,131 Z" id="Combined-Shape-Copy"></path>
            </g>
        </g>
    </g>
</svg>