<svg xmlns="http://www.w3.org/2000/svg" viewBox="0 0 288 82.37"><title>Spectrum_Reach_Rev_RGB</title><path d="M5.28,44q4.48,3.83,13.46,3.83,8.71,0,13.46-3.69Q37,40.13,37,33a12.29,12.29,0,0,0-1.45-6.07,10.63,10.63,0,0,0-4.44-4.24,19.16,19.16,0,0,0-3.46-1.33c-1.62-.49-9.67-2.69-10.48-2.91-4.49-1.09-7.33-2.59-7.35-5.24.23-5.13,5-5.54,7.66-5.54a10.86,10.86,0,0,1,6.47,1.72,6,6,0,0,1,2.52,5h9A14.65,14.65,0,0,0,30.62,3.7Q26.27,0,18.21,0,9.63,0,5.15,3.56A12.45,12.45,0,0,0,.66,13.73c0,5.54,2.64,8.8,5,10.3a31.33,31.33,0,0,0,9,3l3.57.78c6.19,1.51,9.74,3.42,9.63,6.48a5,5,0,0,1-2.11,4.23A11.41,11.41,0,0,1,19.53,40a12.48,12.48,0,0,1-7.26-1.85q-2.51-1.58-3-5.55H0Q.4,40.12,5.28,44" style="fill:#fff"/><path d="M63,29.66c0-3.45-.63-10.74-7.69-10.74-6.7,0-7.43,7.12-7.43,10.74,0,9.18,5.22,10.35,7.69,10.35C62,40,63,33.2,63,29.66m-15.12,26a4.47,4.47,0,0,1-4.51,4.51H38.85v-33c.52-8.79,3.72-15.79,17.07-16.27,5.77.07,10,2.37,12.44,5.26,2.65,3.45,3.79,7.74,3.79,13.13q0,8.35-4,13.53a12.44,12.44,0,0,1-10.22,5,16.27,16.27,0,0,1-10.09-3.08c0,.3,0,10.91,0,10.91" style="fill:#fff"/><path d="M90.74,39.91c-2.29-.12-6.64-.56-7-8.18h22.87c0-.23,0-2.74,0-2.75-.16-5.74-1.53-10-4.22-13.23Q98,11,90.08,11q-7.52,0-11.75,4.88t-4.09,13.2q0,8.85,4.22,13.6t11.75,4.88a16.81,16.81,0,0,0,10.3-3,14.44,14.44,0,0,0,5.56-8.46H98.12c-1.17,3.32-4.16,4-7.37,3.84m-.4-21.25c5.67-.08,6.55,4.75,6.73,7.13H83.62s-.11-7,6.73-7.13" style="fill:#fff"/><path d="M131.8,36.08h8.68S138.12,47.56,125,47.56,108.68,37,108.68,30.13,109.91,11.42,124.51,11c13.49-.2,15.71,11.48,15.71,11.48H131s-.9-4-6.4-3.83-6.94,5.29-6.94,10.2,1.22,11,7.33,11c5.81.18,6.32-3,6.83-3.83" style="fill:#fff"/><path d="M151.67,21.17h5.43V11.92h-5.41V6a4.23,4.23,0,0,0-4.36-4.49h-4.75V40.3c0,4,1.57,6.47,5,6.47h4.13Z" style="fill:#fff"/><path d="M166.77,46.84V28.75q0-4,1.85-5.81t5.68-1.85h3V11.73a31.92,31.92,0,0,0-8.25.93,17.36,17.36,0,0,0-5.87,2.9A14.3,14.3,0,0,0,159,21.16a21.75,21.75,0,0,0-1.52,8.65v17Z" style="fill:#fff"/><path d="M179.94,11.78h9.24V34.22s-.33,6.07,6.07,6.07a5.77,5.77,0,0,0,6.2-5.81V16.14s.31-4.35,4.32-4.35h4.79s0,20.64,0,20.84c-.06,1.14,1.21,14.94-15.31,14.88-16.37,0-15.21-14-15.31-14.79Z" style="fill:#fff"/><path d="M243.93,47h-9.15V24.4c0-2.6-1.07-6.1-6.24-6.1s-6.1,4-6.1,6.1V47h-9.29V26.26c0-6,1.78-9.69,4.71-12.07s6.61-3.14,10.41-3.32a26.93,26.93,0,0,1,6,.66,12.59,12.59,0,0,1,5.31,2.65,11.75,11.75,0,0,1,4.71-2.45,22.25,22.25,0,0,1,5.64-.86c11.33-.06,15.87,5.13,16.25,6.79,0,0,0,29.29,0,29.29h-5.24a4.44,4.44,0,0,1-4.51-4.51v-18c0-2.56-.87-6.1-6.24-6.1s-6.23,4-6.23,6.1Z" style="fill:#fff"/><polygon points="268.72 17.64 268.72 46.91 288 32.28 268.72 17.64" style="fill:#0099d8"/><path d="M172.29,59.29a5.68,5.68,0,0,1,2.16,1.61,7.15,7.15,0,0,1,1.16,1.94,6.46,6.46,0,0,1,.43,2.42,6.91,6.91,0,0,1-.83,3.23,4.63,4.63,0,0,1-2.73,2.24,4.3,4.3,0,0,1,2.26,1.82,7.58,7.58,0,0,1,.66,3.6V77.7a11.63,11.63,0,0,0,.13,2.14,1.92,1.92,0,0,0,.89,1.31v.58h-5.31q-.22-.77-.31-1.23a11.32,11.32,0,0,1-.2-2l0-2.14a4.35,4.35,0,0,0-.76-2.94A3.88,3.88,0,0,0,167,72.7h-4.7v9h-4.7v-23h11A10,10,0,0,1,172.29,59.29Zm-9.95,3.41v6.19h5.18a5.51,5.51,0,0,0,2.31-.37,2.59,2.59,0,0,0,1.37-2.59,2.91,2.91,0,0,0-1.32-2.81,4.78,4.78,0,0,0-2.23-.41Z" style="fill:#fff"/><path d="M197.48,62.78H185.29v4.89h11.19v4H185.29v5.92H198v4.14H180.59v-23h16.89Z" style="fill:#fff"/><path d="M208.84,58.7h5.45l8.15,23h-5.22L215.69,77h-8.48l-1.56,4.73h-5ZM208.52,73h5.9L211.51,64Z" style="fill:#fff"/><path d="M226.73,61.1a9.48,9.48,0,0,1,7.08-2.84q5.75,0,8.41,3.81a8.31,8.31,0,0,1,1.58,4.3H239a6.55,6.55,0,0,0-1.18-2.5,5.23,5.23,0,0,0-7.87.62,10.34,10.34,0,0,0-1.48,6q0,3.87,1.57,5.8a4.91,4.91,0,0,0,4,1.93,4.51,4.51,0,0,0,3.78-1.66A7.27,7.27,0,0,0,239,73.88h4.78A10.37,10.37,0,0,1,240.58,80a9.2,9.2,0,0,1-6.52,2.36,9.77,9.77,0,0,1-7.73-3.19q-2.81-3.2-2.81-8.78Q223.53,64.37,226.73,61.1Z" style="fill:#fff"/><path d="M247.57,81.73v-23h4.78v8.78h9V58.7h4.78v23H261.3V71.45h-9V81.73Z" style="fill:#fff"/></svg>