<svg id="Layer_1" data-name="Layer 1" xmlns="http://www.w3.org/2000/svg" xmlns:xlink="http://www.w3.org/1999/xlink" viewBox="0 0 193.01 78.38"><defs><style>.cls-1{fill:none;}.cls-2{fill:#143156;}.cls-3{fill:#0899d6;}.cls-4{clip-path:url(#clip-path);}.cls-5{fill:url(#linear-gradient);}.cls-6{clip-path:url(#clip-path-2);}.cls-7{fill:url(#linear-gradient-2);}.cls-8{clip-path:url(#clip-path-3);}.cls-9{fill:url(#linear-gradient-3);}.cls-10{clip-path:url(#clip-path-4);}.cls-11{fill:url(#linear-gradient-4);}</style><clipPath id="clip-path"><polygon class="cls-1" points="1.61 23.94 7.13 23.94 19.87 40.69 19.87 23.94 25.78 23.94 25.78 51.14 20.69 51.14 7.52 33.85 7.52 51.14 1.61 51.14 1.61 23.94"/></clipPath><linearGradient id="linear-gradient" x1="-119.45" y1="424.26" x2="-119.14" y2="424.26" gradientTransform="matrix(0, -86.84, -86.84, 0, 36855.83, -10321.72)" gradientUnits="userSpaceOnUse"><stop offset="0" stop-color="#002a4e"/><stop offset="1" stop-color="#0099d8"/><stop offset="1" stop-color="#0099d8"/></linearGradient><clipPath id="clip-path-2"><polygon class="cls-1" points="32.11 23.94 52.62 23.94 52.62 29.26 38.05 29.26 38.05 34.78 50.88 34.78 50.88 40.1 38.05 40.1 38.05 45.81 52.82 45.81 52.82 51.14 32.11 51.14 32.11 23.94"/></clipPath><linearGradient id="linear-gradient-2" x1="-119.45" y1="424.99" x2="-119.14" y2="424.99" gradientTransform="matrix(0, -86.84, -86.84, 0, 36947.69, -10321.72)" xlink:href="#linear-gradient"/><clipPath id="clip-path-3"><polygon class="cls-1" points="55.85 23.94 62.26 23.94 67.89 42.35 73.99 23.86 79.12 23.86 85.22 42.35 90.85 23.94 97.11 23.94 87.82 51.33 82.61 51.33 76.48 33.54 70.34 51.33 65.13 51.33 55.85 23.94"/></clipPath><linearGradient id="linear-gradient-3" x1="-119.46" y1="425.83" x2="-119.15" y2="425.83" gradientTransform="matrix(0, -87.71, -87.71, 0, 37424.29, -10425.92)" xlink:href="#linear-gradient"/><clipPath id="clip-path-4"><path class="cls-1" d="M175.53,19v0h0a0,0,0,0,1,0,0m-7.76-9.15a0,0,0,0,1,0,0,.11.11,0,0,1,0,0h0M101.61,2l-.27.17-.18.19a2.24,2.24,0,0,0-.3.38,4,4,0,0,0-.2.35,3.21,3.21,0,0,0-.12.31,4,4,0,0,0-.17.57,12.26,12.26,0,0,0-.25,2c-.06,1.23-.06,2.37-.08,3.51l-.09,6.9-.18,13.79-.23,27.58-.05,13.78v1.37l0,.55c0,.19.06.42.09.62l.06.32c0,.12.08.25.12.37a3,3,0,0,0,.37.79,4.38,4.38,0,0,0,.28.42,3.68,3.68,0,0,0,.45.43,3.12,3.12,0,0,0,1.15.58,3.26,3.26,0,0,0,1.1.07,4.29,4.29,0,0,0,1.53-.44,7.15,7.15,0,0,0,1-.64l.76-.57L112,71.2c7.36-5.49,14.66-11.07,22-16.61l11-8.32,10.94-8.38c7.29-5.59,14.59-11.17,21.84-16.82l.09-.07.08-.08a2.73,2.73,0,0,0,.77-1.49,2.9,2.9,0,0,0-.2-1.53,5.25,5.25,0,0,0-1.16-1.67,12.19,12.19,0,0,0-1.25-1.08,15,15,0,0,0-1.28-.86l-3.31-2.35c-1.12-.78-2.2-1.55-3.4-2.32a1.49,1.49,0,0,1,.53-.2.25.25,0,0,1,.12,0l.18,0,.57,0,1.05-.07,2.06-.17,8.25-.74L185,8,187,7.75l1-.12a1.12,1.12,0,0,1,.53,0,1.44,1.44,0,0,1,.76,1,3,3,0,0,1,.14.78l0,1,.09,4.13.22,8.26.06,2.07,0,1a4.85,4.85,0,0,1-.06.94,1.17,1.17,0,0,1-.32.68.67.67,0,0,1-.66.1,5.81,5.81,0,0,1-1.72-.87c-2.26-1.54-4.43-3.25-6.59-5,2,1.85,4.07,3.7,6.26,5.42a5.88,5.88,0,0,0,1.88,1.09,1.91,1.91,0,0,0,.64.07,1.37,1.37,0,0,0,.67-.25,1.92,1.92,0,0,0,.63-1.11,4.69,4.69,0,0,0,.14-1.11l0-1,.06-2.07.22-8.26.1-4.13,0-1.05a4.55,4.55,0,0,0-.17-1.26,3.7,3.7,0,0,0-.57-1.21,2.78,2.78,0,0,0-2.65-1.18l-1,.07-2.05.12-4.12.24-8.24.44-4.26.18a4.34,4.34,0,0,0-1.41.47,3.58,3.58,0,0,0-1.25,1.06,2.62,2.62,0,0,0-.45,1,2.56,2.56,0,0,0,0,.68,2.59,2.59,0,0,0,.18.65,2.76,2.76,0,0,0,.68.9l.36.27.21.14c2.17,1.5,4.4,3.21,6.57,4.85l0,0,.1.06c.31.2.69.47,1,.72a7.89,7.89,0,0,1,.89.81,3.66,3.66,0,0,1,.33.4q-10.93,8-21.8,16.09l-11.08,8.23-11,8.28c-7.36,5.52-14.74,11-22,16.59l-5.5,4.17-.4.31v-1l-.06-13.78-.22-27.58-.18-13.79L103,9.42c0-1.14,0-2.3,0-3.38a12.91,12.91,0,0,1,.1-1.33l21.25,15.44q11.17,8.1,22.46,16-10.7-8.71-21.48-17.31c-3.6-2.86-7.18-5.74-10.79-8.58L109.09,6,106.38,3.9,105,2.83l-.34-.26-.19-.14-.25-.18L104,2.08l-.34-.16a2.72,2.72,0,0,0-.86-.23h-.08a2,2,0,0,0-1.11.3"/></clipPath><linearGradient id="linear-gradient-4" x1="-121.49" y1="424.17" x2="-121.18" y2="424.17" gradientTransform="matrix(292.93, 0, 0, -292.93, 35688.39, 124291.83)" gradientUnits="userSpaceOnUse"><stop offset="0" stop-color="#002a4e"/><stop offset="1" stop-color="#0099d8"/></linearGradient></defs><title>NewBizLogo-Revised</title><path class="cls-2" d="M1.71,1.84H10a7.65,7.65,0,0,1,5.5,1.93A5.36,5.36,0,0,1,17,7.59v0c0,3.21-2.21,5.09-5.25,5.64l5.94,7.9H15L9.42,13.67H3.89v7.51H1.71ZM9.84,11.7c2.9,0,5-1.49,5-4V7.67c0-2.38-1.82-3.81-5-3.81h-6V11.7Z"/><path class="cls-2" d="M21.69,1.84h14v2H23.87v6.6H34.43v2H23.87v6.77H35.81v2H21.69Z"/><path class="cls-2" d="M47.36,1.7h2l8.82,19.48H55.87L53.6,16.07H43.08l-2.3,5.11H38.54Zm5.39,12.38-4.4-9.84-4.42,9.84Z"/><path class="cls-2" d="M60.07,11.57v-.06a9.74,9.74,0,0,1,9.78-10,10,10,0,0,1,7.54,3.07L75.9,6.18a8.39,8.39,0,0,0-6.08-2.65c-4.28,0-7.49,3.48-7.49,7.93v0c0,4.48,3.24,8,7.49,8a8.44,8.44,0,0,0,6.25-2.79l1.43,1.41a10.05,10.05,0,0,1-7.73,3.39A9.65,9.65,0,0,1,60.07,11.57Z"/><path class="cls-2" d="M81.32,1.84H83.5v8.59H94.66V1.84h2.19V21.18H94.66v-8.7H83.5v8.7H81.32Z"/><path class="cls-2" d="M1.6,53.43H3.36v6.91h9V53.43H14.1V69H12.34V62h-9v7H1.6Z"/><path class="cls-2" d="M18.21,53.43H29.46V55H20v5.31h8.49v1.6H20v5.45h9.61V69H18.21Z"/><path class="cls-2" d="M33,53.43h1.75V69H33Z"/><path class="cls-2" d="M38.29,61.25v0a7.81,7.81,0,0,1,7.81-8.05,8.21,8.21,0,0,1,5.8,2.07l-1.13,1.33A6.65,6.65,0,0,0,46,54.78a6.08,6.08,0,0,0-5.91,6.38v.05c0,3.71,2.37,6.47,6.15,6.47a7.34,7.34,0,0,0,4.5-1.56V62.25H46V60.67h6.43v6.21a9.45,9.45,0,0,1-6.25,2.38A7.64,7.64,0,0,1,38.29,61.25Z"/><path class="cls-2" d="M56.1,53.43h1.76v6.91h9V53.43H68.6V69H66.84V62h-9v7H56.1Z"/><path class="cls-2" d="M76.8,55.05H71.58V53.43H83.81v1.62H78.58V69H76.8Z"/><path class="cls-2" d="M85.43,66.72l1.09-1.29a7.41,7.41,0,0,0,5.34,2.2c2.09,0,3.47-1.11,3.47-2.64v0c0-1.44-.78-2.26-4-2.95-3.58-.78-5.22-1.94-5.22-4.5v0c0-2.45,2.15-4.25,5.11-4.25a8.11,8.11,0,0,1,5.47,1.92l-1,1.35a6.84,6.84,0,0,0-4.5-1.69c-2,0-3.31,1.11-3.31,2.51v.05c0,1.47.8,2.29,4.23,3s5.07,2,5.07,4.41v0c0,2.67-2.23,4.4-5.32,4.4A9.1,9.1,0,0,1,85.43,66.72Z"/><path class="cls-3" d="M1.81,73.38h.64L4.57,76.1V73.38h.68v3.94H4.67L2.49,74.51v2.81H1.81Z"/><path class="cls-3" d="M6.13,73.38H9.05V74H6.82v1h2v.62h-2V76.7H9.08v.62H6.13Z"/><path class="cls-3" d="M9.47,73.38h.75l.94,2.92,1-2.94h.59l1,2.94.94-2.92h.73l-1.37,4h-.61l-1-2.84-1,2.84h-.6Z"/><path class="cls-3" d="M17.49,73.38h1.77a1.43,1.43,0,0,1,1,.34.88.88,0,0,1,.27.66h0a.94.94,0,0,1-.57.88,1,1,0,0,1,.79,1h0c0,.7-.58,1.08-1.46,1.08H17.49Zm2.37,1.11c0-.31-.24-.5-.69-.5h-1V75h.95c.45,0,.74-.18.74-.54Zm-.59,1.14h-1.1v1.08h1.15c.48,0,.76-.19.76-.54h0C20.08,75.82,19.82,75.63,19.27,75.63Z"/><path class="cls-3" d="M21.37,75.65V73.38h.69v2.24c0,.73.38,1.12,1,1.12s1-.36,1-1.09V73.38h.7v2.23a1.58,1.58,0,0,1-1.7,1.77A1.55,1.55,0,0,1,21.37,75.65Z"/><path class="cls-3" d="M25.3,76.75l.42-.5a1.82,1.82,0,0,0,1.25.51c.43,0,.7-.2.7-.49h0c0-.29-.16-.44-.89-.61s-1.32-.45-1.32-1.18h0a1.21,1.21,0,0,1,1.35-1.14,2.15,2.15,0,0,1,1.43.5l-.37.52a1.78,1.78,0,0,0-1.07-.41c-.41,0-.64.21-.64.47h0c0,.31.18.44.94.62s1.26.5,1.26,1.16h0c0,.74-.58,1.18-1.41,1.18A2.47,2.47,0,0,1,25.3,76.75Z"/><path class="cls-3" d="M29.08,73.38h.69v3.94h-.69Z"/><path class="cls-3" d="M30.7,73.38h.64l2.12,2.72V73.38h.68v3.94h-.58l-2.18-2.81v2.81H30.7Z"/><path class="cls-3" d="M35,73.38h2.92V74H35.71v1h2v.62h-2V76.7H38v.62H35Z"/><path class="cls-3" d="M38.39,76.75l.42-.5a1.82,1.82,0,0,0,1.25.51c.43,0,.7-.2.7-.49h0c0-.29-.16-.44-.89-.61s-1.32-.45-1.32-1.18h0a1.21,1.21,0,0,1,1.35-1.14,2.15,2.15,0,0,1,1.43.5l-.37.52a1.78,1.78,0,0,0-1.07-.41c-.41,0-.65.21-.65.47h0c0,.31.19.44.95.62s1.26.5,1.26,1.16h0c0,.74-.58,1.18-1.41,1.18A2.47,2.47,0,0,1,38.39,76.75Z"/><path class="cls-3" d="M41.82,76.75l.41-.5a1.82,1.82,0,0,0,1.25.51c.43,0,.7-.2.7-.49h0c0-.29-.16-.44-.89-.61S42,75.2,42,74.47h0a1.21,1.21,0,0,1,1.35-1.14,2.13,2.13,0,0,1,1.43.5l-.37.52a1.75,1.75,0,0,0-1.07-.41c-.41,0-.64.21-.64.47h0c0,.31.18.44.94.62s1.26.5,1.26,1.16h0c0,.74-.58,1.18-1.41,1.18A2.43,2.43,0,0,1,41.82,76.75Z"/><path class="cls-3" d="M46.86,76.75l.41-.5a1.82,1.82,0,0,0,1.25.51c.43,0,.7-.2.7-.49h0c0-.29-.16-.44-.89-.61S47,75.2,47,74.47h0a1.21,1.21,0,0,1,1.35-1.14,2.13,2.13,0,0,1,1.43.5l-.37.52a1.75,1.75,0,0,0-1.07-.41c-.41,0-.64.21-.64.47h0c0,.31.18.44.94.62s1.26.5,1.26,1.16h0c0,.74-.58,1.18-1.41,1.18A2.43,2.43,0,0,1,46.86,76.75Z"/><path class="cls-3" d="M51.91,73.35h.65l1.73,4h-.73l-.4-.95H51.29l-.4.95h-.71Zm1,2.4-.68-1.57-.67,1.57Z"/><path class="cls-3" d="M54.83,73.38h.7v3.31H57.6v.63H54.83Z"/><path class="cls-3" d="M58.19,73.38h2.93V74H58.89v1h2v.62h-2V76.7h2.26v.62h-3Z"/><path class="cls-3" d="M61.57,76.75l.42-.5a1.79,1.79,0,0,0,1.24.51c.43,0,.7-.2.7-.49h0c0-.29-.16-.44-.89-.61s-1.31-.45-1.31-1.18h0a1.2,1.2,0,0,1,1.34-1.14,2.16,2.16,0,0,1,1.44.5l-.38.52a1.75,1.75,0,0,0-1.07-.41c-.4,0-.64.21-.64.47h0c0,.31.18.44.94.62s1.26.5,1.26,1.16h0c0,.74-.58,1.18-1.41,1.18A2.43,2.43,0,0,1,61.57,76.75Z"/><path class="cls-3" d="M66.91,73.38h.7v3.94h-.7Z"/><path class="cls-3" d="M68.53,73.38h.64l2.12,2.72V73.38H72v3.94h-.58l-2.18-2.81v2.81h-.68Z"/><path class="cls-3" d="M72.67,75.36h0a2,2,0,0,1,2-2,2,2,0,0,1,1.54.61l-.44.52a1.57,1.57,0,0,0-1.11-.5,1.33,1.33,0,0,0-1.3,1.4h0a1.33,1.33,0,0,0,1.3,1.4,1.54,1.54,0,0,0,1.14-.51l.44.45a2,2,0,0,1-1.6.7A2,2,0,0,1,72.67,75.36Z"/><path class="cls-3" d="M76.88,73.38h2.93V74H77.57v1h2v.62h-2V76.7h2.26v.62h-3Z"/><path class="cls-3" d="M80.52,73.38h.64l2.12,2.72V73.38H84v3.94h-.58L81.2,74.51v2.81h-.68Z"/><path class="cls-3" d="M85.81,74H84.56v-.64h3.21V74H86.51v3.3h-.7Z"/><path class="cls-3" d="M88.4,73.38h.7v3.94h-.7Z"/><path class="cls-3" d="M89.68,73.38h.77l1.19,3,1.18-3h.75l-1.63,4h-.62Z"/><path class="cls-3" d="M94.11,73.38H97V74H94.81v1h2v.62h-2V76.7h2.26v.62h-3Z"/><g class="cls-4"><rect class="cls-5" x="1.61" y="23.94" width="24.17" height="27.2"/></g><g class="cls-6"><rect class="cls-7" x="32.11" y="23.94" width="20.71" height="27.2"/></g><g class="cls-8"><rect class="cls-9" x="55.85" y="23.86" width="41.26" height="27.47"/></g><g class="cls-10"><rect class="cls-11" x="99.49" y="1.69" width="91.74" height="75.35"/></g></svg>