<svg id="Layer_1" data-name="Layer 1" xmlns="http://www.w3.org/2000/svg" xmlns:xlink="http://www.w3.org/1999/xlink" viewBox="0 0 893.51 99.65"><defs><style>.cls-1{fill:none;}.cls-2{fill:#143156;}.cls-3{fill:#0899d6;}.cls-4{clip-path:url(#clip-path);}.cls-5{fill:url(#linear-gradient);}.cls-6{clip-path:url(#clip-path-2);}.cls-7{fill:url(#linear-gradient-2);}.cls-8{clip-path:url(#clip-path-3);}.cls-9{fill:url(#linear-gradient-3);}.cls-10{clip-path:url(#clip-path-4);}.cls-11{fill:url(#linear-gradient-4);}</style><clipPath id="clip-path"><polygon class="cls-1" points="263.86 11.26 274.2 11.26 298.11 42.67 298.11 11.26 309.18 11.26 309.18 62.27 299.63 62.27 274.93 29.84 274.93 62.27 263.86 62.27 263.86 11.26"/></clipPath><linearGradient id="linear-gradient" x1="303.42" y1="296.01" x2="304.01" y2="296.01" gradientTransform="matrix(0, -86.84, -86.84, 0, 25991.41, 26410.96)" gradientUnits="userSpaceOnUse"><stop offset="0" stop-color="#002a4e"/><stop offset="1" stop-color="#0099d8"/><stop offset="1" stop-color="#0099d8"/></linearGradient><clipPath id="clip-path-2"><polygon class="cls-1" points="321.05 11.26 359.53 11.26 359.53 21.25 332.2 21.25 332.2 31.59 356.25 31.59 356.25 41.58 332.2 41.58 332.2 52.29 359.89 52.29 359.89 62.27 321.05 62.27 321.05 11.26"/></clipPath><linearGradient id="linear-gradient-2" x1="303.42" y1="296.45" x2="304.01" y2="296.45" gradientTransform="matrix(0, -86.84, -86.84, 0, 26083.26, 26410.96)" xlink:href="#linear-gradient"/><clipPath id="clip-path-3"><polygon class="cls-1" points="365.57 11.26 377.6 11.26 388.16 45.8 399.6 11.12 409.22 11.12 420.66 45.8 431.22 11.26 442.95 11.26 425.54 62.63 415.78 62.63 404.26 29.26 392.75 62.63 382.99 62.63 365.57 11.26"/></clipPath><linearGradient id="linear-gradient-3" x1="303.43" y1="296.93" x2="304.02" y2="296.93" gradientTransform="matrix(0, -87.71, -87.71, 0, 26447, 26675.3)" xlink:href="#linear-gradient"/><clipPath id="clip-path-4"><path class="cls-1" d="M870.53,23.13v0a.16.16,0,0,0,0,0m-10.18-12s0,0,0,0l0,.05v0M773.6.76a3,3,0,0,0-.35.23l-.24.25a2.43,2.43,0,0,0-.4.5c-.09.15-.17.3-.25.46s-.11.27-.17.41a6.8,6.8,0,0,0-.22.75,16.8,16.8,0,0,0-.33,2.56c-.08,1.6-.07,3.09-.1,4.6l-.12,9-.24,18.08-.29,36.17-.07,18.08v1.78l0,.73c0,.24.08.55.12.82l.08.41c0,.15.1.33.16.49a4.17,4.17,0,0,0,.47,1c.12.19.25.37.38.55a6.34,6.34,0,0,0,.59.56,4.17,4.17,0,0,0,1.5.76,5,5,0,0,0,1.45.1,5.79,5.79,0,0,0,2-.59A9,9,0,0,0,779,97.7l1-.75,7.23-5.42c9.66-7.2,19.23-14.51,28.83-21.78l14.4-10.92,14.34-11q14.36-11,28.64-22.05l.12-.1.1-.09a3.65,3.65,0,0,0,1-2,3.8,3.8,0,0,0-.26-2,6.89,6.89,0,0,0-1.52-2.19A16,16,0,0,0,871.24,18a18.92,18.92,0,0,0-1.68-1.13l-4.34-3.09c-1.46-1-2.89-2-4.46-3a2.08,2.08,0,0,1,.69-.26l.17,0,.24,0,.74,0,1.37-.1,2.71-.22,10.81-1,5.4-.52,2.71-.29L887,8.16a1.38,1.38,0,0,1,.69,0,1.91,1.91,0,0,1,1,1.27,3.84,3.84,0,0,1,.19,1l0,1.34.13,5.42.28,10.83.08,2.71,0,1.35a6.11,6.11,0,0,1-.08,1.23,1.64,1.64,0,0,1-.41.9,1,1,0,0,1-.87.14,7.8,7.8,0,0,1-2.26-1.15c-3-2-5.82-4.27-8.65-6.5,2.68,2.43,5.35,4.85,8.22,7.1a7.88,7.88,0,0,0,2.47,1.44,2.75,2.75,0,0,0,.83.09,1.68,1.68,0,0,0,.87-.34,2.47,2.47,0,0,0,.84-1.44,6.78,6.78,0,0,0,.18-1.46l0-1.36.08-2.71L891,17.24l.12-5.42,0-1.37a6.13,6.13,0,0,0-.22-1.65,4.89,4.89,0,0,0-.74-1.59A3.69,3.69,0,0,0,888.65,6a3.73,3.73,0,0,0-2-.29l-1.31.09-2.69.16-5.41.32-10.8.57L860.89,7a5.52,5.52,0,0,0-1.85.61,4.8,4.8,0,0,0-1.64,1.4,3.29,3.29,0,0,0-.59,1.32,3.72,3.72,0,0,0,0,.89,3.3,3.3,0,0,0,1.14,2l.47.36.27.18c2.85,2,5.77,4.2,8.62,6.36l0,0,.13.08c.41.26.91.61,1.33.94a12.16,12.16,0,0,1,1.16,1.05,4.6,4.6,0,0,1,.43.54Q856,33.3,841.78,43.93L827.25,54.71,812.77,65.57c-9.65,7.24-19.33,14.45-28.92,21.76l-7.21,5.47-.53.4V91.89L776,73.81l-.29-36.17-.24-18.08-.12-9c0-1.51-.06-3,0-4.44a14.73,14.73,0,0,1,.13-1.74l27.87,20.25q14.64,10.62,29.45,21-14-11.44-28.17-22.71c-4.71-3.74-9.41-7.52-14.15-11.24l-7.1-5.6-3.55-2.79-1.77-1.4-.44-.35c-.09-.07-.13-.11-.25-.19l-.33-.23-.33-.22-.44-.21a3.35,3.35,0,0,0-1.13-.3h-.1a2.64,2.64,0,0,0-1.46.38"/></clipPath><linearGradient id="linear-gradient-4" x1="303.85" y1="293.69" x2="304.26" y2="293.69" gradientTransform="matrix(292.93, 0, 0, -292.93, -88236.05, 86080.88)" gradientUnits="userSpaceOnUse"><stop offset="0" stop-color="#002a4e"/><stop offset="1" stop-color="#0099d8"/></linearGradient></defs><title>NewBizLogo-Revised</title><path class="cls-2" d="M3.26,12H24.67c6.12,0,11,1.85,14.16,5a13.77,13.77,0,0,1,3.85,9.82v.15c0,8.25-5.7,13.09-13.52,14.51l15.3,20.35H37.55L23.11,42.43H8.88V61.78H3.26ZM24.18,37.38c7.47,0,12.8-3.85,12.8-10.25V27c0-6.12-4.69-9.82-12.73-9.82H8.88V37.38Z"/><path class="cls-2" d="M54.7,12h36V17.1H60.32v17H87.51v5.13H60.32V56.66H91.06v5.12H54.7Z"/><path class="cls-2" d="M120.81,11.62h5.26l22.7,50.16h-6.05l-5.83-13.16H109.78l-5.91,13.16H98.11ZM134.68,43.5,123.37,18.16,112,43.5Z"/><path class="cls-2" d="M153.54,37v-.14c0-14.09,10.53-25.76,25.19-25.76,9,0,14.45,3.2,19.43,7.9l-3.85,4.12c-4.19-4-8.89-6.83-15.65-6.83-11,0-19.29,9-19.29,20.43v.14c0,11.53,8.33,20.56,19.29,20.56,6.83,0,11.31-2.63,16.08-7.18l3.7,3.62c-5.19,5.27-10.89,8.76-19.92,8.76C164.14,62.64,153.54,51.32,153.54,37Z"/><path class="cls-2" d="M208.26,12h5.62V34.1h28.75V12h5.62V61.78h-5.62V39.37H213.88V61.78h-5.62Z"/><path class="cls-2" d="M453,12h5.62V34.1h28.75V12h5.62V61.78h-5.62V39.37H458.57V61.78H453Z"/><path class="cls-2" d="M506.1,12h36V17.1H511.72v17H538.9v5.13H511.72V56.66h30.74v5.12H506.1Z"/><path class="cls-2" d="M553.28,12h5.62V61.78h-5.62Z"/><path class="cls-2" d="M570.35,37v-.14c0-13.66,10-25.76,25-25.76,8.4,0,13.59,2.42,18.57,6.62L610.27,22a21.16,21.16,0,0,0-15.15-5.7c-11,0-18.93,9.32-18.93,20.43v.14c0,11.88,7.61,20.7,19.71,20.7a23.41,23.41,0,0,0,14.37-5V40.22H595.12v-5h20.56V55a30.18,30.18,0,0,1-20,7.61C580,62.63,570.35,51.25,570.35,37Z"/><path class="cls-2" d="M627.35,12H633V34.1h28.75V12h5.62V61.78h-5.62V39.37H633V61.78h-5.62Z"/><path class="cls-2" d="M693.59,17.17H676.87V12H716v5.2H699.29V61.78h-5.7Z"/><path class="cls-2" d="M721.2,54.52l3.49-4.12c5.19,4.69,10.17,7,17.08,7,6.69,0,11.1-3.56,11.1-8.47v-.14c0-4.62-2.49-7.26-13-9.46C728.46,36.88,723.2,33.18,723.2,25v-.14c0-7.82,6.9-13.59,16.36-13.59a26,26,0,0,1,17.5,6.12l-3.27,4.34a21.87,21.87,0,0,0-14.37-5.41c-6.48,0-10.6,3.56-10.6,8v.15c0,4.69,2.56,7.33,13.52,9.67s16.22,6.48,16.22,14.09v.14c0,8.54-7.12,14.09-17,14.09A29.13,29.13,0,0,1,721.2,54.52Z"/><path class="cls-3" d="M263.86,73.9h3.32L278.11,88V73.9h3.52V94.3h-3L267.38,79.79V94.3h-3.52Z"/><path class="cls-3" d="M286.17,73.9H301.3v3.21H289.76v5.3H300v3.21H289.76v5.47h11.68V94.3H286.17Z"/><path class="cls-3" d="M303.45,73.9h3.87L312.19,89l5-15.18h3l5,15.18,4.87-15.12h3.76l-7.08,20.54h-3.12l-5-14.65-5,14.65h-3.09Z"/><path class="cls-3" d="M344.9,73.9h9.15a7.33,7.33,0,0,1,5.33,1.81,4.57,4.57,0,0,1,1.37,3.38v.06a4.85,4.85,0,0,1-2.91,4.54c2.39.82,4.05,2.19,4.05,5v0c0,3.65-3,5.6-7.55,5.6H344.9Zm12.27,5.77c0-1.6-1.29-2.59-3.59-2.59h-5.15V82.5h4.89c2.3,0,3.85-.91,3.85-2.77Zm-3.06,5.86h-5.68v5.59h5.94c2.45,0,3.93-1,3.93-2.8v0C358.3,86.55,356.93,85.53,354.11,85.53Z"/><path class="cls-3" d="M364.94,85.64V73.9h3.58V85.5c0,3.79,2,5.8,5.16,5.8s5.13-1.9,5.13-5.66V73.9h3.58V85.47c0,6.09-3.43,9.15-8.77,9.15S364.94,91.56,364.94,85.64Z"/><path class="cls-3" d="M385.27,91.33l2.16-2.57a9.43,9.43,0,0,0,6.44,2.65c2.21,0,3.61-1,3.61-2.56v-.06c0-1.46-.81-2.24-4.6-3.12-4.34-1-6.79-2.33-6.79-6.09v-.06c0-3.49,2.91-5.91,7-5.91a11.29,11.29,0,0,1,7.4,2.56l-1.92,2.71A9.23,9.23,0,0,0,393,76.79c-2.1,0-3.33,1.07-3.33,2.41v.06c0,1.58.94,2.28,4.87,3.21,4.31,1,6.53,2.59,6.53,6v.06c0,3.82-3,6.09-7.29,6.09A12.59,12.59,0,0,1,385.27,91.33Z"/><path class="cls-3" d="M404.79,73.9h3.58V94.3h-3.58Z"/><path class="cls-3" d="M413.15,73.9h3.32L427.4,88V73.9h3.53V94.3h-3L416.68,79.79V94.3h-3.53Z"/><path class="cls-3" d="M435.46,73.9h15.13v3.21H439.05v5.3h10.23v3.21H439.05v5.47h11.68V94.3H435.46Z"/><path class="cls-3" d="M452.91,91.33l2.16-2.57a9.43,9.43,0,0,0,6.44,2.65c2.21,0,3.61-1,3.61-2.56v-.06c0-1.46-.81-2.24-4.6-3.12-4.34-1-6.79-2.33-6.79-6.09v-.06c0-3.49,2.91-5.91,7-5.91a11.27,11.27,0,0,1,7.4,2.56l-1.92,2.71a9.23,9.23,0,0,0-5.54-2.09c-2.09,0-3.32,1.07-3.32,2.41v.06c0,1.58.94,2.28,4.87,3.21,4.31,1,6.53,2.59,6.53,6v.06c0,3.82-3,6.09-7.29,6.09A12.59,12.59,0,0,1,452.91,91.33Z"/><path class="cls-3" d="M470.6,91.33l2.15-2.57a9.45,9.45,0,0,0,6.44,2.65c2.22,0,3.62-1,3.62-2.56v-.06c0-1.46-.82-2.24-4.61-3.12-4.34-1-6.79-2.33-6.79-6.09v-.06c0-3.49,2.92-5.91,7-5.91a11.31,11.31,0,0,1,7.4,2.56l-1.93,2.71a9.23,9.23,0,0,0-5.53-2.09c-2.1,0-3.32,1.07-3.32,2.41v.06c0,1.58.93,2.28,4.86,3.21,4.31,1,6.53,2.59,6.53,6v.06c0,3.82-3,6.09-7.29,6.09A12.57,12.57,0,0,1,470.6,91.33Z"/><path class="cls-3" d="M496.64,91.33l2.15-2.57a9.47,9.47,0,0,0,6.44,2.65c2.22,0,3.62-1,3.62-2.56v-.06c0-1.46-.82-2.24-4.61-3.12-4.34-1-6.79-2.33-6.79-6.09v-.06c0-3.49,2.92-5.91,7-5.91a11.31,11.31,0,0,1,7.4,2.56l-1.92,2.71a9.26,9.26,0,0,0-5.54-2.09c-2.1,0-3.32,1.07-3.32,2.41v.06c0,1.58.93,2.28,4.86,3.21,4.32,1,6.53,2.59,6.53,6v.06c0,3.82-3,6.09-7.28,6.09A12.59,12.59,0,0,1,496.64,91.33Z"/><path class="cls-3" d="M522.77,73.76h3.32l9,20.54h-3.79l-2.07-4.93h-9.64l-2.1,4.93H513.8ZM527.9,86.2,524.37,78l-3.49,8.16Z"/><path class="cls-3" d="M537.86,73.9h3.58V91h10.73V94.3H537.86Z"/><path class="cls-3" d="M555.22,73.9h15.12v3.21H558.8v5.3H569v3.21H558.8v5.47h11.69V94.3H555.22Z"/><path class="cls-3" d="M572.67,91.33l2.15-2.57a9.47,9.47,0,0,0,6.44,2.65c2.22,0,3.62-1,3.62-2.56v-.06c0-1.46-.82-2.24-4.61-3.12-4.34-1-6.79-2.33-6.79-6.09v-.06c0-3.49,2.92-5.91,7-5.91a11.31,11.31,0,0,1,7.4,2.56l-1.92,2.71a9.26,9.26,0,0,0-5.54-2.09c-2.1,0-3.32,1.07-3.32,2.41v.06c0,1.58.93,2.28,4.87,3.21,4.31,1,6.52,2.59,6.52,6v.06c0,3.82-3,6.09-7.28,6.09A12.59,12.59,0,0,1,572.67,91.33Z"/><path class="cls-3" d="M600.28,73.9h3.59V94.3h-3.59Z"/><path class="cls-3" d="M608.64,73.9H612L622.89,88V73.9h3.53V94.3h-3L612.17,79.79V94.3h-3.53Z"/><path class="cls-3" d="M630.06,84.16V84.1a10.32,10.32,0,0,1,10.51-10.55,10.62,10.62,0,0,1,8,3.18l-2.3,2.65a8.11,8.11,0,0,0-5.71-2.54c-3.88,0-6.74,3.21-6.74,7.2v.06c0,4,2.83,7.23,6.74,7.23a7.94,7.94,0,0,0,5.85-2.63L648.7,91a10.51,10.51,0,0,1-8.27,3.61A10.25,10.25,0,0,1,630.06,84.16Z"/><path class="cls-3" d="M651.79,73.9h15.12v3.21H655.37v5.3H665.6v3.21H655.37v5.47h11.69V94.3H651.79Z"/><path class="cls-3" d="M670.6,73.9h3.33L684.85,88V73.9h3.53V94.3h-3L674.13,79.79V94.3H670.6Z"/><path class="cls-3" d="M698,77.22h-6.47V73.9H708v3.32h-6.47V94.3H698Z"/><path class="cls-3" d="M711.33,73.9h3.58V94.3h-3.58Z"/><path class="cls-3" d="M717.94,73.9h4l6.14,15.68,6.12-15.68h3.88L729.6,94.44h-3.18Z"/><path class="cls-3" d="M740.84,73.9H756v3.21H744.42v5.3h10.23v3.21H744.42v5.47h11.69V94.3H740.84Z"/><g class="cls-4"><rect class="cls-5" x="263.86" y="11.26" width="45.32" height="51.01"/></g><g class="cls-6"><rect class="cls-7" x="321.05" y="11.26" width="38.84" height="51.01"/></g><g class="cls-8"><rect class="cls-9" x="365.57" y="11.12" width="77.38" height="51.52"/></g><g class="cls-10"><rect class="cls-11" x="770.82" y="0.38" width="120.31" height="98.81"/></g></svg>