<?xml version="1.0" encoding="UTF-8"?>
<svg width="784px" height="86px" viewBox="0 0 784 86" version="1.1" xmlns="http://www.w3.org/2000/svg" xmlns:xlink="http://www.w3.org/1999/xlink">
    <!-- Generator: Sketch 47.1 (45422) - http://www.bohemiancoding.com/sketch -->
    <title>rnh_long_logo</title>
    <desc>Created with Sketch.</desc>
    <defs>
        <linearGradient x1="100%" y1="5.52249777%" x2="-1.53403001%" y2="72.5263005%" id="linearGradient-1">
            <stop stop-color="#0099D8" offset="0%"></stop>
            <stop stop-color="#003057" offset="100%"></stop>
        </linearGradient>
        <linearGradient x1="70.1760166%" y1="83.1054688%" x2="70.1760173%" y2="18.359375%" id="linearGradient-2">
            <stop stop-color="#003057" offset="0%"></stop>
            <stop stop-color="#0099D8" offset="100%"></stop>
        </linearGradient>
    </defs>
    <g id="Symbols" stroke="none" stroke-width="1" fill="none" fill-rule="evenodd">
        <g id="rnh_long_logo">
            <g id="Group-11" transform="translate(6.000000, 0.000000)">
                <path d="M729.855455,38.4789694 L682.663084,0.725072796 C681.341428,-0.0225547995 680.17542,-0.0716097547 679.165059,0.57790793 C678.154698,1.22742562 677.685602,2.53494379 677.757771,4.50046246 L677,80.0082558 C677.216506,81.4698388 677.938192,82.4893049 679.165059,83.0666539 C680.391926,83.644003 681.87255,83.5683843 683.606932,82.839798 L762.303323,22.0119915 C763.458021,21.1446189 764.03537,20.2064267 764.03537,19.1974149 C764.03537,18.1884031 763.653618,17.3794244 762.890115,16.7704789 L753.210075,8.80513194 L775.618435,7.33200471 L776.103979,26.208953 C776.141126,27.0344045 775.979278,27.6636361 775.618435,28.0966479 C775.257592,28.5296597 774.790208,28.5296597 774.216284,28.0966479 L765.721657,22.4335634 L774.216284,29.9843427 C775.474747,30.6594383 776.51948,30.5278901 777.350482,29.5896979 C777.791085,29.0922619 778.004816,27.965347 777.991674,26.208953 L777.991674,7.33200471 C778.056585,6.30879469 777.741969,5.53688604 777.047826,5.01627878 C776.353683,4.49567151 775.409836,4.32373274 774.216284,4.50046246 L752.127546,5.44430988 C750.947165,5.72831491 750.15331,6.52383009 749.745981,7.83085541 C749.338651,9.13788073 749.630024,10.2300604 750.620098,11.1073944 L760.058573,19.6020211 L682.663084,77.1767135 L681.546624,3.50073751 L707.203117,22.4335634 L729.855455,38.4789694 Z" id="Path-2" fill="url(#linearGradient-1)"></path>
                <path d="M0.336,53 L0.336,8.2 L19.6,8.2 C25.104,8.2 29.52,9.864 32.336,12.68 C34.512,14.856 35.792,17.992 35.792,21.512 L35.792,21.64 C35.792,29.064 30.672,33.416 23.632,34.696 L37.392,53 L31.184,53 L18.192,35.592 L5.392,35.592 L5.392,53 L0.336,53 Z M5.392,31.048 L19.152,31.048 C25.872,31.048 30.672,27.592 30.672,21.832 L30.672,21.704 C30.672,16.2 26.448,12.872 19.216,12.872 L5.392,12.872 L5.392,31.048 Z M45.608,53 L78.312,53 L78.312,48.392 L50.664,48.392 L50.664,32.712 L75.112,32.712 L75.112,28.104 L50.664,28.104 L50.664,12.808 L77.992,12.808 L77.992,8.2 L45.608,8.2 L45.608,53 Z M83.648,53 L104.064,7.88 L108.8,7.88 L129.216,53 L123.776,53 L118.528,41.16 L94.144,41.16 L88.832,53 L83.648,53 Z M96.128,36.552 L116.544,36.552 L106.368,13.768 L96.128,36.552 Z M154.904,53.768 C163.032,53.768 168.152,50.632 172.824,45.896 L169.496,42.632 C165.208,46.728 161.176,49.096 155.032,49.096 C145.176,49.096 137.688,40.968 137.688,30.6 L137.688,30.472 C137.688,20.168 145.112,12.104 155.032,12.104 C161.112,12.104 165.336,14.664 169.112,18.248 L172.568,14.536 C168.088,10.312 163.224,7.432 155.096,7.432 C141.912,7.432 132.44,17.928 132.44,30.6 L132.44,30.728 C132.44,43.592 141.976,53.768 154.904,53.768 Z M180.656,53 L185.712,53 L185.712,32.84 L211.568,32.84 L211.568,53 L216.624,53 L216.624,8.2 L211.568,8.2 L211.568,28.104 L185.712,28.104 L185.712,8.2 L180.656,8.2 L180.656,53 Z" id="REACH" fill="#003057"></path>
                <path d="M231.376,54 L241.104,54 L241.104,25.52 L262.8,54 L271.184,54 L271.184,9.2 L261.456,9.2 L261.456,36.784 L240.464,9.2 L231.376,9.2 L231.376,54 Z M281.936,54 L316.048,54 L316.048,45.232 L291.728,45.232 L291.728,35.824 L312.848,35.824 L312.848,27.056 L291.728,27.056 L291.728,17.968 L315.728,17.968 L315.728,9.2 L281.936,9.2 L281.936,54 Z M336.656,54.32 L345.232,54.32 L355.344,25.008 L365.456,54.32 L374.032,54.32 L389.328,9.2 L379.024,9.2 L369.744,39.536 L359.696,9.072 L351.248,9.072 L341.2,39.536 L331.92,9.2 L321.36,9.2 L336.656,54.32 Z" id="NEW" fill="url(#linearGradient-2)"></path>
                <path d="M397.336,54 L402.392,54 L402.392,33.84 L428.248,33.84 L428.248,54 L433.304,54 L433.304,9.2 L428.248,9.2 L428.248,29.104 L402.392,29.104 L402.392,9.2 L397.336,9.2 L397.336,54 Z M444.076,54 L476.78,54 L476.78,49.392 L449.132,49.392 L449.132,33.712 L473.58,33.712 L473.58,29.104 L449.132,29.104 L449.132,13.808 L476.46,13.808 L476.46,9.2 L444.076,9.2 L444.076,54 Z M485.504,54 L490.56,54 L490.56,9.2 L485.504,9.2 L485.504,54 Z M522.58,54.768 C530.132,54.768 536.404,51.632 540.564,47.92 L540.564,30.064 L522.068,30.064 L522.068,34.608 L535.7,34.608 L535.7,45.744 C532.628,48.24 527.892,50.224 522.772,50.224 C511.892,50.224 505.044,42.288 505.044,31.6 L505.044,31.472 C505.044,21.488 512.148,13.104 522.068,13.104 C528.404,13.104 532.244,15.216 535.7,18.224 L538.964,14.384 C534.484,10.608 529.812,8.432 522.26,8.432 C508.82,8.432 499.796,19.312 499.796,31.6 L499.796,31.728 C499.796,44.528 508.5,54.768 522.58,54.768 Z M550.056,54 L555.112,54 L555.112,33.84 L580.968,33.84 L580.968,54 L586.024,54 L586.024,9.2 L580.968,9.2 L580.968,29.104 L555.112,29.104 L555.112,9.2 L550.056,9.2 L550.056,54 Z M608.636,54 L613.756,54 L613.756,13.872 L628.796,13.872 L628.796,9.2 L593.596,9.2 L593.596,13.872 L608.636,13.872 L608.636,54 Z M651.728,54.64 C660.624,54.64 667.024,49.648 667.024,41.968 L667.024,41.84 C667.024,34.992 662.416,31.344 652.432,29.168 C642.576,27.056 640.272,24.688 640.272,20.464 L640.272,20.336 C640.272,16.304 643.984,13.104 649.808,13.104 C654.416,13.104 658.576,14.576 662.736,17.968 L665.68,14.064 C661.136,10.416 656.464,8.56 649.936,8.56 C641.424,8.56 635.216,13.744 635.216,20.784 L635.216,20.912 C635.216,28.272 639.952,31.6 650.256,33.84 C659.664,35.824 661.904,38.192 661.904,42.352 L661.904,42.48 C661.904,46.896 657.936,50.096 651.92,50.096 C645.712,50.096 641.232,47.984 636.56,43.76 L633.424,47.472 C638.8,52.272 644.624,54.64 651.728,54.64 Z" id="HEIGHTS" fill="#003057"></path>
                <path d="M232.16,81 L235.064,81 L235.064,69.048 L244.328,81 L246.8,81 L246.8,64.2 L243.896,64.2 L243.896,75.816 L234.896,64.2 L232.16,64.2 L232.16,81 Z M251.52,81 L264.096,81 L264.096,78.36 L254.472,78.36 L254.472,73.848 L262.896,73.848 L262.896,71.208 L254.472,71.208 L254.472,66.84 L263.976,66.84 L263.976,64.2 L251.52,64.2 L251.52,81 Z M272.56,81.12 L275.104,81.12 L279.232,69.048 L283.36,81.12 L285.928,81.12 L291.76,64.2 L288.664,64.2 L284.656,76.656 L280.528,64.152 L278.032,64.152 L273.904,76.656 L269.896,64.2 L266.704,64.2 L272.56,81.12 Z M302.784,81 L302.784,64.2 L310.32,64.2 C312.24,64.2 313.752,64.728 314.712,65.688 C315.456,66.432 315.84,67.344 315.84,68.472 L315.84,68.52 C315.84,70.536 314.688,71.616 313.44,72.264 C315.408,72.936 316.776,74.064 316.776,76.344 L316.776,76.392 C316.776,79.392 314.304,81 310.56,81 L302.784,81 Z M312.888,69 L312.888,68.952 C312.888,67.632 311.832,66.816 309.936,66.816 L305.688,66.816 L305.688,71.28 L309.72,71.28 C311.616,71.28 312.888,70.536 312.888,69 Z M313.824,76.032 C313.824,74.616 312.696,73.776 310.368,73.776 L305.688,73.776 L305.688,78.384 L310.584,78.384 C312.6,78.384 313.824,77.592 313.824,76.08 L313.824,76.032 Z M327.4,81.264 C331.792,81.264 334.624,78.744 334.624,73.728 L334.624,64.2 L331.672,64.2 L331.672,73.872 C331.672,76.968 330.064,78.528 327.448,78.528 C324.808,78.528 323.2,76.872 323.2,73.752 L323.2,64.2 L320.248,64.2 L320.248,73.872 C320.248,78.744 323.032,81.264 327.4,81.264 Z M344.96,81.24 C348.488,81.24 350.96,79.368 350.96,76.224 L350.96,76.176 C350.96,73.392 349.136,72.12 345.584,71.256 C342.344,70.488 341.576,69.912 341.576,68.616 L341.576,68.568 C341.576,67.464 342.584,66.576 344.312,66.576 C345.848,66.576 347.36,67.176 348.872,68.304 L350.456,66.072 C348.752,64.704 346.808,63.96 344.36,63.96 C341.024,63.96 338.624,65.952 338.624,68.832 L338.624,68.88 C338.624,71.976 340.64,73.032 344.216,73.896 C347.336,74.616 348.008,75.264 348.008,76.464 L348.008,76.512 C348.008,77.76 346.856,78.624 345.032,78.624 C342.968,78.624 341.336,77.832 339.728,76.44 L337.952,78.552 C339.968,80.352 342.392,81.24 344.96,81.24 Z M355.008,81 L357.96,81 L357.96,64.2 L355.008,64.2 L355.008,81 Z M362.848,81 L365.752,81 L365.752,69.048 L375.016,81 L377.488,81 L377.488,64.2 L374.584,64.2 L374.584,75.816 L365.584,64.2 L362.848,64.2 L362.848,81 Z M382.208,81 L394.784,81 L394.784,78.36 L385.16,78.36 L385.16,73.848 L393.584,73.848 L393.584,71.208 L385.16,71.208 L385.16,66.84 L394.664,66.84 L394.664,64.2 L382.208,64.2 L382.208,81 Z M404.568,81.24 C408.096,81.24 410.568,79.368 410.568,76.224 L410.568,76.176 C410.568,73.392 408.744,72.12 405.192,71.256 C401.952,70.488 401.184,69.912 401.184,68.616 L401.184,68.568 C401.184,67.464 402.192,66.576 403.92,66.576 C405.456,66.576 406.968,67.176 408.48,68.304 L410.064,66.072 C408.36,64.704 406.416,63.96 403.968,63.96 C400.632,63.96 398.232,65.952 398.232,68.832 L398.232,68.88 C398.232,71.976 400.248,73.032 403.824,73.896 C406.944,74.616 407.616,75.264 407.616,76.464 L407.616,76.512 C407.616,77.76 406.464,78.624 404.64,78.624 C402.576,78.624 400.944,77.832 399.336,76.44 L397.56,78.552 C399.576,80.352 402,81.24 404.568,81.24 Z M420.088,81.24 C423.616,81.24 426.088,79.368 426.088,76.224 L426.088,76.176 C426.088,73.392 424.264,72.12 420.712,71.256 C417.472,70.488 416.704,69.912 416.704,68.616 L416.704,68.568 C416.704,67.464 417.712,66.576 419.44,66.576 C420.976,66.576 422.488,67.176 424,68.304 L425.584,66.072 C423.88,64.704 421.936,63.96 419.488,63.96 C416.152,63.96 413.752,65.952 413.752,68.832 L413.752,68.88 C413.752,71.976 415.768,73.032 419.344,73.896 C422.464,74.616 423.136,75.264 423.136,76.464 L423.136,76.512 C423.136,77.76 421.984,78.624 420.16,78.624 C418.096,78.624 416.464,77.832 414.856,76.44 L413.08,78.552 C415.096,80.352 417.52,81.24 420.088,81.24 Z M443.448,81.24 C446.976,81.24 449.448,79.368 449.448,76.224 L449.448,76.176 C449.448,73.392 447.624,72.12 444.072,71.256 C440.832,70.488 440.064,69.912 440.064,68.616 L440.064,68.568 C440.064,67.464 441.072,66.576 442.8,66.576 C444.336,66.576 445.848,67.176 447.36,68.304 L448.944,66.072 C447.24,64.704 445.296,63.96 442.848,63.96 C439.512,63.96 437.112,65.952 437.112,68.832 L437.112,68.88 C437.112,71.976 439.128,73.032 442.704,73.896 C445.824,74.616 446.496,75.264 446.496,76.464 L446.496,76.512 C446.496,77.76 445.344,78.624 443.52,78.624 C441.456,78.624 439.824,77.832 438.216,76.44 L436.44,78.552 C438.456,80.352 440.88,81.24 443.448,81.24 Z M451.528,81 L458.92,64.08 L461.656,64.08 L469.048,81 L465.928,81 L464.224,76.944 L456.28,76.944 L454.552,81 L451.528,81 Z M457.36,74.328 L463.144,74.328 L460.24,67.608 L457.36,74.328 Z M472.328,81 L484.112,81 L484.112,78.312 L475.28,78.312 L475.28,64.2 L472.328,64.2 L472.328,81 Z M487.584,81 L500.16,81 L500.16,78.36 L490.536,78.36 L490.536,73.848 L498.96,73.848 L498.96,71.208 L490.536,71.208 L490.536,66.84 L500.04,66.84 L500.04,64.2 L487.584,64.2 L487.584,81 Z M509.944,81.24 C513.472,81.24 515.944,79.368 515.944,76.224 L515.944,76.176 C515.944,73.392 514.12,72.12 510.568,71.256 C507.328,70.488 506.56,69.912 506.56,68.616 L506.56,68.568 C506.56,67.464 507.568,66.576 509.296,66.576 C510.832,66.576 512.344,67.176 513.856,68.304 L515.44,66.072 C513.736,64.704 511.792,63.96 509.344,63.96 C506.008,63.96 503.608,65.952 503.608,68.832 L503.608,68.88 C503.608,71.976 505.624,73.032 509.2,73.896 C512.32,74.616 512.992,75.264 512.992,76.464 L512.992,76.512 C512.992,77.76 511.84,78.624 510.016,78.624 C507.952,78.624 506.32,77.832 504.712,76.44 L502.936,78.552 C504.952,80.352 507.376,81.24 509.944,81.24 Z M527.592,81 L530.544,81 L530.544,64.2 L527.592,64.2 L527.592,81 Z M535.432,81 L538.336,81 L538.336,69.048 L547.6,81 L550.072,81 L550.072,64.2 L547.168,64.2 L547.168,75.816 L538.168,64.2 L535.432,64.2 L535.432,81 Z M562.592,81.288 C565.736,81.288 567.656,80.136 569.408,78.312 L567.512,76.392 C566.072,77.736 564.752,78.552 562.688,78.552 C559.472,78.552 557.144,75.888 557.144,72.6 L557.144,72.552 C557.144,69.264 559.496,66.624 562.688,66.624 C564.608,66.624 566.048,67.464 567.392,68.712 L569.288,66.528 C567.68,64.992 565.808,63.912 562.712,63.912 C557.624,63.912 554.048,67.824 554.048,72.6 L554.048,72.648 C554.048,77.472 557.696,81.288 562.592,81.288 Z M572.904,81 L585.48,81 L585.48,78.36 L575.856,78.36 L575.856,73.848 L584.28,73.848 L584.28,71.208 L575.856,71.208 L575.856,66.84 L585.36,66.84 L585.36,64.2 L572.904,64.2 L572.904,81 Z M589.384,81 L592.288,81 L592.288,69.048 L601.552,81 L604.024,81 L604.024,64.2 L601.12,64.2 L601.12,75.816 L592.12,64.2 L589.384,64.2 L589.384,81 Z M612.872,81 L615.848,81 L615.848,66.936 L621.176,66.936 L621.176,64.2 L607.544,64.2 L607.544,66.936 L612.872,66.936 L612.872,81 Z M624.864,81 L627.816,81 L627.816,64.2 L624.864,64.2 L624.864,81 Z M638.248,81.12 L640.864,81.12 L647.824,64.2 L644.632,64.2 L639.592,77.112 L634.528,64.2 L631.264,64.2 L638.248,81.12 Z M651.104,81 L663.68,81 L663.68,78.36 L654.056,78.36 L654.056,73.848 L662.48,73.848 L662.48,71.208 L654.056,71.208 L654.056,66.84 L663.56,66.84 L663.56,64.2 L651.104,64.2 L651.104,81 Z" id="NEW-BUSINESS-SALES-I" fill="#0099D8"></path>
            </g>
        </g>
    </g>
</svg>