<?xml version="1.0" encoding="UTF-8"?>
<svg width="322px" height="48px" viewBox="0 0 322 48" version="1.1" xmlns="http://www.w3.org/2000/svg" xmlns:xlink="http://www.w3.org/1999/xlink">
    <!-- Generator: Sketch 47.1 (45422) - http://www.bohemiancoding.com/sketch -->
    <title>sri_logo</title>
    <desc>Created with Sketch.</desc>
    <defs></defs>
    <g id="Symbols" stroke="none" stroke-width="1" fill="none" fill-rule="evenodd">
        <g id="sri_logo">
            <g id="Group-3" transform="translate(2.000000, 3.000000)">
                <polygon id="Fill-18-Copy-4" fill="#0099D8" points="296 6 296 41 319.656015 23.5051668"></polygon>
                <g id="Group-12" fill="#FFFFFF">
                    <path d="M72.656,35 L78.56,35 L78.56,1.4 L72.656,1.4 L72.656,35 Z M84.664,35 L90.472,35 L90.472,20.696 C90.472,16.76 92.824,14.408 96.184,14.408 C99.64,14.408 101.608,16.664 101.608,20.6 L101.608,35 L107.416,35 L107.416,18.824 C107.416,12.968 104.104,9.128 98.392,9.128 C94.456,9.128 92.104,11.192 90.472,13.544 L90.472,9.656 L84.664,9.656 L84.664,35 Z M123.936,35.576 C128.88,35.576 131.808,33.608 134.304,30.824 L130.8,27.368 C128.976,29.24 126.96,30.488 124.224,30.488 C119.76,30.488 116.64,26.888 116.64,22.376 L116.64,22.28 C116.64,17.864 119.76,14.216 123.984,14.216 C126.864,14.216 128.736,15.512 130.512,17.384 L134.16,13.496 C131.76,10.904 128.784,9.128 124.032,9.128 C116.4,9.128 110.832,15.176 110.832,22.376 L110.832,22.472 C110.832,29.672 116.4,35.576 123.936,35.576 Z M148.328,35.576 C140.984,35.576 135.32,30.248 135.32,22.424 L135.32,22.328 C135.32,15.08 140.456,9.128 147.704,9.128 C155.768,9.128 159.848,15.464 159.848,22.76 C159.848,23.288 159.8,23.816 159.752,24.392 L141.128,24.392 C141.752,28.52 144.68,30.824 148.424,30.824 C151.256,30.824 153.272,29.768 155.288,27.8 L158.696,30.824 C156.296,33.704 152.984,35.576 148.328,35.576 Z M141.08,20.552 L154.088,20.552 C153.704,16.808 151.496,13.88 147.656,13.88 C144.104,13.88 141.608,16.616 141.08,20.552 Z M163.504,35 L169.312,35 L169.312,20.696 C169.312,16.76 171.664,14.408 175.024,14.408 C178.48,14.408 180.448,16.664 180.448,20.6 L180.448,35 L186.256,35 L186.256,18.824 C186.256,12.968 182.944,9.128 177.232,9.128 C173.296,9.128 170.944,11.192 169.312,13.544 L169.312,9.656 L163.504,9.656 L163.504,35 Z M199.56,35.432 C201.768,35.432 203.352,34.952 204.792,34.136 L204.792,29.384 C203.64,29.96 202.488,30.248 201.192,30.248 C199.224,30.248 198.072,29.336 198.072,27.08 L198.072,14.648 L204.888,14.648 L204.888,9.656 L198.072,9.656 L198.072,2.696 L192.264,2.696 L192.264,9.656 L189.048,9.656 L189.048,14.648 L192.264,14.648 L192.264,27.992 C192.264,33.56 195.288,35.432 199.56,35.432 Z M208.688,5.768 L214.928,5.768 L214.928,0.248 L208.688,0.248 L208.688,5.768 Z M208.928,35 L214.736,35 L214.736,9.656 L208.928,9.656 L208.928,35 Z M228.136,35.192 L217.72,9.656 L223.96,9.656 L230.776,28.28 L237.64,9.656 L243.736,9.656 L233.368,35.192 L228.136,35.192 Z M256.656,35.576 C249.312,35.576 243.648,30.248 243.648,22.424 L243.648,22.328 C243.648,15.08 248.784,9.128 256.032,9.128 C264.096,9.128 268.176,15.464 268.176,22.76 C268.176,23.288 268.128,23.816 268.08,24.392 L249.456,24.392 C250.08,28.52 253.008,30.824 256.752,30.824 C259.584,30.824 261.6,29.768 263.616,27.8 L267.024,30.824 C264.624,33.704 261.312,35.576 256.656,35.576 Z M249.408,20.552 L262.416,20.552 C262.032,16.808 259.824,13.88 255.984,13.88 C252.432,13.88 249.936,16.616 249.408,20.552 Z M280.52,35.48 C285.8,35.48 289.928,32.84 289.928,27.512 L289.928,27.416 C289.928,22.856 285.752,21.176 282.056,20.024 C279.08,19.064 276.344,18.296 276.344,16.424 L276.344,16.328 C276.344,14.888 277.64,13.832 279.896,13.832 C282.008,13.832 284.6,14.744 287.048,16.232 L289.352,12.104 C286.664,10.328 283.208,9.224 280.04,9.224 C275,9.224 271.016,12.152 271.016,16.952 L271.016,17.048 C271.016,21.896 275.192,23.432 278.936,24.488 C281.912,25.4 284.6,26.072 284.6,28.04 L284.6,28.136 C284.6,29.816 283.16,30.872 280.664,30.872 C278.072,30.872 275.144,29.816 272.36,27.752 L269.768,31.688 C272.936,34.184 276.92,35.48 280.52,35.48 Z" id="Incentives"></path>
                    <path d="M14.08,35.48 C21.136,35.48 26.08,31.736 26.08,25.448 L26.08,25.352 C26.08,19.784 22.432,17.24 15.328,15.512 C8.848,13.976 7.312,12.824 7.312,10.232 L7.312,10.136 C7.312,7.928 9.328,6.152 12.784,6.152 C15.856,6.152 18.88,7.352 21.904,9.608 L25.072,5.144 C21.664,2.408 17.776,0.92 12.88,0.92 C6.208,0.92 1.408,4.904 1.408,10.664 L1.408,10.76 C1.408,16.952 5.44,19.064 12.592,20.792 C18.832,22.232 20.176,23.528 20.176,25.928 L20.176,26.024 C20.176,28.52 17.872,30.248 14.224,30.248 C10.096,30.248 6.832,28.664 3.616,25.88 L0.064,30.104 C4.096,33.704 8.944,35.48 14.08,35.48 Z M33.04,35 L33.04,1.4 L48.016,1.4 C52.24,1.4 55.552,2.648 57.712,4.76 C59.488,6.584 60.496,9.08 60.496,12.008 L60.496,12.104 C60.496,17.624 57.184,20.936 52.528,22.28 L61.6,35 L54.592,35 L46.336,23.288 L38.944,23.288 L38.944,35 L33.04,35 Z M38.944,18.056 L47.584,18.056 C51.808,18.056 54.496,15.848 54.496,12.44 L54.496,12.344 C54.496,8.744 51.904,6.776 47.536,6.776 L38.944,6.776 L38.944,18.056 Z" id="SR"></path>
                </g>
            </g>
        </g>
    </g>
</svg>