<?xml version="1.0" encoding="UTF-8"?>
<svg width="26px" height="25px" viewBox="0 0 26 25" version="1.1" xmlns="http://www.w3.org/2000/svg" xmlns:xlink="http://www.w3.org/1999/xlink">
    <!-- Generator: Sketch 47.1 (45422) - http://www.bohemiancoding.com/sketch -->
    <title>02_bullet</title>
    <desc>Created with Sketch.</desc>
    <defs></defs>
    <g id="Symbols" stroke="none" stroke-width="1" fill="none" fill-rule="evenodd">
        <g id="02_bullet">
            <g id="number_bullet-copy">
                <ellipse id="Oval" stroke="#003057" cx="13" cy="12.5" rx="12.5" ry="12"></ellipse>
                <path d="M9.6175,16.132 C7.5605,16.132 6.2075,14.405 6.2075,12.172 L6.2075,12.15 C6.2075,9.917 7.5935,8.168 9.6395,8.168 C11.6745,8.168 13.0495,9.895 13.0495,12.128 L13.0495,12.15 C13.0495,14.383 11.6745,16.132 9.6175,16.132 Z M9.6395,14.603 C10.6625,14.603 11.3115,13.569 11.3115,12.172 L11.3115,12.15 C11.3115,10.753 10.6295,9.697 9.6175,9.697 C8.6055,9.697 7.9455,10.72 7.9455,12.128 L7.9455,12.15 C7.9455,13.558 8.6165,14.603 9.6395,14.603 Z M14.0725,16 L19.7705,16 L19.7705,14.537 L16.4155,14.537 L17.6695,13.569 C19.0335,12.513 19.6935,11.875 19.6935,10.588 L19.6935,10.566 C19.6935,9.125 18.6375,8.19 17.0425,8.19 C15.6675,8.19 14.9305,8.751 14.1715,9.785 L15.3595,10.742 C15.9315,10.038 16.3385,9.708 16.9325,9.708 C17.5375,9.708 17.9665,10.06 17.9665,10.709 C17.9665,11.347 17.5925,11.765 16.6355,12.557 L14.0725,14.658 L14.0725,16 Z" id="00" fill="#003057"></path>
            </g>
        </g>
    </g>
</svg>