<?xml version="1.0" encoding="UTF-8"?>
<svg width="26px" height="25px" viewBox="0 0 26 25" version="1.1" xmlns="http://www.w3.org/2000/svg" xmlns:xlink="http://www.w3.org/1999/xlink">
    <!-- Generator: Sketch 47.1 (45422) - http://www.bohemiancoding.com/sketch -->
    <title>03_bullet</title>
    <desc>Created with Sketch.</desc>
    <defs></defs>
    <g id="Symbols" stroke="none" stroke-width="1" fill="none" fill-rule="evenodd">
        <g id="03_bullet">
            <g id="number_bullet-copy-2">
                <ellipse id="Oval" stroke="#003057" cx="13" cy="12.5" rx="12.5" ry="12"></ellipse>
                <path d="M9.6285,16.132 C7.5715,16.132 6.2185,14.405 6.2185,12.172 L6.2185,12.15 C6.2185,9.917 7.6045,8.168 9.6505,8.168 C11.6855,8.168 13.0605,9.895 13.0605,12.128 L13.0605,12.15 C13.0605,14.383 11.6855,16.132 9.6285,16.132 Z M9.6505,14.603 C10.6735,14.603 11.3225,13.569 11.3225,12.172 L11.3225,12.15 C11.3225,10.753 10.6405,9.697 9.6285,9.697 C8.6165,9.697 7.9565,10.72 7.9565,12.128 L7.9565,12.15 C7.9565,13.558 8.6275,14.603 9.6505,14.603 Z M16.9655,16.132 C18.6815,16.132 19.7375,15.065 19.7375,13.613 L19.7375,13.591 C19.7375,12.161 18.7145,11.611 17.6695,11.435 L19.6165,9.576 L19.6165,8.3 L14.4135,8.3 L14.4135,9.752 L17.4385,9.752 L15.6015,11.6 L15.8655,12.678 L16.5695,12.678 C17.5155,12.678 18.0765,13.03 18.0765,13.657 L18.0765,13.679 C18.0765,14.251 17.6255,14.614 16.9875,14.614 C16.2065,14.614 15.6565,14.284 15.1285,13.69 L13.9625,14.801 C14.6225,15.582 15.5795,16.132 16.9655,16.132 Z" id="00" fill="#003057"></path>
            </g>
        </g>
    </g>
</svg>