<?xml version="1.0" encoding="UTF-8"?>
<svg width="26px" height="25px" viewBox="0 0 26 25" version="1.1" xmlns="http://www.w3.org/2000/svg" xmlns:xlink="http://www.w3.org/1999/xlink">
    <!-- Generator: Sketch 47.1 (45422) - http://www.bohemiancoding.com/sketch -->
    <title>04_bullet</title>
    <desc>Created with Sketch.</desc>
    <defs></defs>
    <g id="Symbols" stroke="none" stroke-width="1" fill="none" fill-rule="evenodd">
        <g id="04_bullet">
            <g id="number_bullet-copy-3">
                <ellipse id="Oval" stroke="#003057" cx="13" cy="12.5" rx="12.5" ry="12"></ellipse>
                <path d="M9.1995,16.132 C7.1425,16.132 5.7895,14.405 5.7895,12.172 L5.7895,12.15 C5.7895,9.917 7.1755,8.168 9.2215,8.168 C11.2565,8.168 12.6315,9.895 12.6315,12.128 L12.6315,12.15 C12.6315,14.383 11.2565,16.132 9.1995,16.132 Z M9.2215,14.603 C10.2445,14.603 10.8935,13.569 10.8935,12.172 L10.8935,12.15 C10.8935,10.753 10.2115,9.697 9.1995,9.697 C8.1875,9.697 7.5275,10.72 7.5275,12.128 L7.5275,12.15 C7.5275,13.558 8.1985,14.603 9.2215,14.603 Z M17.6035,16 L17.6035,14.339 L13.8415,14.339 L13.5665,13.14 L17.7905,8.245 L19.2205,8.245 L19.2205,12.964 L20.2545,12.964 L20.2545,14.339 L19.2205,14.339 L19.2205,16 L17.6035,16 Z M15.5575,12.964 L17.6035,12.964 L17.6035,10.566 L15.5575,12.964 Z" id="00" fill="#003057"></path>
            </g>
        </g>
    </g>
</svg>