<?xml version="1.0" encoding="UTF-8"?>
<svg width="26px" height="25px" viewBox="0 0 26 25" version="1.1" xmlns="http://www.w3.org/2000/svg" xmlns:xlink="http://www.w3.org/1999/xlink">
    <!-- Generator: Sketch 47.1 (45422) - http://www.bohemiancoding.com/sketch -->
    <title>05_bullet</title>
    <desc>Created with Sketch.</desc>
    <defs></defs>
    <g id="Symbols" stroke="none" stroke-width="1" fill="none" fill-rule="evenodd">
        <g id="05_bullet">
            <g id="number_bullet-copy-4">
                <ellipse id="Oval" stroke="#003057" cx="13" cy="12.5" rx="12.5" ry="12"></ellipse>
                <path d="M9.524,16.132 C7.467,16.132 6.114,14.405 6.114,12.172 L6.114,12.15 C6.114,9.917 7.5,8.168 9.546,8.168 C11.581,8.168 12.956,9.895 12.956,12.128 L12.956,12.15 C12.956,14.383 11.581,16.132 9.524,16.132 Z M9.546,14.603 C10.569,14.603 11.218,13.569 11.218,12.172 L11.218,12.15 C11.218,10.753 10.536,9.697 9.524,9.697 C8.512,9.697 7.852,10.72 7.852,12.128 L7.852,12.15 C7.852,13.558 8.523,14.603 9.546,14.603 Z M16.905,16.132 C18.676,16.132 19.831,15.098 19.831,13.47 L19.831,13.448 C19.831,11.71 18.632,10.984 17.136,10.984 C16.707,10.984 16.432,11.039 16.124,11.116 L16.212,9.785 L19.49,9.785 L19.49,8.3 L14.76,8.3 L14.54,12.095 L15.519,12.744 C15.882,12.59 16.322,12.458 16.806,12.458 C17.609,12.458 18.17,12.843 18.17,13.503 L18.17,13.525 C18.17,14.207 17.675,14.592 16.883,14.592 C16.201,14.592 15.629,14.284 15.046,13.756 L14.023,14.977 C14.771,15.692 15.673,16.132 16.905,16.132 Z" id="00" fill="#003057"></path>
            </g>
        </g>
    </g>
</svg>