<?xml version="1.0" encoding="UTF-8"?>
<svg width="26px" height="25px" viewBox="0 0 26 25" version="1.1" xmlns="http://www.w3.org/2000/svg" xmlns:xlink="http://www.w3.org/1999/xlink">
    <!-- Generator: Sketch 47.1 (45422) - http://www.bohemiancoding.com/sketch -->
    <title>08_bullet</title>
    <desc>Created with Sketch.</desc>
    <defs></defs>
    <g id="Symbols" stroke="none" stroke-width="1" fill="none" fill-rule="evenodd">
        <g id="08_bullet">
            <g id="number_bullet-copy-7">
                <ellipse id="Oval" stroke="#003057" cx="13" cy="12.5" rx="12.5" ry="12"></ellipse>
                <path d="M9.524,16.132 C7.467,16.132 6.114,14.405 6.114,12.172 L6.114,12.15 C6.114,9.917 7.5,8.168 9.546,8.168 C11.581,8.168 12.956,9.895 12.956,12.128 L12.956,12.15 C12.956,14.383 11.581,16.132 9.524,16.132 Z M9.546,14.603 C10.569,14.603 11.218,13.569 11.218,12.172 L11.218,12.15 C11.218,10.753 10.536,9.697 9.524,9.697 C8.512,9.697 7.852,10.72 7.852,12.128 L7.852,12.15 C7.852,13.558 8.523,14.603 9.546,14.603 Z M17.015,16.11 C15.31,16.11 14.045,15.23 14.045,13.888 L14.045,13.866 C14.045,12.931 14.474,12.381 15.288,12.007 C14.694,11.644 14.309,11.149 14.309,10.324 L14.309,10.302 C14.309,9.125 15.387,8.19 17.015,8.19 C18.643,8.19 19.721,9.114 19.721,10.302 L19.721,10.324 C19.721,11.149 19.336,11.644 18.742,12.007 C19.523,12.414 19.985,12.909 19.985,13.822 L19.985,13.844 C19.985,15.274 18.72,16.11 17.015,16.11 Z M17.015,11.446 C17.686,11.446 18.115,11.05 18.115,10.511 L18.115,10.489 C18.115,10.016 17.708,9.587 17.015,9.587 C16.322,9.587 15.915,10.005 15.915,10.478 L15.915,10.5 C15.915,11.039 16.344,11.446 17.015,11.446 Z M17.015,14.713 C17.851,14.713 18.346,14.295 18.346,13.756 L18.346,13.734 C18.346,13.14 17.785,12.788 17.015,12.788 C16.245,12.788 15.684,13.14 15.684,13.734 L15.684,13.756 C15.684,14.284 16.179,14.713 17.015,14.713 Z" id="00" fill="#003057"></path>
            </g>
        </g>
    </g>
</svg>