<?xml version="1.0" encoding="UTF-8"?>
<svg width="125px" height="41px" viewBox="0 0 125 41" version="1.1" xmlns="http://www.w3.org/2000/svg" xmlns:xlink="http://www.w3.org/1999/xlink">
    <!-- Generator: Sketch 47.1 (45422) - http://www.bohemiancoding.com/sketch -->
    <title>s</title>
    <desc>Created with Sketch.</desc>
    <defs></defs>
    <g id="Page-1" stroke="none" stroke-width="1" fill="none" fill-rule="evenodd">
        <g id="Group-3" transform="translate(1.000000, 0.000000)">
            <path d="M16.6150751,41 C24.9795136,41 30.8403107,36.5583333 30.8403107,29.0986111 L30.8403107,28.9847222 C30.8403107,22.3791667 26.5158391,19.3611111 18.0944996,17.3111111 C10.4128724,15.4888889 8.59204227,14.1222222 8.59204227,11.0472222 L8.59204227,10.9333333 C8.59204227,8.31388889 10.9818818,6.20694444 15.0787497,6.20694444 C18.72041,6.20694444 22.3051693,7.63055556 25.8899287,10.3069444 L29.6453909,5.01111111 C25.605424,1.76527778 20.9964477,0 15.1925516,0 C7.2833206,0 1.59322638,4.72638889 1.59322638,11.5597222 L1.59322638,11.6736111 C1.59322638,19.0194444 6.37290553,21.525 14.8511459,23.575 C22.2482684,25.2833333 23.8414948,26.8208333 23.8414948,29.6680556 L23.8414948,29.7819444 C23.8414948,32.7430556 21.1102496,34.7930556 16.7857779,34.7930556 C11.8922969,34.7930556 8.02303285,32.9138889 4.21066972,29.6111111 L0,34.6222222 C4.77967914,38.8930556 10.5266743,41 16.6150751,41 Z M39.0909473,40.4305556 L39.0909473,0.569444444 L56.8440413,0.569444444 C61.8513242,0.569444444 65.7774892,2.05 68.3380316,4.55555556 C70.4433664,6.71944444 71.6382862,9.68055556 71.6382862,13.1541667 L71.6382862,13.2680556 C71.6382862,19.8166667 67.7121212,23.7458333 62.1927298,25.3402778 L72.9470079,40.4305556 L64.6394703,40.4305556 L54.8525083,26.5361111 L46.0897632,26.5361111 L46.0897632,40.4305556 L39.0909473,40.4305556 Z M46.0897632,20.3291667 L56.3319328,20.3291667 C61.3392157,20.3291667 64.5256684,17.7097222 64.5256684,13.6666667 L64.5256684,13.5527778 C64.5256684,9.28194444 61.4530176,6.94722222 56.2750318,6.94722222 L46.0897632,6.94722222 L46.0897632,20.3291667 Z M80.6286351,40.4305556 L87.627451,40.4305556 L87.627451,0.569444444 L80.6286351,0.569444444 L80.6286351,40.4305556 Z" id="SRI" fill="#FFFFFF"></path>
            <polygon id="Fill-18-Copy-4" fill="#0099D8" points="95.6666667 0 95.6666667 41 123.295982 20.5060526"></polygon>
        </g>
    </g>
</svg>