<?xml version="1.0" encoding="UTF-8"?>
<svg width="299px" height="75px" viewBox="0 0 299 75" version="1.1" xmlns="http://www.w3.org/2000/svg" xmlns:xlink="http://www.w3.org/1999/xlink">
    <!-- Generator: Sketch 47.1 (45422) - http://www.bohemiancoding.com/sketch -->
    <title>1st</title>
    <desc>Created with Sketch.</desc>
    <defs>
        <polygon id="path-1" points="7.94936709 63 43.0506329 63 49 69 2 69"></polygon>
        <rect id="path-2" x="11" y="40" width="4" height="24"></rect>
        <rect id="path-3" x="19" y="40" width="4" height="24"></rect>
        <rect id="path-4" x="28" y="40" width="4" height="24"></rect>
        <rect id="path-5" x="36" y="40" width="4" height="24"></rect>
    </defs>
    <g id="Symbols" stroke="none" stroke-width="1" fill="none" fill-rule="evenodd">
        <g id="1st">
            <g id="Group" transform="translate(1.000000, 0.000000)">
                <g id="Rectangle-16">
                    <use fill="#FFFFFF" fill-rule="evenodd" xlink:href="#path-1"></use>
                    <path stroke="#0099D8" stroke-width="1" d="M8.15771603,63.5 L3.19991012,68.5 L47.8000899,68.5 L42.842284,63.5 L8.15771603,63.5 Z"></path>
                </g>
                <g id="Rectangle-17">
                    <use fill="#FFFFFF" fill-rule="evenodd" xlink:href="#path-2"></use>
                    <rect stroke="#0099D8" stroke-width="1" x="11.5" y="40.5" width="3" height="23"></rect>
                </g>
                <g id="Rectangle-17-Copy">
                    <use fill="#FFFFFF" fill-rule="evenodd" xlink:href="#path-3"></use>
                    <rect stroke="#0099D8" stroke-width="1" x="19.5" y="40.5" width="3" height="23"></rect>
                </g>
                <g id="Rectangle-17-Copy-2">
                    <use fill="#FFFFFF" fill-rule="evenodd" xlink:href="#path-4"></use>
                    <rect stroke="#0099D8" stroke-width="1" x="28.5" y="40.5" width="3" height="23"></rect>
                </g>
                <g id="Rectangle-17-Copy-3">
                    <use fill="#FFFFFF" fill-rule="evenodd" xlink:href="#path-5"></use>
                    <rect stroke="#0099D8" stroke-width="1" x="36.5" y="40.5" width="3" height="23"></rect>
                </g>
                <rect id="Rectangle-16-Copy" fill="#0099D8" x="8" y="35" width="35" height="6"></rect>
                <rect id="Rectangle-16-Copy-2" fill="#0099D8" x="0" y="68" width="51" height="6"></rect>
                <path d="M34.656,21.26 C37.672,21.26 39.986,19.856 39.986,16.762 L39.986,16.71 C39.986,14.162 37.724,13.226 35.774,12.576 C34.266,12.056 32.94,11.692 32.94,10.912 L32.94,10.86 C32.94,10.314 33.434,9.898 34.396,9.898 C35.41,9.898 36.788,10.392 38.166,11.198 L39.674,8.468 C38.166,7.454 36.242,6.856 34.474,6.856 C31.666,6.856 29.378,8.442 29.378,11.276 L29.378,11.328 C29.378,14.032 31.588,14.942 33.538,15.514 C35.072,15.982 36.424,16.268 36.424,17.126 L36.424,17.178 C36.424,17.802 35.904,18.218 34.76,18.218 C33.46,18.218 31.874,17.646 30.366,16.554 L28.676,19.154 C30.522,20.61 32.706,21.26 34.656,21.26 Z" id="s" fill="#0099D8"></path>
                <path d="M43.474,21.234 C44.8,21.234 45.762,20.922 46.594,20.428 L46.594,17.256 C46.022,17.568 45.372,17.75 44.644,17.75 C43.76,17.75 43.37,17.308 43.37,16.398 L43.37,10.444 L46.646,10.444 L46.646,7.064 L43.37,7.064 L43.37,3.502 L39.418,3.502 L39.418,7.064 L37.754,7.064 L37.754,10.444 L39.418,10.444 L39.418,17.048 C39.418,20.272 41.056,21.234 43.474,21.234 Z" id="t" fill="#0099D8"></path>
                <path d="M22.5139216,28.21875 L22.5139216,10.8302574 L17,12.1437684 L17.5537255,6.62702206 L24.6381373,4 L29.3837255,4 L29.3837255,28.21875 L35,28.21875 L35,35 L17,35 L17,28.21875 L22.5139216,28.21875 Z" id="Combined-Shape" stroke="#0099D8" stroke-width="2" fill="#FFFFFF"></path>
            </g>
            <path d="M84.272,44 L87.92,44 L87.92,27.08 L85.4,27.08 L80.576,28.52 L81.344,31.544 L84.272,30.824 L84.272,44 Z M96.272,44.24 C99.056,44.24 101.192,42.944 101.192,40.088 L101.192,40.04 C101.192,37.688 99.104,36.824 97.304,36.224 C95.912,35.744 94.688,35.408 94.688,34.688 L94.688,34.64 C94.688,34.136 95.144,33.752 96.032,33.752 C96.968,33.752 98.24,34.208 99.512,34.952 L100.904,32.432 C99.512,31.496 97.736,30.944 96.104,30.944 C93.512,30.944 91.4,32.408 91.4,35.024 L91.4,35.072 C91.4,37.568 93.44,38.408 95.24,38.936 C96.656,39.368 97.904,39.632 97.904,40.424 L97.904,40.472 C97.904,41.048 97.424,41.432 96.368,41.432 C95.168,41.432 93.704,40.904 92.312,39.896 L90.752,42.296 C92.456,43.64 94.472,44.24 96.272,44.24 Z M107.912,44.216 C109.136,44.216 110.024,43.928 110.792,43.472 L110.792,40.544 C110.264,40.832 109.664,41 108.992,41 C108.176,41 107.816,40.592 107.816,39.752 L107.816,34.256 L110.84,34.256 L110.84,31.136 L107.816,31.136 L107.816,27.848 L104.168,27.848 L104.168,31.136 L102.632,31.136 L102.632,34.256 L104.168,34.256 L104.168,40.352 C104.168,43.328 105.68,44.216 107.912,44.216 Z M121.112,44 L121.112,27.2 L127.976,27.2 C131.984,27.2 134.408,29.576 134.408,33.008 L134.408,33.056 C134.408,36.944 131.384,38.96 127.616,38.96 L124.808,38.96 L124.808,44 L121.112,44 Z M124.808,35.672 L127.736,35.672 C129.584,35.672 130.664,34.568 130.664,33.128 L130.664,33.08 C130.664,31.424 129.512,30.536 127.664,30.536 L124.808,30.536 L124.808,35.672 Z M136.928,44 L140.576,44 L140.576,26.48 L136.928,26.48 L136.928,44 Z M147.656,44.24 C145.232,44.24 143.24,42.848 143.24,40.304 L143.24,40.256 C143.24,37.448 145.376,36.152 148.424,36.152 C149.72,36.152 150.656,36.368 151.568,36.68 L151.568,36.464 C151.568,34.952 150.632,34.112 148.808,34.112 C147.416,34.112 146.432,34.376 145.256,34.808 L144.344,32.024 C145.76,31.4 147.152,30.992 149.336,30.992 C151.328,30.992 152.768,31.52 153.68,32.432 C154.64,33.392 155.072,34.808 155.072,36.536 L155.072,44 L151.544,44 L151.544,42.608 C150.656,43.592 149.432,44.24 147.656,44.24 Z M148.76,41.72 C150.464,41.72 151.616,40.784 151.616,39.464 L151.616,38.816 C150.992,38.528 150.176,38.336 149.288,38.336 C147.728,38.336 146.768,38.96 146.768,40.112 L146.768,40.16 C146.768,41.144 147.584,41.72 148.76,41.72 Z M164.288,44.288 C166.856,44.288 168.296,43.304 169.544,41.936 L167.408,39.776 C166.52,40.616 165.68,41.144 164.456,41.144 C162.464,41.144 161.192,39.56 161.192,37.592 L161.192,37.544 C161.192,35.648 162.488,34.04 164.312,34.04 C165.608,34.04 166.424,34.592 167.24,35.456 L169.472,33.056 C168.272,31.712 166.76,30.896 164.336,30.896 C160.4,30.896 157.592,33.92 157.592,37.592 L157.592,37.64 C157.592,41.312 160.424,44.288 164.288,44.288 Z M177.656,44.288 C173.792,44.288 170.936,41.576 170.936,37.64 L170.936,37.592 C170.936,33.92 173.552,30.896 177.296,30.896 C181.592,30.896 183.56,34.232 183.56,37.88 C183.56,38.168 183.536,38.504 183.512,38.84 L174.56,38.84 C174.92,40.496 176.072,41.36 177.704,41.36 C178.928,41.36 179.816,40.976 180.824,40.04 L182.912,41.888 C181.712,43.376 179.984,44.288 177.656,44.288 Z M174.512,36.56 L180.008,36.56 C179.792,34.928 178.832,33.824 177.296,33.824 C175.784,33.824 174.8,34.904 174.512,36.56 Z M198.296,44.12 L201.512,44.12 L205.304,33.128 L209.096,44.12 L212.312,44.12 L218.048,27.2 L214.184,27.2 L210.704,38.576 L206.936,27.152 L203.768,27.152 L200,38.576 L196.52,27.2 L192.56,27.2 L198.296,44.12 Z M220.112,29.72 L223.952,29.72 L223.952,26.48 L220.112,26.48 L220.112,29.72 Z M220.208,44 L223.856,44 L223.856,31.136 L220.208,31.136 L220.208,44 Z M227.288,44 L230.936,44 L230.936,36.824 C230.936,35.096 231.824,34.208 233.216,34.208 C234.608,34.208 235.424,35.096 235.424,36.824 L235.424,44 L239.072,44 L239.072,35.672 C239.072,32.72 237.464,30.896 234.704,30.896 C232.856,30.896 231.776,31.88 230.936,32.96 L230.936,31.136 L227.288,31.136 L227.288,44 Z M242.24,44 L245.888,44 L245.888,36.824 C245.888,35.096 246.776,34.208 248.168,34.208 C249.56,34.208 250.376,35.096 250.376,36.824 L250.376,44 L254.024,44 L254.024,35.672 C254.024,32.72 252.416,30.896 249.656,30.896 C247.808,30.896 246.728,31.88 245.888,32.96 L245.888,31.136 L242.24,31.136 L242.24,44 Z M263.288,44.288 C259.424,44.288 256.568,41.576 256.568,37.64 L256.568,37.592 C256.568,33.92 259.184,30.896 262.928,30.896 C267.224,30.896 269.192,34.232 269.192,37.88 C269.192,38.168 269.168,38.504 269.144,38.84 L260.192,38.84 C260.552,40.496 261.704,41.36 263.336,41.36 C264.56,41.36 265.448,40.976 266.456,40.04 L268.544,41.888 C267.344,43.376 265.616,44.288 263.288,44.288 Z M260.144,36.56 L265.64,36.56 C265.424,34.928 264.464,33.824 262.928,33.824 C261.416,33.824 260.432,34.904 260.144,36.56 Z M271.904,44 L275.552,44 L275.552,39.248 C275.552,36.176 277.04,34.712 279.464,34.712 L279.656,34.712 L279.656,30.896 C277.496,30.8 276.296,31.952 275.552,33.728 L275.552,31.136 L271.904,31.136 L271.904,44 Z M90.08,53.808 L92.576,53.808 L92.072,55.512 C93.584,55.92 94.784,56.688 95.768,57.696 L93.272,60.144 C92.552,59.472 91.832,58.968 91.04,58.68 L89.96,62.256 C92.288,63.12 93.848,64.248 93.848,66.72 C93.848,69.888 90.872,72 87.104,72 L87.08,72 L86.36,74.352 L83.864,74.352 L84.656,71.76 C82.664,71.352 81.032,70.416 79.88,68.904 L82.568,66.648 C83.456,67.656 84.488,68.328 85.664,68.64 L86.816,64.944 C84.56,64.104 82.832,63.072 82.832,60.48 C82.832,57.456 85.736,55.2 89.456,55.2 L89.648,55.2 L90.08,53.808 Z M86.624,60.096 C86.624,60.672 86.912,61.032 87.896,61.464 L88.808,58.368 C87.248,58.464 86.624,59.256 86.624,60.096 Z M90.056,67.104 C90.056,66.504 89.72,66.12 88.88,65.712 L87.92,68.832 C89.24,68.712 90.056,68.112 90.056,67.104 Z M94.544,72 L95.36,68.976 L103.856,63.12 C105.488,61.992 106.304,61.08 106.304,60 C106.304,58.896 105.488,58.272 104.192,58.272 C102.728,58.272 101.504,59.088 100.184,60.36 L97.928,58.008 C99.56,56.16 101.696,54.96 104.36,54.96 C107.84,54.96 110.096,56.88 110.096,59.592 C110.096,61.656 109.136,63.168 106.136,65.256 L100.952,68.808 L108.008,68.808 L107.144,72 L94.544,72 Z M120.488,54.912 C124.424,54.912 127.04,57.672 127.04,61.896 C127.04,64.752 125.936,67.776 123.872,69.84 C122.384,71.328 120.416,72.288 118.04,72.288 C114.104,72.288 111.488,69.528 111.488,65.304 C111.488,62.448 112.592,59.424 114.656,57.36 C116.144,55.872 118.112,54.912 120.488,54.912 Z M118.328,68.952 C119.36,68.952 120.272,68.472 121.016,67.728 C122.432,66.312 123.248,63.912 123.248,61.872 C123.248,59.496 122.048,58.248 120.2,58.248 C119.168,58.248 118.256,58.728 117.512,59.472 C116.096,60.888 115.28,63.288 115.28,65.328 C115.28,67.704 116.48,68.952 118.328,68.952 Z M138.008,54.912 C141.944,54.912 144.56,57.672 144.56,61.896 C144.56,64.752 143.456,67.776 141.392,69.84 C139.904,71.328 137.936,72.288 135.56,72.288 C131.624,72.288 129.008,69.528 129.008,65.304 C129.008,62.448 130.112,59.424 132.176,57.36 C133.664,55.872 135.632,54.912 138.008,54.912 Z M135.848,68.952 C136.88,68.952 137.792,68.472 138.536,67.728 C139.952,66.312 140.768,63.912 140.768,61.872 C140.768,59.496 139.568,58.248 137.72,58.248 C136.688,58.248 135.776,58.728 135.032,59.472 C133.616,60.888 132.8,63.288 132.8,65.328 C132.8,67.704 134,68.952 135.848,68.952 Z M155.528,54.912 C159.464,54.912 162.08,57.672 162.08,61.896 C162.08,64.752 160.976,67.776 158.912,69.84 C157.424,71.328 155.456,72.288 153.08,72.288 C149.144,72.288 146.528,69.528 146.528,65.304 C146.528,62.448 147.632,59.424 149.696,57.36 C151.184,55.872 153.152,54.912 155.528,54.912 Z M153.368,68.952 C154.4,68.952 155.312,68.472 156.056,67.728 C157.472,66.312 158.288,63.912 158.288,61.872 C158.288,59.496 157.088,58.248 155.24,58.248 C154.208,58.248 153.296,58.728 152.552,59.472 C151.136,60.888 150.32,63.288 150.32,65.328 C150.32,67.704 151.52,68.952 153.368,68.952 Z M177.848,72.24 C175.832,72.24 174.656,71.4 173.816,70.128 L173.312,72 L169.688,72 L174.344,54.48 L177.992,54.48 L176.384,60.528 C177.488,59.496 178.568,58.896 180.008,58.896 C182.816,58.896 184.952,60.936 184.952,64.416 C184.952,66.768 184.04,68.76 182.648,70.152 C181.328,71.472 179.6,72.24 177.848,72.24 Z M177.368,69.168 C178.256,69.168 179.144,68.76 179.816,68.088 C180.632,67.272 181.184,66.072 181.184,64.656 C181.184,62.976 180.128,61.968 178.496,61.968 C177.584,61.968 176.696,62.376 176,63.072 C175.136,63.936 174.608,65.112 174.608,66.432 C174.608,68.064 175.76,69.168 177.368,69.168 Z M194.384,58.896 C198.2,58.896 200.576,61.416 200.576,64.848 C200.576,66.792 199.736,68.688 198.344,70.08 C197,71.424 195.176,72.288 193.136,72.288 C189.32,72.288 186.944,69.768 186.944,66.336 C186.944,64.392 187.784,62.496 189.176,61.104 C190.52,59.76 192.344,58.896 194.384,58.896 Z M193.304,69.168 C194.216,69.168 195.032,68.76 195.632,68.16 C196.52,67.296 197,65.952 197,64.944 C197,63.048 195.872,62.016 194.216,62.016 C193.304,62.016 192.488,62.424 191.888,63.024 C191,63.888 190.52,65.232 190.52,66.24 C190.52,68.136 191.648,69.168 193.304,69.168 Z M201.512,72 L205.16,72 L207.104,64.776 C207.512,63.24 208.448,62.208 209.888,62.208 C211.016,62.208 211.664,62.76 211.664,63.792 C211.664,64.104 211.592,64.584 211.496,64.944 L209.6,72 L213.248,72 L215.096,65.088 C215.312,64.272 215.528,63.36 215.528,62.64 C215.528,60.312 214.04,58.896 211.736,58.896 C210.296,58.896 209.144,59.664 208.232,60.48 L208.592,59.136 L204.944,59.136 L201.512,72 Z M221.216,72.24 C218.912,72.24 217.424,70.824 217.424,68.496 C217.424,67.776 217.64,66.864 217.856,66.048 L219.704,59.136 L223.352,59.136 L221.456,66.192 C221.36,66.552 221.288,67.032 221.288,67.344 C221.288,68.376 221.936,68.928 223.064,68.928 C224.504,68.928 225.44,67.896 225.848,66.36 L227.792,59.136 L231.44,59.136 L228.008,72 L224.36,72 L224.72,70.656 C223.808,71.472 222.656,72.24 221.216,72.24 Z M236.576,72.288 C234.632,72.288 232.304,71.544 230.792,69.96 L232.904,67.776 C234.248,69.12 235.688,69.504 236.84,69.504 C237.8,69.504 238.376,69.096 238.376,68.376 C238.376,67.896 237.776,67.56 236.888,67.176 C234.872,66.312 233.144,65.472 233.144,63.408 C233.144,60.84 235.112,58.896 238.304,58.896 C240.392,58.896 242.312,59.808 243.368,60.744 L241.4,63.048 C240.152,62.064 239.096,61.68 238.04,61.68 C237.152,61.68 236.624,62.088 236.624,62.76 C236.624,63.264 237.248,63.624 238.328,64.104 C240.008,64.848 241.856,65.736 241.856,67.752 C241.856,70.56 239.648,72.288 236.576,72.288 Z" id="1st-Place-Winner-$20" fill="#003057"></path>
        </g>
    </g>
</svg>