<?xml version="1.0" encoding="UTF-8"?>
<svg width="279px" height="71px" viewBox="0 0 279 71" version="1.1" xmlns="http://www.w3.org/2000/svg" xmlns:xlink="http://www.w3.org/1999/xlink">
    <!-- Generator: Sketch 47.1 (45422) - http://www.bohemiancoding.com/sketch -->
    <title>1st</title>
    <desc>Created with Sketch.</desc>
    <defs>
        <polygon id="path-1" points="7.94936709 63 43.0506329 63 49 69 2 69"></polygon>
        <rect id="path-2" x="11" y="40" width="4" height="24"></rect>
        <rect id="path-3" x="19" y="40" width="4" height="24"></rect>
        <rect id="path-4" x="28" y="40" width="4" height="24"></rect>
        <rect id="path-5" x="36" y="40" width="4" height="24"></rect>
    </defs>
    <g id="MockUp" stroke="none" stroke-width="1" fill="none" fill-rule="evenodd">
        <g id="Desktop-HD-Revised1116" transform="translate(-353.000000, -3881.000000)">
            <g id="1st" transform="translate(352.000000, 3878.000000)">
                <g id="Group" stroke-width="1" fill-rule="evenodd" transform="translate(1.000000, 0.000000)">
                    <g id="Rectangle-16">
                        <use fill="#FFFFFF" fill-rule="evenodd" xlink:href="#path-1"></use>
                        <path stroke="#0099D8" stroke-width="1" d="M8.15771603,63.5 L3.19991012,68.5 L47.8000899,68.5 L42.842284,63.5 L8.15771603,63.5 Z"></path>
                    </g>
                    <g id="Rectangle-17">
                        <use fill="#FFFFFF" fill-rule="evenodd" xlink:href="#path-2"></use>
                        <rect stroke="#0099D8" stroke-width="1" x="11.5" y="40.5" width="3" height="23"></rect>
                    </g>
                    <g id="Rectangle-17-Copy">
                        <use fill="#FFFFFF" fill-rule="evenodd" xlink:href="#path-3"></use>
                        <rect stroke="#0099D8" stroke-width="1" x="19.5" y="40.5" width="3" height="23"></rect>
                    </g>
                    <g id="Rectangle-17-Copy-2">
                        <use fill="#FFFFFF" fill-rule="evenodd" xlink:href="#path-4"></use>
                        <rect stroke="#0099D8" stroke-width="1" x="28.5" y="40.5" width="3" height="23"></rect>
                    </g>
                    <g id="Rectangle-17-Copy-3">
                        <use fill="#FFFFFF" fill-rule="evenodd" xlink:href="#path-5"></use>
                        <rect stroke="#0099D8" stroke-width="1" x="36.5" y="40.5" width="3" height="23"></rect>
                    </g>
                    <rect id="Rectangle-16-Copy" fill="#0099D8" x="8" y="35" width="35" height="6"></rect>
                    <rect id="Rectangle-16-Copy-2" fill="#0099D8" x="0" y="68" width="51" height="6"></rect>
                    <text id="s" font-family="Gotham-Bold, Gotham" font-size="26" font-weight="bold" fill="#0099D8">
                        <tspan x="28" y="24">s</tspan>
                    </text>
                    <text id="t" font-family="Gotham-Bold, Gotham" font-size="26" font-weight="bold" fill="#0099D8">
                        <tspan x="37" y="24">t</tspan>
                    </text>
                    <path d="M22.5139216,28.21875 L22.5139216,10.8302574 L17,12.1437684 L17.5537255,6.62702206 L24.6381373,4 L29.3837255,4 L29.3837255,28.21875 L35,28.21875 L35,35 L17,35 L17,28.21875 L22.5139216,28.21875 Z" id="Combined-Shape" stroke="#0099D8" stroke-width="2" fill="#FFFFFF"></path>
                </g>
                <text id="1st-Place-Winner-$20" font-family="Gotham-Bold, Gotham" font-size="24" font-weight="bold" line-spacing="28" fill="#003057">
                    <tspan x="80" y="40">1st Place Winner</tspan>
                    <tspan x="80" y="68" font-family="Gotham-Book, Gotham" font-weight="300">$2000 bonus</tspan>
                </text>
            </g>
        </g>
    </g>
</svg>