<?xml version="1.0" encoding="UTF-8"?>
<svg width="299px" height="75px" viewBox="0 0 299 75" version="1.1" xmlns="http://www.w3.org/2000/svg" xmlns:xlink="http://www.w3.org/1999/xlink">
    <!-- Generator: Sketch 47.1 (45422) - http://www.bohemiancoding.com/sketch -->
    <title>2nd</title>
    <desc>Created with Sketch.</desc>
    <defs>
        <rect id="path-1" x="11" y="42.1636627" width="4.14285714" height="21.8363373"></rect>
        <rect id="path-2" x="19" y="42.1636627" width="4.14285714" height="21.8363373"></rect>
        <rect id="path-3" x="28" y="42.1636627" width="4.14285714" height="21.8363373"></rect>
        <rect id="path-4" x="36" y="42.1636627" width="4.14285714" height="21.8363373"></rect>
        <polygon id="path-5" points="7.94936709 60 43.0506329 60 49 66 2 66"></polygon>
    </defs>
    <g id="Symbols" stroke="none" stroke-width="1" fill="none" fill-rule="evenodd">
        <g id="2nd">
            <g id="Group" transform="translate(1.000000, 3.000000)">
                <g id="Rectangle-17-Copy-4">
                    <use fill="#FFFFFF" fill-rule="evenodd" xlink:href="#path-1"></use>
                    <rect stroke="#0099D8" stroke-width="1" x="11.5" y="42.6636627" width="3.14285714" height="20.8363373"></rect>
                </g>
                <g id="Rectangle-17-Copy-5">
                    <use fill="#FFFFFF" fill-rule="evenodd" xlink:href="#path-2"></use>
                    <rect stroke="#0099D8" stroke-width="1" x="19.5" y="42.6636627" width="3.14285714" height="20.8363373"></rect>
                </g>
                <g id="Rectangle-17-Copy-6">
                    <use fill="#FFFFFF" fill-rule="evenodd" xlink:href="#path-3"></use>
                    <rect stroke="#0099D8" stroke-width="1" x="28.5" y="42.6636627" width="3.14285714" height="20.8363373"></rect>
                </g>
                <g id="Rectangle-17-Copy-7">
                    <use fill="#FFFFFF" fill-rule="evenodd" xlink:href="#path-4"></use>
                    <rect stroke="#0099D8" stroke-width="1" x="36.5" y="42.6636627" width="3.14285714" height="20.8363373"></rect>
                </g>
                <g id="Rectangle-16-Copy-3">
                    <use fill="#FFFFFF" fill-rule="evenodd" xlink:href="#path-5"></use>
                    <path stroke="#0099D8" stroke-width="1" d="M8.15771603,60.5 L3.19991012,65.5 L47.8000899,65.5 L42.842284,60.5 L8.15771603,60.5 Z"></path>
                </g>
                <rect id="Rectangle-16-Copy-4" fill="#0099D8" x="8" y="37" width="35" height="6"></rect>
                <path d="M32.36,15 L35.4,15 L35.4,9.02 C35.4,7.58 36.14,6.84 37.3,6.84 C38.46,6.84 39.14,7.58 39.14,9.02 L39.14,15 L42.18,15 L42.18,8.06 C42.18,5.6 40.84,4.08 38.54,4.08 C37,4.08 36.1,4.9 35.4,5.8 L35.4,4.28 L32.36,4.28 L32.36,15 Z" id="n" fill="#0099D8"></path>
                <path d="M44.76,15.2 C42.26,15.2 39.88,13.24 39.88,9.66 L39.88,9.62 C39.88,6.04 42.22,4.08 44.76,4.08 C46.38,4.08 47.38,4.82 48.1,5.68 L48.1,0.4 L51.14,0.4 L51.14,15 L48.1,15 L48.1,13.46 C47.36,14.46 46.34,15.2 44.76,15.2 Z M45.54,12.62 C46.96,12.62 48.14,11.44 48.14,9.66 L48.14,9.62 C48.14,7.84 46.96,6.66 45.54,6.66 C44.12,6.66 42.92,7.82 42.92,9.62 L42.92,9.66 C42.92,11.44 44.12,12.62 45.54,12.62 Z" id="d" fill="#0099D8"></path>
                <path d="M12.205,37 L35.515,37 L35.515,31.015 L21.79,31.015 L26.92,27.055 C32.5,22.735 35.2,20.125 35.2,14.86 L35.2,14.77 C35.2,8.875 30.88,5.05 24.355,5.05 C18.73,5.05 15.715,7.345 12.61,11.575 L17.47,15.49 C19.81,12.61 21.475,11.26 23.905,11.26 C26.38,11.26 28.135,12.7 28.135,15.355 C28.135,17.965 26.605,19.675 22.69,22.915 L12.205,31.51 L12.205,37 Z" id="2" stroke="#0099D8" stroke-width="2" fill="#FFFFFF"></path>
                <rect id="Rectangle-16-Copy-5" fill="#0099D8" x="0" y="65" width="51" height="6"></rect>
            </g>
            <path d="M81.176,44 L93.608,44 L93.608,40.808 L86.288,40.808 L89.024,38.696 C92,36.392 93.44,35 93.44,32.192 L93.44,32.144 C93.44,29 91.136,26.96 87.656,26.96 C84.656,26.96 83.048,28.184 81.392,30.44 L83.984,32.528 C85.232,30.992 86.12,30.272 87.416,30.272 C88.736,30.272 89.672,31.04 89.672,32.456 C89.672,33.848 88.856,34.76 86.768,36.488 L81.176,41.072 L81.176,44 Z M96.584,44 L100.232,44 L100.232,36.824 C100.232,35.096 101.12,34.208 102.512,34.208 C103.904,34.208 104.72,35.096 104.72,36.824 L104.72,44 L108.368,44 L108.368,35.672 C108.368,32.72 106.76,30.896 104,30.896 C102.152,30.896 101.072,31.88 100.232,32.96 L100.232,31.136 L96.584,31.136 L96.584,44 Z M116.816,44.24 C113.816,44.24 110.96,41.888 110.96,37.592 L110.96,37.544 C110.96,33.248 113.768,30.896 116.816,30.896 C118.76,30.896 119.96,31.784 120.824,32.816 L120.824,26.48 L124.472,26.48 L124.472,44 L120.824,44 L120.824,42.152 C119.936,43.352 118.712,44.24 116.816,44.24 Z M117.752,41.144 C119.456,41.144 120.872,39.728 120.872,37.592 L120.872,37.544 C120.872,35.408 119.456,33.992 117.752,33.992 C116.048,33.992 114.608,35.384 114.608,37.544 L114.608,37.592 C114.608,39.728 116.048,41.144 117.752,41.144 Z M135.32,44 L135.32,27.2 L142.184,27.2 C146.192,27.2 148.616,29.576 148.616,33.008 L148.616,33.056 C148.616,36.944 145.592,38.96 141.824,38.96 L139.016,38.96 L139.016,44 L135.32,44 Z M139.016,35.672 L141.944,35.672 C143.792,35.672 144.872,34.568 144.872,33.128 L144.872,33.08 C144.872,31.424 143.72,30.536 141.872,30.536 L139.016,30.536 L139.016,35.672 Z M151.136,44 L154.784,44 L154.784,26.48 L151.136,26.48 L151.136,44 Z M161.864,44.24 C159.44,44.24 157.448,42.848 157.448,40.304 L157.448,40.256 C157.448,37.448 159.584,36.152 162.632,36.152 C163.928,36.152 164.864,36.368 165.776,36.68 L165.776,36.464 C165.776,34.952 164.84,34.112 163.016,34.112 C161.624,34.112 160.64,34.376 159.464,34.808 L158.552,32.024 C159.968,31.4 161.36,30.992 163.544,30.992 C165.536,30.992 166.976,31.52 167.888,32.432 C168.848,33.392 169.28,34.808 169.28,36.536 L169.28,44 L165.752,44 L165.752,42.608 C164.864,43.592 163.64,44.24 161.864,44.24 Z M162.968,41.72 C164.672,41.72 165.824,40.784 165.824,39.464 L165.824,38.816 C165.2,38.528 164.384,38.336 163.496,38.336 C161.936,38.336 160.976,38.96 160.976,40.112 L160.976,40.16 C160.976,41.144 161.792,41.72 162.968,41.72 Z M178.496,44.288 C181.064,44.288 182.504,43.304 183.752,41.936 L181.616,39.776 C180.728,40.616 179.888,41.144 178.664,41.144 C176.672,41.144 175.4,39.56 175.4,37.592 L175.4,37.544 C175.4,35.648 176.696,34.04 178.52,34.04 C179.816,34.04 180.632,34.592 181.448,35.456 L183.68,33.056 C182.48,31.712 180.968,30.896 178.544,30.896 C174.608,30.896 171.8,33.92 171.8,37.592 L171.8,37.64 C171.8,41.312 174.632,44.288 178.496,44.288 Z M191.864,44.288 C188,44.288 185.144,41.576 185.144,37.64 L185.144,37.592 C185.144,33.92 187.76,30.896 191.504,30.896 C195.8,30.896 197.768,34.232 197.768,37.88 C197.768,38.168 197.744,38.504 197.72,38.84 L188.768,38.84 C189.128,40.496 190.28,41.36 191.912,41.36 C193.136,41.36 194.024,40.976 195.032,40.04 L197.12,41.888 C195.92,43.376 194.192,44.288 191.864,44.288 Z M188.72,36.56 L194.216,36.56 C194,34.928 193.04,33.824 191.504,33.824 C189.992,33.824 189.008,34.904 188.72,36.56 Z M212.504,44.12 L215.72,44.12 L219.512,33.128 L223.304,44.12 L226.52,44.12 L232.256,27.2 L228.392,27.2 L224.912,38.576 L221.144,27.152 L217.976,27.152 L214.208,38.576 L210.728,27.2 L206.768,27.2 L212.504,44.12 Z M234.32,29.72 L238.16,29.72 L238.16,26.48 L234.32,26.48 L234.32,29.72 Z M234.416,44 L238.064,44 L238.064,31.136 L234.416,31.136 L234.416,44 Z M241.496,44 L245.144,44 L245.144,36.824 C245.144,35.096 246.032,34.208 247.424,34.208 C248.816,34.208 249.632,35.096 249.632,36.824 L249.632,44 L253.28,44 L253.28,35.672 C253.28,32.72 251.672,30.896 248.912,30.896 C247.064,30.896 245.984,31.88 245.144,32.96 L245.144,31.136 L241.496,31.136 L241.496,44 Z M256.448,44 L260.096,44 L260.096,36.824 C260.096,35.096 260.984,34.208 262.376,34.208 C263.768,34.208 264.584,35.096 264.584,36.824 L264.584,44 L268.232,44 L268.232,35.672 C268.232,32.72 266.624,30.896 263.864,30.896 C262.016,30.896 260.936,31.88 260.096,32.96 L260.096,31.136 L256.448,31.136 L256.448,44 Z M277.496,44.288 C273.632,44.288 270.776,41.576 270.776,37.64 L270.776,37.592 C270.776,33.92 273.392,30.896 277.136,30.896 C281.432,30.896 283.4,34.232 283.4,37.88 C283.4,38.168 283.376,38.504 283.352,38.84 L274.4,38.84 C274.76,40.496 275.912,41.36 277.544,41.36 C278.768,41.36 279.656,40.976 280.664,40.04 L282.752,41.888 C281.552,43.376 279.824,44.288 277.496,44.288 Z M274.352,36.56 L279.848,36.56 C279.632,34.928 278.672,33.824 277.136,33.824 C275.624,33.824 274.64,34.904 274.352,36.56 Z M286.112,44 L289.76,44 L289.76,39.248 C289.76,36.176 291.248,34.712 293.672,34.712 L293.864,34.712 L293.864,30.896 C291.704,30.8 290.504,31.952 289.76,33.728 L289.76,31.136 L286.112,31.136 L286.112,44 Z M90.08,53.808 L92.576,53.808 L92.072,55.512 C93.584,55.92 94.784,56.688 95.768,57.696 L93.272,60.144 C92.552,59.472 91.832,58.968 91.04,58.68 L89.96,62.256 C92.288,63.12 93.848,64.248 93.848,66.72 C93.848,69.888 90.872,72 87.104,72 L87.08,72 L86.36,74.352 L83.864,74.352 L84.656,71.76 C82.664,71.352 81.032,70.416 79.88,68.904 L82.568,66.648 C83.456,67.656 84.488,68.328 85.664,68.64 L86.816,64.944 C84.56,64.104 82.832,63.072 82.832,60.48 C82.832,57.456 85.736,55.2 89.456,55.2 L89.648,55.2 L90.08,53.808 Z M86.624,60.096 C86.624,60.672 86.912,61.032 87.896,61.464 L88.808,58.368 C87.248,58.464 86.624,59.256 86.624,60.096 Z M90.056,67.104 C90.056,66.504 89.72,66.12 88.88,65.712 L87.92,68.832 C89.24,68.712 90.056,68.112 90.056,67.104 Z M97.544,72 L101.024,58.992 L97.976,59.688 L97.928,56.544 L103.208,55.08 L105.728,55.08 L101.192,72 L97.544,72 Z M111.68,72.264 C109.256,72.264 106.616,70.968 105.464,69.264 L108.056,67.08 C109.184,68.304 110.432,68.928 111.992,68.928 C113.984,68.928 115.4,67.728 115.4,66.312 C115.4,65.112 114.416,64.152 112.28,64.152 C111.56,64.152 110.648,64.416 110.024,64.68 L108.152,63.168 L110.768,55.2 L120.944,55.2 L120.056,58.44 L113.216,58.44 L112.256,61.296 C112.808,61.176 113.384,61.104 113.96,61.104 C117.032,61.104 119.192,62.976 119.192,65.904 C119.192,67.44 118.592,68.904 117.416,70.08 C116.096,71.4 114.152,72.264 111.68,72.264 Z M130.808,54.912 C134.744,54.912 137.36,57.672 137.36,61.896 C137.36,64.752 136.256,67.776 134.192,69.84 C132.704,71.328 130.736,72.288 128.36,72.288 C124.424,72.288 121.808,69.528 121.808,65.304 C121.808,62.448 122.912,59.424 124.976,57.36 C126.464,55.872 128.432,54.912 130.808,54.912 Z M128.648,68.952 C129.68,68.952 130.592,68.472 131.336,67.728 C132.752,66.312 133.568,63.912 133.568,61.872 C133.568,59.496 132.368,58.248 130.52,58.248 C129.488,58.248 128.576,58.728 127.832,59.472 C126.416,60.888 125.6,63.288 125.6,65.328 C125.6,67.704 126.8,68.952 128.648,68.952 Z M148.328,54.912 C152.264,54.912 154.88,57.672 154.88,61.896 C154.88,64.752 153.776,67.776 151.712,69.84 C150.224,71.328 148.256,72.288 145.88,72.288 C141.944,72.288 139.328,69.528 139.328,65.304 C139.328,62.448 140.432,59.424 142.496,57.36 C143.984,55.872 145.952,54.912 148.328,54.912 Z M146.168,68.952 C147.2,68.952 148.112,68.472 148.856,67.728 C150.272,66.312 151.088,63.912 151.088,61.872 C151.088,59.496 149.888,58.248 148.04,58.248 C147.008,58.248 146.096,58.728 145.352,59.472 C143.936,60.888 143.12,63.288 143.12,65.328 C143.12,67.704 144.32,68.952 146.168,68.952 Z M170.648,72.24 C168.632,72.24 167.456,71.4 166.616,70.128 L166.112,72 L162.488,72 L167.144,54.48 L170.792,54.48 L169.184,60.528 C170.288,59.496 171.368,58.896 172.808,58.896 C175.616,58.896 177.752,60.936 177.752,64.416 C177.752,66.768 176.84,68.76 175.448,70.152 C174.128,71.472 172.4,72.24 170.648,72.24 Z M170.168,69.168 C171.056,69.168 171.944,68.76 172.616,68.088 C173.432,67.272 173.984,66.072 173.984,64.656 C173.984,62.976 172.928,61.968 171.296,61.968 C170.384,61.968 169.496,62.376 168.8,63.072 C167.936,63.936 167.408,65.112 167.408,66.432 C167.408,68.064 168.56,69.168 170.168,69.168 Z M187.184,58.896 C191,58.896 193.376,61.416 193.376,64.848 C193.376,66.792 192.536,68.688 191.144,70.08 C189.8,71.424 187.976,72.288 185.936,72.288 C182.12,72.288 179.744,69.768 179.744,66.336 C179.744,64.392 180.584,62.496 181.976,61.104 C183.32,59.76 185.144,58.896 187.184,58.896 Z M186.104,69.168 C187.016,69.168 187.832,68.76 188.432,68.16 C189.32,67.296 189.8,65.952 189.8,64.944 C189.8,63.048 188.672,62.016 187.016,62.016 C186.104,62.016 185.288,62.424 184.688,63.024 C183.8,63.888 183.32,65.232 183.32,66.24 C183.32,68.136 184.448,69.168 186.104,69.168 Z M194.312,72 L197.96,72 L199.904,64.776 C200.312,63.24 201.248,62.208 202.688,62.208 C203.816,62.208 204.464,62.76 204.464,63.792 C204.464,64.104 204.392,64.584 204.296,64.944 L202.4,72 L206.048,72 L207.896,65.088 C208.112,64.272 208.328,63.36 208.328,62.64 C208.328,60.312 206.84,58.896 204.536,58.896 C203.096,58.896 201.944,59.664 201.032,60.48 L201.392,59.136 L197.744,59.136 L194.312,72 Z M214.016,72.24 C211.712,72.24 210.224,70.824 210.224,68.496 C210.224,67.776 210.44,66.864 210.656,66.048 L212.504,59.136 L216.152,59.136 L214.256,66.192 C214.16,66.552 214.088,67.032 214.088,67.344 C214.088,68.376 214.736,68.928 215.864,68.928 C217.304,68.928 218.24,67.896 218.648,66.36 L220.592,59.136 L224.24,59.136 L220.808,72 L217.16,72 L217.52,70.656 C216.608,71.472 215.456,72.24 214.016,72.24 Z M229.376,72.288 C227.432,72.288 225.104,71.544 223.592,69.96 L225.704,67.776 C227.048,69.12 228.488,69.504 229.64,69.504 C230.6,69.504 231.176,69.096 231.176,68.376 C231.176,67.896 230.576,67.56 229.688,67.176 C227.672,66.312 225.944,65.472 225.944,63.408 C225.944,60.84 227.912,58.896 231.104,58.896 C233.192,58.896 235.112,59.808 236.168,60.744 L234.2,63.048 C232.952,62.064 231.896,61.68 230.84,61.68 C229.952,61.68 229.424,62.088 229.424,62.76 C229.424,63.264 230.048,63.624 231.128,64.104 C232.808,64.848 234.656,65.736 234.656,67.752 C234.656,70.56 232.448,72.288 229.376,72.288 Z" id="2nd-Place-Winner-$15" fill="#003057"></path>
        </g>
    </g>
</svg>