<?xml version="1.0" encoding="UTF-8"?>
<svg width="299px" height="75px" viewBox="0 0 299 75" version="1.1" xmlns="http://www.w3.org/2000/svg" xmlns:xlink="http://www.w3.org/1999/xlink">
    <!-- Generator: Sketch 47.1 (45422) - http://www.bohemiancoding.com/sketch -->
    <title>3rd</title>
    <desc>Created with Sketch.</desc>
    <defs>
        <rect id="path-1" x="11" y="37.2103302" width="4.14285714" height="13.1197479"></rect>
        <rect id="path-2" x="19" y="37.2103302" width="4.14285714" height="13.1197479"></rect>
        <rect id="path-3" x="28" y="37.2103302" width="4.14285714" height="13.1197479"></rect>
        <rect id="path-4" x="36" y="37.2103302" width="4.14285714" height="13.1197479"></rect>
        <polygon id="path-5" points="7.94936709 49 43.0506329 49 49 55 2 55"></polygon>
    </defs>
    <g id="Symbols" stroke="none" stroke-width="1" fill="none" fill-rule="evenodd">
        <g id="3rd">
            <g id="Group-11" transform="translate(1.000000, 14.000000)">
                <g id="Rectangle-17-Copy-8">
                    <use fill="#FFFFFF" fill-rule="evenodd" xlink:href="#path-1"></use>
                    <rect stroke="#0099D8" stroke-width="1" x="11.5" y="37.7103302" width="3.14285714" height="12.1197479"></rect>
                </g>
                <g id="Rectangle-17-Copy-9">
                    <use fill="#FFFFFF" fill-rule="evenodd" xlink:href="#path-2"></use>
                    <rect stroke="#0099D8" stroke-width="1" x="19.5" y="37.7103302" width="3.14285714" height="12.1197479"></rect>
                </g>
                <g id="Rectangle-17-Copy-10">
                    <use fill="#FFFFFF" fill-rule="evenodd" xlink:href="#path-3"></use>
                    <rect stroke="#0099D8" stroke-width="1" x="28.5" y="37.7103302" width="3.14285714" height="12.1197479"></rect>
                </g>
                <g id="Rectangle-17-Copy-11">
                    <use fill="#FFFFFF" fill-rule="evenodd" xlink:href="#path-4"></use>
                    <rect stroke="#0099D8" stroke-width="1" x="36.5" y="37.7103302" width="3.14285714" height="12.1197479"></rect>
                </g>
                <g id="Rectangle-16-Copy-6">
                    <use fill="#FFFFFF" fill-rule="evenodd" xlink:href="#path-5"></use>
                    <path stroke="#0099D8" stroke-width="1" d="M8.15771603,49.5 L3.19991012,54.5 L47.8000899,54.5 L42.842284,49.5 L8.15771603,49.5 Z"></path>
                </g>
                <rect id="Rectangle-16-Copy-7" fill="#0099D8" x="8" y="32" width="35" height="6"></rect>
                <path d="M34.36,20 L37.4,20 L37.4,16.04 C37.4,13.48 38.64,12.26 40.66,12.26 L40.82,12.26 L40.82,9.08 C39.02,9 38.02,9.96 37.4,11.44 L37.4,9.28 L34.36,9.28 L34.36,20 Z" id="r" fill="#0099D8"></path>
                <path d="M43.76,20.2 C41.26,20.2 38.88,18.24 38.88,14.66 L38.88,14.62 C38.88,11.04 41.22,9.08 43.76,9.08 C45.38,9.08 46.38,9.82 47.1,10.68 L47.1,5.4 L50.14,5.4 L50.14,20 L47.1,20 L47.1,18.46 C46.36,19.46 45.34,20.2 43.76,20.2 Z M44.54,17.62 C45.96,17.62 47.14,16.44 47.14,14.66 L47.14,14.62 C47.14,12.84 45.96,11.66 44.54,11.66 C43.12,11.66 41.92,12.82 41.92,14.62 L41.92,14.66 C41.92,16.44 43.12,17.62 44.54,17.62 Z" id="d" fill="#0099D8"></path>
                <path d="M24.995,32.54 C32.015,32.54 36.335,28.175 36.335,22.235 L36.335,22.145 C36.335,16.295 32.15,14.045 27.875,13.325 L35.84,5.72 L35.84,0.5 L14.555,0.5 L14.555,6.44 L26.93,6.44 L19.415,14 L20.495,18.41 L23.375,18.41 C27.245,18.41 29.54,19.85 29.54,22.415 L29.54,22.505 C29.54,24.845 27.695,26.33 25.085,26.33 C21.89,26.33 19.64,24.98 17.48,22.55 L12.71,27.095 C15.41,30.29 19.325,32.54 24.995,32.54 Z" id="3" stroke="#0099D8" stroke-width="2" fill="#FFFFFF"></path>
                <rect id="Rectangle-16-Copy-8" fill="#0099D8" x="0" y="54" width="51" height="6"></rect>
            </g>
            <path d="M87.464,44.288 C91.208,44.288 93.512,41.96 93.512,38.792 L93.512,38.744 C93.512,35.624 91.28,34.424 89,34.04 L93.248,29.984 L93.248,27.2 L81.896,27.2 L81.896,30.368 L88.496,30.368 L84.488,34.4 L85.064,36.752 L86.6,36.752 C88.664,36.752 89.888,37.52 89.888,38.888 L89.888,38.936 C89.888,40.184 88.904,40.976 87.512,40.976 C85.808,40.976 84.608,40.256 83.456,38.96 L80.912,41.384 C82.352,43.088 84.44,44.288 87.464,44.288 Z M96.536,44 L100.184,44 L100.184,39.248 C100.184,36.176 101.672,34.712 104.096,34.712 L104.288,34.712 L104.288,30.896 C102.128,30.8 100.928,31.952 100.184,33.728 L100.184,31.136 L96.536,31.136 L96.536,44 Z M111.608,44.24 C108.608,44.24 105.752,41.888 105.752,37.592 L105.752,37.544 C105.752,33.248 108.56,30.896 111.608,30.896 C113.552,30.896 114.752,31.784 115.616,32.816 L115.616,26.48 L119.264,26.48 L119.264,44 L115.616,44 L115.616,42.152 C114.728,43.352 113.504,44.24 111.608,44.24 Z M112.544,41.144 C114.248,41.144 115.664,39.728 115.664,37.592 L115.664,37.544 C115.664,35.408 114.248,33.992 112.544,33.992 C110.84,33.992 109.4,35.384 109.4,37.544 L109.4,37.592 C109.4,39.728 110.84,41.144 112.544,41.144 Z M130.112,44 L130.112,27.2 L136.976,27.2 C140.984,27.2 143.408,29.576 143.408,33.008 L143.408,33.056 C143.408,36.944 140.384,38.96 136.616,38.96 L133.808,38.96 L133.808,44 L130.112,44 Z M133.808,35.672 L136.736,35.672 C138.584,35.672 139.664,34.568 139.664,33.128 L139.664,33.08 C139.664,31.424 138.512,30.536 136.664,30.536 L133.808,30.536 L133.808,35.672 Z M145.928,44 L149.576,44 L149.576,26.48 L145.928,26.48 L145.928,44 Z M156.656,44.24 C154.232,44.24 152.24,42.848 152.24,40.304 L152.24,40.256 C152.24,37.448 154.376,36.152 157.424,36.152 C158.72,36.152 159.656,36.368 160.568,36.68 L160.568,36.464 C160.568,34.952 159.632,34.112 157.808,34.112 C156.416,34.112 155.432,34.376 154.256,34.808 L153.344,32.024 C154.76,31.4 156.152,30.992 158.336,30.992 C160.328,30.992 161.768,31.52 162.68,32.432 C163.64,33.392 164.072,34.808 164.072,36.536 L164.072,44 L160.544,44 L160.544,42.608 C159.656,43.592 158.432,44.24 156.656,44.24 Z M157.76,41.72 C159.464,41.72 160.616,40.784 160.616,39.464 L160.616,38.816 C159.992,38.528 159.176,38.336 158.288,38.336 C156.728,38.336 155.768,38.96 155.768,40.112 L155.768,40.16 C155.768,41.144 156.584,41.72 157.76,41.72 Z M173.288,44.288 C175.856,44.288 177.296,43.304 178.544,41.936 L176.408,39.776 C175.52,40.616 174.68,41.144 173.456,41.144 C171.464,41.144 170.192,39.56 170.192,37.592 L170.192,37.544 C170.192,35.648 171.488,34.04 173.312,34.04 C174.608,34.04 175.424,34.592 176.24,35.456 L178.472,33.056 C177.272,31.712 175.76,30.896 173.336,30.896 C169.4,30.896 166.592,33.92 166.592,37.592 L166.592,37.64 C166.592,41.312 169.424,44.288 173.288,44.288 Z M186.656,44.288 C182.792,44.288 179.936,41.576 179.936,37.64 L179.936,37.592 C179.936,33.92 182.552,30.896 186.296,30.896 C190.592,30.896 192.56,34.232 192.56,37.88 C192.56,38.168 192.536,38.504 192.512,38.84 L183.56,38.84 C183.92,40.496 185.072,41.36 186.704,41.36 C187.928,41.36 188.816,40.976 189.824,40.04 L191.912,41.888 C190.712,43.376 188.984,44.288 186.656,44.288 Z M183.512,36.56 L189.008,36.56 C188.792,34.928 187.832,33.824 186.296,33.824 C184.784,33.824 183.8,34.904 183.512,36.56 Z M207.296,44.12 L210.512,44.12 L214.304,33.128 L218.096,44.12 L221.312,44.12 L227.048,27.2 L223.184,27.2 L219.704,38.576 L215.936,27.152 L212.768,27.152 L209,38.576 L205.52,27.2 L201.56,27.2 L207.296,44.12 Z M229.112,29.72 L232.952,29.72 L232.952,26.48 L229.112,26.48 L229.112,29.72 Z M229.208,44 L232.856,44 L232.856,31.136 L229.208,31.136 L229.208,44 Z M236.288,44 L239.936,44 L239.936,36.824 C239.936,35.096 240.824,34.208 242.216,34.208 C243.608,34.208 244.424,35.096 244.424,36.824 L244.424,44 L248.072,44 L248.072,35.672 C248.072,32.72 246.464,30.896 243.704,30.896 C241.856,30.896 240.776,31.88 239.936,32.96 L239.936,31.136 L236.288,31.136 L236.288,44 Z M251.24,44 L254.888,44 L254.888,36.824 C254.888,35.096 255.776,34.208 257.168,34.208 C258.56,34.208 259.376,35.096 259.376,36.824 L259.376,44 L263.024,44 L263.024,35.672 C263.024,32.72 261.416,30.896 258.656,30.896 C256.808,30.896 255.728,31.88 254.888,32.96 L254.888,31.136 L251.24,31.136 L251.24,44 Z M272.288,44.288 C268.424,44.288 265.568,41.576 265.568,37.64 L265.568,37.592 C265.568,33.92 268.184,30.896 271.928,30.896 C276.224,30.896 278.192,34.232 278.192,37.88 C278.192,38.168 278.168,38.504 278.144,38.84 L269.192,38.84 C269.552,40.496 270.704,41.36 272.336,41.36 C273.56,41.36 274.448,40.976 275.456,40.04 L277.544,41.888 C276.344,43.376 274.616,44.288 272.288,44.288 Z M269.144,36.56 L274.64,36.56 C274.424,34.928 273.464,33.824 271.928,33.824 C270.416,33.824 269.432,34.904 269.144,36.56 Z M280.904,44 L284.552,44 L284.552,39.248 C284.552,36.176 286.04,34.712 288.464,34.712 L288.656,34.712 L288.656,30.896 C286.496,30.8 285.296,31.952 284.552,33.728 L284.552,31.136 L280.904,31.136 L280.904,44 Z M90.08,53.808 L92.576,53.808 L92.072,55.512 C93.584,55.92 94.784,56.688 95.768,57.696 L93.272,60.144 C92.552,59.472 91.832,58.968 91.04,58.68 L89.96,62.256 C92.288,63.12 93.848,64.248 93.848,66.72 C93.848,69.888 90.872,72 87.104,72 L87.08,72 L86.36,74.352 L83.864,74.352 L84.656,71.76 C82.664,71.352 81.032,70.416 79.88,68.904 L82.568,66.648 C83.456,67.656 84.488,68.328 85.664,68.64 L86.816,64.944 C84.56,64.104 82.832,63.072 82.832,60.48 C82.832,57.456 85.736,55.2 89.456,55.2 L89.648,55.2 L90.08,53.808 Z M86.624,60.096 C86.624,60.672 86.912,61.032 87.896,61.464 L88.808,58.368 C87.248,58.464 86.624,59.256 86.624,60.096 Z M90.056,67.104 C90.056,66.504 89.72,66.12 88.88,65.712 L87.92,68.832 C89.24,68.712 90.056,68.112 90.056,67.104 Z M97.544,72 L101.024,58.992 L97.976,59.688 L97.928,56.544 L103.208,55.08 L105.728,55.08 L101.192,72 L97.544,72 Z M111.488,72.288 C108.344,72.288 106.376,70.992 105.272,69.096 L108.008,67.08 C108.896,68.28 109.904,68.976 111.656,68.976 C113.456,68.976 114.824,67.848 114.824,66.624 C114.824,65.328 113.576,64.632 111.536,64.632 L110.504,64.632 L110.36,62.328 L115.304,58.368 L108.944,58.368 L109.808,55.2 L121.16,55.2 L120.392,57.984 L114.968,62.112 C117.08,62.616 118.544,63.84 118.544,66.288 C118.544,67.824 117.944,69.168 116.888,70.224 C115.616,71.496 113.696,72.288 111.488,72.288 Z M126.056,72.264 C123.632,72.264 120.992,70.968 119.84,69.264 L122.432,67.08 C123.56,68.304 124.808,68.928 126.368,68.928 C128.36,68.928 129.776,67.728 129.776,66.312 C129.776,65.112 128.792,64.152 126.656,64.152 C125.936,64.152 125.024,64.416 124.4,64.68 L122.528,63.168 L125.144,55.2 L135.32,55.2 L134.432,58.44 L127.592,58.44 L126.632,61.296 C127.184,61.176 127.76,61.104 128.336,61.104 C131.408,61.104 133.568,62.976 133.568,65.904 C133.568,67.44 132.968,68.904 131.792,70.08 C130.472,71.4 128.528,72.264 126.056,72.264 Z M145.184,54.912 C149.12,54.912 151.736,57.672 151.736,61.896 C151.736,64.752 150.632,67.776 148.568,69.84 C147.08,71.328 145.112,72.288 142.736,72.288 C138.8,72.288 136.184,69.528 136.184,65.304 C136.184,62.448 137.288,59.424 139.352,57.36 C140.84,55.872 142.808,54.912 145.184,54.912 Z M143.024,68.952 C144.056,68.952 144.968,68.472 145.712,67.728 C147.128,66.312 147.944,63.912 147.944,61.872 C147.944,59.496 146.744,58.248 144.896,58.248 C143.864,58.248 142.952,58.728 142.208,59.472 C140.792,60.888 139.976,63.288 139.976,65.328 C139.976,67.704 141.176,68.952 143.024,68.952 Z M167.504,72.24 C165.488,72.24 164.312,71.4 163.472,70.128 L162.968,72 L159.344,72 L164,54.48 L167.648,54.48 L166.04,60.528 C167.144,59.496 168.224,58.896 169.664,58.896 C172.472,58.896 174.608,60.936 174.608,64.416 C174.608,66.768 173.696,68.76 172.304,70.152 C170.984,71.472 169.256,72.24 167.504,72.24 Z M167.024,69.168 C167.912,69.168 168.8,68.76 169.472,68.088 C170.288,67.272 170.84,66.072 170.84,64.656 C170.84,62.976 169.784,61.968 168.152,61.968 C167.24,61.968 166.352,62.376 165.656,63.072 C164.792,63.936 164.264,65.112 164.264,66.432 C164.264,68.064 165.416,69.168 167.024,69.168 Z M184.04,58.896 C187.856,58.896 190.232,61.416 190.232,64.848 C190.232,66.792 189.392,68.688 188,70.08 C186.656,71.424 184.832,72.288 182.792,72.288 C178.976,72.288 176.6,69.768 176.6,66.336 C176.6,64.392 177.44,62.496 178.832,61.104 C180.176,59.76 182,58.896 184.04,58.896 Z M182.96,69.168 C183.872,69.168 184.688,68.76 185.288,68.16 C186.176,67.296 186.656,65.952 186.656,64.944 C186.656,63.048 185.528,62.016 183.872,62.016 C182.96,62.016 182.144,62.424 181.544,63.024 C180.656,63.888 180.176,65.232 180.176,66.24 C180.176,68.136 181.304,69.168 182.96,69.168 Z M191.168,72 L194.816,72 L196.76,64.776 C197.168,63.24 198.104,62.208 199.544,62.208 C200.672,62.208 201.32,62.76 201.32,63.792 C201.32,64.104 201.248,64.584 201.152,64.944 L199.256,72 L202.904,72 L204.752,65.088 C204.968,64.272 205.184,63.36 205.184,62.64 C205.184,60.312 203.696,58.896 201.392,58.896 C199.952,58.896 198.8,59.664 197.888,60.48 L198.248,59.136 L194.6,59.136 L191.168,72 Z M210.872,72.24 C208.568,72.24 207.08,70.824 207.08,68.496 C207.08,67.776 207.296,66.864 207.512,66.048 L209.36,59.136 L213.008,59.136 L211.112,66.192 C211.016,66.552 210.944,67.032 210.944,67.344 C210.944,68.376 211.592,68.928 212.72,68.928 C214.16,68.928 215.096,67.896 215.504,66.36 L217.448,59.136 L221.096,59.136 L217.664,72 L214.016,72 L214.376,70.656 C213.464,71.472 212.312,72.24 210.872,72.24 Z M226.232,72.288 C224.288,72.288 221.96,71.544 220.448,69.96 L222.56,67.776 C223.904,69.12 225.344,69.504 226.496,69.504 C227.456,69.504 228.032,69.096 228.032,68.376 C228.032,67.896 227.432,67.56 226.544,67.176 C224.528,66.312 222.8,65.472 222.8,63.408 C222.8,60.84 224.768,58.896 227.96,58.896 C230.048,58.896 231.968,59.808 233.024,60.744 L231.056,63.048 C229.808,62.064 228.752,61.68 227.696,61.68 C226.808,61.68 226.28,62.088 226.28,62.76 C226.28,63.264 226.904,63.624 227.984,64.104 C229.664,64.848 231.512,65.736 231.512,67.752 C231.512,70.56 229.304,72.288 226.232,72.288 Z" id="3rd-Place-Winner-$13" fill="#003057"></path>
        </g>
    </g>
</svg>