<?xml version="1.0" encoding="UTF-8"?>
<svg width="299px" height="75px" viewBox="0 0 299 75" version="1.1" xmlns="http://www.w3.org/2000/svg" xmlns:xlink="http://www.w3.org/1999/xlink">
    <!-- Generator: Sketch 47.1 (45422) - http://www.bohemiancoding.com/sketch -->
    <title>4th</title>
    <desc>Created with Sketch.</desc>
    <defs>
        <rect id="path-1" x="11" y="39" width="4.14285714" height="11.3300781"></rect>
        <rect id="path-2" x="19" y="39" width="4.14285714" height="11.3300781"></rect>
        <rect id="path-3" x="28" y="39" width="4.14285714" height="11.3300781"></rect>
        <rect id="path-4" x="36" y="39" width="4.14285714" height="11.3300781"></rect>
        <polygon id="path-5" points="7.94936709 47 43.0506329 47 49 53 2 53"></polygon>
    </defs>
    <g id="Symbols" stroke="none" stroke-width="1" fill="none" fill-rule="evenodd">
        <g id="4th">
            <g id="Group-10" transform="translate(1.000000, 16.000000)">
                <g id="Rectangle-17-Copy-12">
                    <use fill="#FFFFFF" fill-rule="evenodd" xlink:href="#path-1"></use>
                    <rect stroke="#0099D8" stroke-width="1" x="11.5" y="39.5" width="3.14285714" height="10.3300781"></rect>
                </g>
                <g id="Rectangle-17-Copy-13">
                    <use fill="#FFFFFF" fill-rule="evenodd" xlink:href="#path-2"></use>
                    <rect stroke="#0099D8" stroke-width="1" x="19.5" y="39.5" width="3.14285714" height="10.3300781"></rect>
                </g>
                <g id="Rectangle-17-Copy-14">
                    <use fill="#FFFFFF" fill-rule="evenodd" xlink:href="#path-3"></use>
                    <rect stroke="#0099D8" stroke-width="1" x="28.5" y="39.5" width="3.14285714" height="10.3300781"></rect>
                </g>
                <g id="Rectangle-17-Copy-15">
                    <use fill="#FFFFFF" fill-rule="evenodd" xlink:href="#path-4"></use>
                    <rect stroke="#0099D8" stroke-width="1" x="36.5" y="39.5" width="3.14285714" height="10.3300781"></rect>
                </g>
                <g id="Rectangle-16-Copy-9">
                    <use fill="#FFFFFF" fill-rule="evenodd" xlink:href="#path-5"></use>
                    <path stroke="#0099D8" stroke-width="1" d="M8.15771603,47.5 L3.19991012,52.5 L47.8000899,52.5 L42.842284,47.5 L8.15771603,47.5 Z"></path>
                </g>
                <rect id="Rectangle-16-Copy-10" fill="#0099D8" x="8" y="36" width="35" height="6"></rect>
                <path d="M32.98,16.18 C34,16.18 34.74,15.94 35.38,15.56 L35.38,13.12 C34.94,13.36 34.44,13.5 33.88,13.5 C33.2,13.5 32.9,13.16 32.9,12.46 L32.9,7.88 L35.42,7.88 L35.42,5.28 L32.9,5.28 L32.9,2.54 L29.86,2.54 L29.86,5.28 L28.58,5.28 L28.58,7.88 L29.86,7.88 L29.86,12.96 C29.86,15.44 31.12,16.18 32.98,16.18 Z" id="t" fill="#0099D8"></path>
                <path d="M35.36,16 L38.4,16 L38.4,10.02 C38.4,8.58 39.14,7.84 40.3,7.84 C41.46,7.84 42.14,8.58 42.14,10.02 L42.14,16 L45.18,16 L45.18,9.06 C45.18,6.6 43.84,5.08 41.54,5.08 C40,5.08 39.1,5.9 38.4,6.8 L38.4,1.4 L35.36,1.4 L35.36,16 Z" id="h" fill="#0099D8"></path>
                <path d="M22.91,36 L22.91,29.205 L7.52,29.205 L6.395,24.3 L23.675,4.275 L29.525,4.275 L29.525,23.58 L33.755,23.58 L33.755,29.205 L29.525,29.205 L29.525,36 L22.91,36 Z M14.54,23.58 L22.91,23.58 L22.91,13.77 L14.54,23.58 Z" id="4" stroke="#0099D8" stroke-width="2" fill="#FFFFFF"></path>
                <rect id="Rectangle-16-Copy-11" fill="#0099D8" x="0" y="52" width="51" height="6"></rect>
            </g>
            <path d="M89.552,44 L89.552,40.376 L81.344,40.376 L80.744,37.76 L89.96,27.08 L93.08,27.08 L93.08,37.376 L95.336,37.376 L95.336,40.376 L93.08,40.376 L93.08,44 L89.552,44 Z M85.088,37.376 L89.552,37.376 L89.552,32.144 L85.088,37.376 Z M102.512,44.216 C103.736,44.216 104.624,43.928 105.392,43.472 L105.392,40.544 C104.864,40.832 104.264,41 103.592,41 C102.776,41 102.416,40.592 102.416,39.752 L102.416,34.256 L105.44,34.256 L105.44,31.136 L102.416,31.136 L102.416,27.848 L98.768,27.848 L98.768,31.136 L97.232,31.136 L97.232,34.256 L98.768,34.256 L98.768,40.352 C98.768,43.328 100.28,44.216 102.512,44.216 Z M108.128,44 L111.776,44 L111.776,36.824 C111.776,35.096 112.664,34.208 114.056,34.208 C115.448,34.208 116.264,35.096 116.264,36.824 L116.264,44 L119.912,44 L119.912,35.672 C119.912,32.72 118.304,30.896 115.544,30.896 C113.696,30.896 112.616,31.88 111.776,32.96 L111.776,26.48 L108.128,26.48 L108.128,44 Z M130.664,44 L130.664,27.2 L137.528,27.2 C141.536,27.2 143.96,29.576 143.96,33.008 L143.96,33.056 C143.96,36.944 140.936,38.96 137.168,38.96 L134.36,38.96 L134.36,44 L130.664,44 Z M134.36,35.672 L137.288,35.672 C139.136,35.672 140.216,34.568 140.216,33.128 L140.216,33.08 C140.216,31.424 139.064,30.536 137.216,30.536 L134.36,30.536 L134.36,35.672 Z M146.48,44 L150.128,44 L150.128,26.48 L146.48,26.48 L146.48,44 Z M157.208,44.24 C154.784,44.24 152.792,42.848 152.792,40.304 L152.792,40.256 C152.792,37.448 154.928,36.152 157.976,36.152 C159.272,36.152 160.208,36.368 161.12,36.68 L161.12,36.464 C161.12,34.952 160.184,34.112 158.36,34.112 C156.968,34.112 155.984,34.376 154.808,34.808 L153.896,32.024 C155.312,31.4 156.704,30.992 158.888,30.992 C160.88,30.992 162.32,31.52 163.232,32.432 C164.192,33.392 164.624,34.808 164.624,36.536 L164.624,44 L161.096,44 L161.096,42.608 C160.208,43.592 158.984,44.24 157.208,44.24 Z M158.312,41.72 C160.016,41.72 161.168,40.784 161.168,39.464 L161.168,38.816 C160.544,38.528 159.728,38.336 158.84,38.336 C157.28,38.336 156.32,38.96 156.32,40.112 L156.32,40.16 C156.32,41.144 157.136,41.72 158.312,41.72 Z M173.84,44.288 C176.408,44.288 177.848,43.304 179.096,41.936 L176.96,39.776 C176.072,40.616 175.232,41.144 174.008,41.144 C172.016,41.144 170.744,39.56 170.744,37.592 L170.744,37.544 C170.744,35.648 172.04,34.04 173.864,34.04 C175.16,34.04 175.976,34.592 176.792,35.456 L179.024,33.056 C177.824,31.712 176.312,30.896 173.888,30.896 C169.952,30.896 167.144,33.92 167.144,37.592 L167.144,37.64 C167.144,41.312 169.976,44.288 173.84,44.288 Z M187.208,44.288 C183.344,44.288 180.488,41.576 180.488,37.64 L180.488,37.592 C180.488,33.92 183.104,30.896 186.848,30.896 C191.144,30.896 193.112,34.232 193.112,37.88 C193.112,38.168 193.088,38.504 193.064,38.84 L184.112,38.84 C184.472,40.496 185.624,41.36 187.256,41.36 C188.48,41.36 189.368,40.976 190.376,40.04 L192.464,41.888 C191.264,43.376 189.536,44.288 187.208,44.288 Z M184.064,36.56 L189.56,36.56 C189.344,34.928 188.384,33.824 186.848,33.824 C185.336,33.824 184.352,34.904 184.064,36.56 Z M207.848,44.12 L211.064,44.12 L214.856,33.128 L218.648,44.12 L221.864,44.12 L227.6,27.2 L223.736,27.2 L220.256,38.576 L216.488,27.152 L213.32,27.152 L209.552,38.576 L206.072,27.2 L202.112,27.2 L207.848,44.12 Z M229.664,29.72 L233.504,29.72 L233.504,26.48 L229.664,26.48 L229.664,29.72 Z M229.76,44 L233.408,44 L233.408,31.136 L229.76,31.136 L229.76,44 Z M236.84,44 L240.488,44 L240.488,36.824 C240.488,35.096 241.376,34.208 242.768,34.208 C244.16,34.208 244.976,35.096 244.976,36.824 L244.976,44 L248.624,44 L248.624,35.672 C248.624,32.72 247.016,30.896 244.256,30.896 C242.408,30.896 241.328,31.88 240.488,32.96 L240.488,31.136 L236.84,31.136 L236.84,44 Z M251.792,44 L255.44,44 L255.44,36.824 C255.44,35.096 256.328,34.208 257.72,34.208 C259.112,34.208 259.928,35.096 259.928,36.824 L259.928,44 L263.576,44 L263.576,35.672 C263.576,32.72 261.968,30.896 259.208,30.896 C257.36,30.896 256.28,31.88 255.44,32.96 L255.44,31.136 L251.792,31.136 L251.792,44 Z M272.84,44.288 C268.976,44.288 266.12,41.576 266.12,37.64 L266.12,37.592 C266.12,33.92 268.736,30.896 272.48,30.896 C276.776,30.896 278.744,34.232 278.744,37.88 C278.744,38.168 278.72,38.504 278.696,38.84 L269.744,38.84 C270.104,40.496 271.256,41.36 272.888,41.36 C274.112,41.36 275,40.976 276.008,40.04 L278.096,41.888 C276.896,43.376 275.168,44.288 272.84,44.288 Z M269.696,36.56 L275.192,36.56 C274.976,34.928 274.016,33.824 272.48,33.824 C270.968,33.824 269.984,34.904 269.696,36.56 Z M281.456,44 L285.104,44 L285.104,39.248 C285.104,36.176 286.592,34.712 289.016,34.712 L289.208,34.712 L289.208,30.896 C287.048,30.8 285.848,31.952 285.104,33.728 L285.104,31.136 L281.456,31.136 L281.456,44 Z M90.08,53.808 L92.576,53.808 L92.072,55.512 C93.584,55.92 94.784,56.688 95.768,57.696 L93.272,60.144 C92.552,59.472 91.832,58.968 91.04,58.68 L89.96,62.256 C92.288,63.12 93.848,64.248 93.848,66.72 C93.848,69.888 90.872,72 87.104,72 L87.08,72 L86.36,74.352 L83.864,74.352 L84.656,71.76 C82.664,71.352 81.032,70.416 79.88,68.904 L82.568,66.648 C83.456,67.656 84.488,68.328 85.664,68.64 L86.816,64.944 C84.56,64.104 82.832,63.072 82.832,60.48 C82.832,57.456 85.736,55.2 89.456,55.2 L89.648,55.2 L90.08,53.808 Z M86.624,60.096 C86.624,60.672 86.912,61.032 87.896,61.464 L88.808,58.368 C87.248,58.464 86.624,59.256 86.624,60.096 Z M90.056,67.104 C90.056,66.504 89.72,66.12 88.88,65.712 L87.92,68.832 C89.24,68.712 90.056,68.112 90.056,67.104 Z M97.544,72 L101.192,72 L105.728,55.08 L103.208,55.08 L97.928,56.544 L97.976,59.688 L101.024,58.992 L97.544,72 Z M107.96,72 L111.608,72 L116.144,55.08 L113.624,55.08 L108.344,56.544 L108.392,59.688 L111.44,58.992 L107.96,72 Z M126.584,54.912 C130.52,54.912 133.136,57.672 133.136,61.896 C133.136,64.752 132.032,67.776 129.968,69.84 C128.48,71.328 126.512,72.288 124.136,72.288 C120.2,72.288 117.584,69.528 117.584,65.304 C117.584,62.448 118.688,59.424 120.752,57.36 C122.24,55.872 124.208,54.912 126.584,54.912 Z M124.424,68.952 C125.456,68.952 126.368,68.472 127.112,67.728 C128.528,66.312 129.344,63.912 129.344,61.872 C129.344,59.496 128.144,58.248 126.296,58.248 C125.264,58.248 124.352,58.728 123.608,59.472 C122.192,60.888 121.376,63.288 121.376,65.328 C121.376,67.704 122.576,68.952 124.424,68.952 Z M144.104,54.912 C148.04,54.912 150.656,57.672 150.656,61.896 C150.656,64.752 149.552,67.776 147.488,69.84 C146,71.328 144.032,72.288 141.656,72.288 C137.72,72.288 135.104,69.528 135.104,65.304 C135.104,62.448 136.208,59.424 138.272,57.36 C139.76,55.872 141.728,54.912 144.104,54.912 Z M141.944,68.952 C142.976,68.952 143.888,68.472 144.632,67.728 C146.048,66.312 146.864,63.912 146.864,61.872 C146.864,59.496 145.664,58.248 143.816,58.248 C142.784,58.248 141.872,58.728 141.128,59.472 C139.712,60.888 138.896,63.288 138.896,65.328 C138.896,67.704 140.096,68.952 141.944,68.952 Z M166.424,72.24 C164.408,72.24 163.232,71.4 162.392,70.128 L161.888,72 L158.264,72 L162.92,54.48 L166.568,54.48 L164.96,60.528 C166.064,59.496 167.144,58.896 168.584,58.896 C171.392,58.896 173.528,60.936 173.528,64.416 C173.528,66.768 172.616,68.76 171.224,70.152 C169.904,71.472 168.176,72.24 166.424,72.24 Z M165.944,69.168 C166.832,69.168 167.72,68.76 168.392,68.088 C169.208,67.272 169.76,66.072 169.76,64.656 C169.76,62.976 168.704,61.968 167.072,61.968 C166.16,61.968 165.272,62.376 164.576,63.072 C163.712,63.936 163.184,65.112 163.184,66.432 C163.184,68.064 164.336,69.168 165.944,69.168 Z M182.96,58.896 C186.776,58.896 189.152,61.416 189.152,64.848 C189.152,66.792 188.312,68.688 186.92,70.08 C185.576,71.424 183.752,72.288 181.712,72.288 C177.896,72.288 175.52,69.768 175.52,66.336 C175.52,64.392 176.36,62.496 177.752,61.104 C179.096,59.76 180.92,58.896 182.96,58.896 Z M181.88,69.168 C182.792,69.168 183.608,68.76 184.208,68.16 C185.096,67.296 185.576,65.952 185.576,64.944 C185.576,63.048 184.448,62.016 182.792,62.016 C181.88,62.016 181.064,62.424 180.464,63.024 C179.576,63.888 179.096,65.232 179.096,66.24 C179.096,68.136 180.224,69.168 181.88,69.168 Z M190.088,72 L193.736,72 L195.68,64.776 C196.088,63.24 197.024,62.208 198.464,62.208 C199.592,62.208 200.24,62.76 200.24,63.792 C200.24,64.104 200.168,64.584 200.072,64.944 L198.176,72 L201.824,72 L203.672,65.088 C203.888,64.272 204.104,63.36 204.104,62.64 C204.104,60.312 202.616,58.896 200.312,58.896 C198.872,58.896 197.72,59.664 196.808,60.48 L197.168,59.136 L193.52,59.136 L190.088,72 Z M209.792,72.24 C207.488,72.24 206,70.824 206,68.496 C206,67.776 206.216,66.864 206.432,66.048 L208.28,59.136 L211.928,59.136 L210.032,66.192 C209.936,66.552 209.864,67.032 209.864,67.344 C209.864,68.376 210.512,68.928 211.64,68.928 C213.08,68.928 214.016,67.896 214.424,66.36 L216.368,59.136 L220.016,59.136 L216.584,72 L212.936,72 L213.296,70.656 C212.384,71.472 211.232,72.24 209.792,72.24 Z M225.152,72.288 C223.208,72.288 220.88,71.544 219.368,69.96 L221.48,67.776 C222.824,69.12 224.264,69.504 225.416,69.504 C226.376,69.504 226.952,69.096 226.952,68.376 C226.952,67.896 226.352,67.56 225.464,67.176 C223.448,66.312 221.72,65.472 221.72,63.408 C221.72,60.84 223.688,58.896 226.88,58.896 C228.968,58.896 230.888,59.808 231.944,60.744 L229.976,63.048 C228.728,62.064 227.672,61.68 226.616,61.68 C225.728,61.68 225.2,62.088 225.2,62.76 C225.2,63.264 225.824,63.624 226.904,64.104 C228.584,64.848 230.432,65.736 230.432,67.752 C230.432,70.56 228.224,72.288 225.152,72.288 Z" id="4th-Place-Winner-$11" fill="#003057"></path>
        </g>
    </g>
</svg>