<?xml version="1.0" encoding="UTF-8"?>
<svg width="299px" height="75px" viewBox="0 0 299 75" version="1.1" xmlns="http://www.w3.org/2000/svg" xmlns:xlink="http://www.w3.org/1999/xlink">
    <!-- Generator: Sketch 47.1 (45422) - http://www.bohemiancoding.com/sketch -->
    <title>5th</title>
    <desc>Created with Sketch.</desc>
    <defs></defs>
    <g id="Symbols" stroke="none" stroke-width="1" fill="none" fill-rule="evenodd">
        <g id="5th">
            <g id="Group" transform="translate(4.000000, 8.000000)">
                <g id="Group-2">
                    <polygon id="Path-4" fill="#0099D8" points="33.9190341 39.6033743 33.9190341 58.8681955 22.459517 48.4204545 11 59.4783381 11 39.6033743"></polygon>
                    <polygon id="Path-3" stroke="#0099D8" points="8 39 8 66 22.8222222 52.3095238 37 66 37 39"></polygon>
                    <path d="M21.3510308,44.5882256 L21.3510308,44.5882256 L21.3510308,44.5882256 C20.8707575,45.1078603 20.060172,45.139769 19.5405373,44.6594958 C19.4541413,44.5796442 19.3791553,44.4882734 19.317693,44.3879593 L19.317693,44.3879593 L19.317693,44.3879593 C18.866267,43.6511751 17.9030324,43.4198467 17.1662483,43.8712727 C17.1312514,43.8927152 17.0971119,43.9155265 17.0639089,43.9396537 L17.0639089,43.9396537 L17.0639089,43.9396537 C16.4914882,44.3556071 15.6902528,44.2287654 15.2742994,43.6563447 C15.2051418,43.5611724 15.1494221,43.4569283 15.1087112,43.346551 L15.1087112,43.346551 L15.1087112,43.346551 C14.8096986,42.5358551 13.9101022,42.1210538 13.0994063,42.4200664 C13.0608987,42.4342693 13.0229649,42.449982 12.9856929,42.467168 L12.9856929,42.467168 L12.9856929,42.467168 C12.3431227,42.7634553 11.5820283,42.4827375 11.2857411,41.8401672 C11.2364795,41.7333317 11.2021675,41.6202202 11.1837724,41.5040214 L11.1837724,41.5040214 L11.1837724,41.5040214 C11.0486642,40.6505684 10.247277,40.0682348 9.39382393,40.203343 C9.35328537,40.2097606 9.31301505,40.2177709 9.27310641,40.2273553 L9.27310641,40.2273553 L9.27310641,40.2273553 C8.58508022,40.3925902 7.89337541,39.9687842 7.72814046,39.280758 C7.70066803,39.1663648 7.68908229,39.0487328 7.69370984,38.931178 L7.69370984,38.931178 L7.69370984,38.931178 C7.72769814,38.0677655 7.055317,37.3402785 6.19190453,37.3062902 C6.15089291,37.3046757 6.10983364,37.3046757 6.06882202,37.3062902 L6.06882202,37.3062902 L6.06882202,37.3062902 C5.36178032,37.3341229 4.76604688,36.7835153 4.73821413,36.0764736 C4.73358657,35.9589188 4.74517231,35.8412868 4.77264475,35.7268936 L4.77264475,35.7268936 L4.77264475,35.7268936 C4.97442339,34.8867021 4.45688755,34.0420185 3.61669609,33.8402398 C3.57678746,33.8306555 3.53651713,33.8226452 3.49597858,33.8162276 L3.49597858,33.8162276 L3.49597858,33.8162276 C2.79709259,33.7055886 2.32022422,33.0493389 2.43086326,32.3504529 C2.44925842,32.2342541 2.48357041,32.1211427 2.53283198,32.0143071 L2.53283198,32.0143071 L2.53283198,32.0143071 C2.89464672,31.2296247 2.55184479,30.3002052 1.76716244,29.9383905 C1.72989046,29.9212045 1.69195664,29.9054918 1.65344903,29.8912888 L1.65344903,29.8912888 L1.65344903,29.8912888 C0.989576543,29.6464298 0.649899028,28.9097574 0.894758063,28.2458849 C0.935469028,28.1355075 0.991188673,28.0312634 1.06034628,27.9360911 L1.06034628,27.9360911 L1.06034628,27.9360911 C1.56829278,27.2370728 1.41339845,26.2586344 0.714380106,25.7506879 C0.681177115,25.7265608 0.647037582,25.7037494 0.612040737,25.682307 L0.612040737,25.682307 L0.612040737,25.682307 C0.00869400529,25.3126377 -0.180739036,24.5238524 0.188930198,23.9205057 C0.250392464,23.8201915 0.325378492,23.7288208 0.411774448,23.6489692 L0.411774448,23.6489692 L0.411774448,23.6489692 C1.04633261,23.0624777 1.08529838,22.0726214 0.498806927,21.4380633 C0.470948902,21.4079221 0.441915615,21.3788888 0.411774448,21.3510308 L0.411774448,21.3510308 L0.411774448,21.3510308 C-0.107860256,20.8707575 -0.139769018,20.060172 0.340504233,19.5405373 C0.420355841,19.4541413 0.511726579,19.3791553 0.612040737,19.317693 L0.612040737,19.317693 L0.612040737,19.317693 C1.34882485,18.866267 1.58015329,17.9030324 1.12872726,17.1662483 C1.10728477,17.1312514 1.08447346,17.0971119 1.06034628,17.0639089 L1.06034628,17.0639089 L1.06034628,17.0639089 C0.644392874,16.4914882 0.771234626,15.6902528 1.34365526,15.2742994 C1.43882756,15.2051418 1.54307168,15.1494221 1.65344903,15.1087112 L1.65344903,15.1087112 L1.65344903,15.1087112 C2.46414489,14.8096986 2.87894617,13.9101022 2.57993362,13.0994063 C2.56573068,13.0608987 2.55001798,13.0229649 2.53283198,12.9856929 L2.53283198,12.9856929 L2.53283198,12.9856929 C2.23654473,12.3431227 2.51726254,11.5820283 3.15983276,11.2857411 C3.26666832,11.2364795 3.37977979,11.2021675 3.49597858,11.1837724 L3.49597858,11.1837724 L3.49597858,11.1837724 C4.34943161,11.0486642 4.93176515,10.247277 4.79665696,9.39382393 C4.79023939,9.35328537 4.78222912,9.31301505 4.77264475,9.27310641 L4.77264475,9.27310641 L4.77264475,9.27310641 C4.60740981,8.58508022 5.03121584,7.89337541 5.71924203,7.72814046 C5.83363524,7.70066803 5.95126724,7.68908229 6.06882202,7.69370984 L6.06882202,7.69370984 L6.06882202,7.69370984 C6.93223448,7.72769814 7.65972154,7.055317 7.69370984,6.19190453 C7.69532427,6.15089291 7.69532427,6.10983364 7.69370984,6.06882202 L7.69370984,6.06882202 L7.69370984,6.06882202 C7.66587709,5.36178032 8.21648473,4.76604688 8.92352642,4.73821413 C9.0410812,4.73358657 9.1587132,4.74517231 9.27310641,4.77264475 L9.27310641,4.77264475 L9.27310641,4.77264475 C10.1132979,4.97442339 10.9579815,4.45688755 11.1597602,3.61669609 C11.1693445,3.57678746 11.1773548,3.53651713 11.1837724,3.49597858 L11.1837724,3.49597858 L11.1837724,3.49597858 C11.2944114,2.79709259 11.9506611,2.32022422 12.6495471,2.43086326 C12.7657459,2.44925842 12.8788573,2.48357041 12.9856929,2.53283198 L12.9856929,2.53283198 L12.9856929,2.53283198 C13.7703753,2.89464672 14.6997948,2.55184479 15.0616095,1.76716244 C15.0787955,1.72989046 15.0945082,1.69195664 15.1087112,1.65344903 L15.1087112,1.65344903 L15.1087112,1.65344903 C15.3535702,0.989576543 16.0902426,0.649899028 16.7541151,0.894758063 C16.8644925,0.935469028 16.9687366,0.991188673 17.0639089,1.06034628 L17.0639089,1.06034628 L17.0639089,1.06034628 C17.7629272,1.56829278 18.7413656,1.41339845 19.2493121,0.714380106 C19.2734392,0.681177115 19.2962506,0.647037582 19.317693,0.612040737 L19.317693,0.612040737 L19.317693,0.612040737 C19.6873623,0.00869400529 20.4761476,-0.180739036 21.0794943,0.188930198 C21.1798085,0.250392464 21.2711792,0.325378492 21.3510308,0.411774448 L21.3510308,0.411774448 L21.3510308,0.411774448 C21.9375223,1.04633261 22.9273786,1.08529838 23.5619367,0.498806927 C23.5920779,0.470948902 23.6211112,0.441915615 23.6489692,0.411774448 L23.6489692,0.411774448 L23.6489692,0.411774448 C24.1292425,-0.107860256 24.939828,-0.139769018 25.4594627,0.340504233 C25.5458587,0.420355841 25.6208447,0.511726579 25.682307,0.612040737 L25.682307,0.612040737 L25.682307,0.612040737 C26.133733,1.34882485 27.0969676,1.58015329 27.8337517,1.12872726 C27.8687486,1.10728477 27.9028881,1.08447346 27.9360911,1.06034628 L27.9360911,1.06034628 L27.9360911,1.06034628 C28.5085118,0.644392874 29.3097472,0.771234626 29.7257006,1.34365526 C29.7948582,1.43882756 29.8505779,1.54307168 29.8912888,1.65344903 L29.8912888,1.65344903 L29.8912888,1.65344903 C30.1903014,2.46414489 31.0898978,2.87894617 31.9005937,2.57993362 C31.9391013,2.56573068 31.9770351,2.55001798 32.0143071,2.53283198 L32.0143071,2.53283198 L32.0143071,2.53283198 C32.6568773,2.23654473 33.4179717,2.51726254 33.7142589,3.15983276 C33.7635205,3.26666832 33.7978325,3.37977979 33.8162276,3.49597858 L33.8162276,3.49597858 L33.8162276,3.49597858 C33.9513358,4.34943161 34.752723,4.93176515 35.6061761,4.79665696 C35.6467146,4.79023939 35.686985,4.78222912 35.7268936,4.77264475 L35.7268936,4.77264475 L35.7268936,4.77264475 C36.4149198,4.60740981 37.1066246,5.03121584 37.2718595,5.71924203 C37.299332,5.83363524 37.3109177,5.95126724 37.3062902,6.06882202 L37.3062902,6.06882202 L37.3062902,6.06882202 C37.2723019,6.93223448 37.944683,7.65972154 38.8080955,7.69370984 C38.8491071,7.69532427 38.8901664,7.69532427 38.931178,7.69370984 L38.931178,7.69370984 L38.931178,7.69370984 C39.6382197,7.66587709 40.2339531,8.21648473 40.2617859,8.92352642 C40.2664134,9.0410812 40.2548277,9.1587132 40.2273553,9.27310641 L40.2273553,9.27310641 L40.2273553,9.27310641 C40.0255766,10.1132979 40.5431125,10.9579815 41.3833039,11.1597602 C41.4232125,11.1693445 41.4634829,11.1773548 41.5040214,11.1837724 L41.5040214,11.1837724 L41.5040214,11.1837724 C42.2029074,11.2944114 42.6797758,11.9506611 42.5691367,12.6495471 C42.5507416,12.7657459 42.5164296,12.8788573 42.467168,12.9856929 L42.467168,12.9856929 L42.467168,12.9856929 C42.1053533,13.7703753 42.4481552,14.6997948 43.2328376,15.0616095 C43.2701095,15.0787955 43.3080434,15.0945082 43.346551,15.1087112 L43.346551,15.1087112 L43.346551,15.1087112 C44.0104235,15.3535702 44.350101,16.0902426 44.1052419,16.7541151 C44.064531,16.8644925 44.0088113,16.9687366 43.9396537,17.0639089 L43.9396537,17.0639089 L43.9396537,17.0639089 C43.4317072,17.7629272 43.5866015,18.7413656 44.2856199,19.2493121 C44.3188229,19.2734392 44.3529624,19.2962506 44.3879593,19.317693 L44.3879593,19.317693 L44.3879593,19.317693 C44.991306,19.6873623 45.180739,20.4761476 44.8110698,21.0794943 C44.7496075,21.1798085 44.6746215,21.2711792 44.5882256,21.3510308 L44.5882256,21.3510308 L44.5882256,21.3510308 C43.9536674,21.9375223 43.9147016,22.9273786 44.5011931,23.5619367 C44.5290511,23.5920779 44.5580844,23.6211112 44.5882256,23.6489692 L44.5882256,23.6489692 L44.5882256,23.6489692 C45.1078603,24.1292425 45.139769,24.939828 44.6594958,25.4594627 C44.5796442,25.5458587 44.4882734,25.6208447 44.3879593,25.682307 L44.3879593,25.682307 L44.3879593,25.682307 C43.6511751,26.133733 43.4198467,27.0969676 43.8712727,27.8337517 C43.8927152,27.8687486 43.9155265,27.9028881 43.9396537,27.9360911 L43.9396537,27.9360911 L43.9396537,27.9360911 C44.3556071,28.5085118 44.2287654,29.3097472 43.6563447,29.7257006 C43.5611724,29.7948582 43.4569283,29.8505779 43.346551,29.8912888 L43.346551,29.8912888 L43.346551,29.8912888 C42.5358551,30.1903014 42.1210538,31.0898978 42.4200664,31.9005937 C42.4342693,31.9391013 42.449982,31.9770351 42.467168,32.0143071 L42.467168,32.0143071 L42.467168,32.0143071 C42.7634553,32.6568773 42.4827375,33.4179717 41.8401672,33.7142589 C41.7333317,33.7635205 41.6202202,33.7978325 41.5040214,33.8162276 L41.5040214,33.8162276 L41.5040214,33.8162276 C40.6505684,33.9513358 40.0682348,34.752723 40.203343,35.6061761 C40.2097606,35.6467146 40.2177709,35.686985 40.2273553,35.7268936 L40.2273553,35.7268936 L40.2273553,35.7268936 C40.3925902,36.4149198 39.9687842,37.1066246 39.280758,37.2718595 C39.1663648,37.299332 39.0487328,37.3109177 38.931178,37.3062902 L38.931178,37.3062902 L38.931178,37.3062902 C38.0677655,37.2723019 37.3402785,37.944683 37.3062902,38.8080955 C37.3046757,38.8491071 37.3046757,38.8901664 37.3062902,38.931178 L37.3062902,38.931178 L37.3062902,38.931178 C37.3341229,39.6382197 36.7835153,40.2339531 36.0764736,40.2617859 C35.9589188,40.2664134 35.8412868,40.2548277 35.7268936,40.2273553 L35.7268936,40.2273553 L35.7268936,40.2273553 C34.8867021,40.0255766 34.0420185,40.5431125 33.8402398,41.3833039 C33.8306555,41.4232125 33.8226452,41.4634829 33.8162276,41.5040214 L33.8162276,41.5040214 L33.8162276,41.5040214 C33.7055886,42.2029074 33.0493389,42.6797758 32.3504529,42.5691367 C32.2342541,42.5507416 32.1211427,42.5164296 32.0143071,42.467168 L32.0143071,42.467168 L32.0143071,42.467168 C31.2296247,42.1053533 30.3002052,42.4481552 29.9383905,43.2328376 C29.9212045,43.2701095 29.9054918,43.3080434 29.8912888,43.346551 L29.8912888,43.346551 L29.8912888,43.346551 C29.6464298,44.0104235 28.9097574,44.350101 28.2458849,44.1052419 C28.1355075,44.064531 28.0312634,44.0088113 27.9360911,43.9396537 L27.9360911,43.9396537 L27.9360911,43.9396537 C27.2370728,43.4317072 26.2586344,43.5866015 25.7506879,44.2856199 C25.7265608,44.3188229 25.7037494,44.3529624 25.682307,44.3879593 L25.682307,44.3879593 L25.682307,44.3879593 C25.3126377,44.991306 24.5238524,45.180739 23.9205057,44.8110698 C23.8201915,44.7496075 23.7288208,44.6746215 23.6489692,44.5882256 L23.6489692,44.5882256 L23.6489692,44.5882256 C23.0624777,43.9536674 22.0726214,43.9147016 21.4380633,44.5011931 C21.4079221,44.5290511 21.3788888,44.5580844 21.3510308,44.5882256 Z" id="Star" stroke="#0099D8" fill="#FFFFFF"></path>
                    <circle id="Oval-4" fill="#0099D8" cx="22.5" cy="22.5" r="19.5"></circle>
                </g>
                <path d="M27.486,25.126 C28.2,25.126 28.718,24.958 29.166,24.692 L29.166,22.984 C28.858,23.152 28.508,23.25 28.116,23.25 C27.64,23.25 27.43,23.012 27.43,22.522 L27.43,19.316 L29.194,19.316 L29.194,17.496 L27.43,17.496 L27.43,15.578 L25.302,15.578 L25.302,17.496 L24.406,17.496 L24.406,19.316 L25.302,19.316 L25.302,22.872 C25.302,24.608 26.184,25.126 27.486,25.126 Z M30.762,25 L32.89,25 L32.89,20.814 C32.89,19.806 33.408,19.288 34.22,19.288 C35.032,19.288 35.508,19.806 35.508,20.814 L35.508,25 L37.636,25 L37.636,20.142 C37.636,18.42 36.698,17.356 35.088,17.356 C34.01,17.356 33.38,17.93 32.89,18.56 L32.89,14.78 L30.762,14.78 L30.762,25 Z" id="th" fill="#FFFFFF"></path>
                <path d="M18.32,31.288 C22.184,31.288 24.704,29.032 24.704,25.48 L24.704,25.432 C24.704,21.64 22.088,20.056 18.824,20.056 C17.888,20.056 17.288,20.176 16.616,20.344 L16.808,17.44 L23.96,17.44 L23.96,14.2 L13.64,14.2 L13.16,22.48 L15.296,23.896 C16.088,23.56 17.048,23.272 18.104,23.272 C19.856,23.272 21.08,24.112 21.08,25.552 L21.08,25.6 C21.08,27.088 20,27.928 18.272,27.928 C16.784,27.928 15.536,27.256 14.264,26.104 L12.032,28.768 C13.664,30.328 15.632,31.288 18.32,31.288 Z" id="5" fill="#FFFFFF"></path>
            </g>
            <path d="M87.32,44.288 C91.184,44.288 93.704,42.032 93.704,38.48 L93.704,38.432 C93.704,34.64 91.088,33.056 87.824,33.056 C86.888,33.056 86.288,33.176 85.616,33.344 L85.808,30.44 L92.96,30.44 L92.96,27.2 L82.64,27.2 L82.16,35.48 L84.296,36.896 C85.088,36.56 86.048,36.272 87.104,36.272 C88.856,36.272 90.08,37.112 90.08,38.552 L90.08,38.6 C90.08,40.088 89,40.928 87.272,40.928 C85.784,40.928 84.536,40.256 83.264,39.104 L81.032,41.768 C82.664,43.328 84.632,44.288 87.32,44.288 Z M101.096,44.216 C102.32,44.216 103.208,43.928 103.976,43.472 L103.976,40.544 C103.448,40.832 102.848,41 102.176,41 C101.36,41 101,40.592 101,39.752 L101,34.256 L104.024,34.256 L104.024,31.136 L101,31.136 L101,27.848 L97.352,27.848 L97.352,31.136 L95.816,31.136 L95.816,34.256 L97.352,34.256 L97.352,40.352 C97.352,43.328 98.864,44.216 101.096,44.216 Z M106.712,44 L110.36,44 L110.36,36.824 C110.36,35.096 111.248,34.208 112.64,34.208 C114.032,34.208 114.848,35.096 114.848,36.824 L114.848,44 L118.496,44 L118.496,35.672 C118.496,32.72 116.888,30.896 114.128,30.896 C112.28,30.896 111.2,31.88 110.36,32.96 L110.36,26.48 L106.712,26.48 L106.712,44 Z M129.248,44 L129.248,27.2 L136.112,27.2 C140.12,27.2 142.544,29.576 142.544,33.008 L142.544,33.056 C142.544,36.944 139.52,38.96 135.752,38.96 L132.944,38.96 L132.944,44 L129.248,44 Z M132.944,35.672 L135.872,35.672 C137.72,35.672 138.8,34.568 138.8,33.128 L138.8,33.08 C138.8,31.424 137.648,30.536 135.8,30.536 L132.944,30.536 L132.944,35.672 Z M145.064,44 L148.712,44 L148.712,26.48 L145.064,26.48 L145.064,44 Z M155.792,44.24 C153.368,44.24 151.376,42.848 151.376,40.304 L151.376,40.256 C151.376,37.448 153.512,36.152 156.56,36.152 C157.856,36.152 158.792,36.368 159.704,36.68 L159.704,36.464 C159.704,34.952 158.768,34.112 156.944,34.112 C155.552,34.112 154.568,34.376 153.392,34.808 L152.48,32.024 C153.896,31.4 155.288,30.992 157.472,30.992 C159.464,30.992 160.904,31.52 161.816,32.432 C162.776,33.392 163.208,34.808 163.208,36.536 L163.208,44 L159.68,44 L159.68,42.608 C158.792,43.592 157.568,44.24 155.792,44.24 Z M156.896,41.72 C158.6,41.72 159.752,40.784 159.752,39.464 L159.752,38.816 C159.128,38.528 158.312,38.336 157.424,38.336 C155.864,38.336 154.904,38.96 154.904,40.112 L154.904,40.16 C154.904,41.144 155.72,41.72 156.896,41.72 Z M172.424,44.288 C174.992,44.288 176.432,43.304 177.68,41.936 L175.544,39.776 C174.656,40.616 173.816,41.144 172.592,41.144 C170.6,41.144 169.328,39.56 169.328,37.592 L169.328,37.544 C169.328,35.648 170.624,34.04 172.448,34.04 C173.744,34.04 174.56,34.592 175.376,35.456 L177.608,33.056 C176.408,31.712 174.896,30.896 172.472,30.896 C168.536,30.896 165.728,33.92 165.728,37.592 L165.728,37.64 C165.728,41.312 168.56,44.288 172.424,44.288 Z M185.792,44.288 C181.928,44.288 179.072,41.576 179.072,37.64 L179.072,37.592 C179.072,33.92 181.688,30.896 185.432,30.896 C189.728,30.896 191.696,34.232 191.696,37.88 C191.696,38.168 191.672,38.504 191.648,38.84 L182.696,38.84 C183.056,40.496 184.208,41.36 185.84,41.36 C187.064,41.36 187.952,40.976 188.96,40.04 L191.048,41.888 C189.848,43.376 188.12,44.288 185.792,44.288 Z M182.648,36.56 L188.144,36.56 C187.928,34.928 186.968,33.824 185.432,33.824 C183.92,33.824 182.936,34.904 182.648,36.56 Z M206.432,44.12 L209.648,44.12 L213.44,33.128 L217.232,44.12 L220.448,44.12 L226.184,27.2 L222.32,27.2 L218.84,38.576 L215.072,27.152 L211.904,27.152 L208.136,38.576 L204.656,27.2 L200.696,27.2 L206.432,44.12 Z M228.248,29.72 L232.088,29.72 L232.088,26.48 L228.248,26.48 L228.248,29.72 Z M228.344,44 L231.992,44 L231.992,31.136 L228.344,31.136 L228.344,44 Z M235.424,44 L239.072,44 L239.072,36.824 C239.072,35.096 239.96,34.208 241.352,34.208 C242.744,34.208 243.56,35.096 243.56,36.824 L243.56,44 L247.208,44 L247.208,35.672 C247.208,32.72 245.6,30.896 242.84,30.896 C240.992,30.896 239.912,31.88 239.072,32.96 L239.072,31.136 L235.424,31.136 L235.424,44 Z M250.376,44 L254.024,44 L254.024,36.824 C254.024,35.096 254.912,34.208 256.304,34.208 C257.696,34.208 258.512,35.096 258.512,36.824 L258.512,44 L262.16,44 L262.16,35.672 C262.16,32.72 260.552,30.896 257.792,30.896 C255.944,30.896 254.864,31.88 254.024,32.96 L254.024,31.136 L250.376,31.136 L250.376,44 Z M271.424,44.288 C267.56,44.288 264.704,41.576 264.704,37.64 L264.704,37.592 C264.704,33.92 267.32,30.896 271.064,30.896 C275.36,30.896 277.328,34.232 277.328,37.88 C277.328,38.168 277.304,38.504 277.28,38.84 L268.328,38.84 C268.688,40.496 269.84,41.36 271.472,41.36 C272.696,41.36 273.584,40.976 274.592,40.04 L276.68,41.888 C275.48,43.376 273.752,44.288 271.424,44.288 Z M268.28,36.56 L273.776,36.56 C273.56,34.928 272.6,33.824 271.064,33.824 C269.552,33.824 268.568,34.904 268.28,36.56 Z M280.04,44 L283.688,44 L283.688,39.248 C283.688,36.176 285.176,34.712 287.6,34.712 L287.792,34.712 L287.792,30.896 C285.632,30.8 284.432,31.952 283.688,33.728 L283.688,31.136 L280.04,31.136 L280.04,44 Z M90.08,53.808 L92.576,53.808 L92.072,55.512 C93.584,55.92 94.784,56.688 95.768,57.696 L93.272,60.144 C92.552,59.472 91.832,58.968 91.04,58.68 L89.96,62.256 C92.288,63.12 93.848,64.248 93.848,66.72 C93.848,69.888 90.872,72 87.104,72 L87.08,72 L86.36,74.352 L83.864,74.352 L84.656,71.76 C82.664,71.352 81.032,70.416 79.88,68.904 L82.568,66.648 C83.456,67.656 84.488,68.328 85.664,68.64 L86.816,64.944 C84.56,64.104 82.832,63.072 82.832,60.48 C82.832,57.456 85.736,55.2 89.456,55.2 L89.648,55.2 L90.08,53.808 Z M86.624,60.096 C86.624,60.672 86.912,61.032 87.896,61.464 L88.808,58.368 C87.248,58.464 86.624,59.256 86.624,60.096 Z M90.056,67.104 C90.056,66.504 89.72,66.12 88.88,65.712 L87.92,68.832 C89.24,68.712 90.056,68.112 90.056,67.104 Z M97.544,72 L101.192,72 L105.728,55.08 L103.208,55.08 L97.928,56.544 L97.976,59.688 L101.024,58.992 L97.544,72 Z M116.168,54.912 C120.104,54.912 122.72,57.672 122.72,61.896 C122.72,64.752 121.616,67.776 119.552,69.84 C118.064,71.328 116.096,72.288 113.72,72.288 C109.784,72.288 107.168,69.528 107.168,65.304 C107.168,62.448 108.272,59.424 110.336,57.36 C111.824,55.872 113.792,54.912 116.168,54.912 Z M114.008,68.952 C115.04,68.952 115.952,68.472 116.696,67.728 C118.112,66.312 118.928,63.912 118.928,61.872 C118.928,59.496 117.728,58.248 115.88,58.248 C114.848,58.248 113.936,58.728 113.192,59.472 C111.776,60.888 110.96,63.288 110.96,65.328 C110.96,67.704 112.16,68.952 114.008,68.952 Z M133.688,54.912 C137.624,54.912 140.24,57.672 140.24,61.896 C140.24,64.752 139.136,67.776 137.072,69.84 C135.584,71.328 133.616,72.288 131.24,72.288 C127.304,72.288 124.688,69.528 124.688,65.304 C124.688,62.448 125.792,59.424 127.856,57.36 C129.344,55.872 131.312,54.912 133.688,54.912 Z M131.528,68.952 C132.56,68.952 133.472,68.472 134.216,67.728 C135.632,66.312 136.448,63.912 136.448,61.872 C136.448,59.496 135.248,58.248 133.4,58.248 C132.368,58.248 131.456,58.728 130.712,59.472 C129.296,60.888 128.48,63.288 128.48,65.328 C128.48,67.704 129.68,68.952 131.528,68.952 Z M151.208,54.912 C155.144,54.912 157.76,57.672 157.76,61.896 C157.76,64.752 156.656,67.776 154.592,69.84 C153.104,71.328 151.136,72.288 148.76,72.288 C144.824,72.288 142.208,69.528 142.208,65.304 C142.208,62.448 143.312,59.424 145.376,57.36 C146.864,55.872 148.832,54.912 151.208,54.912 Z M149.048,68.952 C150.08,68.952 150.992,68.472 151.736,67.728 C153.152,66.312 153.968,63.912 153.968,61.872 C153.968,59.496 152.768,58.248 150.92,58.248 C149.888,58.248 148.976,58.728 148.232,59.472 C146.816,60.888 146,63.288 146,65.328 C146,67.704 147.2,68.952 149.048,68.952 Z M173.528,72.24 C171.512,72.24 170.336,71.4 169.496,70.128 L168.992,72 L165.368,72 L170.024,54.48 L173.672,54.48 L172.064,60.528 C173.168,59.496 174.248,58.896 175.688,58.896 C178.496,58.896 180.632,60.936 180.632,64.416 C180.632,66.768 179.72,68.76 178.328,70.152 C177.008,71.472 175.28,72.24 173.528,72.24 Z M173.048,69.168 C173.936,69.168 174.824,68.76 175.496,68.088 C176.312,67.272 176.864,66.072 176.864,64.656 C176.864,62.976 175.808,61.968 174.176,61.968 C173.264,61.968 172.376,62.376 171.68,63.072 C170.816,63.936 170.288,65.112 170.288,66.432 C170.288,68.064 171.44,69.168 173.048,69.168 Z M190.064,58.896 C193.88,58.896 196.256,61.416 196.256,64.848 C196.256,66.792 195.416,68.688 194.024,70.08 C192.68,71.424 190.856,72.288 188.816,72.288 C185,72.288 182.624,69.768 182.624,66.336 C182.624,64.392 183.464,62.496 184.856,61.104 C186.2,59.76 188.024,58.896 190.064,58.896 Z M188.984,69.168 C189.896,69.168 190.712,68.76 191.312,68.16 C192.2,67.296 192.68,65.952 192.68,64.944 C192.68,63.048 191.552,62.016 189.896,62.016 C188.984,62.016 188.168,62.424 187.568,63.024 C186.68,63.888 186.2,65.232 186.2,66.24 C186.2,68.136 187.328,69.168 188.984,69.168 Z M197.192,72 L200.84,72 L202.784,64.776 C203.192,63.24 204.128,62.208 205.568,62.208 C206.696,62.208 207.344,62.76 207.344,63.792 C207.344,64.104 207.272,64.584 207.176,64.944 L205.28,72 L208.928,72 L210.776,65.088 C210.992,64.272 211.208,63.36 211.208,62.64 C211.208,60.312 209.72,58.896 207.416,58.896 C205.976,58.896 204.824,59.664 203.912,60.48 L204.272,59.136 L200.624,59.136 L197.192,72 Z M216.896,72.24 C214.592,72.24 213.104,70.824 213.104,68.496 C213.104,67.776 213.32,66.864 213.536,66.048 L215.384,59.136 L219.032,59.136 L217.136,66.192 C217.04,66.552 216.968,67.032 216.968,67.344 C216.968,68.376 217.616,68.928 218.744,68.928 C220.184,68.928 221.12,67.896 221.528,66.36 L223.472,59.136 L227.12,59.136 L223.688,72 L220.04,72 L220.4,70.656 C219.488,71.472 218.336,72.24 216.896,72.24 Z M232.256,72.288 C230.312,72.288 227.984,71.544 226.472,69.96 L228.584,67.776 C229.928,69.12 231.368,69.504 232.52,69.504 C233.48,69.504 234.056,69.096 234.056,68.376 C234.056,67.896 233.456,67.56 232.568,67.176 C230.552,66.312 228.824,65.472 228.824,63.408 C228.824,60.84 230.792,58.896 233.984,58.896 C236.072,58.896 237.992,59.808 239.048,60.744 L237.08,63.048 C235.832,62.064 234.776,61.68 233.72,61.68 C232.832,61.68 232.304,62.088 232.304,62.76 C232.304,63.264 232.928,63.624 234.008,64.104 C235.688,64.848 237.536,65.736 237.536,67.752 C237.536,70.56 235.328,72.288 232.256,72.288 Z" id="5th-Place-Winner-$10" fill="#003057"></path>
        </g>
    </g>
</svg>