<?xml version="1.0" encoding="UTF-8"?>
<svg width="286px" height="68px" viewBox="0 0 286 68" version="1.1" xmlns="http://www.w3.org/2000/svg" xmlns:xlink="http://www.w3.org/1999/xlink">
    <!-- Generator: Sketch 47.1 (45422) - http://www.bohemiancoding.com/sketch -->
    <title>6th</title>
    <desc>Created with Sketch.</desc>
    <defs></defs>
    <g id="MockUp" stroke="none" stroke-width="1" fill="none" fill-rule="evenodd">
        <g id="Desktop-HD-Revised1116" transform="translate(-793.000000, -4001.000000)">
            <g id="6th" transform="translate(790.000000, 3994.000000)">
                <g id="Group" stroke-width="1" fill-rule="evenodd" transform="translate(4.000000, 8.000000)">
                    <g id="Group-2-Copy">
                        <polygon id="Path-4" fill="#0099D8" points="33.9190341 39.6033743 33.9190341 58.8681955 22.459517 48.4204545 11 59.4783381 11 39.6033743"></polygon>
                        <polygon id="Path-3" stroke="#0099D8" points="8 39 8 66 22.8222222 52.3095238 37 66 37 39"></polygon>
                        <path d="M21.3510308,44.5882256 L21.3510308,44.5882256 L21.3510308,44.5882256 C20.8707575,45.1078603 20.060172,45.139769 19.5405373,44.6594958 C19.4541413,44.5796442 19.3791553,44.4882734 19.317693,44.3879593 L19.317693,44.3879593 L19.317693,44.3879593 C18.866267,43.6511751 17.9030324,43.4198467 17.1662483,43.8712727 C17.1312514,43.8927152 17.0971119,43.9155265 17.0639089,43.9396537 L17.0639089,43.9396537 L17.0639089,43.9396537 C16.4914882,44.3556071 15.6902528,44.2287654 15.2742994,43.6563447 C15.2051418,43.5611724 15.1494221,43.4569283 15.1087112,43.346551 L15.1087112,43.346551 L15.1087112,43.346551 C14.8096986,42.5358551 13.9101022,42.1210538 13.0994063,42.4200664 C13.0608987,42.4342693 13.0229649,42.449982 12.9856929,42.467168 L12.9856929,42.467168 L12.9856929,42.467168 C12.3431227,42.7634553 11.5820283,42.4827375 11.2857411,41.8401672 C11.2364795,41.7333317 11.2021675,41.6202202 11.1837724,41.5040214 L11.1837724,41.5040214 L11.1837724,41.5040214 C11.0486642,40.6505684 10.247277,40.0682348 9.39382393,40.203343 C9.35328537,40.2097606 9.31301505,40.2177709 9.27310641,40.2273553 L9.27310641,40.2273553 L9.27310641,40.2273553 C8.58508022,40.3925902 7.89337541,39.9687842 7.72814046,39.280758 C7.70066803,39.1663648 7.68908229,39.0487328 7.69370984,38.931178 L7.69370984,38.931178 L7.69370984,38.931178 C7.72769814,38.0677655 7.055317,37.3402785 6.19190453,37.3062902 C6.15089291,37.3046757 6.10983364,37.3046757 6.06882202,37.3062902 L6.06882202,37.3062902 L6.06882202,37.3062902 C5.36178032,37.3341229 4.76604688,36.7835153 4.73821413,36.0764736 C4.73358657,35.9589188 4.74517231,35.8412868 4.77264475,35.7268936 L4.77264475,35.7268936 L4.77264475,35.7268936 C4.97442339,34.8867021 4.45688755,34.0420185 3.61669609,33.8402398 C3.57678746,33.8306555 3.53651713,33.8226452 3.49597858,33.8162276 L3.49597858,33.8162276 L3.49597858,33.8162276 C2.79709259,33.7055886 2.32022422,33.0493389 2.43086326,32.3504529 C2.44925842,32.2342541 2.48357041,32.1211427 2.53283198,32.0143071 L2.53283198,32.0143071 L2.53283198,32.0143071 C2.89464672,31.2296247 2.55184479,30.3002052 1.76716244,29.9383905 C1.72989046,29.9212045 1.69195664,29.9054918 1.65344903,29.8912888 L1.65344903,29.8912888 L1.65344903,29.8912888 C0.989576543,29.6464298 0.649899028,28.9097574 0.894758063,28.2458849 C0.935469028,28.1355075 0.991188673,28.0312634 1.06034628,27.9360911 L1.06034628,27.9360911 L1.06034628,27.9360911 C1.56829278,27.2370728 1.41339845,26.2586344 0.714380106,25.7506879 C0.681177115,25.7265608 0.647037582,25.7037494 0.612040737,25.682307 L0.612040737,25.682307 L0.612040737,25.682307 C0.00869400529,25.3126377 -0.180739036,24.5238524 0.188930198,23.9205057 C0.250392464,23.8201915 0.325378492,23.7288208 0.411774448,23.6489692 L0.411774448,23.6489692 L0.411774448,23.6489692 C1.04633261,23.0624777 1.08529838,22.0726214 0.498806927,21.4380633 C0.470948902,21.4079221 0.441915615,21.3788888 0.411774448,21.3510308 L0.411774448,21.3510308 L0.411774448,21.3510308 C-0.107860256,20.8707575 -0.139769018,20.060172 0.340504233,19.5405373 C0.420355841,19.4541413 0.511726579,19.3791553 0.612040737,19.317693 L0.612040737,19.317693 L0.612040737,19.317693 C1.34882485,18.866267 1.58015329,17.9030324 1.12872726,17.1662483 C1.10728477,17.1312514 1.08447346,17.0971119 1.06034628,17.0639089 L1.06034628,17.0639089 L1.06034628,17.0639089 C0.644392874,16.4914882 0.771234626,15.6902528 1.34365526,15.2742994 C1.43882756,15.2051418 1.54307168,15.1494221 1.65344903,15.1087112 L1.65344903,15.1087112 L1.65344903,15.1087112 C2.46414489,14.8096986 2.87894617,13.9101022 2.57993362,13.0994063 C2.56573068,13.0608987 2.55001798,13.0229649 2.53283198,12.9856929 L2.53283198,12.9856929 L2.53283198,12.9856929 C2.23654473,12.3431227 2.51726254,11.5820283 3.15983276,11.2857411 C3.26666832,11.2364795 3.37977979,11.2021675 3.49597858,11.1837724 L3.49597858,11.1837724 L3.49597858,11.1837724 C4.34943161,11.0486642 4.93176515,10.247277 4.79665696,9.39382393 C4.79023939,9.35328537 4.78222912,9.31301505 4.77264475,9.27310641 L4.77264475,9.27310641 L4.77264475,9.27310641 C4.60740981,8.58508022 5.03121584,7.89337541 5.71924203,7.72814046 C5.83363524,7.70066803 5.95126724,7.68908229 6.06882202,7.69370984 L6.06882202,7.69370984 L6.06882202,7.69370984 C6.93223448,7.72769814 7.65972154,7.055317 7.69370984,6.19190453 C7.69532427,6.15089291 7.69532427,6.10983364 7.69370984,6.06882202 L7.69370984,6.06882202 L7.69370984,6.06882202 C7.66587709,5.36178032 8.21648473,4.76604688 8.92352642,4.73821413 C9.0410812,4.73358657 9.1587132,4.74517231 9.27310641,4.77264475 L9.27310641,4.77264475 L9.27310641,4.77264475 C10.1132979,4.97442339 10.9579815,4.45688755 11.1597602,3.61669609 C11.1693445,3.57678746 11.1773548,3.53651713 11.1837724,3.49597858 L11.1837724,3.49597858 L11.1837724,3.49597858 C11.2944114,2.79709259 11.9506611,2.32022422 12.6495471,2.43086326 C12.7657459,2.44925842 12.8788573,2.48357041 12.9856929,2.53283198 L12.9856929,2.53283198 L12.9856929,2.53283198 C13.7703753,2.89464672 14.6997948,2.55184479 15.0616095,1.76716244 C15.0787955,1.72989046 15.0945082,1.69195664 15.1087112,1.65344903 L15.1087112,1.65344903 L15.1087112,1.65344903 C15.3535702,0.989576543 16.0902426,0.649899028 16.7541151,0.894758063 C16.8644925,0.935469028 16.9687366,0.991188673 17.0639089,1.06034628 L17.0639089,1.06034628 L17.0639089,1.06034628 C17.7629272,1.56829278 18.7413656,1.41339845 19.2493121,0.714380106 C19.2734392,0.681177115 19.2962506,0.647037582 19.317693,0.612040737 L19.317693,0.612040737 L19.317693,0.612040737 C19.6873623,0.00869400529 20.4761476,-0.180739036 21.0794943,0.188930198 C21.1798085,0.250392464 21.2711792,0.325378492 21.3510308,0.411774448 L21.3510308,0.411774448 L21.3510308,0.411774448 C21.9375223,1.04633261 22.9273786,1.08529838 23.5619367,0.498806927 C23.5920779,0.470948902 23.6211112,0.441915615 23.6489692,0.411774448 L23.6489692,0.411774448 L23.6489692,0.411774448 C24.1292425,-0.107860256 24.939828,-0.139769018 25.4594627,0.340504233 C25.5458587,0.420355841 25.6208447,0.511726579 25.682307,0.612040737 L25.682307,0.612040737 L25.682307,0.612040737 C26.133733,1.34882485 27.0969676,1.58015329 27.8337517,1.12872726 C27.8687486,1.10728477 27.9028881,1.08447346 27.9360911,1.06034628 L27.9360911,1.06034628 L27.9360911,1.06034628 C28.5085118,0.644392874 29.3097472,0.771234626 29.7257006,1.34365526 C29.7948582,1.43882756 29.8505779,1.54307168 29.8912888,1.65344903 L29.8912888,1.65344903 L29.8912888,1.65344903 C30.1903014,2.46414489 31.0898978,2.87894617 31.9005937,2.57993362 C31.9391013,2.56573068 31.9770351,2.55001798 32.0143071,2.53283198 L32.0143071,2.53283198 L32.0143071,2.53283198 C32.6568773,2.23654473 33.4179717,2.51726254 33.7142589,3.15983276 C33.7635205,3.26666832 33.7978325,3.37977979 33.8162276,3.49597858 L33.8162276,3.49597858 L33.8162276,3.49597858 C33.9513358,4.34943161 34.752723,4.93176515 35.6061761,4.79665696 C35.6467146,4.79023939 35.686985,4.78222912 35.7268936,4.77264475 L35.7268936,4.77264475 L35.7268936,4.77264475 C36.4149198,4.60740981 37.1066246,5.03121584 37.2718595,5.71924203 C37.299332,5.83363524 37.3109177,5.95126724 37.3062902,6.06882202 L37.3062902,6.06882202 L37.3062902,6.06882202 C37.2723019,6.93223448 37.944683,7.65972154 38.8080955,7.69370984 C38.8491071,7.69532427 38.8901664,7.69532427 38.931178,7.69370984 L38.931178,7.69370984 L38.931178,7.69370984 C39.6382197,7.66587709 40.2339531,8.21648473 40.2617859,8.92352642 C40.2664134,9.0410812 40.2548277,9.1587132 40.2273553,9.27310641 L40.2273553,9.27310641 L40.2273553,9.27310641 C40.0255766,10.1132979 40.5431125,10.9579815 41.3833039,11.1597602 C41.4232125,11.1693445 41.4634829,11.1773548 41.5040214,11.1837724 L41.5040214,11.1837724 L41.5040214,11.1837724 C42.2029074,11.2944114 42.6797758,11.9506611 42.5691367,12.6495471 C42.5507416,12.7657459 42.5164296,12.8788573 42.467168,12.9856929 L42.467168,12.9856929 L42.467168,12.9856929 C42.1053533,13.7703753 42.4481552,14.6997948 43.2328376,15.0616095 C43.2701095,15.0787955 43.3080434,15.0945082 43.346551,15.1087112 L43.346551,15.1087112 L43.346551,15.1087112 C44.0104235,15.3535702 44.350101,16.0902426 44.1052419,16.7541151 C44.064531,16.8644925 44.0088113,16.9687366 43.9396537,17.0639089 L43.9396537,17.0639089 L43.9396537,17.0639089 C43.4317072,17.7629272 43.5866015,18.7413656 44.2856199,19.2493121 C44.3188229,19.2734392 44.3529624,19.2962506 44.3879593,19.317693 L44.3879593,19.317693 L44.3879593,19.317693 C44.991306,19.6873623 45.180739,20.4761476 44.8110698,21.0794943 C44.7496075,21.1798085 44.6746215,21.2711792 44.5882256,21.3510308 L44.5882256,21.3510308 L44.5882256,21.3510308 C43.9536674,21.9375223 43.9147016,22.9273786 44.5011931,23.5619367 C44.5290511,23.5920779 44.5580844,23.6211112 44.5882256,23.6489692 L44.5882256,23.6489692 L44.5882256,23.6489692 C45.1078603,24.1292425 45.139769,24.939828 44.6594958,25.4594627 C44.5796442,25.5458587 44.4882734,25.6208447 44.3879593,25.682307 L44.3879593,25.682307 L44.3879593,25.682307 C43.6511751,26.133733 43.4198467,27.0969676 43.8712727,27.8337517 C43.8927152,27.8687486 43.9155265,27.9028881 43.9396537,27.9360911 L43.9396537,27.9360911 L43.9396537,27.9360911 C44.3556071,28.5085118 44.2287654,29.3097472 43.6563447,29.7257006 C43.5611724,29.7948582 43.4569283,29.8505779 43.346551,29.8912888 L43.346551,29.8912888 L43.346551,29.8912888 C42.5358551,30.1903014 42.1210538,31.0898978 42.4200664,31.9005937 C42.4342693,31.9391013 42.449982,31.9770351 42.467168,32.0143071 L42.467168,32.0143071 L42.467168,32.0143071 C42.7634553,32.6568773 42.4827375,33.4179717 41.8401672,33.7142589 C41.7333317,33.7635205 41.6202202,33.7978325 41.5040214,33.8162276 L41.5040214,33.8162276 L41.5040214,33.8162276 C40.6505684,33.9513358 40.0682348,34.752723 40.203343,35.6061761 C40.2097606,35.6467146 40.2177709,35.686985 40.2273553,35.7268936 L40.2273553,35.7268936 L40.2273553,35.7268936 C40.3925902,36.4149198 39.9687842,37.1066246 39.280758,37.2718595 C39.1663648,37.299332 39.0487328,37.3109177 38.931178,37.3062902 L38.931178,37.3062902 L38.931178,37.3062902 C38.0677655,37.2723019 37.3402785,37.944683 37.3062902,38.8080955 C37.3046757,38.8491071 37.3046757,38.8901664 37.3062902,38.931178 L37.3062902,38.931178 L37.3062902,38.931178 C37.3341229,39.6382197 36.7835153,40.2339531 36.0764736,40.2617859 C35.9589188,40.2664134 35.8412868,40.2548277 35.7268936,40.2273553 L35.7268936,40.2273553 L35.7268936,40.2273553 C34.8867021,40.0255766 34.0420185,40.5431125 33.8402398,41.3833039 C33.8306555,41.4232125 33.8226452,41.4634829 33.8162276,41.5040214 L33.8162276,41.5040214 L33.8162276,41.5040214 C33.7055886,42.2029074 33.0493389,42.6797758 32.3504529,42.5691367 C32.2342541,42.5507416 32.1211427,42.5164296 32.0143071,42.467168 L32.0143071,42.467168 L32.0143071,42.467168 C31.2296247,42.1053533 30.3002052,42.4481552 29.9383905,43.2328376 C29.9212045,43.2701095 29.9054918,43.3080434 29.8912888,43.346551 L29.8912888,43.346551 L29.8912888,43.346551 C29.6464298,44.0104235 28.9097574,44.350101 28.2458849,44.1052419 C28.1355075,44.064531 28.0312634,44.0088113 27.9360911,43.9396537 L27.9360911,43.9396537 L27.9360911,43.9396537 C27.2370728,43.4317072 26.2586344,43.5866015 25.7506879,44.2856199 C25.7265608,44.3188229 25.7037494,44.3529624 25.682307,44.3879593 L25.682307,44.3879593 L25.682307,44.3879593 C25.3126377,44.991306 24.5238524,45.180739 23.9205057,44.8110698 C23.8201915,44.7496075 23.7288208,44.6746215 23.6489692,44.5882256 L23.6489692,44.5882256 L23.6489692,44.5882256 C23.0624777,43.9536674 22.0726214,43.9147016 21.4380633,44.5011931 C21.4079221,44.5290511 21.3788888,44.5580844 21.3510308,44.5882256 Z" id="Star" stroke="#0099D8" fill="#FFFFFF"></path>
                        <circle id="Oval-4" fill="#0099D8" cx="22.5" cy="22.5" r="19.5"></circle>
                    </g>
                    <text id="th-copy" font-family="Gotham-Bold, Gotham" font-size="14" font-weight="bold" fill="#FFFFFF">
                        <tspan x="25" y="27">th</tspan>
                    </text>
                    <text id="6" font-family="Gotham-Bold, Gotham" font-size="24" font-weight="bold" fill="#FFFFFF">
                        <tspan x="11" y="34">6</tspan>
                    </text>
                </g>
                <text id="6th-Place-Winner-$90" font-family="Gotham-Bold, Gotham" font-size="24" font-weight="bold" line-spacing="28" fill="#003057">
                    <tspan x="80" y="40">6th Place Winner</tspan>
                    <tspan x="80" y="68" font-family="Gotham-Book, Gotham" font-weight="300">$900 bonus</tspan>
                </text>
            </g>
        </g>
    </g>
</svg>