<?xml version="1.0" encoding="UTF-8"?>
<svg width="299px" height="75px" viewBox="0 0 299 75" version="1.1" xmlns="http://www.w3.org/2000/svg" xmlns:xlink="http://www.w3.org/1999/xlink">
    <!-- Generator: Sketch 47.1 (45422) - http://www.bohemiancoding.com/sketch -->
    <title>6th</title>
    <desc>Created with Sketch.</desc>
    <defs></defs>
    <g id="Symbols" stroke="none" stroke-width="1" fill="none" fill-rule="evenodd">
        <g id="6th">
            <g id="Group" transform="translate(4.000000, 8.000000)">
                <g id="Group-2-Copy">
                    <polygon id="Path-4" fill="#0099D8" points="33.9190341 39.6033743 33.9190341 58.8681955 22.459517 48.4204545 11 59.4783381 11 39.6033743"></polygon>
                    <polygon id="Path-3" stroke="#0099D8" points="8 39 8 66 22.8222222 52.3095238 37 66 37 39"></polygon>
                    <path d="M21.3510308,44.5882256 L21.3510308,44.5882256 L21.3510308,44.5882256 C20.8707575,45.1078603 20.060172,45.139769 19.5405373,44.6594958 C19.4541413,44.5796442 19.3791553,44.4882734 19.317693,44.3879593 L19.317693,44.3879593 L19.317693,44.3879593 C18.866267,43.6511751 17.9030324,43.4198467 17.1662483,43.8712727 C17.1312514,43.8927152 17.0971119,43.9155265 17.0639089,43.9396537 L17.0639089,43.9396537 L17.0639089,43.9396537 C16.4914882,44.3556071 15.6902528,44.2287654 15.2742994,43.6563447 C15.2051418,43.5611724 15.1494221,43.4569283 15.1087112,43.346551 L15.1087112,43.346551 L15.1087112,43.346551 C14.8096986,42.5358551 13.9101022,42.1210538 13.0994063,42.4200664 C13.0608987,42.4342693 13.0229649,42.449982 12.9856929,42.467168 L12.9856929,42.467168 L12.9856929,42.467168 C12.3431227,42.7634553 11.5820283,42.4827375 11.2857411,41.8401672 C11.2364795,41.7333317 11.2021675,41.6202202 11.1837724,41.5040214 L11.1837724,41.5040214 L11.1837724,41.5040214 C11.0486642,40.6505684 10.247277,40.0682348 9.39382393,40.203343 C9.35328537,40.2097606 9.31301505,40.2177709 9.27310641,40.2273553 L9.27310641,40.2273553 L9.27310641,40.2273553 C8.58508022,40.3925902 7.89337541,39.9687842 7.72814046,39.280758 C7.70066803,39.1663648 7.68908229,39.0487328 7.69370984,38.931178 L7.69370984,38.931178 L7.69370984,38.931178 C7.72769814,38.0677655 7.055317,37.3402785 6.19190453,37.3062902 C6.15089291,37.3046757 6.10983364,37.3046757 6.06882202,37.3062902 L6.06882202,37.3062902 L6.06882202,37.3062902 C5.36178032,37.3341229 4.76604688,36.7835153 4.73821413,36.0764736 C4.73358657,35.9589188 4.74517231,35.8412868 4.77264475,35.7268936 L4.77264475,35.7268936 L4.77264475,35.7268936 C4.97442339,34.8867021 4.45688755,34.0420185 3.61669609,33.8402398 C3.57678746,33.8306555 3.53651713,33.8226452 3.49597858,33.8162276 L3.49597858,33.8162276 L3.49597858,33.8162276 C2.79709259,33.7055886 2.32022422,33.0493389 2.43086326,32.3504529 C2.44925842,32.2342541 2.48357041,32.1211427 2.53283198,32.0143071 L2.53283198,32.0143071 L2.53283198,32.0143071 C2.89464672,31.2296247 2.55184479,30.3002052 1.76716244,29.9383905 C1.72989046,29.9212045 1.69195664,29.9054918 1.65344903,29.8912888 L1.65344903,29.8912888 L1.65344903,29.8912888 C0.989576543,29.6464298 0.649899028,28.9097574 0.894758063,28.2458849 C0.935469028,28.1355075 0.991188673,28.0312634 1.06034628,27.9360911 L1.06034628,27.9360911 L1.06034628,27.9360911 C1.56829278,27.2370728 1.41339845,26.2586344 0.714380106,25.7506879 C0.681177115,25.7265608 0.647037582,25.7037494 0.612040737,25.682307 L0.612040737,25.682307 L0.612040737,25.682307 C0.00869400529,25.3126377 -0.180739036,24.5238524 0.188930198,23.9205057 C0.250392464,23.8201915 0.325378492,23.7288208 0.411774448,23.6489692 L0.411774448,23.6489692 L0.411774448,23.6489692 C1.04633261,23.0624777 1.08529838,22.0726214 0.498806927,21.4380633 C0.470948902,21.4079221 0.441915615,21.3788888 0.411774448,21.3510308 L0.411774448,21.3510308 L0.411774448,21.3510308 C-0.107860256,20.8707575 -0.139769018,20.060172 0.340504233,19.5405373 C0.420355841,19.4541413 0.511726579,19.3791553 0.612040737,19.317693 L0.612040737,19.317693 L0.612040737,19.317693 C1.34882485,18.866267 1.58015329,17.9030324 1.12872726,17.1662483 C1.10728477,17.1312514 1.08447346,17.0971119 1.06034628,17.0639089 L1.06034628,17.0639089 L1.06034628,17.0639089 C0.644392874,16.4914882 0.771234626,15.6902528 1.34365526,15.2742994 C1.43882756,15.2051418 1.54307168,15.1494221 1.65344903,15.1087112 L1.65344903,15.1087112 L1.65344903,15.1087112 C2.46414489,14.8096986 2.87894617,13.9101022 2.57993362,13.0994063 C2.56573068,13.0608987 2.55001798,13.0229649 2.53283198,12.9856929 L2.53283198,12.9856929 L2.53283198,12.9856929 C2.23654473,12.3431227 2.51726254,11.5820283 3.15983276,11.2857411 C3.26666832,11.2364795 3.37977979,11.2021675 3.49597858,11.1837724 L3.49597858,11.1837724 L3.49597858,11.1837724 C4.34943161,11.0486642 4.93176515,10.247277 4.79665696,9.39382393 C4.79023939,9.35328537 4.78222912,9.31301505 4.77264475,9.27310641 L4.77264475,9.27310641 L4.77264475,9.27310641 C4.60740981,8.58508022 5.03121584,7.89337541 5.71924203,7.72814046 C5.83363524,7.70066803 5.95126724,7.68908229 6.06882202,7.69370984 L6.06882202,7.69370984 L6.06882202,7.69370984 C6.93223448,7.72769814 7.65972154,7.055317 7.69370984,6.19190453 C7.69532427,6.15089291 7.69532427,6.10983364 7.69370984,6.06882202 L7.69370984,6.06882202 L7.69370984,6.06882202 C7.66587709,5.36178032 8.21648473,4.76604688 8.92352642,4.73821413 C9.0410812,4.73358657 9.1587132,4.74517231 9.27310641,4.77264475 L9.27310641,4.77264475 L9.27310641,4.77264475 C10.1132979,4.97442339 10.9579815,4.45688755 11.1597602,3.61669609 C11.1693445,3.57678746 11.1773548,3.53651713 11.1837724,3.49597858 L11.1837724,3.49597858 L11.1837724,3.49597858 C11.2944114,2.79709259 11.9506611,2.32022422 12.6495471,2.43086326 C12.7657459,2.44925842 12.8788573,2.48357041 12.9856929,2.53283198 L12.9856929,2.53283198 L12.9856929,2.53283198 C13.7703753,2.89464672 14.6997948,2.55184479 15.0616095,1.76716244 C15.0787955,1.72989046 15.0945082,1.69195664 15.1087112,1.65344903 L15.1087112,1.65344903 L15.1087112,1.65344903 C15.3535702,0.989576543 16.0902426,0.649899028 16.7541151,0.894758063 C16.8644925,0.935469028 16.9687366,0.991188673 17.0639089,1.06034628 L17.0639089,1.06034628 L17.0639089,1.06034628 C17.7629272,1.56829278 18.7413656,1.41339845 19.2493121,0.714380106 C19.2734392,0.681177115 19.2962506,0.647037582 19.317693,0.612040737 L19.317693,0.612040737 L19.317693,0.612040737 C19.6873623,0.00869400529 20.4761476,-0.180739036 21.0794943,0.188930198 C21.1798085,0.250392464 21.2711792,0.325378492 21.3510308,0.411774448 L21.3510308,0.411774448 L21.3510308,0.411774448 C21.9375223,1.04633261 22.9273786,1.08529838 23.5619367,0.498806927 C23.5920779,0.470948902 23.6211112,0.441915615 23.6489692,0.411774448 L23.6489692,0.411774448 L23.6489692,0.411774448 C24.1292425,-0.107860256 24.939828,-0.139769018 25.4594627,0.340504233 C25.5458587,0.420355841 25.6208447,0.511726579 25.682307,0.612040737 L25.682307,0.612040737 L25.682307,0.612040737 C26.133733,1.34882485 27.0969676,1.58015329 27.8337517,1.12872726 C27.8687486,1.10728477 27.9028881,1.08447346 27.9360911,1.06034628 L27.9360911,1.06034628 L27.9360911,1.06034628 C28.5085118,0.644392874 29.3097472,0.771234626 29.7257006,1.34365526 C29.7948582,1.43882756 29.8505779,1.54307168 29.8912888,1.65344903 L29.8912888,1.65344903 L29.8912888,1.65344903 C30.1903014,2.46414489 31.0898978,2.87894617 31.9005937,2.57993362 C31.9391013,2.56573068 31.9770351,2.55001798 32.0143071,2.53283198 L32.0143071,2.53283198 L32.0143071,2.53283198 C32.6568773,2.23654473 33.4179717,2.51726254 33.7142589,3.15983276 C33.7635205,3.26666832 33.7978325,3.37977979 33.8162276,3.49597858 L33.8162276,3.49597858 L33.8162276,3.49597858 C33.9513358,4.34943161 34.752723,4.93176515 35.6061761,4.79665696 C35.6467146,4.79023939 35.686985,4.78222912 35.7268936,4.77264475 L35.7268936,4.77264475 L35.7268936,4.77264475 C36.4149198,4.60740981 37.1066246,5.03121584 37.2718595,5.71924203 C37.299332,5.83363524 37.3109177,5.95126724 37.3062902,6.06882202 L37.3062902,6.06882202 L37.3062902,6.06882202 C37.2723019,6.93223448 37.944683,7.65972154 38.8080955,7.69370984 C38.8491071,7.69532427 38.8901664,7.69532427 38.931178,7.69370984 L38.931178,7.69370984 L38.931178,7.69370984 C39.6382197,7.66587709 40.2339531,8.21648473 40.2617859,8.92352642 C40.2664134,9.0410812 40.2548277,9.1587132 40.2273553,9.27310641 L40.2273553,9.27310641 L40.2273553,9.27310641 C40.0255766,10.1132979 40.5431125,10.9579815 41.3833039,11.1597602 C41.4232125,11.1693445 41.4634829,11.1773548 41.5040214,11.1837724 L41.5040214,11.1837724 L41.5040214,11.1837724 C42.2029074,11.2944114 42.6797758,11.9506611 42.5691367,12.6495471 C42.5507416,12.7657459 42.5164296,12.8788573 42.467168,12.9856929 L42.467168,12.9856929 L42.467168,12.9856929 C42.1053533,13.7703753 42.4481552,14.6997948 43.2328376,15.0616095 C43.2701095,15.0787955 43.3080434,15.0945082 43.346551,15.1087112 L43.346551,15.1087112 L43.346551,15.1087112 C44.0104235,15.3535702 44.350101,16.0902426 44.1052419,16.7541151 C44.064531,16.8644925 44.0088113,16.9687366 43.9396537,17.0639089 L43.9396537,17.0639089 L43.9396537,17.0639089 C43.4317072,17.7629272 43.5866015,18.7413656 44.2856199,19.2493121 C44.3188229,19.2734392 44.3529624,19.2962506 44.3879593,19.317693 L44.3879593,19.317693 L44.3879593,19.317693 C44.991306,19.6873623 45.180739,20.4761476 44.8110698,21.0794943 C44.7496075,21.1798085 44.6746215,21.2711792 44.5882256,21.3510308 L44.5882256,21.3510308 L44.5882256,21.3510308 C43.9536674,21.9375223 43.9147016,22.9273786 44.5011931,23.5619367 C44.5290511,23.5920779 44.5580844,23.6211112 44.5882256,23.6489692 L44.5882256,23.6489692 L44.5882256,23.6489692 C45.1078603,24.1292425 45.139769,24.939828 44.6594958,25.4594627 C44.5796442,25.5458587 44.4882734,25.6208447 44.3879593,25.682307 L44.3879593,25.682307 L44.3879593,25.682307 C43.6511751,26.133733 43.4198467,27.0969676 43.8712727,27.8337517 C43.8927152,27.8687486 43.9155265,27.9028881 43.9396537,27.9360911 L43.9396537,27.9360911 L43.9396537,27.9360911 C44.3556071,28.5085118 44.2287654,29.3097472 43.6563447,29.7257006 C43.5611724,29.7948582 43.4569283,29.8505779 43.346551,29.8912888 L43.346551,29.8912888 L43.346551,29.8912888 C42.5358551,30.1903014 42.1210538,31.0898978 42.4200664,31.9005937 C42.4342693,31.9391013 42.449982,31.9770351 42.467168,32.0143071 L42.467168,32.0143071 L42.467168,32.0143071 C42.7634553,32.6568773 42.4827375,33.4179717 41.8401672,33.7142589 C41.7333317,33.7635205 41.6202202,33.7978325 41.5040214,33.8162276 L41.5040214,33.8162276 L41.5040214,33.8162276 C40.6505684,33.9513358 40.0682348,34.752723 40.203343,35.6061761 C40.2097606,35.6467146 40.2177709,35.686985 40.2273553,35.7268936 L40.2273553,35.7268936 L40.2273553,35.7268936 C40.3925902,36.4149198 39.9687842,37.1066246 39.280758,37.2718595 C39.1663648,37.299332 39.0487328,37.3109177 38.931178,37.3062902 L38.931178,37.3062902 L38.931178,37.3062902 C38.0677655,37.2723019 37.3402785,37.944683 37.3062902,38.8080955 C37.3046757,38.8491071 37.3046757,38.8901664 37.3062902,38.931178 L37.3062902,38.931178 L37.3062902,38.931178 C37.3341229,39.6382197 36.7835153,40.2339531 36.0764736,40.2617859 C35.9589188,40.2664134 35.8412868,40.2548277 35.7268936,40.2273553 L35.7268936,40.2273553 L35.7268936,40.2273553 C34.8867021,40.0255766 34.0420185,40.5431125 33.8402398,41.3833039 C33.8306555,41.4232125 33.8226452,41.4634829 33.8162276,41.5040214 L33.8162276,41.5040214 L33.8162276,41.5040214 C33.7055886,42.2029074 33.0493389,42.6797758 32.3504529,42.5691367 C32.2342541,42.5507416 32.1211427,42.5164296 32.0143071,42.467168 L32.0143071,42.467168 L32.0143071,42.467168 C31.2296247,42.1053533 30.3002052,42.4481552 29.9383905,43.2328376 C29.9212045,43.2701095 29.9054918,43.3080434 29.8912888,43.346551 L29.8912888,43.346551 L29.8912888,43.346551 C29.6464298,44.0104235 28.9097574,44.350101 28.2458849,44.1052419 C28.1355075,44.064531 28.0312634,44.0088113 27.9360911,43.9396537 L27.9360911,43.9396537 L27.9360911,43.9396537 C27.2370728,43.4317072 26.2586344,43.5866015 25.7506879,44.2856199 C25.7265608,44.3188229 25.7037494,44.3529624 25.682307,44.3879593 L25.682307,44.3879593 L25.682307,44.3879593 C25.3126377,44.991306 24.5238524,45.180739 23.9205057,44.8110698 C23.8201915,44.7496075 23.7288208,44.6746215 23.6489692,44.5882256 L23.6489692,44.5882256 L23.6489692,44.5882256 C23.0624777,43.9536674 22.0726214,43.9147016 21.4380633,44.5011931 C21.4079221,44.5290511 21.3788888,44.5580844 21.3510308,44.5882256 Z" id="Star" stroke="#0099D8" fill="#FFFFFF"></path>
                    <circle id="Oval-4" fill="#0099D8" cx="22.5" cy="22.5" r="19.5"></circle>
                </g>
                <path d="M28.486,25.126 C29.2,25.126 29.718,24.958 30.166,24.692 L30.166,22.984 C29.858,23.152 29.508,23.25 29.116,23.25 C28.64,23.25 28.43,23.012 28.43,22.522 L28.43,19.316 L30.194,19.316 L30.194,17.496 L28.43,17.496 L28.43,15.578 L26.302,15.578 L26.302,17.496 L25.406,17.496 L25.406,19.316 L26.302,19.316 L26.302,22.872 C26.302,24.608 27.184,25.126 28.486,25.126 Z M31.762,25 L33.89,25 L33.89,20.814 C33.89,19.806 34.408,19.288 35.22,19.288 C36.032,19.288 36.508,19.806 36.508,20.814 L36.508,25 L38.636,25 L38.636,20.142 C38.636,18.42 37.698,17.356 36.088,17.356 C35.01,17.356 34.38,17.93 33.89,18.56 L33.89,14.78 L31.762,14.78 L31.762,25 Z" id="th-copy" fill="#FFFFFF"></path>
                <path d="M19.136,31.288 C16.952,31.288 15.464,30.664 14.288,29.488 C13.064,28.264 12.296,26.464 12.296,23.128 L12.296,23.08 C12.296,17.896 14.648,13.912 19.664,13.912 C21.944,13.912 23.432,14.584 24.92,15.76 L22.976,18.616 C21.872,17.776 20.984,17.272 19.544,17.272 C17.024,17.272 16.28,19.696 16.16,21.16 C17.048,20.56 18.104,20.08 19.64,20.08 C22.976,20.08 25.544,21.928 25.544,25.432 L25.544,25.48 C25.544,28.912 22.784,31.288 19.136,31.288 Z M18.992,28.12 C20.816,28.12 21.872,27.088 21.872,25.648 L21.872,25.6 C21.872,24.184 20.768,23.152 18.944,23.152 C17.12,23.152 16.064,24.16 16.064,25.576 L16.064,25.624 C16.064,27.04 17.168,28.12 18.992,28.12 Z" id="6" fill="#FFFFFF"></path>
            </g>
            <path d="M88.136,44.288 C85.952,44.288 84.464,43.664 83.288,42.488 C82.064,41.264 81.296,39.464 81.296,36.128 L81.296,36.08 C81.296,30.896 83.648,26.912 88.664,26.912 C90.944,26.912 92.432,27.584 93.92,28.76 L91.976,31.616 C90.872,30.776 89.984,30.272 88.544,30.272 C86.024,30.272 85.28,32.696 85.16,34.16 C86.048,33.56 87.104,33.08 88.64,33.08 C91.976,33.08 94.544,34.928 94.544,38.432 L94.544,38.48 C94.544,41.912 91.784,44.288 88.136,44.288 Z M87.992,41.12 C89.816,41.12 90.872,40.088 90.872,38.648 L90.872,38.6 C90.872,37.184 89.768,36.152 87.944,36.152 C86.12,36.152 85.064,37.16 85.064,38.576 L85.064,38.624 C85.064,40.04 86.168,41.12 87.992,41.12 Z M101.864,44.216 C103.088,44.216 103.976,43.928 104.744,43.472 L104.744,40.544 C104.216,40.832 103.616,41 102.944,41 C102.128,41 101.768,40.592 101.768,39.752 L101.768,34.256 L104.792,34.256 L104.792,31.136 L101.768,31.136 L101.768,27.848 L98.12,27.848 L98.12,31.136 L96.584,31.136 L96.584,34.256 L98.12,34.256 L98.12,40.352 C98.12,43.328 99.632,44.216 101.864,44.216 Z M107.48,44 L111.128,44 L111.128,36.824 C111.128,35.096 112.016,34.208 113.408,34.208 C114.8,34.208 115.616,35.096 115.616,36.824 L115.616,44 L119.264,44 L119.264,35.672 C119.264,32.72 117.656,30.896 114.896,30.896 C113.048,30.896 111.968,31.88 111.128,32.96 L111.128,26.48 L107.48,26.48 L107.48,44 Z M130.016,44 L130.016,27.2 L136.88,27.2 C140.888,27.2 143.312,29.576 143.312,33.008 L143.312,33.056 C143.312,36.944 140.288,38.96 136.52,38.96 L133.712,38.96 L133.712,44 L130.016,44 Z M133.712,35.672 L136.64,35.672 C138.488,35.672 139.568,34.568 139.568,33.128 L139.568,33.08 C139.568,31.424 138.416,30.536 136.568,30.536 L133.712,30.536 L133.712,35.672 Z M145.832,44 L149.48,44 L149.48,26.48 L145.832,26.48 L145.832,44 Z M156.56,44.24 C154.136,44.24 152.144,42.848 152.144,40.304 L152.144,40.256 C152.144,37.448 154.28,36.152 157.328,36.152 C158.624,36.152 159.56,36.368 160.472,36.68 L160.472,36.464 C160.472,34.952 159.536,34.112 157.712,34.112 C156.32,34.112 155.336,34.376 154.16,34.808 L153.248,32.024 C154.664,31.4 156.056,30.992 158.24,30.992 C160.232,30.992 161.672,31.52 162.584,32.432 C163.544,33.392 163.976,34.808 163.976,36.536 L163.976,44 L160.448,44 L160.448,42.608 C159.56,43.592 158.336,44.24 156.56,44.24 Z M157.664,41.72 C159.368,41.72 160.52,40.784 160.52,39.464 L160.52,38.816 C159.896,38.528 159.08,38.336 158.192,38.336 C156.632,38.336 155.672,38.96 155.672,40.112 L155.672,40.16 C155.672,41.144 156.488,41.72 157.664,41.72 Z M173.192,44.288 C175.76,44.288 177.2,43.304 178.448,41.936 L176.312,39.776 C175.424,40.616 174.584,41.144 173.36,41.144 C171.368,41.144 170.096,39.56 170.096,37.592 L170.096,37.544 C170.096,35.648 171.392,34.04 173.216,34.04 C174.512,34.04 175.328,34.592 176.144,35.456 L178.376,33.056 C177.176,31.712 175.664,30.896 173.24,30.896 C169.304,30.896 166.496,33.92 166.496,37.592 L166.496,37.64 C166.496,41.312 169.328,44.288 173.192,44.288 Z M186.56,44.288 C182.696,44.288 179.84,41.576 179.84,37.64 L179.84,37.592 C179.84,33.92 182.456,30.896 186.2,30.896 C190.496,30.896 192.464,34.232 192.464,37.88 C192.464,38.168 192.44,38.504 192.416,38.84 L183.464,38.84 C183.824,40.496 184.976,41.36 186.608,41.36 C187.832,41.36 188.72,40.976 189.728,40.04 L191.816,41.888 C190.616,43.376 188.888,44.288 186.56,44.288 Z M183.416,36.56 L188.912,36.56 C188.696,34.928 187.736,33.824 186.2,33.824 C184.688,33.824 183.704,34.904 183.416,36.56 Z M207.2,44.12 L210.416,44.12 L214.208,33.128 L218,44.12 L221.216,44.12 L226.952,27.2 L223.088,27.2 L219.608,38.576 L215.84,27.152 L212.672,27.152 L208.904,38.576 L205.424,27.2 L201.464,27.2 L207.2,44.12 Z M229.016,29.72 L232.856,29.72 L232.856,26.48 L229.016,26.48 L229.016,29.72 Z M229.112,44 L232.76,44 L232.76,31.136 L229.112,31.136 L229.112,44 Z M236.192,44 L239.84,44 L239.84,36.824 C239.84,35.096 240.728,34.208 242.12,34.208 C243.512,34.208 244.328,35.096 244.328,36.824 L244.328,44 L247.976,44 L247.976,35.672 C247.976,32.72 246.368,30.896 243.608,30.896 C241.76,30.896 240.68,31.88 239.84,32.96 L239.84,31.136 L236.192,31.136 L236.192,44 Z M251.144,44 L254.792,44 L254.792,36.824 C254.792,35.096 255.68,34.208 257.072,34.208 C258.464,34.208 259.28,35.096 259.28,36.824 L259.28,44 L262.928,44 L262.928,35.672 C262.928,32.72 261.32,30.896 258.56,30.896 C256.712,30.896 255.632,31.88 254.792,32.96 L254.792,31.136 L251.144,31.136 L251.144,44 Z M272.192,44.288 C268.328,44.288 265.472,41.576 265.472,37.64 L265.472,37.592 C265.472,33.92 268.088,30.896 271.832,30.896 C276.128,30.896 278.096,34.232 278.096,37.88 C278.096,38.168 278.072,38.504 278.048,38.84 L269.096,38.84 C269.456,40.496 270.608,41.36 272.24,41.36 C273.464,41.36 274.352,40.976 275.36,40.04 L277.448,41.888 C276.248,43.376 274.52,44.288 272.192,44.288 Z M269.048,36.56 L274.544,36.56 C274.328,34.928 273.368,33.824 271.832,33.824 C270.32,33.824 269.336,34.904 269.048,36.56 Z M280.808,44 L284.456,44 L284.456,39.248 C284.456,36.176 285.944,34.712 288.368,34.712 L288.56,34.712 L288.56,30.896 C286.4,30.8 285.2,31.952 284.456,33.728 L284.456,31.136 L280.808,31.136 L280.808,44 Z M90.08,53.808 L92.576,53.808 L92.072,55.512 C93.584,55.92 94.784,56.688 95.768,57.696 L93.272,60.144 C92.552,59.472 91.832,58.968 91.04,58.68 L89.96,62.256 C92.288,63.12 93.848,64.248 93.848,66.72 C93.848,69.888 90.872,72 87.104,72 L87.08,72 L86.36,74.352 L83.864,74.352 L84.656,71.76 C82.664,71.352 81.032,70.416 79.88,68.904 L82.568,66.648 C83.456,67.656 84.488,68.328 85.664,68.64 L86.816,64.944 C84.56,64.104 82.832,63.072 82.832,60.48 C82.832,57.456 85.736,55.2 89.456,55.2 L89.648,55.2 L90.08,53.808 Z M86.624,60.096 C86.624,60.672 86.912,61.032 87.896,61.464 L88.808,58.368 C87.248,58.464 86.624,59.256 86.624,60.096 Z M90.056,67.104 C90.056,66.504 89.72,66.12 88.88,65.712 L87.92,68.832 C89.24,68.712 90.056,68.112 90.056,67.104 Z M101.096,72.288 C99.008,72.288 97.112,71.52 95.576,70.152 L97.736,67.488 C98.816,68.4 99.872,68.976 101.288,68.976 C102.584,68.976 103.64,68.544 104.576,67.608 C105.296,66.888 105.872,65.928 106.208,64.896 C105.488,65.616 103.976,66.288 102.392,66.288 C99.584,66.288 97.28,64.68 97.28,61.536 C97.28,59.76 98,58.152 99.176,56.976 C100.472,55.68 102.224,54.912 104.24,54.912 C105.848,54.912 107.624,55.416 108.632,56.424 C109.76,57.552 110.36,59.04 110.36,61.512 C110.36,64.536 109.16,67.632 107,69.792 C105.44,71.352 103.424,72.288 101.096,72.288 Z M103.568,63.312 C104.576,63.312 105.416,62.952 105.992,62.376 C106.52,61.848 106.832,61.104 106.832,60.336 C106.832,59.736 106.616,59.136 106.232,58.752 C105.776,58.296 105.128,58.032 104.264,58.032 C103.256,58.032 102.44,58.392 101.864,58.968 C101.312,59.52 101,60.264 101,61.056 C101,62.52 102.08,63.312 103.568,63.312 Z M121.184,54.912 C125.12,54.912 127.736,57.672 127.736,61.896 C127.736,64.752 126.632,67.776 124.568,69.84 C123.08,71.328 121.112,72.288 118.736,72.288 C114.8,72.288 112.184,69.528 112.184,65.304 C112.184,62.448 113.288,59.424 115.352,57.36 C116.84,55.872 118.808,54.912 121.184,54.912 Z M119.024,68.952 C120.056,68.952 120.968,68.472 121.712,67.728 C123.128,66.312 123.944,63.912 123.944,61.872 C123.944,59.496 122.744,58.248 120.896,58.248 C119.864,58.248 118.952,58.728 118.208,59.472 C116.792,60.888 115.976,63.288 115.976,65.328 C115.976,67.704 117.176,68.952 119.024,68.952 Z M138.704,54.912 C142.64,54.912 145.256,57.672 145.256,61.896 C145.256,64.752 144.152,67.776 142.088,69.84 C140.6,71.328 138.632,72.288 136.256,72.288 C132.32,72.288 129.704,69.528 129.704,65.304 C129.704,62.448 130.808,59.424 132.872,57.36 C134.36,55.872 136.328,54.912 138.704,54.912 Z M136.544,68.952 C137.576,68.952 138.488,68.472 139.232,67.728 C140.648,66.312 141.464,63.912 141.464,61.872 C141.464,59.496 140.264,58.248 138.416,58.248 C137.384,58.248 136.472,58.728 135.728,59.472 C134.312,60.888 133.496,63.288 133.496,65.328 C133.496,67.704 134.696,68.952 136.544,68.952 Z M161.024,72.24 C159.008,72.24 157.832,71.4 156.992,70.128 L156.488,72 L152.864,72 L157.52,54.48 L161.168,54.48 L159.56,60.528 C160.664,59.496 161.744,58.896 163.184,58.896 C165.992,58.896 168.128,60.936 168.128,64.416 C168.128,66.768 167.216,68.76 165.824,70.152 C164.504,71.472 162.776,72.24 161.024,72.24 Z M160.544,69.168 C161.432,69.168 162.32,68.76 162.992,68.088 C163.808,67.272 164.36,66.072 164.36,64.656 C164.36,62.976 163.304,61.968 161.672,61.968 C160.76,61.968 159.872,62.376 159.176,63.072 C158.312,63.936 157.784,65.112 157.784,66.432 C157.784,68.064 158.936,69.168 160.544,69.168 Z M177.56,58.896 C181.376,58.896 183.752,61.416 183.752,64.848 C183.752,66.792 182.912,68.688 181.52,70.08 C180.176,71.424 178.352,72.288 176.312,72.288 C172.496,72.288 170.12,69.768 170.12,66.336 C170.12,64.392 170.96,62.496 172.352,61.104 C173.696,59.76 175.52,58.896 177.56,58.896 Z M176.48,69.168 C177.392,69.168 178.208,68.76 178.808,68.16 C179.696,67.296 180.176,65.952 180.176,64.944 C180.176,63.048 179.048,62.016 177.392,62.016 C176.48,62.016 175.664,62.424 175.064,63.024 C174.176,63.888 173.696,65.232 173.696,66.24 C173.696,68.136 174.824,69.168 176.48,69.168 Z M184.688,72 L188.336,72 L190.28,64.776 C190.688,63.24 191.624,62.208 193.064,62.208 C194.192,62.208 194.84,62.76 194.84,63.792 C194.84,64.104 194.768,64.584 194.672,64.944 L192.776,72 L196.424,72 L198.272,65.088 C198.488,64.272 198.704,63.36 198.704,62.64 C198.704,60.312 197.216,58.896 194.912,58.896 C193.472,58.896 192.32,59.664 191.408,60.48 L191.768,59.136 L188.12,59.136 L184.688,72 Z M204.392,72.24 C202.088,72.24 200.6,70.824 200.6,68.496 C200.6,67.776 200.816,66.864 201.032,66.048 L202.88,59.136 L206.528,59.136 L204.632,66.192 C204.536,66.552 204.464,67.032 204.464,67.344 C204.464,68.376 205.112,68.928 206.24,68.928 C207.68,68.928 208.616,67.896 209.024,66.36 L210.968,59.136 L214.616,59.136 L211.184,72 L207.536,72 L207.896,70.656 C206.984,71.472 205.832,72.24 204.392,72.24 Z M219.752,72.288 C217.808,72.288 215.48,71.544 213.968,69.96 L216.08,67.776 C217.424,69.12 218.864,69.504 220.016,69.504 C220.976,69.504 221.552,69.096 221.552,68.376 C221.552,67.896 220.952,67.56 220.064,67.176 C218.048,66.312 216.32,65.472 216.32,63.408 C216.32,60.84 218.288,58.896 221.48,58.896 C223.568,58.896 225.488,59.808 226.544,60.744 L224.576,63.048 C223.328,62.064 222.272,61.68 221.216,61.68 C220.328,61.68 219.8,62.088 219.8,62.76 C219.8,63.264 220.424,63.624 221.504,64.104 C223.184,64.848 225.032,65.736 225.032,67.752 C225.032,70.56 222.824,72.288 219.752,72.288 Z" id="6th-Place-Winner-$90" fill="#003057"></path>
        </g>
    </g>
</svg>