<?xml version="1.0" encoding="UTF-8"?>
<svg width="299px" height="75px" viewBox="0 0 299 75" version="1.1" xmlns="http://www.w3.org/2000/svg" xmlns:xlink="http://www.w3.org/1999/xlink">
    <!-- Generator: Sketch 47.1 (45422) - http://www.bohemiancoding.com/sketch -->
    <title>7th</title>
    <desc>Created with Sketch.</desc>
    <defs></defs>
    <g id="Symbols" stroke="none" stroke-width="1" fill="none" fill-rule="evenodd">
        <g id="7th">
            <g id="Group" transform="translate(12.000000, 17.000000)">
                <polygon id="Path-4" fill="#0099D8" points="25.9190341 3 25.9190341 50.2648212 14.459517 39.8170803 3 50.8749638 3 3"></polygon>
                <polygon id="Path-3" stroke="#0099D8" points="0 0 0 57 14.8222222 43.3095238 29 57 29 0"></polygon>
                <path d="M17.241,18.081 C17.7,18.081 18.033,17.973 18.321,17.802 L18.321,16.704 C18.123,16.812 17.898,16.875 17.646,16.875 C17.34,16.875 17.205,16.722 17.205,16.407 L17.205,14.346 L18.339,14.346 L18.339,13.176 L17.205,13.176 L17.205,11.943 L15.837,11.943 L15.837,13.176 L15.261,13.176 L15.261,14.346 L15.837,14.346 L15.837,16.632 C15.837,17.748 16.404,18.081 17.241,18.081 Z M19.347,18 L20.715,18 L20.715,15.309 C20.715,14.661 21.048,14.328 21.57,14.328 C22.092,14.328 22.398,14.661 22.398,15.309 L22.398,18 L23.766,18 L23.766,14.877 C23.766,13.77 23.163,13.086 22.128,13.086 C21.435,13.086 21.03,13.455 20.715,13.86 L20.715,11.43 L19.347,11.43 L19.347,18 Z" id="th" fill="#FFFFFF"></path>
                <polygon id="7" fill="#FFFFFF" points="5.68 24 9.16 24 15.44 12.32 15.44 10 5.36 10 5.36 12.66 11.94 12.66"></polygon>
            </g>
            <path d="M82.016,44 L86.192,44 L93.728,29.984 L93.728,27.2 L81.632,27.2 L81.632,30.392 L89.528,30.392 L82.016,44 Z M100.832,44.216 C102.056,44.216 102.944,43.928 103.712,43.472 L103.712,40.544 C103.184,40.832 102.584,41 101.912,41 C101.096,41 100.736,40.592 100.736,39.752 L100.736,34.256 L103.76,34.256 L103.76,31.136 L100.736,31.136 L100.736,27.848 L97.088,27.848 L97.088,31.136 L95.552,31.136 L95.552,34.256 L97.088,34.256 L97.088,40.352 C97.088,43.328 98.6,44.216 100.832,44.216 Z M106.448,44 L110.096,44 L110.096,36.824 C110.096,35.096 110.984,34.208 112.376,34.208 C113.768,34.208 114.584,35.096 114.584,36.824 L114.584,44 L118.232,44 L118.232,35.672 C118.232,32.72 116.624,30.896 113.864,30.896 C112.016,30.896 110.936,31.88 110.096,32.96 L110.096,26.48 L106.448,26.48 L106.448,44 Z M128.984,44 L128.984,27.2 L135.848,27.2 C139.856,27.2 142.28,29.576 142.28,33.008 L142.28,33.056 C142.28,36.944 139.256,38.96 135.488,38.96 L132.68,38.96 L132.68,44 L128.984,44 Z M132.68,35.672 L135.608,35.672 C137.456,35.672 138.536,34.568 138.536,33.128 L138.536,33.08 C138.536,31.424 137.384,30.536 135.536,30.536 L132.68,30.536 L132.68,35.672 Z M144.8,44 L148.448,44 L148.448,26.48 L144.8,26.48 L144.8,44 Z M155.528,44.24 C153.104,44.24 151.112,42.848 151.112,40.304 L151.112,40.256 C151.112,37.448 153.248,36.152 156.296,36.152 C157.592,36.152 158.528,36.368 159.44,36.68 L159.44,36.464 C159.44,34.952 158.504,34.112 156.68,34.112 C155.288,34.112 154.304,34.376 153.128,34.808 L152.216,32.024 C153.632,31.4 155.024,30.992 157.208,30.992 C159.2,30.992 160.64,31.52 161.552,32.432 C162.512,33.392 162.944,34.808 162.944,36.536 L162.944,44 L159.416,44 L159.416,42.608 C158.528,43.592 157.304,44.24 155.528,44.24 Z M156.632,41.72 C158.336,41.72 159.488,40.784 159.488,39.464 L159.488,38.816 C158.864,38.528 158.048,38.336 157.16,38.336 C155.6,38.336 154.64,38.96 154.64,40.112 L154.64,40.16 C154.64,41.144 155.456,41.72 156.632,41.72 Z M172.16,44.288 C174.728,44.288 176.168,43.304 177.416,41.936 L175.28,39.776 C174.392,40.616 173.552,41.144 172.328,41.144 C170.336,41.144 169.064,39.56 169.064,37.592 L169.064,37.544 C169.064,35.648 170.36,34.04 172.184,34.04 C173.48,34.04 174.296,34.592 175.112,35.456 L177.344,33.056 C176.144,31.712 174.632,30.896 172.208,30.896 C168.272,30.896 165.464,33.92 165.464,37.592 L165.464,37.64 C165.464,41.312 168.296,44.288 172.16,44.288 Z M185.528,44.288 C181.664,44.288 178.808,41.576 178.808,37.64 L178.808,37.592 C178.808,33.92 181.424,30.896 185.168,30.896 C189.464,30.896 191.432,34.232 191.432,37.88 C191.432,38.168 191.408,38.504 191.384,38.84 L182.432,38.84 C182.792,40.496 183.944,41.36 185.576,41.36 C186.8,41.36 187.688,40.976 188.696,40.04 L190.784,41.888 C189.584,43.376 187.856,44.288 185.528,44.288 Z M182.384,36.56 L187.88,36.56 C187.664,34.928 186.704,33.824 185.168,33.824 C183.656,33.824 182.672,34.904 182.384,36.56 Z M206.168,44.12 L209.384,44.12 L213.176,33.128 L216.968,44.12 L220.184,44.12 L225.92,27.2 L222.056,27.2 L218.576,38.576 L214.808,27.152 L211.64,27.152 L207.872,38.576 L204.392,27.2 L200.432,27.2 L206.168,44.12 Z M227.984,29.72 L231.824,29.72 L231.824,26.48 L227.984,26.48 L227.984,29.72 Z M228.08,44 L231.728,44 L231.728,31.136 L228.08,31.136 L228.08,44 Z M235.16,44 L238.808,44 L238.808,36.824 C238.808,35.096 239.696,34.208 241.088,34.208 C242.48,34.208 243.296,35.096 243.296,36.824 L243.296,44 L246.944,44 L246.944,35.672 C246.944,32.72 245.336,30.896 242.576,30.896 C240.728,30.896 239.648,31.88 238.808,32.96 L238.808,31.136 L235.16,31.136 L235.16,44 Z M250.112,44 L253.76,44 L253.76,36.824 C253.76,35.096 254.648,34.208 256.04,34.208 C257.432,34.208 258.248,35.096 258.248,36.824 L258.248,44 L261.896,44 L261.896,35.672 C261.896,32.72 260.288,30.896 257.528,30.896 C255.68,30.896 254.6,31.88 253.76,32.96 L253.76,31.136 L250.112,31.136 L250.112,44 Z M271.16,44.288 C267.296,44.288 264.44,41.576 264.44,37.64 L264.44,37.592 C264.44,33.92 267.056,30.896 270.8,30.896 C275.096,30.896 277.064,34.232 277.064,37.88 C277.064,38.168 277.04,38.504 277.016,38.84 L268.064,38.84 C268.424,40.496 269.576,41.36 271.208,41.36 C272.432,41.36 273.32,40.976 274.328,40.04 L276.416,41.888 C275.216,43.376 273.488,44.288 271.16,44.288 Z M268.016,36.56 L273.512,36.56 C273.296,34.928 272.336,33.824 270.8,33.824 C269.288,33.824 268.304,34.904 268.016,36.56 Z M279.776,44 L283.424,44 L283.424,39.248 C283.424,36.176 284.912,34.712 287.336,34.712 L287.528,34.712 L287.528,30.896 C285.368,30.8 284.168,31.952 283.424,33.728 L283.424,31.136 L279.776,31.136 L279.776,44 Z M90.08,53.808 L92.576,53.808 L92.072,55.512 C93.584,55.92 94.784,56.688 95.768,57.696 L93.272,60.144 C92.552,59.472 91.832,58.968 91.04,58.68 L89.96,62.256 C92.288,63.12 93.848,64.248 93.848,66.72 C93.848,69.888 90.872,72 87.104,72 L87.08,72 L86.36,74.352 L83.864,74.352 L84.656,71.76 C82.664,71.352 81.032,70.416 79.88,68.904 L82.568,66.648 C83.456,67.656 84.488,68.328 85.664,68.64 L86.816,64.944 C84.56,64.104 82.832,63.072 82.832,60.48 C82.832,57.456 85.736,55.2 89.456,55.2 L89.648,55.2 L90.08,53.808 Z M86.624,60.096 C86.624,60.672 86.912,61.032 87.896,61.464 L88.808,58.368 C87.248,58.464 86.624,59.256 86.624,60.096 Z M90.056,67.104 C90.056,66.504 89.72,66.12 88.88,65.712 L87.92,68.832 C89.24,68.712 90.056,68.112 90.056,67.104 Z M102.464,72.24 C99.008,72.24 96.032,70.368 96.032,67.488 C96.032,64.92 97.88,63.504 100.328,62.904 C99.008,62.232 98.288,60.984 98.288,59.664 C98.288,57.48 100.4,54.96 104.6,54.96 C108.104,54.96 110.552,56.856 110.552,59.472 C110.552,61.584 109.16,63.12 106.88,63.672 C108.392,64.248 109.448,65.472 109.448,67.248 C109.448,69.792 106.856,72.24 102.464,72.24 Z M102.656,69.264 C104.456,69.264 105.824,68.4 105.848,67.056 C105.872,65.856 104.648,64.992 102.8,64.992 C100.952,64.992 99.656,65.928 99.632,67.176 C99.608,68.376 100.832,69.264 102.656,69.264 Z M104.336,62.016 C105.896,62.016 107.072,61.104 107.096,59.928 C107.12,58.872 106.184,57.984 104.432,57.984 C102.92,57.984 101.72,58.872 101.696,60.048 C101.672,61.152 102.704,62.016 104.336,62.016 Z M121.64,54.912 C125.576,54.912 128.192,57.672 128.192,61.896 C128.192,64.752 127.088,67.776 125.024,69.84 C123.536,71.328 121.568,72.288 119.192,72.288 C115.256,72.288 112.64,69.528 112.64,65.304 C112.64,62.448 113.744,59.424 115.808,57.36 C117.296,55.872 119.264,54.912 121.64,54.912 Z M119.48,68.952 C120.512,68.952 121.424,68.472 122.168,67.728 C123.584,66.312 124.4,63.912 124.4,61.872 C124.4,59.496 123.2,58.248 121.352,58.248 C120.32,58.248 119.408,58.728 118.664,59.472 C117.248,60.888 116.432,63.288 116.432,65.328 C116.432,67.704 117.632,68.952 119.48,68.952 Z M139.16,54.912 C143.096,54.912 145.712,57.672 145.712,61.896 C145.712,64.752 144.608,67.776 142.544,69.84 C141.056,71.328 139.088,72.288 136.712,72.288 C132.776,72.288 130.16,69.528 130.16,65.304 C130.16,62.448 131.264,59.424 133.328,57.36 C134.816,55.872 136.784,54.912 139.16,54.912 Z M137,68.952 C138.032,68.952 138.944,68.472 139.688,67.728 C141.104,66.312 141.92,63.912 141.92,61.872 C141.92,59.496 140.72,58.248 138.872,58.248 C137.84,58.248 136.928,58.728 136.184,59.472 C134.768,60.888 133.952,63.288 133.952,65.328 C133.952,67.704 135.152,68.952 137,68.952 Z M161.48,72.24 C159.464,72.24 158.288,71.4 157.448,70.128 L156.944,72 L153.32,72 L157.976,54.48 L161.624,54.48 L160.016,60.528 C161.12,59.496 162.2,58.896 163.64,58.896 C166.448,58.896 168.584,60.936 168.584,64.416 C168.584,66.768 167.672,68.76 166.28,70.152 C164.96,71.472 163.232,72.24 161.48,72.24 Z M161,69.168 C161.888,69.168 162.776,68.76 163.448,68.088 C164.264,67.272 164.816,66.072 164.816,64.656 C164.816,62.976 163.76,61.968 162.128,61.968 C161.216,61.968 160.328,62.376 159.632,63.072 C158.768,63.936 158.24,65.112 158.24,66.432 C158.24,68.064 159.392,69.168 161,69.168 Z M178.016,58.896 C181.832,58.896 184.208,61.416 184.208,64.848 C184.208,66.792 183.368,68.688 181.976,70.08 C180.632,71.424 178.808,72.288 176.768,72.288 C172.952,72.288 170.576,69.768 170.576,66.336 C170.576,64.392 171.416,62.496 172.808,61.104 C174.152,59.76 175.976,58.896 178.016,58.896 Z M176.936,69.168 C177.848,69.168 178.664,68.76 179.264,68.16 C180.152,67.296 180.632,65.952 180.632,64.944 C180.632,63.048 179.504,62.016 177.848,62.016 C176.936,62.016 176.12,62.424 175.52,63.024 C174.632,63.888 174.152,65.232 174.152,66.24 C174.152,68.136 175.28,69.168 176.936,69.168 Z M185.144,72 L188.792,72 L190.736,64.776 C191.144,63.24 192.08,62.208 193.52,62.208 C194.648,62.208 195.296,62.76 195.296,63.792 C195.296,64.104 195.224,64.584 195.128,64.944 L193.232,72 L196.88,72 L198.728,65.088 C198.944,64.272 199.16,63.36 199.16,62.64 C199.16,60.312 197.672,58.896 195.368,58.896 C193.928,58.896 192.776,59.664 191.864,60.48 L192.224,59.136 L188.576,59.136 L185.144,72 Z M204.848,72.24 C202.544,72.24 201.056,70.824 201.056,68.496 C201.056,67.776 201.272,66.864 201.488,66.048 L203.336,59.136 L206.984,59.136 L205.088,66.192 C204.992,66.552 204.92,67.032 204.92,67.344 C204.92,68.376 205.568,68.928 206.696,68.928 C208.136,68.928 209.072,67.896 209.48,66.36 L211.424,59.136 L215.072,59.136 L211.64,72 L207.992,72 L208.352,70.656 C207.44,71.472 206.288,72.24 204.848,72.24 Z M220.208,72.288 C218.264,72.288 215.936,71.544 214.424,69.96 L216.536,67.776 C217.88,69.12 219.32,69.504 220.472,69.504 C221.432,69.504 222.008,69.096 222.008,68.376 C222.008,67.896 221.408,67.56 220.52,67.176 C218.504,66.312 216.776,65.472 216.776,63.408 C216.776,60.84 218.744,58.896 221.936,58.896 C224.024,58.896 225.944,59.808 227,60.744 L225.032,63.048 C223.784,62.064 222.728,61.68 221.672,61.68 C220.784,61.68 220.256,62.088 220.256,62.76 C220.256,63.264 220.88,63.624 221.96,64.104 C223.64,64.848 225.488,65.736 225.488,67.752 C225.488,70.56 223.28,72.288 220.208,72.288 Z" id="7th-Place-Winner-$80" fill="#003057"></path>
        </g>
    </g>
</svg>