<?xml version="1.0" encoding="UTF-8"?>
<svg width="299px" height="75px" viewBox="0 0 299 75" version="1.1" xmlns="http://www.w3.org/2000/svg" xmlns:xlink="http://www.w3.org/1999/xlink">
    <!-- Generator: Sketch 47.1 (45422) - http://www.bohemiancoding.com/sketch -->
    <title>8th</title>
    <desc>Created with Sketch.</desc>
    <defs></defs>
    <g id="Symbols" stroke="none" stroke-width="1" fill="none" fill-rule="evenodd">
        <g id="8th">
            <g id="Group" transform="translate(12.000000, 17.000000)">
                <polygon id="Path-4-Copy" fill="#0099D8" points="25.9190341 3 25.9190341 50.2648212 14.459517 39.8170803 3 50.8749638 3 3"></polygon>
                <polygon id="Path-3-Copy" stroke="#0099D8" points="0 0 0 57 14.8222222 43.3095238 29 57 29 0"></polygon>
                <path d="M18.241,16.081 C18.7,16.081 19.033,15.973 19.321,15.802 L19.321,14.704 C19.123,14.812 18.898,14.875 18.646,14.875 C18.34,14.875 18.205,14.722 18.205,14.407 L18.205,12.346 L19.339,12.346 L19.339,11.176 L18.205,11.176 L18.205,9.943 L16.837,9.943 L16.837,11.176 L16.261,11.176 L16.261,12.346 L16.837,12.346 L16.837,14.632 C16.837,15.748 17.404,16.081 18.241,16.081 Z M20.347,16 L21.715,16 L21.715,13.309 C21.715,12.661 22.048,12.328 22.57,12.328 C23.092,12.328 23.398,12.661 23.398,13.309 L23.398,16 L24.766,16 L24.766,12.877 C24.766,11.77 24.163,11.086 23.128,11.086 C22.435,11.086 22.03,11.455 21.715,11.86 L21.715,9.43 L20.347,9.43 L20.347,16 Z" id="th" fill="#FFFFFF"></path>
                <path d="M11.3,24.2 C8.2,24.2 5.9,22.6 5.9,20.16 L5.9,20.12 C5.9,18.42 6.68,17.42 8.16,16.74 C7.08,16.08 6.38,15.18 6.38,13.68 L6.38,13.64 C6.38,11.5 8.34,9.8 11.3,9.8 C14.26,9.8 16.22,11.48 16.22,13.64 L16.22,13.68 C16.22,15.18 15.52,16.08 14.44,16.74 C15.86,17.48 16.7,18.38 16.7,20.04 L16.7,20.08 C16.7,22.68 14.4,24.2 11.3,24.2 Z M11.3,15.72 C12.52,15.72 13.3,15 13.3,14.02 L13.3,13.98 C13.3,13.12 12.56,12.34 11.3,12.34 C10.04,12.34 9.3,13.1 9.3,13.96 L9.3,14 C9.3,14.98 10.08,15.72 11.3,15.72 Z M11.3,21.66 C12.82,21.66 13.72,20.9 13.72,19.92 L13.72,19.88 C13.72,18.8 12.7,18.16 11.3,18.16 C9.9,18.16 8.88,18.8 8.88,19.88 L8.88,19.92 C8.88,20.88 9.78,21.66 11.3,21.66 Z" id="8" fill="#FFFFFF"></path>
            </g>
            <path d="M87.56,44.24 C83.84,44.24 81.08,42.32 81.08,39.392 L81.08,39.344 C81.08,37.304 82.016,36.104 83.792,35.288 C82.496,34.496 81.656,33.416 81.656,31.616 L81.656,31.568 C81.656,29 84.008,26.96 87.56,26.96 C91.112,26.96 93.464,28.976 93.464,31.568 L93.464,31.616 C93.464,33.416 92.624,34.496 91.328,35.288 C93.032,36.176 94.04,37.256 94.04,39.248 L94.04,39.296 C94.04,42.416 91.28,44.24 87.56,44.24 Z M87.56,34.064 C89.024,34.064 89.96,33.2 89.96,32.024 L89.96,31.976 C89.96,30.944 89.072,30.008 87.56,30.008 C86.048,30.008 85.16,30.92 85.16,31.952 L85.16,32 C85.16,33.176 86.096,34.064 87.56,34.064 Z M87.56,41.192 C89.384,41.192 90.464,40.28 90.464,39.104 L90.464,39.056 C90.464,37.76 89.24,36.992 87.56,36.992 C85.88,36.992 84.656,37.76 84.656,39.056 L84.656,39.104 C84.656,40.256 85.736,41.192 87.56,41.192 Z M101.096,44.216 C102.32,44.216 103.208,43.928 103.976,43.472 L103.976,40.544 C103.448,40.832 102.848,41 102.176,41 C101.36,41 101,40.592 101,39.752 L101,34.256 L104.024,34.256 L104.024,31.136 L101,31.136 L101,27.848 L97.352,27.848 L97.352,31.136 L95.816,31.136 L95.816,34.256 L97.352,34.256 L97.352,40.352 C97.352,43.328 98.864,44.216 101.096,44.216 Z M106.712,44 L110.36,44 L110.36,36.824 C110.36,35.096 111.248,34.208 112.64,34.208 C114.032,34.208 114.848,35.096 114.848,36.824 L114.848,44 L118.496,44 L118.496,35.672 C118.496,32.72 116.888,30.896 114.128,30.896 C112.28,30.896 111.2,31.88 110.36,32.96 L110.36,26.48 L106.712,26.48 L106.712,44 Z M129.248,44 L129.248,27.2 L136.112,27.2 C140.12,27.2 142.544,29.576 142.544,33.008 L142.544,33.056 C142.544,36.944 139.52,38.96 135.752,38.96 L132.944,38.96 L132.944,44 L129.248,44 Z M132.944,35.672 L135.872,35.672 C137.72,35.672 138.8,34.568 138.8,33.128 L138.8,33.08 C138.8,31.424 137.648,30.536 135.8,30.536 L132.944,30.536 L132.944,35.672 Z M145.064,44 L148.712,44 L148.712,26.48 L145.064,26.48 L145.064,44 Z M155.792,44.24 C153.368,44.24 151.376,42.848 151.376,40.304 L151.376,40.256 C151.376,37.448 153.512,36.152 156.56,36.152 C157.856,36.152 158.792,36.368 159.704,36.68 L159.704,36.464 C159.704,34.952 158.768,34.112 156.944,34.112 C155.552,34.112 154.568,34.376 153.392,34.808 L152.48,32.024 C153.896,31.4 155.288,30.992 157.472,30.992 C159.464,30.992 160.904,31.52 161.816,32.432 C162.776,33.392 163.208,34.808 163.208,36.536 L163.208,44 L159.68,44 L159.68,42.608 C158.792,43.592 157.568,44.24 155.792,44.24 Z M156.896,41.72 C158.6,41.72 159.752,40.784 159.752,39.464 L159.752,38.816 C159.128,38.528 158.312,38.336 157.424,38.336 C155.864,38.336 154.904,38.96 154.904,40.112 L154.904,40.16 C154.904,41.144 155.72,41.72 156.896,41.72 Z M172.424,44.288 C174.992,44.288 176.432,43.304 177.68,41.936 L175.544,39.776 C174.656,40.616 173.816,41.144 172.592,41.144 C170.6,41.144 169.328,39.56 169.328,37.592 L169.328,37.544 C169.328,35.648 170.624,34.04 172.448,34.04 C173.744,34.04 174.56,34.592 175.376,35.456 L177.608,33.056 C176.408,31.712 174.896,30.896 172.472,30.896 C168.536,30.896 165.728,33.92 165.728,37.592 L165.728,37.64 C165.728,41.312 168.56,44.288 172.424,44.288 Z M185.792,44.288 C181.928,44.288 179.072,41.576 179.072,37.64 L179.072,37.592 C179.072,33.92 181.688,30.896 185.432,30.896 C189.728,30.896 191.696,34.232 191.696,37.88 C191.696,38.168 191.672,38.504 191.648,38.84 L182.696,38.84 C183.056,40.496 184.208,41.36 185.84,41.36 C187.064,41.36 187.952,40.976 188.96,40.04 L191.048,41.888 C189.848,43.376 188.12,44.288 185.792,44.288 Z M182.648,36.56 L188.144,36.56 C187.928,34.928 186.968,33.824 185.432,33.824 C183.92,33.824 182.936,34.904 182.648,36.56 Z M206.432,44.12 L209.648,44.12 L213.44,33.128 L217.232,44.12 L220.448,44.12 L226.184,27.2 L222.32,27.2 L218.84,38.576 L215.072,27.152 L211.904,27.152 L208.136,38.576 L204.656,27.2 L200.696,27.2 L206.432,44.12 Z M228.248,29.72 L232.088,29.72 L232.088,26.48 L228.248,26.48 L228.248,29.72 Z M228.344,44 L231.992,44 L231.992,31.136 L228.344,31.136 L228.344,44 Z M235.424,44 L239.072,44 L239.072,36.824 C239.072,35.096 239.96,34.208 241.352,34.208 C242.744,34.208 243.56,35.096 243.56,36.824 L243.56,44 L247.208,44 L247.208,35.672 C247.208,32.72 245.6,30.896 242.84,30.896 C240.992,30.896 239.912,31.88 239.072,32.96 L239.072,31.136 L235.424,31.136 L235.424,44 Z M250.376,44 L254.024,44 L254.024,36.824 C254.024,35.096 254.912,34.208 256.304,34.208 C257.696,34.208 258.512,35.096 258.512,36.824 L258.512,44 L262.16,44 L262.16,35.672 C262.16,32.72 260.552,30.896 257.792,30.896 C255.944,30.896 254.864,31.88 254.024,32.96 L254.024,31.136 L250.376,31.136 L250.376,44 Z M271.424,44.288 C267.56,44.288 264.704,41.576 264.704,37.64 L264.704,37.592 C264.704,33.92 267.32,30.896 271.064,30.896 C275.36,30.896 277.328,34.232 277.328,37.88 C277.328,38.168 277.304,38.504 277.28,38.84 L268.328,38.84 C268.688,40.496 269.84,41.36 271.472,41.36 C272.696,41.36 273.584,40.976 274.592,40.04 L276.68,41.888 C275.48,43.376 273.752,44.288 271.424,44.288 Z M268.28,36.56 L273.776,36.56 C273.56,34.928 272.6,33.824 271.064,33.824 C269.552,33.824 268.568,34.904 268.28,36.56 Z M280.04,44 L283.688,44 L283.688,39.248 C283.688,36.176 285.176,34.712 287.6,34.712 L287.792,34.712 L287.792,30.896 C285.632,30.8 284.432,31.952 283.688,33.728 L283.688,31.136 L280.04,31.136 L280.04,44 Z M90.08,53.808 L92.576,53.808 L92.072,55.512 C93.584,55.92 94.784,56.688 95.768,57.696 L93.272,60.144 C92.552,59.472 91.832,58.968 91.04,58.68 L89.96,62.256 C92.288,63.12 93.848,64.248 93.848,66.72 C93.848,69.888 90.872,72 87.104,72 L87.08,72 L86.36,74.352 L83.864,74.352 L84.656,71.76 C82.664,71.352 81.032,70.416 79.88,68.904 L82.568,66.648 C83.456,67.656 84.488,68.328 85.664,68.64 L86.816,64.944 C84.56,64.104 82.832,63.072 82.832,60.48 C82.832,57.456 85.736,55.2 89.456,55.2 L89.648,55.2 L90.08,53.808 Z M86.624,60.096 C86.624,60.672 86.912,61.032 87.896,61.464 L88.808,58.368 C87.248,58.464 86.624,59.256 86.624,60.096 Z M90.056,67.104 C90.056,66.504 89.72,66.12 88.88,65.712 L87.92,68.832 C89.24,68.712 90.056,68.112 90.056,67.104 Z M95.24,72 L105.68,58.392 L97.952,58.392 L98.816,55.2 L110.912,55.2 L110.144,57.984 L99.584,72 L95.24,72 Z M119.648,54.912 C123.584,54.912 126.2,57.672 126.2,61.896 C126.2,64.752 125.096,67.776 123.032,69.84 C121.544,71.328 119.576,72.288 117.2,72.288 C113.264,72.288 110.648,69.528 110.648,65.304 C110.648,62.448 111.752,59.424 113.816,57.36 C115.304,55.872 117.272,54.912 119.648,54.912 Z M117.488,68.952 C118.52,68.952 119.432,68.472 120.176,67.728 C121.592,66.312 122.408,63.912 122.408,61.872 C122.408,59.496 121.208,58.248 119.36,58.248 C118.328,58.248 117.416,58.728 116.672,59.472 C115.256,60.888 114.44,63.288 114.44,65.328 C114.44,67.704 115.64,68.952 117.488,68.952 Z M137.168,54.912 C141.104,54.912 143.72,57.672 143.72,61.896 C143.72,64.752 142.616,67.776 140.552,69.84 C139.064,71.328 137.096,72.288 134.72,72.288 C130.784,72.288 128.168,69.528 128.168,65.304 C128.168,62.448 129.272,59.424 131.336,57.36 C132.824,55.872 134.792,54.912 137.168,54.912 Z M135.008,68.952 C136.04,68.952 136.952,68.472 137.696,67.728 C139.112,66.312 139.928,63.912 139.928,61.872 C139.928,59.496 138.728,58.248 136.88,58.248 C135.848,58.248 134.936,58.728 134.192,59.472 C132.776,60.888 131.96,63.288 131.96,65.328 C131.96,67.704 133.16,68.952 135.008,68.952 Z M159.488,72.24 C157.472,72.24 156.296,71.4 155.456,70.128 L154.952,72 L151.328,72 L155.984,54.48 L159.632,54.48 L158.024,60.528 C159.128,59.496 160.208,58.896 161.648,58.896 C164.456,58.896 166.592,60.936 166.592,64.416 C166.592,66.768 165.68,68.76 164.288,70.152 C162.968,71.472 161.24,72.24 159.488,72.24 Z M159.008,69.168 C159.896,69.168 160.784,68.76 161.456,68.088 C162.272,67.272 162.824,66.072 162.824,64.656 C162.824,62.976 161.768,61.968 160.136,61.968 C159.224,61.968 158.336,62.376 157.64,63.072 C156.776,63.936 156.248,65.112 156.248,66.432 C156.248,68.064 157.4,69.168 159.008,69.168 Z M176.024,58.896 C179.84,58.896 182.216,61.416 182.216,64.848 C182.216,66.792 181.376,68.688 179.984,70.08 C178.64,71.424 176.816,72.288 174.776,72.288 C170.96,72.288 168.584,69.768 168.584,66.336 C168.584,64.392 169.424,62.496 170.816,61.104 C172.16,59.76 173.984,58.896 176.024,58.896 Z M174.944,69.168 C175.856,69.168 176.672,68.76 177.272,68.16 C178.16,67.296 178.64,65.952 178.64,64.944 C178.64,63.048 177.512,62.016 175.856,62.016 C174.944,62.016 174.128,62.424 173.528,63.024 C172.64,63.888 172.16,65.232 172.16,66.24 C172.16,68.136 173.288,69.168 174.944,69.168 Z M183.152,72 L186.8,72 L188.744,64.776 C189.152,63.24 190.088,62.208 191.528,62.208 C192.656,62.208 193.304,62.76 193.304,63.792 C193.304,64.104 193.232,64.584 193.136,64.944 L191.24,72 L194.888,72 L196.736,65.088 C196.952,64.272 197.168,63.36 197.168,62.64 C197.168,60.312 195.68,58.896 193.376,58.896 C191.936,58.896 190.784,59.664 189.872,60.48 L190.232,59.136 L186.584,59.136 L183.152,72 Z M202.856,72.24 C200.552,72.24 199.064,70.824 199.064,68.496 C199.064,67.776 199.28,66.864 199.496,66.048 L201.344,59.136 L204.992,59.136 L203.096,66.192 C203,66.552 202.928,67.032 202.928,67.344 C202.928,68.376 203.576,68.928 204.704,68.928 C206.144,68.928 207.08,67.896 207.488,66.36 L209.432,59.136 L213.08,59.136 L209.648,72 L206,72 L206.36,70.656 C205.448,71.472 204.296,72.24 202.856,72.24 Z M218.216,72.288 C216.272,72.288 213.944,71.544 212.432,69.96 L214.544,67.776 C215.888,69.12 217.328,69.504 218.48,69.504 C219.44,69.504 220.016,69.096 220.016,68.376 C220.016,67.896 219.416,67.56 218.528,67.176 C216.512,66.312 214.784,65.472 214.784,63.408 C214.784,60.84 216.752,58.896 219.944,58.896 C222.032,58.896 223.952,59.808 225.008,60.744 L223.04,63.048 C221.792,62.064 220.736,61.68 219.68,61.68 C218.792,61.68 218.264,62.088 218.264,62.76 C218.264,63.264 218.888,63.624 219.968,64.104 C221.648,64.848 223.496,65.736 223.496,67.752 C223.496,70.56 221.288,72.288 218.216,72.288 Z" id="8th-Place-Winner-$70" fill="#003057"></path>
        </g>
    </g>
</svg>