<?xml version="1.0" encoding="UTF-8"?>
<svg width="139px" height="163px" viewBox="0 0 139 163" version="1.1" xmlns="http://www.w3.org/2000/svg" xmlns:xlink="http://www.w3.org/1999/xlink">
    <!-- Generator: Sketch 47.1 (45422) - http://www.bohemiancoding.com/sketch -->
    <title>dt_cash</title>
    <desc>Created with Sketch.</desc>
    <defs>
        <rect id="path-1" x="0" y="0" width="66" height="119"></rect>
        <linearGradient x1="0%" y1="21.089596%" x2="100%" y2="21.0895956%" id="linearGradient-2">
            <stop stop-color="#00C9EE" offset="0%"></stop>
            <stop stop-color="#0099D8" offset="100%"></stop>
        </linearGradient>
        <rect id="path-3" x="0" y="0" width="66" height="119"></rect>
        <linearGradient x1="0%" y1="22.6962967%" x2="100%" y2="22.6962969%" id="linearGradient-4">
            <stop stop-color="#00C9EE" offset="0%"></stop>
            <stop stop-color="#0099D8" offset="100%"></stop>
        </linearGradient>
        <rect id="path-5" x="0" y="0" width="66" height="119"></rect>
        <linearGradient x1="0%" y1="17.1628218%" x2="100%" y2="17.1628222%" id="linearGradient-6">
            <stop stop-color="#00C9EE" offset="0%"></stop>
            <stop stop-color="#0099D8" offset="100%"></stop>
        </linearGradient>
        <rect id="path-7" x="0" y="0" width="66" height="119"></rect>
        <linearGradient x1="0%" y1="16.1624344%" x2="100%" y2="16.1624342%" id="linearGradient-8">
            <stop stop-color="#00C9EE" offset="0%"></stop>
            <stop stop-color="#0099D8" offset="100%"></stop>
        </linearGradient>
    </defs>
    <g id="Symbols" stroke="none" stroke-width="1" fill="none" fill-rule="evenodd">
        <g id="dt_cash">
            <g id="Group" transform="translate(4.000000, 1.000000)">
                <g id="Group-8" transform="translate(59.115523, 92.326443) rotate(-30.000000) translate(-59.115523, -92.326443) translate(26.115523, 32.826443)">
                    <g id="Group-7">
                        <g id="Rectangle-10">
                            <use fill="#FFFFFF" fill-rule="evenodd" xlink:href="#path-1"></use>
                            <rect stroke="#0099D8" stroke-width="2" x="1" y="1" width="64" height="117"></rect>
                        </g>
                        <path d="M59,43.5895875 L59,8 L8,8 L8,43.5895875 C13.4083817,35.2715162 22.8087693,29.7674419 33.5,29.7674419 C44.1912307,29.7674419 53.5916183,35.2715162 59,43.5895875 Z M59,76.4104125 L59,112 L8,112 L8,76.4104125 C13.4083817,84.7284838 22.8087693,90.2325581 33.5,90.2325581 C44.1912307,90.2325581 53.5916183,84.7284838 59,76.4104125 Z" id="Combined-Shape" fill="url(#linearGradient-2)"></path>
                    </g>
                </g>
                <g id="Group-8" transform="translate(67.092247, 79.509316) rotate(-20.000000) translate(-67.092247, -79.509316) translate(34.092247, 20.009316)">
                    <g id="Group-7">
                        <g id="Rectangle-10">
                            <use fill="#FFFFFF" fill-rule="evenodd" xlink:href="#path-3"></use>
                            <rect stroke="#0099D8" stroke-width="2" x="1" y="1" width="64" height="117"></rect>
                        </g>
                        <path d="M59,43.5895875 L59,8 L8,8 L8,43.5895875 C13.4083817,35.2715162 22.8087693,29.7674419 33.5,29.7674419 C44.1912307,29.7674419 53.5916183,35.2715162 59,43.5895875 Z M59,76.4104125 L59,112 L8,112 L8,76.4104125 C13.4083817,84.7284838 22.8087693,90.2325581 33.5,90.2325581 C44.1912307,90.2325581 53.5916183,84.7284838 59,76.4104125 Z" id="Combined-Shape" fill="url(#linearGradient-4)"></path>
                    </g>
                </g>
                <g id="Group-8" transform="translate(76.917784, 68.270112) rotate(-10.000000) translate(-76.917784, -68.270112) translate(43.917784, 8.770112)">
                    <g id="Group-7">
                        <g id="Rectangle-10">
                            <use fill="#FFFFFF" fill-rule="evenodd" xlink:href="#path-5"></use>
                            <rect stroke="#0099D8" stroke-width="2" x="1" y="1" width="64" height="117"></rect>
                        </g>
                        <path d="M59,43.5895875 L59,8 L8,8 L8,43.5895875 C13.4083817,35.2715162 22.8087693,29.7674419 33.5,29.7674419 C44.1912307,29.7674419 53.5916183,35.2715162 59,43.5895875 Z M59,76.4104125 L59,112 L8,112 L8,76.4104125 C13.4083817,84.7284838 22.8087693,90.2325581 33.5,90.2325581 C44.1912307,90.2325581 53.5916183,84.7284838 59,76.4104125 Z" id="Combined-Shape" fill="url(#linearGradient-6)"></path>
                    </g>
                </g>
                <g id="Group-6" transform="translate(57.000000, 0.000000)">
                    <g id="Rectangle-10">
                        <use fill="#FFFFFF" fill-rule="evenodd" xlink:href="#path-7"></use>
                        <rect stroke="#0099D8" stroke-width="2" x="1" y="1" width="64" height="117"></rect>
                    </g>
                    <path d="M59,43.5895875 L59,8 L8,8 L8,43.5895875 C13.4083817,35.2715162 22.8087693,29.7674419 33.5,29.7674419 C44.1912307,29.7674419 53.5916183,35.2715162 59,43.5895875 Z M59,76.4104125 L59,112 L8,112 L8,76.4104125 C13.4083817,84.7284838 22.8087693,90.2325581 33.5,90.2325581 C44.1912307,90.2325581 53.5916183,84.7284838 59,76.4104125 Z" id="Combined-Shape" fill="url(#linearGradient-8)"></path>
                    <path d="M44.3865311,48.8898827 L41.8405311,53.3358827 C40.3205311,52.3098827 38.6865311,51.5118827 37.1285311,51.0938827 L37.1285311,56.8698827 C42.9045311,58.4278827 45.3745311,60.7458827 45.3745311,65.0018827 L45.3745311,65.0778827 C45.3745311,69.3338827 42.1065311,72.0698827 37.3185311,72.5638827 L37.3185311,76.3258827 L33.3665311,76.3258827 L33.3665311,72.4878827 C30.0985311,72.0698827 26.9065311,70.7778827 24.3985311,68.8778827 L27.3625311,64.5458827 C29.4145311,66.1038827 31.3145311,67.1678827 33.5565311,67.6238827 L33.5565311,61.5818827 C28.0845311,60.0998827 25.3865311,58.0478827 25.3865311,53.5258827 L25.3865311,53.4498827 C25.3865311,49.2698827 28.5785311,46.4958827 33.3665311,46.0018827 L33.3665311,43.7978827 L37.3185311,43.7978827 L37.3185311,46.1158827 C40.0165311,46.4578827 42.2965311,47.4458827 44.3865311,48.8898827 Z M39.8265311,65.3058827 C39.8265311,64.0518827 39.1805311,63.2538827 37.1285311,62.4938827 L37.1285311,67.8138827 C38.9145311,67.5478827 39.8265311,66.7498827 39.8265311,65.3818827 L39.8265311,65.3058827 Z M30.9345311,53.1838827 C30.9345311,54.3998827 31.4665311,55.1598827 33.5565311,55.9198827 L33.5565311,50.7518827 C31.6945311,50.9798827 30.9345311,51.8918827 30.9345311,53.1078827 L30.9345311,53.1838827 Z" id="$" fill="#003957" transform="translate(34.886531, 60.061883) rotate(270.000000) translate(-34.886531, -60.061883) "></path>
                </g>
            </g>
        </g>
    </g>
</svg>