<?xml version="1.0" encoding="UTF-8"?>
<svg width="139px" height="110px" viewBox="0 0 139 110" version="1.1" xmlns="http://www.w3.org/2000/svg" xmlns:xlink="http://www.w3.org/1999/xlink">
    <!-- Generator: Sketch 47.1 (45422) - http://www.bohemiancoding.com/sketch -->
    <title>dt_cash</title>
    <desc>Created with Sketch.</desc>
    <defs>
        <rect id="path-1" x="0" y="0" width="56.9516129" height="102"></rect>
        <linearGradient x1="0%" y1="21.089596%" x2="100%" y2="21.0895956%" id="linearGradient-2">
            <stop stop-color="#00C9EE" offset="0%"></stop>
            <stop stop-color="#0099D8" offset="100%"></stop>
        </linearGradient>
        <rect id="path-3" x="0" y="0" width="56.9516129" height="102"></rect>
        <linearGradient x1="0%" y1="22.6962967%" x2="100%" y2="22.6962969%" id="linearGradient-4">
            <stop stop-color="#00C9EE" offset="0%"></stop>
            <stop stop-color="#0099D8" offset="100%"></stop>
        </linearGradient>
        <rect id="path-5" x="0" y="0" width="56.9516129" height="102"></rect>
        <linearGradient x1="0%" y1="17.1628218%" x2="100%" y2="17.1628222%" id="linearGradient-6">
            <stop stop-color="#00C9EE" offset="0%"></stop>
            <stop stop-color="#0099D8" offset="100%"></stop>
        </linearGradient>
        <rect id="path-7" x="0" y="0" width="56.9516129" height="102"></rect>
        <linearGradient x1="0%" y1="16.1624344%" x2="100%" y2="16.1624342%" id="linearGradient-8">
            <stop stop-color="#00C9EE" offset="0%"></stop>
            <stop stop-color="#0099D8" offset="100%"></stop>
        </linearGradient>
    </defs>
    <g id="Symbols" stroke="none" stroke-width="1" fill="none" fill-rule="evenodd">
        <g id="dt_cash">
            <g id="Group" transform="translate(69.165323, 53.334677) rotate(90.000000) translate(-69.165323, -53.334677) translate(15.665323, -15.665323)">
                <g id="Group-8" transform="translate(51.010975, 79.136951) rotate(-30.000000) translate(-51.010975, -79.136951) translate(22.535169, 28.136951)">
                    <g id="Group-7">
                        <g id="Rectangle-10">
                            <use fill="#FFFFFF" fill-rule="evenodd" xlink:href="#path-1"></use>
                            <rect stroke="#0099D8" stroke-width="2" x="1" y="1" width="54.9516129" height="100"></rect>
                        </g>
                        <path d="M50.9112903,37.3625036 L50.9112903,6.85714286 L6.90322581,6.85714286 L6.90322581,37.3625036 C11.5701358,30.2327282 19.6817606,25.5149502 28.9072581,25.5149502 C38.1327555,25.5149502 46.2443803,30.2327282 50.9112903,37.3625036 Z M50.9112903,65.4946393 L50.9112903,96 L6.90322581,96 L6.90322581,65.4946393 C11.5701358,72.6244147 19.6817606,77.3421927 28.9072581,77.3421927 C38.1327555,77.3421927 46.2443803,72.6244147 50.9112903,65.4946393 Z" id="Combined-Shape" fill="url(#linearGradient-2)"></path>
                    </g>
                </g>
                <g id="Group-8" transform="translate(57.894117, 68.150842) rotate(-20.000000) translate(-57.894117, -68.150842) translate(29.418310, 17.150842)">
                    <g id="Group-7">
                        <g id="Rectangle-10">
                            <use fill="#FFFFFF" fill-rule="evenodd" xlink:href="#path-3"></use>
                            <rect stroke="#0099D8" stroke-width="2" x="1" y="1" width="54.9516129" height="100"></rect>
                        </g>
                        <path d="M50.9112903,37.3625036 L50.9112903,6.85714286 L6.90322581,6.85714286 L6.90322581,37.3625036 C11.5701358,30.2327282 19.6817606,25.5149502 28.9072581,25.5149502 C38.1327555,25.5149502 46.2443803,30.2327282 50.9112903,37.3625036 Z M50.9112903,65.4946393 L50.9112903,96 L6.90322581,96 L6.90322581,65.4946393 C11.5701358,72.6244147 19.6817606,77.3421927 28.9072581,77.3421927 C38.1327555,77.3421927 46.2443803,72.6244147 50.9112903,65.4946393 Z" id="Combined-Shape" fill="url(#linearGradient-4)"></path>
                    </g>
                </g>
                <g id="Group-8" transform="translate(66.372604, 58.517239) rotate(-10.000000) translate(-66.372604, -58.517239) translate(37.896798, 7.517239)">
                    <g id="Group-7">
                        <g id="Rectangle-10">
                            <use fill="#FFFFFF" fill-rule="evenodd" xlink:href="#path-5"></use>
                            <rect stroke="#0099D8" stroke-width="2" x="1" y="1" width="54.9516129" height="100"></rect>
                        </g>
                        <path d="M50.9112903,37.3625036 L50.9112903,6.85714286 L6.90322581,6.85714286 L6.90322581,37.3625036 C11.5701358,30.2327282 19.6817606,25.5149502 28.9072581,25.5149502 C38.1327555,25.5149502 46.2443803,30.2327282 50.9112903,37.3625036 Z M50.9112903,65.4946393 L50.9112903,96 L6.90322581,96 L6.90322581,65.4946393 C11.5701358,72.6244147 19.6817606,77.3421927 28.9072581,77.3421927 C38.1327555,77.3421927 46.2443803,72.6244147 50.9112903,65.4946393 Z" id="Combined-Shape" fill="url(#linearGradient-6)"></path>
                    </g>
                </g>
                <g id="Group-6" transform="translate(49.185484, 0.000000)">
                    <g id="Rectangle-10">
                        <use fill="#FFFFFF" fill-rule="evenodd" xlink:href="#path-7"></use>
                        <rect stroke="#0099D8" stroke-width="2" x="1" y="1" width="54.9516129" height="100"></rect>
                    </g>
                    <path d="M50.9112903,37.3625036 L50.9112903,6.85714286 L6.90322581,6.85714286 L6.90322581,37.3625036 C11.5701358,30.2327282 19.6817606,25.5149502 28.9072581,25.5149502 C38.1327555,25.5149502 46.2443803,30.2327282 50.9112903,37.3625036 Z M50.9112903,65.4946393 L50.9112903,96 L6.90322581,96 L6.90322581,65.4946393 C11.5701358,72.6244147 19.6817606,77.3421927 28.9072581,77.3421927 C38.1327555,77.3421927 46.2443803,72.6244147 50.9112903,65.4946393 Z" id="Combined-Shape" fill="url(#linearGradient-8)"></path>
                    <path d="M38.3012809,41.9056137 L36.1043293,45.7164709 C34.7927164,44.8370423 33.3827325,44.1530423 32.0383293,43.7947566 L32.0383293,48.7456137 C37.0224583,50.0810423 39.1538293,52.0678994 39.1538293,55.7158994 L39.1538293,55.7810423 C39.1538293,59.4290423 36.3338615,61.7741851 32.2022809,62.1976137 L32.2022809,65.4221851 L28.7920873,65.4221851 L28.7920873,62.1324709 C25.9721196,61.7741851 23.2177325,60.6667566 21.0535712,59.0381851 L23.6112164,55.3250423 C25.3818938,56.6604709 27.0214099,57.5724709 28.9560389,57.963328 L28.9560389,52.7844709 C24.2342325,51.5141851 21.9061196,49.755328 21.9061196,45.879328 L21.9061196,45.8141851 C21.9061196,42.231328 24.6605067,39.8536137 28.7920873,39.4301851 L28.7920873,37.5410423 L32.2022809,37.5410423 L32.2022809,39.5278994 C34.5303938,39.8210423 36.4978131,40.6678994 38.3012809,41.9056137 Z M34.3664422,55.9764709 C34.3664422,54.9016137 33.8090067,54.2176137 32.0383293,53.5661851 L32.0383293,58.1261851 C33.5794744,57.8981851 34.3664422,57.2141851 34.3664422,56.0416137 L34.3664422,55.9764709 Z M26.6935067,45.5861851 C26.6935067,46.6284709 27.1525712,47.2798994 28.9560389,47.931328 L28.9560389,43.5016137 C27.3493131,43.6970423 26.6935067,44.4787566 26.6935067,45.5210423 L26.6935067,45.5861851 Z" id="$" fill="#003957" transform="translate(30.103700, 51.481614) rotate(270.000000) translate(-30.103700, -51.481614) "></path>
                </g>
            </g>
        </g>
    </g>
</svg>