<?xml version="1.0" encoding="UTF-8"?>
<svg width="503px" height="331px" viewBox="0 0 503 331" version="1.1" xmlns="http://www.w3.org/2000/svg" xmlns:xlink="http://www.w3.org/1999/xlink">
    <!-- Generator: Sketch 47.1 (45422) - http://www.bohemiancoding.com/sketch -->
    <title>dt_quote01</title>
    <desc>Created with Sketch.</desc>
    <defs></defs>
    <g id="Symbols" stroke="none" stroke-width="1" fill="none" fill-rule="evenodd">
        <g id="dt_quote01">
            <g id="Group" transform="translate(1.000000, 2.000000)">
                <path d="M501,327 L5.68434189e-14,327" id="Line-Copy-2" stroke="#FFFFFF" stroke-width="3"></path>
                <path d="M501,1 L0,1" id="Line-Copy" stroke="#FFFFFF" stroke-width="3"></path>
                <path d="M142.187939,44.7109375 L141.133251,44.7109375 C142.336382,41.5859219 143.660588,39.1289152 145.105908,37.3398438 C146.551227,35.5507723 147.922307,34.65625 149.219189,34.65625 C150.281694,34.65625 151.180123,35.3163996 151.914501,36.6367188 C152.64888,37.9570379 153.016064,39.7812384 153.016064,42.109375 C153.016064,45.2031405 152.547319,48.8359166 151.609814,53.0078125 C153.656699,48.2734138 155.996519,44.0312687 158.629345,40.28125 C161.262171,36.5312313 163.609804,34.65625 165.672314,34.65625 C166.594194,34.65625 167.348092,34.9140599 167.934033,35.4296875 C168.519973,35.9453151 168.812939,36.5937461 168.812939,37.375 C168.812939,37.8125022 168.676222,38.2265605 168.402783,38.6171875 C168.129344,39.0078145 167.758254,39.203125 167.289501,39.203125 C166.336372,39.203125 165.852001,38.5390691 165.836376,37.2109375 C165.836376,36.4296836 165.477005,36.0390625 164.758251,36.0390625 C163.914497,36.0390625 162.738728,36.8828041 161.230908,38.5703125 C159.723088,40.2578209 157.992636,42.8163891 156.039501,46.2460938 C154.086367,49.6757984 152.496539,53.2812311 151.26997,57.0625 C150.043402,60.8437689 149.430126,63.0468719 149.430126,63.671875 C149.430126,64.4843791 149.769967,65.0624983 150.449658,65.40625 C151.129349,65.7500017 151.883247,65.921875 152.711376,65.921875 L154.094189,65.921875 L153.766064,67 L139.047314,67 L139.375439,65.921875 L140.781689,65.921875 C142.547323,65.921875 143.812935,65.4335986 144.578564,64.4570312 C145.344193,63.4804639 146.332464,60.3633075 147.543408,55.1054688 C148.754351,49.84763 149.359814,45.570329 149.359814,42.2734375 C149.359814,40.4140532 149.223097,39.0234421 148.949658,38.1015625 C148.676219,37.1796829 148.258254,36.71875 147.695751,36.71875 C146.930123,36.71875 145.961382,37.6484282 144.789501,39.5078125 C143.617621,41.3671968 142.750442,43.1015545 142.187939,44.7109375 Z M158.805126,60.8359375 C158.805126,58.9609281 159.242622,56.9179798 160.117626,54.7070312 C160.992631,52.4960827 162.242618,50.7031319 163.867626,49.328125 C165.492635,47.9531181 167.070744,47.265625 168.602001,47.265625 C169.992633,47.265625 171.137153,47.8554629 172.035595,49.0351562 C172.934037,50.2148496 173.383251,51.8124899 173.383251,53.828125 C173.383251,56.2656372 172.883256,58.5781141 171.883251,60.765625 C170.883246,62.9531359 169.629353,64.6289004 168.121533,65.7929688 C166.613713,66.9570371 165.133259,67.5390625 163.680126,67.5390625 C162.383245,67.5390625 161.246538,67.0390675 160.26997,66.0390625 C159.293403,65.0390575 158.805126,63.3046998 158.805126,60.8359375 Z M161.312939,63.53125 C161.312939,64.3750042 161.531687,65.093747 161.969189,65.6875 C162.406691,66.281253 163.008248,66.578125 163.773876,66.578125 C165.867637,66.578125 167.590276,64.5937698 168.941845,60.625 C170.293414,56.6562302 170.969189,53.6250105 170.969189,51.53125 C170.969189,50.4531196 170.76216,49.6445339 170.348095,49.1054688 C169.934031,48.5664036 169.312943,48.296875 168.484814,48.296875 C166.531679,48.296875 164.848102,50.1367004 163.434033,53.8164062 C162.019963,57.4961121 161.312939,60.734361 161.312939,63.53125 Z M193.469189,62.171875 L194.453564,62.171875 C193.125432,65.8281433 191.328575,67.65625 189.062939,67.65625 C188.29731,67.65625 187.723097,67.4453146 187.340283,67.0234375 C186.957468,66.6015604 186.766064,65.9687542 186.766064,65.125 C186.766064,63.9374941 187.187935,62.0390755 188.031689,59.4296875 C185.2973,64.9140899 182.594202,67.65625 179.922314,67.65625 C178.937934,67.65625 178.164504,67.3515655 177.602001,66.7421875 C177.039499,66.1328095 176.758251,65.3750045 176.758251,64.46875 C176.758251,63.5781205 177.10981,62.1015728 177.812939,60.0390625 L180.695751,51.625 C181.117629,50.3749937 181.328564,49.6250013 181.328564,49.375 C181.328564,48.968748 181.125441,48.765625 180.719189,48.765625 C179.734809,48.765625 178.656695,50.0859243 177.484814,52.7265625 L176.359814,52.7265625 C176.984817,51.0859293 177.805121,49.7460989 178.820751,48.7070312 C179.836381,47.6679636 180.836371,47.1484375 181.820751,47.1484375 C182.430129,47.1484375 182.949656,47.3398418 183.379345,47.7226562 C183.809035,48.1054707 184.023876,48.6796837 184.023876,49.4453125 C184.023876,49.9921902 183.750442,51.0859293 183.203564,52.7265625 L180.250439,61.3984375 C179.687936,63.0859459 179.406689,64.1953098 179.406689,64.7265625 C179.406689,65.2109399 179.516063,65.5781237 179.734814,65.828125 C179.953565,66.0781262 180.273874,66.203125 180.695751,66.203125 C182.070758,66.203125 183.703554,64.7422021 185.594189,61.8203125 C187.484823,58.8984229 189.297305,54.5547163 191.031689,48.7890625 L191.430126,47.453125 L194.242626,47.453125 L190.141064,60.90625 C189.484811,63.0937609 189.156689,64.4140602 189.156689,64.8671875 C189.156689,65.2578145 189.234813,65.5507803 189.391064,65.7460938 C189.547315,65.9414072 189.781687,66.0390625 190.094189,66.0390625 C191.281695,66.0390625 192.406684,64.7500129 193.469189,62.171875 Z M209.992626,50.7578125 L208.984814,50.7578125 C209.594192,48.4296759 210.414496,47.265625 211.445751,47.265625 C212.070755,47.265625 212.719186,47.6562461 213.391064,48.4375 C214.047317,49.1875038 214.601999,49.5625 215.055126,49.5625 C215.492629,49.5625 215.805125,49.210941 215.992626,48.5078125 C216.242628,47.601558 216.609811,47.1484375 217.094189,47.1484375 C217.578566,47.1484375 217.820751,47.3671853 217.820751,47.8046875 C217.820751,48.0078135 217.391068,48.8515551 216.531689,50.3359375 C214.547304,53.7109544 213.254348,56.5078014 212.652783,58.7265625 C212.051217,60.9453236 211.750439,62.4687459 211.750439,63.296875 C211.750439,64.093754 211.941843,64.7695285 212.324658,65.3242188 C212.707472,65.878909 213.250435,66.15625 213.953564,66.15625 C214.984819,66.15625 216.18012,65.6640674 217.539501,64.6796875 C218.898883,63.6953076 219.98481,62.7109424 220.797314,61.7265625 C220.750439,61.3359355 220.727001,60.9218772 220.727001,60.484375 C220.727001,57.2656089 221.375432,54.2382954 222.672314,51.4023438 C223.969195,48.5663921 225.336369,47.1484375 226.773876,47.1484375 C227.367629,47.1484375 227.809031,47.3593729 228.098095,47.78125 C228.387159,48.2031271 228.531689,48.8359333 228.531689,49.6796875 C228.531689,51.1171947 228.129349,52.6953039 227.324658,54.4140625 C226.519966,56.1328211 225.305135,57.9921775 223.680126,59.9921875 C223.820752,61.9765724 224.215279,63.5156195 224.86372,64.609375 C225.512161,65.7031305 226.320747,66.25 227.289501,66.25 C228.211381,66.25 229.281683,65.7070367 230.500439,64.6210938 C231.719195,63.5351508 232.809028,61.8945422 233.76997,59.6992188 C234.730912,57.5038953 235.211376,55.6484451 235.211376,54.1328125 C235.211376,53.226558 234.961379,52.2343804 234.461376,51.15625 C234.008249,50.1874952 233.781689,49.3750033 233.781689,48.71875 C233.781689,48.2343726 233.910594,47.8515639 234.168408,47.5703125 C234.426221,47.2890611 234.703562,47.1484375 235.000439,47.1484375 C235.437941,47.1484375 235.844187,47.453122 236.219189,48.0625 C236.594191,48.671878 236.781689,49.6874929 236.781689,51.109375 C236.781689,53.1718853 236.2856,55.6835789 235.293408,58.6445312 C234.301215,61.6054836 232.918417,63.8476486 231.14497,65.3710938 C229.371524,66.8945389 227.672322,67.65625 226.047314,67.65625 C224.672307,67.65625 223.559037,67.1523488 222.70747,66.1445312 C221.855903,65.1367137 221.320752,64.0937554 221.102001,63.015625 C219.601994,64.5625077 218.156696,65.7265586 216.766064,66.5078125 C215.375432,67.2890664 214.039508,67.6796875 212.758251,67.6796875 C211.46137,67.6796875 210.480911,67.281254 209.816845,66.484375 C209.152779,65.687496 208.820751,64.6953184 208.820751,63.5078125 C208.820751,60.8984245 210.500422,57.2109613 213.859814,52.4453125 C214.687943,51.3046818 215.172313,50.6015638 215.312939,50.3359375 C214.641061,50.7109394 214.008254,50.8984375 213.414501,50.8984375 C212.867624,50.8984375 212.289504,50.6093779 211.680126,50.03125 C211.4145,49.7656237 211.180127,49.6328125 210.977001,49.6328125 C210.602,49.6328125 210.297315,49.937497 210.062939,50.546875 L209.992626,50.7578125 Z M223.492626,58.5625 C224.820758,56.7812411 225.816842,55.1445387 226.480908,53.6523438 C227.144973,52.1601488 227.477001,50.8203184 227.477001,49.6328125 C227.477001,49.1484351 227.410596,48.7851575 227.277783,48.5429688 C227.144969,48.30078 226.93794,48.1796875 226.656689,48.1796875 C226.031686,48.1796875 225.340286,48.9609297 224.58247,50.5234375 C223.824654,52.0859453 223.445751,54.3593601 223.445751,57.34375 C223.445751,57.6875017 223.461376,58.0937477 223.492626,58.5625 Z M245.617626,36.8125 C245.617626,36.2499972 245.816843,35.7695332 246.215283,35.3710938 C246.613722,34.9726543 247.094186,34.7734375 247.656689,34.7734375 C248.219192,34.7734375 248.699656,34.9726543 249.098095,35.3710938 C249.496535,35.7695332 249.695751,36.2499972 249.695751,36.8125 C249.695751,37.3750028 249.496535,37.859373 249.098095,38.265625 C248.699656,38.671877 248.219192,38.875 247.656689,38.875 C247.078561,38.875 246.594191,38.6679708 246.203564,38.2539062 C245.812937,37.8398417 245.617626,37.3593777 245.617626,36.8125 Z M247.352001,61.8671875 L248.477001,61.8671875 C247.742623,63.3828201 246.785601,64.7265566 245.605908,65.8984375 C244.426214,67.0703184 243.289507,67.65625 242.195751,67.65625 C241.461373,67.65625 240.816848,67.3945339 240.262158,66.8710938 C239.707467,66.3476536 239.430126,65.5781301 239.430126,64.5625 C239.430126,63.7343709 239.867622,62.1484492 240.742626,59.8046875 L243.437939,52.65625 C244.062942,50.9843666 244.375439,49.9687518 244.375439,49.609375 C244.375439,49.2968734 244.301221,49.0625008 244.152783,48.90625 C244.004344,48.7499992 243.78169,48.671875 243.484814,48.671875 C242.875436,48.671875 242.152787,49.1445265 241.316845,50.0898438 C240.480903,51.035161 239.891066,51.8906212 239.547314,52.65625 L238.422314,52.65625 C239.281693,50.9531165 240.262152,49.6093799 241.36372,48.625 C242.465288,47.6406201 243.492622,47.1484375 244.445751,47.1484375 C245.18013,47.1484375 245.781687,47.398435 246.250439,47.8984375 C246.719191,48.39844 246.953564,49.0546834 246.953564,49.8671875 C246.953564,50.6953166 246.539506,52.2109265 245.711376,54.4140625 L243.461376,60.5078125 C242.633247,62.7109485 242.219189,64.0937472 242.219189,64.65625 C242.219189,65.1093773 242.309032,65.4492176 242.48872,65.6757812 C242.668409,65.9023449 242.930125,66.015625 243.273876,66.015625 C244.430132,66.015625 245.789494,64.6328263 247.352001,61.8671875 Z M258.906689,61.375 L259.937939,61.375 C258.344181,65.5625209 256.297326,67.65625 253.797314,67.65625 C252.937935,67.65625 252.250441,67.3710966 251.734814,66.8007812 C251.219186,66.2304659 250.961376,65.5156293 250.961376,64.65625 C250.961376,63.8124958 251.469184,61.7265791 252.484814,58.3984375 L257.969189,40.3046875 C258.437941,38.7734298 258.672314,37.8828137 258.672314,37.6328125 C258.672314,37.2578106 258.566846,36.9921883 258.355908,36.8359375 C258.144969,36.6796867 257.617631,36.6015625 256.773876,36.6015625 L255.859814,36.6015625 L256.164501,35.6171875 C258.742639,35.5703123 260.641058,35.2890651 261.859814,34.7734375 L262.445751,34.7734375 L254.898876,59.6171875 C254.789501,60.0078145 254.562941,60.7187448 254.219189,61.75 C253.766062,63.1093818 253.539501,64.1406215 253.539501,64.84375 C253.539501,65.3125023 253.629344,65.6640613 253.809033,65.8984375 C253.988721,66.1328137 254.25825,66.25 254.617626,66.25 C255.148879,66.25 255.812935,65.8828162 256.609814,65.1484375 C257.406693,64.4140588 258.17231,63.1562589 258.906689,61.375 Z M270.414501,61.375 L271.445751,61.375 C269.851993,65.5625209 267.805139,67.65625 265.305126,67.65625 C264.445747,67.65625 263.758254,67.3710966 263.242626,66.8007812 C262.726999,66.2304659 262.469189,65.5156293 262.469189,64.65625 C262.469189,63.8124958 262.976996,61.7265791 263.992626,58.3984375 L269.477001,40.3046875 C269.945754,38.7734298 270.180126,37.8828137 270.180126,37.6328125 C270.180126,37.2578106 270.074659,36.9921883 269.86372,36.8359375 C269.652782,36.6796867 269.125443,36.6015625 268.281689,36.6015625 L267.367626,36.6015625 L267.672314,35.6171875 C270.250452,35.5703123 272.14887,35.2890651 273.367626,34.7734375 L273.953564,34.7734375 L266.406689,59.6171875 C266.297313,60.0078145 266.070753,60.7187448 265.727001,61.75 C265.273874,63.1093818 265.047314,64.1406215 265.047314,64.84375 C265.047314,65.3125023 265.137157,65.6640613 265.316845,65.8984375 C265.496534,66.1328137 265.766062,66.25 266.125439,66.25 C266.656692,66.25 267.320747,65.8828162 268.117626,65.1484375 C268.914505,64.4140588 269.680123,63.1562589 270.414501,61.375 Z M302.336376,62.59375 L303.531689,62.59375 C302.594184,64.2812584 301.637163,65.5468708 300.660595,66.390625 C299.684028,67.2343792 298.687944,67.65625 297.672314,67.65625 C296.969185,67.65625 296.363723,67.4414084 295.855908,67.0117188 C295.348093,66.5820291 295.094189,65.9453167 295.094189,65.1015625 C295.094189,64.398434 295.45356,63.0078229 296.172314,60.9296875 L298.680126,53.78125 C299.352005,51.8281152 299.687939,50.5625029 299.687939,49.984375 C299.687939,49.4687474 299.574659,49.0859387 299.348095,48.8359375 C299.121532,48.5859363 298.773879,48.4609375 298.305126,48.4609375 C297.11762,48.4609375 295.566855,49.8554548 293.652783,52.6445312 C291.738711,55.4336077 290.094196,59.0859149 288.719189,63.6015625 L287.570751,67.3515625 L284.711376,67.3515625 L288.836376,54.0390625 C289.58638,51.5859252 289.961376,50.1796893 289.961376,49.8203125 C289.961376,49.5546862 289.914502,49.3593756 289.820751,49.234375 C289.727001,49.1093744 289.578565,49.046875 289.375439,49.046875 C288.453559,49.046875 287.35982,50.1874886 286.094189,52.46875 L285.016064,52.46875 C286.969199,48.9218573 288.820743,47.1484375 290.570751,47.1484375 C291.180129,47.1484375 291.637156,47.3320294 291.941845,47.6992188 C292.246534,48.0664081 292.398876,48.6249962 292.398876,49.375 C292.398876,50.7187567 291.875444,52.7968609 290.828564,55.609375 C293.656703,49.9687218 296.406676,47.1484375 299.078564,47.1484375 C299.937943,47.1484375 300.687936,47.4335909 301.328564,48.0039062 C301.969192,48.5742216 302.289501,49.4062445 302.289501,50.5 C302.289501,51.2031285 301.969192,52.5156154 301.328564,54.4375 L298.820751,61.9140625 C298.148873,63.9296976 297.812939,65.0546863 297.812939,65.2890625 C297.812939,65.585939 297.887157,65.808593 298.035595,65.9570312 C298.184033,66.1054695 298.398875,66.1796875 298.680126,66.1796875 C299.211379,66.1796875 299.781686,65.8789093 300.391064,65.2773438 C301.000442,64.6757782 301.648873,63.7812559 302.336376,62.59375 Z M316.187939,61.0234375 L317.312939,61.0234375 C315.328554,65.4453346 312.781704,67.65625 309.672314,67.65625 C308.391057,67.65625 307.348099,67.2070357 306.543408,66.3085938 C305.738716,65.4101518 305.336376,64.1953202 305.336376,62.6640625 C305.336376,60.7265528 305.855902,58.5390747 306.89497,56.1015625 C307.934038,53.6640503 309.410586,51.5625088 311.324658,49.796875 C313.23873,48.0312412 314.906682,47.1484375 316.328564,47.1484375 C317.203568,47.1484375 317.867624,47.4257785 318.320751,47.9804688 C318.773879,48.535159 319.000439,49.2265584 319.000439,50.0546875 C319.000439,51.7421959 318.156697,53.3632735 316.469189,54.9179688 C314.78168,56.472664 312.250456,57.9687428 308.875439,59.40625 C308.437937,60.7656318 308.219189,62.0546814 308.219189,63.2734375 C308.219189,64.2734425 308.414499,65.023435 308.805126,65.5234375 C309.195753,66.02344 309.773873,66.2734375 310.539501,66.2734375 C312.680137,66.2734375 314.562931,64.523455 316.187939,61.0234375 Z M309.227001,58.2109375 C311.242636,57.304683 313.055118,56.0546955 314.664501,54.4609375 C316.273884,52.8671795 317.078564,51.4218815 317.078564,50.125 C317.078564,49.531247 316.957471,49.0898452 316.715283,48.8007812 C316.473094,48.5117173 316.109816,48.3671875 315.625439,48.3671875 C314.687934,48.3671875 313.582477,49.2773346 312.309033,51.0976562 C311.035589,52.9179779 310.008255,55.2890479 309.227001,58.2109375 Z M321.461376,50.78125 L320.500439,50.78125 C321.234818,48.3593629 322.24262,47.1484375 323.523876,47.1484375 C324.21138,47.1484375 324.891061,47.7187443 325.562939,48.859375 C325.81294,49.2968772 326.117625,49.515625 326.477001,49.515625 C326.852003,49.515625 327.141063,49.1953157 327.344189,48.5546875 C327.641065,47.6171828 328.023874,47.1484375 328.492626,47.1484375 C328.852003,47.1484375 329.031689,47.3203108 329.031689,47.6640625 C329.031689,47.9921891 328.789504,48.6093705 328.305126,49.515625 C326.430117,53.0156425 325.137161,55.7226467 324.42622,57.6367188 C323.715279,59.5507908 323.359814,61.2656174 323.359814,62.78125 C323.359814,63.8750055 323.594187,64.7226532 324.062939,65.3242188 C324.531691,65.9257843 325.070748,66.2265625 325.680126,66.2265625 C327.508261,66.2265625 329.285587,64.8007955 331.012158,61.9492188 C332.738729,59.097642 333.602001,56.3281384 333.602001,53.640625 C333.602001,52.5781197 333.375441,51.5156303 332.922314,50.453125 C332.641062,49.7968717 332.500439,49.2265649 332.500439,48.7421875 C332.500439,47.6796822 332.898872,47.1484375 333.695751,47.1484375 C334.164504,47.1484375 334.547312,47.4218723 334.844189,47.96875 C335.141065,48.5156277 335.289501,49.2578078 335.289501,50.1953125 C335.289501,52.2734479 334.836381,54.8242036 333.930126,57.8476562 C333.023872,60.8711089 331.719197,63.26171 330.016064,65.0195312 C328.31293,66.7773525 326.531698,67.65625 324.672314,67.65625 C323.437933,67.65625 322.449661,67.2734413 321.70747,66.5078125 C320.965279,65.7421837 320.594189,64.6796943 320.594189,63.3203125 C320.594189,61.9140555 320.976998,60.3515711 321.742626,58.6328125 C322.508255,56.9140539 323.797305,54.7343882 325.609814,52.09375 C325.891065,51.687498 326.148875,51.2734396 326.383251,50.8515625 C326.586377,50.5078108 326.727001,50.2812505 326.805126,50.171875 C326.180123,50.562502 325.617629,50.7578125 325.117626,50.7578125 C324.601999,50.7578125 324.156691,50.5703144 323.781689,50.1953125 C323.375437,49.8046855 323.008253,49.609375 322.680126,49.609375 C322.164499,49.609375 321.758253,49.9999961 321.461376,50.78125 Z M348.625439,61.0234375 L349.750439,61.0234375 C347.766054,65.4453346 345.219204,67.65625 342.109814,67.65625 C340.828557,67.65625 339.785599,67.2070357 338.980908,66.3085938 C338.176216,65.4101518 337.773876,64.1953202 337.773876,62.6640625 C337.773876,60.7265528 338.293402,58.5390747 339.33247,56.1015625 C340.371538,53.6640503 341.848086,51.5625088 343.762158,49.796875 C345.67623,48.0312412 347.344182,47.1484375 348.766064,47.1484375 C349.641068,47.1484375 350.305124,47.4257785 350.758251,47.9804688 C351.211379,48.535159 351.437939,49.2265584 351.437939,50.0546875 C351.437939,51.7421959 350.594197,53.3632735 348.906689,54.9179688 C347.21918,56.472664 344.687956,57.9687428 341.312939,59.40625 C340.875437,60.7656318 340.656689,62.0546814 340.656689,63.2734375 C340.656689,64.2734425 340.851999,65.023435 341.242626,65.5234375 C341.633253,66.02344 342.211373,66.2734375 342.977001,66.2734375 C345.117637,66.2734375 347.000431,64.523455 348.625439,61.0234375 Z M341.664501,58.2109375 C343.680136,57.304683 345.492618,56.0546955 347.102001,54.4609375 C348.711384,52.8671795 349.516064,51.4218815 349.516064,50.125 C349.516064,49.531247 349.394971,49.0898452 349.152783,48.8007812 C348.910594,48.5117173 348.547316,48.3671875 348.062939,48.3671875 C347.125434,48.3671875 346.019977,49.2773346 344.746533,51.0976562 C343.473089,52.9179779 342.445755,55.2890479 341.664501,58.2109375 Z M353.406689,53.4765625 L352.375439,53.4765625 C353.031692,51.7265537 353.855903,50.2343812 354.848095,49 C355.840288,47.7656188 356.820747,47.1484375 357.789501,47.1484375 C358.46138,47.1484375 358.961375,47.4179661 359.289501,47.9570312 C359.617628,48.4960964 359.781689,49.3124945 359.781689,50.40625 C359.781689,51.7656318 359.43013,53.7031124 358.727001,56.21875 C358.820752,56.0624992 359.078562,55.5000048 359.500439,54.53125 C360.656695,51.921862 361.67231,50.0390683 362.547314,48.8828125 C363.422318,47.7265567 364.29731,47.1484375 365.172314,47.1484375 C365.719192,47.1484375 366.156687,47.3203108 366.484814,47.6640625 C366.812941,48.0078142 366.977001,48.4218726 366.977001,48.90625 C366.977001,49.3750023 366.840284,49.757811 366.566845,50.0546875 C366.293406,50.351564 365.969191,50.5 365.594189,50.5 C365.172312,50.5 364.742629,50.2421901 364.305126,49.7265625 C364.133251,49.5234365 363.961377,49.421875 363.789501,49.421875 C363.008247,49.421875 361.805135,51.3007625 360.180126,55.0585938 C358.555118,58.816425 357.242631,62.3515459 356.242626,65.6640625 L355.727001,67.3515625 L352.914501,67.3515625 L356.641064,54.9296875 C357.344192,52.5546756 357.695751,50.9453167 357.695751,50.1015625 C357.695751,49.6484352 357.637158,49.3125011 357.51997,49.09375 C357.402782,48.8749989 357.227003,48.765625 356.992626,48.765625 C356.476999,48.765625 355.832474,49.320307 355.059033,50.4296875 C354.285591,51.539068 353.734816,52.5546829 353.406689,53.4765625 Z M161.902783,115.875 L163.215283,115.875 C162.527779,118.729181 161.538206,120.776035 160.246533,122.015625 C158.95486,123.255215 157.631956,123.875 156.277783,123.875 C153.611103,123.875 152.277783,122.1771 152.277783,118.78125 C152.277783,118.343748 152.350699,117.312508 152.496533,115.6875 C152.704867,113.062487 152.809033,111.572918 152.809033,111.21875 C152.809033,109.21874 152.017374,108.21875 150.434033,108.21875 C149.663195,108.21875 148.918411,108.479164 148.199658,109 C147.480904,109.520836 146.960076,110.166663 146.637158,110.9375 C146.314239,111.708337 145.809036,113.208322 145.121533,115.4375 L142.684033,123.46875 L138.965283,123.46875 L150.027783,87.09375 C150.590285,85.2395741 150.871533,84.1562516 150.871533,83.84375 C150.871533,83.3437475 150.736117,82.9895844 150.465283,82.78125 C150.194448,82.5729156 149.506955,82.46875 148.402783,82.46875 L147.277783,82.46875 L147.684033,81.15625 C151.05905,81.0937497 153.538191,80.7083369 155.121533,80 L155.902783,80 L147.340283,108.1875 C152.23614,102.833307 155.595482,99.5520894 157.418408,98.34375 C159.241333,97.1354106 160.809026,96.53125 162.121533,96.53125 C163.975709,96.53125 164.902783,97.2083266 164.902783,98.5625 C164.902783,99.0833359 164.720493,99.5208316 164.355908,99.875 C163.991322,100.229168 163.569452,100.40625 163.090283,100.40625 C162.673614,100.40625 162.11112,100.187502 161.402783,99.75 C160.944447,99.4583319 160.465285,99.3125 159.965283,99.3125 C157.965273,99.3125 154.663222,101.958307 150.059033,107.25 C150.454868,107.145833 150.767365,107.09375 150.996533,107.09375 C154.309049,107.09375 156.100698,110.468716 156.371533,117.21875 C156.454866,119.010426 156.605907,120.145831 156.824658,120.625 C157.043409,121.104169 157.444446,121.34375 158.027783,121.34375 C158.756953,121.34375 159.496529,120.807297 160.246533,119.734375 C160.996536,118.661453 161.548614,117.375008 161.902783,115.875 Z M188.246533,117.125 L189.840283,117.125 C188.590276,119.375011 187.314247,121.062494 186.012158,122.1875 C184.710068,123.312506 183.381956,123.875 182.027783,123.875 C181.090278,123.875 180.282994,123.588545 179.605908,123.015625 C178.928821,122.442705 178.590283,121.593756 178.590283,120.46875 C178.590283,119.531245 179.069445,117.677097 180.027783,114.90625 L183.371533,105.375 C184.26737,102.77082 184.715283,101.083337 184.715283,100.3125 C184.715283,99.6249966 184.564242,99.114585 184.262158,98.78125 C183.960073,98.447915 183.496536,98.28125 182.871533,98.28125 C181.288191,98.28125 179.220504,100.140606 176.668408,103.859375 C174.116312,107.578144 171.923625,112.447887 170.090283,118.46875 L168.559033,123.46875 L164.746533,123.46875 L170.246533,105.71875 C171.246538,102.4479 171.746533,100.572919 171.746533,100.09375 C171.746533,99.7395816 171.684033,99.4791675 171.559033,99.3125 C171.434032,99.1458325 171.236117,99.0625 170.965283,99.0625 C169.73611,99.0625 168.277791,100.583318 166.590283,103.625 L165.152783,103.625 C167.756962,98.8958097 170.225688,96.53125 172.559033,96.53125 C173.371537,96.53125 173.980906,96.7760392 174.387158,97.265625 C174.79341,97.7552108 174.996533,98.499995 174.996533,99.5 C174.996533,101.291676 174.298623,104.062481 172.902783,107.8125 C176.673635,100.291629 180.340265,96.53125 183.902783,96.53125 C185.048622,96.53125 186.048612,96.9114545 186.902783,97.671875 C187.756954,98.4322955 188.184033,99.5416594 188.184033,101 C188.184033,101.937505 187.756954,103.687487 186.902783,106.25 L183.559033,116.21875 C182.663195,118.906263 182.215283,120.406248 182.215283,120.71875 C182.215283,121.114585 182.31424,121.411457 182.512158,121.609375 C182.710075,121.807293 182.996531,121.90625 183.371533,121.90625 C184.07987,121.90625 184.840279,121.505212 185.652783,120.703125 C186.465287,119.901038 187.329861,118.708341 188.246533,117.125 Z M192.934033,114.78125 C192.934033,112.281238 193.51736,109.557306 194.684033,106.609375 C195.850705,103.661444 197.517355,101.270842 199.684033,99.4375 C201.85071,97.6041575 203.954856,96.6875 205.996533,96.6875 C207.850709,96.6875 209.376735,97.4739505 210.574658,99.046875 C211.77258,100.6198 212.371533,102.749987 212.371533,105.4375 C212.371533,108.687516 211.704873,111.770819 210.371533,114.6875 C209.038193,117.604181 207.366334,119.838534 205.355908,121.390625 C203.345481,122.942716 201.371542,123.71875 199.434033,123.71875 C197.704857,123.71875 196.189247,123.05209 194.887158,121.71875 C193.585068,120.38541 192.934033,118.072933 192.934033,114.78125 Z M196.277783,118.375 C196.277783,119.500006 196.569446,120.458329 197.152783,121.25 C197.736119,122.041671 198.538194,122.4375 199.559033,122.4375 C202.350713,122.4375 204.647565,119.791693 206.449658,114.5 C208.25175,109.208307 209.152783,105.166681 209.152783,102.375 C209.152783,100.937493 208.876744,99.8593786 208.324658,99.140625 C207.772572,98.4218714 206.944455,98.0625 205.840283,98.0625 C203.236103,98.0625 200.991334,100.5156 199.105908,105.421875 C197.220482,110.32815 196.277783,114.645815 196.277783,118.375 Z M218.996533,101.34375 L217.652783,101.34375 C218.465287,98.2395678 219.559026,96.6875 220.934033,96.6875 C221.76737,96.6875 222.631945,97.2083281 223.527783,98.25 C224.402787,99.250005 225.142363,99.75 225.746533,99.75 C226.329869,99.75 226.746531,99.2812547 226.996533,98.34375 C227.329868,97.1354106 227.819446,96.53125 228.465283,96.53125 C229.111119,96.53125 229.434033,96.8229137 229.434033,97.40625 C229.434033,97.6770847 228.861122,98.8020734 227.715283,100.78125 C225.069436,105.281273 223.345495,109.010402 222.543408,111.96875 C221.74132,114.927098 221.340283,116.958328 221.340283,118.0625 C221.340283,119.125005 221.595488,120.026038 222.105908,120.765625 C222.616327,121.505212 223.340278,121.875 224.277783,121.875 C225.65279,121.875 227.246524,121.218757 229.059033,119.90625 C230.871542,118.593743 232.319444,117.281257 233.402783,115.96875 C233.340282,115.447914 233.309033,114.895836 233.309033,114.3125 C233.309033,110.020812 234.173607,105.984394 235.902783,102.203125 C237.631958,98.4218561 239.454856,96.53125 241.371533,96.53125 C242.163203,96.53125 242.751739,96.8124972 243.137158,97.375 C243.522576,97.9375028 243.715283,98.7812444 243.715283,99.90625 C243.715283,101.822926 243.17883,103.927072 242.105908,106.21875 C241.032986,108.510428 239.41321,110.98957 237.246533,113.65625 C237.434034,116.302097 237.96007,118.354159 238.824658,119.8125 C239.689245,121.270841 240.76736,122 242.059033,122 C243.288205,122 244.715275,121.276049 246.340283,119.828125 C247.965291,118.380201 249.418401,116.192723 250.699658,113.265625 C251.980914,110.338527 252.621533,107.864593 252.621533,105.84375 C252.621533,104.635411 252.288203,103.312507 251.621533,101.875 C251.017363,100.583327 250.715283,99.5000044 250.715283,98.625 C250.715283,97.9791634 250.887156,97.4687519 251.230908,97.09375 C251.574659,96.7187481 251.944447,96.53125 252.340283,96.53125 C252.923619,96.53125 253.46528,96.9374959 253.965283,97.75 C254.465285,98.5625041 254.715283,99.9166572 254.715283,101.8125 C254.715283,104.562514 254.053831,107.911439 252.730908,111.859375 C251.407984,115.807311 249.564253,118.796865 247.199658,120.828125 C244.835062,122.859385 242.56946,123.875 240.402783,123.875 C238.56944,123.875 237.08508,123.203132 235.949658,121.859375 C234.814235,120.515618 234.100701,119.125007 233.809033,117.6875 C231.809023,119.75001 229.881959,121.302078 228.027783,122.34375 C226.173607,123.385422 224.392375,123.90625 222.684033,123.90625 C220.954857,123.90625 219.647579,123.375005 218.762158,122.3125 C217.876737,121.249995 217.434033,119.927091 217.434033,118.34375 C217.434033,114.864566 219.673594,109.947948 224.152783,103.59375 C225.256955,102.072909 225.902782,101.135418 226.090283,100.78125 C225.194445,101.281252 224.350703,101.53125 223.559033,101.53125 C222.829862,101.53125 222.059037,101.145837 221.246533,100.375 C220.892364,100.020832 220.579867,99.84375 220.309033,99.84375 C219.80903,99.84375 219.402784,100.249996 219.090283,101.0625 L218.996533,101.34375 Z M236.996533,111.75 C238.767375,109.374988 240.095487,107.192718 240.980908,105.203125 C241.866329,103.213532 242.309033,101.427091 242.309033,99.84375 C242.309033,99.1979134 242.220492,98.7135433 242.043408,98.390625 C241.866323,98.0677067 241.590285,97.90625 241.215283,97.90625 C240.381945,97.90625 239.460079,98.9479063 238.449658,101.03125 C237.439236,103.114594 236.934033,106.145813 236.934033,110.125 C236.934033,110.583336 236.954866,111.124997 236.996533,111.75 Z M274.652783,105 L273.340283,105 C273.590284,102.041652 274.241319,99.8906317 275.293408,98.546875 C276.345496,97.2031183 277.475693,96.53125 278.684033,96.53125 C280.225707,96.53125 281.46007,97.4739489 282.387158,99.359375 C283.314246,101.244801 283.777783,104.114564 283.777783,107.96875 C283.777783,112.989608 283.204872,117.583313 282.059033,121.75 C284.10071,119.520822 286.095481,116.687517 288.043408,113.25 C289.991334,109.812483 290.965283,106.885429 290.965283,104.46875 C290.965283,103.322911 290.631953,102.187506 289.965283,101.0625 C289.298613,99.9583278 288.965283,99.1250028 288.965283,98.5625 C288.965283,98.0208306 289.126739,97.546877 289.449658,97.140625 C289.772576,96.734373 290.163197,96.53125 290.621533,96.53125 C291.371536,96.53125 291.986114,96.9583291 292.465283,97.8125 C292.944452,98.6666709 293.184033,99.927075 293.184033,101.59375 C293.184033,104.093762 292.418415,107.140607 290.887158,110.734375 C289.3559,114.328143 287.111131,117.890607 284.152783,121.421875 C281.194435,124.953143 278.251756,128.140611 275.324658,130.984375 C272.39756,133.828139 269.887168,135.807286 267.793408,136.921875 C265.699647,138.036464 263.621543,138.59375 261.559033,138.59375 C258.913186,138.59375 257.590283,137.833341 257.590283,136.3125 C257.590283,135.687497 257.87153,135.19271 258.434033,134.828125 C258.996535,134.46354 259.59028,134.28125 260.215283,134.28125 C260.694452,134.28125 261.444444,134.416665 262.465283,134.6875 C263.798623,135.062502 264.892362,135.25 265.746533,135.25 C266.996539,135.25 268.220485,134.901045 269.418408,134.203125 C270.61633,133.505205 272.095482,132.296884 273.855908,130.578125 C275.616333,128.859366 276.850696,127.338548 277.559033,126.015625 C278.26737,124.692702 278.897572,122.3646 279.449658,119.03125 C280.001744,115.6979 280.277783,112.114602 280.277783,108.28125 C280.277783,105.364569 280.006952,103.114591 279.465283,101.53125 C278.923613,99.9479088 278.256953,99.15625 277.465283,99.15625 C275.944442,99.15625 275.006951,101.104147 274.652783,105 Z M295.559033,114.78125 C295.559033,112.281238 296.14236,109.557306 297.309033,106.609375 C298.475705,103.661444 300.142355,101.270842 302.309033,99.4375 C304.47571,97.6041575 306.579856,96.6875 308.621533,96.6875 C310.475709,96.6875 312.001735,97.4739505 313.199658,99.046875 C314.39758,100.6198 314.996533,102.749987 314.996533,105.4375 C314.996533,108.687516 314.329873,111.770819 312.996533,114.6875 C311.663193,117.604181 309.991334,119.838534 307.980908,121.390625 C305.970481,122.942716 303.996542,123.71875 302.059033,123.71875 C300.329857,123.71875 298.814247,123.05209 297.512158,121.71875 C296.210068,120.38541 295.559033,118.072933 295.559033,114.78125 Z M298.902783,118.375 C298.902783,119.500006 299.194446,120.458329 299.777783,121.25 C300.361119,122.041671 301.163194,122.4375 302.184033,122.4375 C304.975713,122.4375 307.272565,119.791693 309.074658,114.5 C310.87675,109.208307 311.777783,105.166681 311.777783,102.375 C311.777783,100.937493 311.501744,99.8593786 310.949658,99.140625 C310.397572,98.4218714 309.569455,98.0625 308.465283,98.0625 C305.861103,98.0625 303.616334,100.5156 301.730908,105.421875 C299.845482,110.32815 298.902783,114.645815 298.902783,118.375 Z M341.777783,116.5625 L343.090283,116.5625 C341.31944,121.437524 338.923631,123.875 335.902783,123.875 C334.881944,123.875 334.116327,123.593753 333.605908,123.03125 C333.095488,122.468747 332.840283,121.625006 332.840283,120.5 C332.840283,118.916659 333.402777,116.385434 334.527783,112.90625 C330.881931,120.218787 327.2778,123.875 323.715283,123.875 C322.402776,123.875 321.371536,123.468754 320.621533,122.65625 C319.871529,121.843746 319.496533,120.833339 319.496533,119.625 C319.496533,118.437494 319.965278,116.468764 320.902783,113.71875 L324.746533,102.5 C325.309035,100.833325 325.590283,99.833335 325.590283,99.5 C325.590283,98.9583306 325.319452,98.6875 324.777783,98.6875 C323.465276,98.6875 322.02779,100.447899 320.465283,103.96875 L318.965283,103.96875 C319.79862,101.781239 320.892359,99.9947986 322.246533,98.609375 C323.600706,97.2239514 324.934026,96.53125 326.246533,96.53125 C327.059037,96.53125 327.751738,96.7864558 328.324658,97.296875 C328.897577,97.8072942 329.184033,98.5729116 329.184033,99.59375 C329.184033,100.32292 328.819453,101.781239 328.090283,103.96875 L324.152783,115.53125 C323.402779,117.781261 323.027783,119.260413 323.027783,119.96875 C323.027783,120.614587 323.173615,121.104165 323.465283,121.4375 C323.756951,121.770835 324.18403,121.9375 324.746533,121.9375 C326.579875,121.9375 328.756937,119.989603 331.277783,116.09375 C333.798629,112.197897 336.215271,106.406288 338.527783,98.71875 L339.059033,96.9375 L342.809033,96.9375 L337.340283,114.875 C336.465278,117.791681 336.027783,119.55208 336.027783,120.15625 C336.027783,120.677086 336.131948,121.067707 336.340283,121.328125 C336.548617,121.588543 336.861114,121.71875 337.277783,121.71875 C338.861124,121.71875 340.361109,120.000017 341.777783,116.5625 Z M347.059033,104.96875 L345.684033,104.96875 C346.559037,102.635405 347.657984,100.645842 348.980908,99 C350.303831,97.3541584 351.61111,96.53125 352.902783,96.53125 C353.79862,96.53125 354.46528,96.8906214 354.902783,97.609375 C355.340285,98.3281286 355.559033,99.4166594 355.559033,100.875 C355.559033,102.687509 355.090287,105.270817 354.152783,108.625 C354.277783,108.416666 354.62153,107.666673 355.184033,106.375 C356.725707,102.895816 358.07986,100.385424 359.246533,98.84375 C360.413205,97.3020756 361.57986,96.53125 362.746533,96.53125 C363.475703,96.53125 364.05903,96.7604144 364.496533,97.21875 C364.934035,97.6770856 365.152783,98.2291634 365.152783,98.875 C365.152783,99.5000031 364.970493,100.010415 364.605908,100.40625 C364.241322,100.802085 363.809035,101 363.309033,101 C362.74653,101 362.173619,100.656253 361.590283,99.96875 C361.361115,99.6979153 361.13195,99.5625 360.902783,99.5625 C359.861111,99.5625 358.25696,102.067683 356.090283,107.078125 C353.923605,112.088567 352.173623,116.802061 350.840283,121.21875 L350.152783,123.46875 L346.402783,123.46875 L351.371533,106.90625 C352.309037,103.739568 352.777783,101.593756 352.777783,100.46875 C352.777783,99.8645803 352.699658,99.4166681 352.543408,99.125 C352.387157,98.8333319 352.152784,98.6875 351.840283,98.6875 C351.152779,98.6875 350.293413,99.4270759 349.262158,100.90625 C348.230902,102.385424 347.496535,103.739577 347.059033,104.96875 Z M160.727001,173.375 L161.758251,173.375 C160.164493,177.562521 158.117639,179.65625 155.617626,179.65625 C154.758247,179.65625 154.070754,179.371097 153.555126,178.800781 C153.039499,178.230466 152.781689,177.515629 152.781689,176.65625 C152.781689,175.812496 153.289496,173.726579 154.305126,170.398438 L159.789501,152.304688 C160.258254,150.77343 160.492626,149.882814 160.492626,149.632812 C160.492626,149.257811 160.387159,148.992188 160.17622,148.835938 C159.965282,148.679687 159.437943,148.601562 158.594189,148.601562 L157.680126,148.601562 L157.984814,147.617188 C160.562952,147.570312 162.46137,147.289065 163.680126,146.773438 L164.266064,146.773438 L156.719189,171.617188 C156.609813,172.007814 156.383253,172.718745 156.039501,173.75 C155.586374,175.109382 155.359814,176.140621 155.359814,176.84375 C155.359814,177.312502 155.449657,177.664061 155.629345,177.898438 C155.809034,178.132814 156.078562,178.25 156.437939,178.25 C156.969192,178.25 157.633247,177.882816 158.430126,177.148438 C159.227005,176.414059 159.992623,175.156259 160.727001,173.375 Z M170.453564,148.8125 C170.453564,148.249997 170.652781,147.769533 171.05122,147.371094 C171.44966,146.972654 171.930124,146.773438 172.492626,146.773438 C173.055129,146.773438 173.535593,146.972654 173.934033,147.371094 C174.332472,147.769533 174.531689,148.249997 174.531689,148.8125 C174.531689,149.375003 174.332472,149.859373 173.934033,150.265625 C173.535593,150.671877 173.055129,150.875 172.492626,150.875 C171.914499,150.875 171.430128,150.667971 171.039501,150.253906 C170.648874,149.839842 170.453564,149.359378 170.453564,148.8125 Z M172.187939,173.867188 L173.312939,173.867188 C172.57856,175.38282 171.621539,176.726557 170.441845,177.898438 C169.262152,179.070318 168.125444,179.65625 167.031689,179.65625 C166.29731,179.65625 165.652785,179.394534 165.098095,178.871094 C164.543405,178.347654 164.266064,177.57813 164.266064,176.5625 C164.266064,175.734371 164.70356,174.148449 165.578564,171.804688 L168.273876,164.65625 C168.89888,162.984367 169.211376,161.968752 169.211376,161.609375 C169.211376,161.296873 169.137158,161.062501 168.98872,160.90625 C168.840282,160.749999 168.617628,160.671875 168.320751,160.671875 C167.711373,160.671875 166.988724,161.144527 166.152783,162.089844 C165.316841,163.035161 164.727003,163.890621 164.383251,164.65625 L163.258251,164.65625 C164.117631,162.953116 165.09809,161.60938 166.199658,160.625 C167.301226,159.64062 168.328559,159.148438 169.281689,159.148438 C170.016068,159.148438 170.617624,159.398435 171.086376,159.898438 C171.555129,160.39844 171.789501,161.054683 171.789501,161.867188 C171.789501,162.695317 171.375443,164.210926 170.547314,166.414062 L168.297314,172.507812 C167.469185,174.710949 167.055126,176.093747 167.055126,176.65625 C167.055126,177.109377 167.144969,177.449218 167.324658,177.675781 C167.504346,177.902345 167.766062,178.015625 168.109814,178.015625 C169.26607,178.015625 170.625431,176.632826 172.187939,173.867188 Z M202.422314,174.570312 L203.430126,174.570312 C202.758248,176.023445 201.887163,177.23437 200.816845,178.203125 C199.746527,179.17188 198.703569,179.65625 197.687939,179.65625 C197.016061,179.65625 196.41841,179.414065 195.89497,178.929688 C195.37153,178.44531 195.109814,177.757817 195.109814,176.867188 C195.109814,176.070309 195.492623,174.554699 196.258251,172.320312 L198.461376,165.945312 C199.11763,164.039053 199.445751,162.843752 199.445751,162.359375 C199.445751,161.843747 199.340284,161.457033 199.129345,161.199219 C198.918407,160.941405 198.602004,160.8125 198.180126,160.8125 C196.83637,160.8125 195.254354,161.929676 193.434033,164.164062 C191.613711,166.398449 189.719199,170.773405 187.750439,177.289062 L187.117626,179.328125 L184.328564,179.328125 L188.148876,166.765625 C188.80513,164.578114 189.133251,163.101566 189.133251,162.335938 C189.133251,161.867185 189.043409,161.515626 188.86372,161.28125 C188.684032,161.046874 188.406691,160.929688 188.031689,160.929688 C186.937933,160.929688 185.461386,162.08202 183.602001,164.386719 C181.742617,166.691418 179.891073,170.906219 178.047314,177.03125 L177.344189,179.328125 L174.531689,179.328125 L178.820751,165.265625 C179.398879,163.34374 179.687939,162.210939 179.687939,161.867188 C179.687939,161.617186 179.644971,161.429688 179.559033,161.304688 C179.473095,161.179687 179.336377,161.117188 179.148876,161.117188 C178.742624,161.117188 178.199661,161.445309 177.51997,162.101562 C176.840279,162.757816 176.164505,163.695306 175.492626,164.914062 L174.437939,164.914062 C175.187943,163.33593 176.109808,162.035161 177.203564,161.011719 C178.297319,159.988276 179.26606,159.476562 180.109814,159.476562 C180.719192,159.476562 181.199656,159.679685 181.55122,160.085938 C181.902784,160.49219 182.078564,161.039059 182.078564,161.726562 C182.078564,162.867193 181.602006,164.796861 180.648876,167.515625 C181.695757,165.312489 183.000431,163.41407 184.562939,161.820312 C186.125447,160.226555 187.539495,159.429688 188.805126,159.429688 C189.711381,159.429688 190.387155,159.691404 190.83247,160.214844 C191.277785,160.738284 191.500439,161.523432 191.500439,162.570312 C191.500439,163.851569 191.18013,165.398428 190.539501,167.210938 C191.867633,164.492174 193.273869,162.515631 194.758251,161.28125 C196.242634,160.046869 197.58637,159.429688 198.789501,159.429688 C199.695756,159.429688 200.453561,159.730466 201.062939,160.332031 C201.672317,160.933597 201.977001,161.749995 201.977001,162.78125 C201.977001,163.421878 201.926221,163.949217 201.824658,164.363281 C201.723095,164.777346 201.344192,165.96874 200.687939,167.9375 L198.859814,173.210938 C198.10981,175.351573 197.734814,176.671873 197.734814,177.171875 C197.734814,177.515627 197.809032,177.777343 197.95747,177.957031 C198.105908,178.13672 198.32075,178.226562 198.602001,178.226562 C199.148879,178.226562 199.742623,177.921878 200.383251,177.3125 C201.02388,176.703122 201.70356,175.789069 202.422314,174.570312 Z M212.453564,148.8125 C212.453564,148.249997 212.652781,147.769533 213.05122,147.371094 C213.44966,146.972654 213.930124,146.773438 214.492626,146.773438 C215.055129,146.773438 215.535593,146.972654 215.934033,147.371094 C216.332472,147.769533 216.531689,148.249997 216.531689,148.8125 C216.531689,149.375003 216.332472,149.859373 215.934033,150.265625 C215.535593,150.671877 215.055129,150.875 214.492626,150.875 C213.914499,150.875 213.430128,150.667971 213.039501,150.253906 C212.648874,149.839842 212.453564,149.359378 212.453564,148.8125 Z M214.187939,173.867188 L215.312939,173.867188 C214.57856,175.38282 213.621539,176.726557 212.441845,177.898438 C211.262152,179.070318 210.125444,179.65625 209.031689,179.65625 C208.29731,179.65625 207.652785,179.394534 207.098095,178.871094 C206.543405,178.347654 206.266064,177.57813 206.266064,176.5625 C206.266064,175.734371 206.70356,174.148449 207.578564,171.804688 L210.273876,164.65625 C210.89888,162.984367 211.211376,161.968752 211.211376,161.609375 C211.211376,161.296873 211.137158,161.062501 210.98872,160.90625 C210.840282,160.749999 210.617628,160.671875 210.320751,160.671875 C209.711373,160.671875 208.988724,161.144527 208.152783,162.089844 C207.316841,163.035161 206.727003,163.890621 206.383251,164.65625 L205.258251,164.65625 C206.117631,162.953116 207.09809,161.60938 208.199658,160.625 C209.301226,159.64062 210.328559,159.148438 211.281689,159.148438 C212.016068,159.148438 212.617624,159.398435 213.086376,159.898438 C213.555129,160.39844 213.789501,161.054683 213.789501,161.867188 C213.789501,162.695317 213.375443,164.210926 212.547314,166.414062 L210.297314,172.507812 C209.469185,174.710949 209.055126,176.093747 209.055126,176.65625 C209.055126,177.109377 209.144969,177.449218 209.324658,177.675781 C209.504346,177.902345 209.766062,178.015625 210.109814,178.015625 C211.26607,178.015625 212.625431,176.632826 214.187939,173.867188 Z M228.766064,159.804688 L228.437939,160.835938 L224.922314,160.835938 L221.828564,171.078125 C220.797309,174.437517 220.281689,176.390622 220.281689,176.9375 C220.281689,177.312502 220.363719,177.597655 220.527783,177.792969 C220.691846,177.988282 220.930125,178.085938 221.242626,178.085938 C221.805129,178.085938 222.539497,177.554693 223.445751,176.492188 C224.352006,175.429682 225.164498,174.093758 225.883251,172.484375 L226.914501,172.484375 C225.961372,174.812512 224.871539,176.589838 223.64497,177.816406 C222.418402,179.042975 221.297319,179.65625 220.281689,179.65625 C219.48481,179.65625 218.848098,179.375003 218.371533,178.8125 C217.894968,178.249997 217.656689,177.539067 217.656689,176.679688 C217.656689,175.945309 218.141059,173.992203 219.109814,170.820312 L222.133251,160.835938 L218.898876,160.835938 L219.227001,159.804688 L222.437939,159.804688 L224.594189,152.703125 L227.406689,152.703125 L225.250439,159.804688 L228.766064,159.804688 Z M238.867626,173.84375 C238.867626,175.296882 238.309038,176.6289 237.191845,177.839844 C236.074652,179.050787 234.430137,179.65625 232.258251,179.65625 C230.648868,179.65625 229.441849,179.300785 228.637158,178.589844 C227.832466,177.878903 227.430126,177.117192 227.430126,176.304688 C227.430126,175.867185 227.551219,175.492189 227.793408,175.179688 C228.035596,174.867186 228.344187,174.710938 228.719189,174.710938 C229.562943,174.710938 229.984814,175.156246 229.984814,176.046875 C229.984814,176.250001 229.937939,176.539061 229.844189,176.914062 C229.781689,177.085938 229.750439,177.21875 229.750439,177.3125 C229.750439,177.687502 229.992624,178.011717 230.477001,178.285156 C230.961379,178.558595 231.539498,178.695312 232.211376,178.695312 C233.258257,178.695312 234.211372,178.363285 235.070751,177.699219 C235.930131,177.035153 236.359814,176.117193 236.359814,174.945312 C236.359814,173.929682 235.758257,172.328136 234.555126,170.140625 C233.148869,167.609362 232.445751,165.757818 232.445751,164.585938 C232.445751,163.08593 233.039495,161.820318 234.227001,160.789062 C235.414507,159.757807 236.766056,159.242188 238.281689,159.242188 C239.391069,159.242188 240.340279,159.523435 241.129345,160.085938 C241.918412,160.64844 242.312939,161.249997 242.312939,161.890625 C242.312939,162.718754 241.969192,163.132812 241.281689,163.132812 C240.766061,163.132812 240.391065,162.67188 240.156689,161.75 C239.906688,160.73437 239.227007,160.226562 238.117626,160.226562 C237.226997,160.226562 236.453567,160.468748 235.797314,160.953125 C235.141061,161.437502 234.812939,162.070309 234.812939,162.851562 C234.812939,163.914068 235.336371,165.374991 236.383251,167.234375 C237.367631,168.921883 238.027781,170.210933 238.36372,171.101562 C238.699659,171.992192 238.867626,172.906245 238.867626,173.84375 Z M272.828564,174.171875 L273.812939,174.171875 C272.484807,177.828143 270.68795,179.65625 268.422314,179.65625 C267.656685,179.65625 267.082472,179.445315 266.699658,179.023438 C266.316843,178.60156 266.125439,177.968754 266.125439,177.125 C266.125439,175.937494 266.54731,174.039076 267.391064,171.429688 C264.656675,176.91409 261.953577,179.65625 259.281689,179.65625 C258.297309,179.65625 257.523879,179.351566 256.961376,178.742188 C256.398874,178.132809 256.117626,177.375005 256.117626,176.46875 C256.117626,175.578121 256.469185,174.101573 257.172314,172.039062 L260.055126,163.625 C260.477004,162.374994 260.687939,161.625001 260.687939,161.375 C260.687939,160.968748 260.484816,160.765625 260.078564,160.765625 C259.094184,160.765625 258.01607,162.085924 256.844189,164.726562 L255.719189,164.726562 C256.344192,163.085929 257.164496,161.746099 258.180126,160.707031 C259.195756,159.667964 260.195746,159.148438 261.180126,159.148438 C261.789504,159.148438 262.309031,159.339842 262.73872,159.722656 C263.16841,160.105471 263.383251,160.679684 263.383251,161.445312 C263.383251,161.99219 263.109817,163.085929 262.562939,164.726562 L259.609814,173.398438 C259.047311,175.085946 258.766064,176.19531 258.766064,176.726562 C258.766064,177.21094 258.875438,177.578124 259.094189,177.828125 C259.31294,178.078126 259.633249,178.203125 260.055126,178.203125 C261.430133,178.203125 263.062929,176.742202 264.953564,173.820312 C266.844198,170.898423 268.65668,166.554716 270.391064,160.789062 L270.789501,159.453125 L273.602001,159.453125 L269.500439,172.90625 C268.844186,175.093761 268.516064,176.41406 268.516064,176.867188 C268.516064,177.257814 268.594188,177.55078 268.750439,177.746094 C268.90669,177.941407 269.141062,178.039062 269.453564,178.039062 C270.64107,178.039062 271.766059,176.750013 272.828564,174.171875 Z M293.172314,174.59375 L294.367626,174.59375 C293.430122,176.281258 292.4731,177.546871 291.496533,178.390625 C290.519965,179.234379 289.523881,179.65625 288.508251,179.65625 C287.805123,179.65625 287.19966,179.441408 286.691845,179.011719 C286.18403,178.582029 285.930126,177.945317 285.930126,177.101562 C285.930126,176.398434 286.289498,175.007823 287.008251,172.929688 L289.516064,165.78125 C290.187942,163.828115 290.523876,162.562503 290.523876,161.984375 C290.523876,161.468747 290.410596,161.085939 290.184033,160.835938 C289.957469,160.585936 289.609816,160.460938 289.141064,160.460938 C287.953558,160.460938 286.402792,161.855455 284.48872,164.644531 C282.574648,167.433608 280.930133,171.085915 279.555126,175.601562 L278.406689,179.351562 L275.547314,179.351562 L279.672314,166.039062 C280.422318,163.585925 280.797314,162.179689 280.797314,161.820312 C280.797314,161.554686 280.750439,161.359376 280.656689,161.234375 C280.562938,161.109374 280.414502,161.046875 280.211376,161.046875 C279.289497,161.046875 278.195758,162.187489 276.930126,164.46875 L275.852001,164.46875 C277.805136,160.921857 279.65668,159.148438 281.406689,159.148438 C282.016067,159.148438 282.473094,159.332029 282.777783,159.699219 C283.082472,160.066408 283.234814,160.624996 283.234814,161.375 C283.234814,162.718757 282.711382,164.796861 281.664501,167.609375 C284.492641,161.968722 287.242613,159.148438 289.914501,159.148438 C290.773881,159.148438 291.523873,159.433591 292.164501,160.003906 C292.80513,160.574222 293.125439,161.406245 293.125439,162.5 C293.125439,163.203129 292.80513,164.515615 292.164501,166.4375 L289.656689,173.914062 C288.984811,175.929698 288.648876,177.054686 288.648876,177.289062 C288.648876,177.585939 288.723094,177.808593 288.871533,177.957031 C289.019971,178.105469 289.234812,178.179688 289.516064,178.179688 C290.047317,178.179688 290.617623,177.878909 291.227001,177.277344 C291.836379,176.675778 292.48481,175.781256 293.172314,174.59375 Z M305.266064,173.375 L306.297314,173.375 C304.703556,177.562521 302.656701,179.65625 300.156689,179.65625 C299.29731,179.65625 298.609816,179.371097 298.094189,178.800781 C297.578561,178.230466 297.320751,177.515629 297.320751,176.65625 C297.320751,175.812496 297.828559,173.726579 298.844189,170.398438 L304.328564,152.304688 C304.797316,150.77343 305.031689,149.882814 305.031689,149.632812 C305.031689,149.257811 304.926221,148.992188 304.715283,148.835938 C304.504344,148.679687 303.977006,148.601562 303.133251,148.601562 L302.219189,148.601562 L302.523876,147.617188 C305.102014,147.570312 307.000433,147.289065 308.219189,146.773438 L308.805126,146.773438 L301.258251,171.617188 C301.148876,172.007814 300.922316,172.718745 300.578564,173.75 C300.125437,175.109382 299.898876,176.140621 299.898876,176.84375 C299.898876,177.312502 299.988719,177.664061 300.168408,177.898438 C300.348096,178.132814 300.617625,178.25 300.977001,178.25 C301.508254,178.25 302.17231,177.882816 302.969189,177.148438 C303.766068,176.414059 304.531685,175.156259 305.266064,173.375 Z M318.531689,173.023438 L319.656689,173.023438 C317.672304,177.445335 315.125454,179.65625 312.016064,179.65625 C310.734807,179.65625 309.691849,179.207036 308.887158,178.308594 C308.082466,177.410152 307.680126,176.19532 307.680126,174.664062 C307.680126,172.726553 308.199652,170.539075 309.23872,168.101562 C310.277788,165.66405 311.754336,163.562509 313.668408,161.796875 C315.58248,160.031241 317.250432,159.148438 318.672314,159.148438 C319.547318,159.148438 320.211374,159.425778 320.664501,159.980469 C321.117629,160.535159 321.344189,161.226558 321.344189,162.054688 C321.344189,163.742196 320.500447,165.363273 318.812939,166.917969 C317.12543,168.472664 314.594206,169.968743 311.219189,171.40625 C310.781687,172.765632 310.562939,174.054681 310.562939,175.273438 C310.562939,176.273442 310.758249,177.023435 311.148876,177.523438 C311.539503,178.02344 312.117623,178.273438 312.883251,178.273438 C315.023887,178.273438 316.906681,176.523455 318.531689,173.023438 Z M311.570751,170.210938 C313.586386,169.304683 315.398868,168.054695 317.008251,166.460938 C318.617634,164.86718 319.422314,163.421881 319.422314,162.125 C319.422314,161.531247 319.301221,161.089845 319.059033,160.800781 C318.816844,160.511717 318.453566,160.367188 317.969189,160.367188 C317.031684,160.367188 315.926227,161.277335 314.652783,163.097656 C313.379339,164.917978 312.352005,167.289048 311.570751,170.210938 Z M332.898876,173.84375 C332.898876,175.296882 332.340288,176.6289 331.223095,177.839844 C330.105902,179.050787 328.461387,179.65625 326.289501,179.65625 C324.680118,179.65625 323.473099,179.300785 322.668408,178.589844 C321.863716,177.878903 321.461376,177.117192 321.461376,176.304688 C321.461376,175.867185 321.582469,175.492189 321.824658,175.179688 C322.066846,174.867186 322.375437,174.710938 322.750439,174.710938 C323.594193,174.710938 324.016064,175.156246 324.016064,176.046875 C324.016064,176.250001 323.969189,176.539061 323.875439,176.914062 C323.812939,177.085938 323.781689,177.21875 323.781689,177.3125 C323.781689,177.687502 324.023874,178.011717 324.508251,178.285156 C324.992629,178.558595 325.570748,178.695312 326.242626,178.695312 C327.289507,178.695312 328.242622,178.363285 329.102001,177.699219 C329.961381,177.035153 330.391064,176.117193 330.391064,174.945312 C330.391064,173.929682 329.789507,172.328136 328.586376,170.140625 C327.180119,167.609362 326.477001,165.757818 326.477001,164.585938 C326.477001,163.08593 327.070745,161.820318 328.258251,160.789062 C329.445757,159.757807 330.797306,159.242188 332.312939,159.242188 C333.422319,159.242188 334.371529,159.523435 335.160595,160.085938 C335.949662,160.64844 336.344189,161.249997 336.344189,161.890625 C336.344189,162.718754 336.000442,163.132812 335.312939,163.132812 C334.797311,163.132812 334.422315,162.67188 334.187939,161.75 C333.937938,160.73437 333.258257,160.226562 332.148876,160.226562 C331.258247,160.226562 330.484817,160.468748 329.828564,160.953125 C329.172311,161.437502 328.844189,162.070309 328.844189,162.851562 C328.844189,163.914068 329.367621,165.374991 330.414501,167.234375 C331.398881,168.921883 332.059031,170.210933 332.39497,171.101562 C332.730909,171.992192 332.898876,172.906245 332.898876,173.84375 Z M347.898876,173.84375 C347.898876,175.296882 347.340288,176.6289 346.223095,177.839844 C345.105902,179.050787 343.461387,179.65625 341.289501,179.65625 C339.680118,179.65625 338.473099,179.300785 337.668408,178.589844 C336.863716,177.878903 336.461376,177.117192 336.461376,176.304688 C336.461376,175.867185 336.582469,175.492189 336.824658,175.179688 C337.066846,174.867186 337.375437,174.710938 337.750439,174.710938 C338.594193,174.710938 339.016064,175.156246 339.016064,176.046875 C339.016064,176.250001 338.969189,176.539061 338.875439,176.914062 C338.812939,177.085938 338.781689,177.21875 338.781689,177.3125 C338.781689,177.687502 339.023874,178.011717 339.508251,178.285156 C339.992629,178.558595 340.570748,178.695312 341.242626,178.695312 C342.289507,178.695312 343.242622,178.363285 344.102001,177.699219 C344.961381,177.035153 345.391064,176.117193 345.391064,174.945312 C345.391064,173.929682 344.789507,172.328136 343.586376,170.140625 C342.180119,167.609362 341.477001,165.757818 341.477001,164.585938 C341.477001,163.08593 342.070745,161.820318 343.258251,160.789062 C344.445757,159.757807 345.797306,159.242188 347.312939,159.242188 C348.422319,159.242188 349.371529,159.523435 350.160595,160.085938 C350.949662,160.64844 351.344189,161.249997 351.344189,161.890625 C351.344189,162.718754 351.000442,163.132812 350.312939,163.132812 C349.797311,163.132812 349.422315,162.67188 349.187939,161.75 C348.937938,160.73437 348.258257,160.226562 347.148876,160.226562 C346.258247,160.226562 345.484817,160.468748 344.828564,160.953125 C344.172311,161.437502 343.844189,162.070309 343.844189,162.851562 C343.844189,163.914068 344.367621,165.374991 345.414501,167.234375 C346.398881,168.921883 347.059031,170.210933 347.39497,171.101562 C347.730909,171.992192 347.898876,172.906245 347.898876,173.84375 Z M159.402783,217 L158.090283,217 C158.340284,214.041652 158.991319,211.890632 160.043408,210.546875 C161.095496,209.203118 162.225693,208.53125 163.434033,208.53125 C164.975707,208.53125 166.21007,209.473949 167.137158,211.359375 C168.064246,213.244801 168.527783,216.114564 168.527783,219.96875 C168.527783,224.989608 167.954872,229.583313 166.809033,233.75 C168.85071,231.520822 170.845481,228.687517 172.793408,225.25 C174.741334,221.812483 175.715283,218.885429 175.715283,216.46875 C175.715283,215.322911 175.381953,214.187506 174.715283,213.0625 C174.048613,211.958328 173.715283,211.125003 173.715283,210.5625 C173.715283,210.020831 173.876739,209.546877 174.199658,209.140625 C174.522576,208.734373 174.913197,208.53125 175.371533,208.53125 C176.121536,208.53125 176.736114,208.958329 177.215283,209.8125 C177.694452,210.666671 177.934033,211.927075 177.934033,213.59375 C177.934033,216.093762 177.168415,219.140607 175.637158,222.734375 C174.1059,226.328143 171.861131,229.890607 168.902783,233.421875 C165.944435,236.953143 163.001756,240.140611 160.074658,242.984375 C157.14756,245.828139 154.637168,247.807286 152.543408,248.921875 C150.449647,250.036464 148.371543,250.59375 146.309033,250.59375 C143.663186,250.59375 142.340283,249.833341 142.340283,248.3125 C142.340283,247.687497 142.62153,247.19271 143.184033,246.828125 C143.746535,246.46354 144.34028,246.28125 144.965283,246.28125 C145.444452,246.28125 146.194444,246.416665 147.215283,246.6875 C148.548623,247.062502 149.642362,247.25 150.496533,247.25 C151.746539,247.25 152.970485,246.901045 154.168408,246.203125 C155.36633,245.505205 156.845482,244.296884 158.605908,242.578125 C160.366333,240.859366 161.600696,239.338548 162.309033,238.015625 C163.01737,236.692702 163.647572,234.3646 164.199658,231.03125 C164.751744,227.6979 165.027783,224.114602 165.027783,220.28125 C165.027783,217.364569 164.756952,215.114591 164.215283,213.53125 C163.673613,211.947909 163.006953,211.15625 162.215283,211.15625 C160.694442,211.15625 159.756951,213.104147 159.402783,217 Z M180.309033,226.78125 C180.309033,224.281238 180.89236,221.557306 182.059033,218.609375 C183.225705,215.661444 184.892355,213.270843 187.059033,211.4375 C189.22571,209.604157 191.329856,208.6875 193.371533,208.6875 C195.225709,208.6875 196.751735,209.47395 197.949658,211.046875 C199.14758,212.6198 199.746533,214.749987 199.746533,217.4375 C199.746533,220.687516 199.079873,223.770819 197.746533,226.6875 C196.413193,229.604181 194.741334,231.838534 192.730908,233.390625 C190.720481,234.942716 188.746542,235.71875 186.809033,235.71875 C185.079857,235.71875 183.564247,235.05209 182.262158,233.71875 C180.960068,232.38541 180.309033,230.072933 180.309033,226.78125 Z M183.652783,230.375 C183.652783,231.500006 183.944446,232.458329 184.527783,233.25 C185.111119,234.041671 185.913194,234.4375 186.934033,234.4375 C189.725713,234.4375 192.022565,231.791693 193.824658,226.5 C195.62675,221.208307 196.527783,217.166681 196.527783,214.375 C196.527783,212.937493 196.251744,211.859379 195.699658,211.140625 C195.147572,210.421871 194.319455,210.0625 193.215283,210.0625 C190.611103,210.0625 188.366334,212.5156 186.480908,217.421875 C184.595482,222.32815 183.652783,226.645815 183.652783,230.375 Z M226.527783,228.5625 L227.840283,228.5625 C226.06944,233.437524 223.673631,235.875 220.652783,235.875 C219.631944,235.875 218.866327,235.593753 218.355908,235.03125 C217.845488,234.468747 217.590283,233.625006 217.590283,232.5 C217.590283,230.916659 218.152777,228.385434 219.277783,224.90625 C215.631931,232.218787 212.0278,235.875 208.465283,235.875 C207.152776,235.875 206.121536,235.468754 205.371533,234.65625 C204.621529,233.843746 204.246533,232.833339 204.246533,231.625 C204.246533,230.437494 204.715278,228.468764 205.652783,225.71875 L209.496533,214.5 C210.059035,212.833325 210.340283,211.833335 210.340283,211.5 C210.340283,210.958331 210.069452,210.6875 209.527783,210.6875 C208.215276,210.6875 206.77779,212.447899 205.215283,215.96875 L203.715283,215.96875 C204.54862,213.781239 205.642359,211.994799 206.996533,210.609375 C208.350706,209.223951 209.684026,208.53125 210.996533,208.53125 C211.809037,208.53125 212.501738,208.786456 213.074658,209.296875 C213.647577,209.807294 213.934033,210.572912 213.934033,211.59375 C213.934033,212.32292 213.569453,213.781239 212.840283,215.96875 L208.902783,227.53125 C208.152779,229.781261 207.777783,231.260413 207.777783,231.96875 C207.777783,232.614587 207.923615,233.104165 208.215283,233.4375 C208.506951,233.770835 208.93403,233.9375 209.496533,233.9375 C211.329875,233.9375 213.506937,231.989603 216.027783,228.09375 C218.548629,224.197897 220.965271,218.406288 223.277783,210.71875 L223.809033,208.9375 L227.559033,208.9375 L222.090283,226.875 C221.215278,229.791681 220.777783,231.55208 220.777783,232.15625 C220.777783,232.677086 220.881948,233.067707 221.090283,233.328125 C221.298617,233.588543 221.611114,233.71875 222.027783,233.71875 C223.611124,233.71875 225.111109,232.000017 226.527783,228.5625 Z M247.340283,222.125 L245.902783,222.125 L251.809033,212.65625 C253.538208,209.906236 254.673613,207.958339 255.215283,206.8125 C255.756952,205.666661 256.381946,203.937512 257.090283,201.625 L257.527783,200.125 L261.277783,200.125 L259.152783,207.125 L256.527783,214.5 C259.36113,210.520813 262.048603,208.53125 264.590283,208.53125 C266.131957,208.53125 267.444444,209.244785 268.527783,210.671875 C269.611121,212.098965 270.152783,213.885406 270.152783,216.03125 C270.152783,218.552096 269.506956,221.437484 268.215283,224.6875 C266.92361,227.937516 265.095503,230.614573 262.730908,232.71875 C260.366312,234.822927 258.006961,235.875 255.652783,235.875 C253.402771,235.875 251.975702,234.812511 251.371533,232.6875 L247.715283,244.78125 C247.256947,246.281257 247.027783,247.197915 247.027783,247.53125 C247.027783,247.885418 247.178823,248.187499 247.480908,248.4375 C247.782992,248.687501 248.663192,248.8125 250.121533,248.8125 L251.527783,248.8125 L251.090283,250.1875 L238.027783,250.1875 L238.465283,248.8125 L239.152783,248.8125 C240.986125,248.8125 242.079864,248.687501 242.434033,248.4375 C242.788201,248.187499 243.329862,246.885428 244.059033,244.53125 L250.559033,223.0625 C251.93404,218.583311 253.517357,214.01044 255.309033,209.34375 C255.100698,209.635418 254.54862,210.572909 253.652783,212.15625 C253.548615,212.322917 253.215285,212.854162 252.652783,213.75 L247.340283,222.125 Z M253.121533,226.90625 C252.55903,228.760426 252.277783,230.093746 252.277783,230.90625 C252.277783,231.927088 252.55903,232.791663 253.121533,233.5 C253.684035,234.208337 254.475694,234.5625 255.496533,234.5625 C257.017374,234.5625 258.57465,233.692717 260.168408,231.953125 C261.762166,230.213533 263.220484,227.317729 264.543408,223.265625 C265.866331,219.213521 266.527783,216.166677 266.527783,214.125 C266.527783,212.79166 266.319451,211.79167 265.902783,211.125 C265.486114,210.45833 264.86112,210.125 264.027783,210.125 C262.902777,210.125 261.408,210.947908 259.543408,212.59375 C257.678815,214.239592 255.954874,217.645807 254.371533,222.8125 L253.121533,226.90625 Z M296.527783,228.5625 L297.840283,228.5625 C296.06944,233.437524 293.673631,235.875 290.652783,235.875 C289.631944,235.875 288.866327,235.593753 288.355908,235.03125 C287.845488,234.468747 287.590283,233.625006 287.590283,232.5 C287.590283,230.916659 288.152777,228.385434 289.277783,224.90625 C285.631931,232.218787 282.0278,235.875 278.465283,235.875 C277.152776,235.875 276.121536,235.468754 275.371533,234.65625 C274.621529,233.843746 274.246533,232.833339 274.246533,231.625 C274.246533,230.437494 274.715278,228.468764 275.652783,225.71875 L279.496533,214.5 C280.059035,212.833325 280.340283,211.833335 280.340283,211.5 C280.340283,210.958331 280.069452,210.6875 279.527783,210.6875 C278.215276,210.6875 276.77779,212.447899 275.215283,215.96875 L273.715283,215.96875 C274.54862,213.781239 275.642359,211.994799 276.996533,210.609375 C278.350706,209.223951 279.684026,208.53125 280.996533,208.53125 C281.809037,208.53125 282.501738,208.786456 283.074658,209.296875 C283.647577,209.807294 283.934033,210.572912 283.934033,211.59375 C283.934033,212.32292 283.569453,213.781239 282.840283,215.96875 L278.902783,227.53125 C278.152779,229.781261 277.777783,231.260413 277.777783,231.96875 C277.777783,232.614587 277.923615,233.104165 278.215283,233.4375 C278.506951,233.770835 278.93403,233.9375 279.496533,233.9375 C281.329875,233.9375 283.506937,231.989603 286.027783,228.09375 C288.548629,224.197897 290.965271,218.406288 293.277783,210.71875 L293.809033,208.9375 L297.559033,208.9375 L292.090283,226.875 C291.215278,229.791681 290.777783,231.55208 290.777783,232.15625 C290.777783,232.677086 290.881948,233.067707 291.090283,233.328125 C291.298617,233.588543 291.611114,233.71875 292.027783,233.71875 C293.611124,233.71875 295.111109,232.000017 296.527783,228.5625 Z M314.590283,228.125 C314.590283,230.06251 313.845498,231.838534 312.355908,233.453125 C310.866317,235.067716 308.67363,235.875 305.777783,235.875 C303.631939,235.875 302.02258,235.401046 300.949658,234.453125 C299.876736,233.505204 299.340283,232.489589 299.340283,231.40625 C299.340283,230.822914 299.501739,230.322919 299.824658,229.90625 C300.147576,229.489581 300.55903,229.28125 301.059033,229.28125 C302.184038,229.28125 302.746533,229.874994 302.746533,231.0625 C302.746533,231.333335 302.684033,231.718748 302.559033,232.21875 C302.475699,232.447918 302.434033,232.624999 302.434033,232.75 C302.434033,233.250002 302.756946,233.68229 303.402783,234.046875 C304.048619,234.41146 304.819445,234.59375 305.715283,234.59375 C307.111123,234.59375 308.381944,234.151046 309.527783,233.265625 C310.673622,232.380204 311.246533,231.156258 311.246533,229.59375 C311.246533,228.239577 310.444457,226.104181 308.840283,223.1875 C306.965273,219.812483 306.027783,217.343758 306.027783,215.78125 C306.027783,213.78124 306.819441,212.093757 308.402783,210.71875 C309.986124,209.343743 311.788189,208.65625 313.809033,208.65625 C315.288207,208.65625 316.553819,209.031246 317.605908,209.78125 C318.657996,210.531254 319.184033,211.333329 319.184033,212.1875 C319.184033,213.291672 318.725704,213.84375 317.809033,213.84375 C317.121529,213.84375 316.621534,213.229173 316.309033,212 C315.975698,210.645827 315.069457,209.96875 313.590283,209.96875 C312.402777,209.96875 311.371537,210.291663 310.496533,210.9375 C309.621528,211.583337 309.184033,212.427078 309.184033,213.46875 C309.184033,214.885424 309.881942,216.833321 311.277783,219.3125 C312.590289,221.562511 313.470489,223.281244 313.918408,224.46875 C314.366327,225.656256 314.590283,226.874994 314.590283,228.125 Z M322.809033,235.46875 L319.090283,235.46875 L330.059033,199.375 C330.684036,197.333323 330.996533,196.145835 330.996533,195.8125 C330.996533,195.333331 330.855909,194.989584 330.574658,194.78125 C330.293406,194.572916 329.600705,194.46875 328.496533,194.46875 L327.496533,194.46875 L327.871533,193.15625 C331.184049,193.072916 333.642358,192.69792 335.246533,192.03125 L336.027783,192.03125 L328.934033,215.34375 C332.684051,210.802061 336.100684,208.53125 339.184033,208.53125 C340.579873,208.53125 341.621529,208.822914 342.309033,209.40625 C342.996536,209.989586 343.340283,210.874994 343.340283,212.0625 C343.340283,213.000005 342.725705,215.229149 341.496533,218.75 L338.746533,226.59375 C337.684027,229.656265 337.152783,231.427081 337.152783,231.90625 C337.152783,232.427086 337.256948,232.822915 337.465283,233.09375 C337.673617,233.364585 337.986114,233.5 338.402783,233.5 C339.152786,233.5 339.996528,233.052088 340.934033,232.15625 C341.871537,231.260412 342.673613,230.14584 343.340283,228.8125 L344.871533,228.8125 C343.809027,230.937511 342.548623,232.645827 341.090283,233.9375 C339.631942,235.229173 338.246539,235.875 336.934033,235.875 C335.975695,235.875 335.152786,235.520837 334.465283,234.8125 C333.777779,234.104163 333.434033,233.166673 333.434033,232 C333.434033,230.749994 334.01736,228.531266 335.184033,225.34375 L337.840283,218.125 C339.069455,214.812483 339.684033,212.729171 339.684033,211.875 C339.684033,211.354164 339.543409,210.963543 339.262158,210.703125 C338.980906,210.442707 338.548619,210.3125 337.965283,210.3125 C337.027778,210.3125 335.923622,210.692705 334.652783,211.453125 C333.381943,212.213545 332.05904,213.484366 330.684033,215.265625 C329.309026,217.046884 328.303827,218.718742 327.668408,220.28125 C327.032988,221.843758 326.204871,224.333316 325.184033,227.75 L322.809033,235.46875 Z M118.340283,277.5 L117.355908,277.5 C117.543409,275.281239 118.031685,273.667974 118.820751,272.660156 C119.609818,271.652339 120.457466,271.148438 121.36372,271.148438 C122.519976,271.148438 123.445748,271.855462 124.141064,273.269531 C124.83638,274.683601 125.184033,276.835923 125.184033,279.726562 C125.184033,283.492206 124.754349,286.937484 123.89497,290.0625 C125.426228,288.390617 126.922307,286.265638 128.383251,283.6875 C129.844196,281.109362 130.574658,278.914072 130.574658,277.101562 C130.574658,276.242183 130.32466,275.390629 129.824658,274.546875 C129.324655,273.718746 129.074658,273.093752 129.074658,272.671875 C129.074658,272.265623 129.19575,271.910158 129.437939,271.605469 C129.680128,271.30078 129.973093,271.148438 130.316845,271.148438 C130.879348,271.148438 131.340281,271.468747 131.699658,272.109375 C132.059034,272.750003 132.23872,273.695306 132.23872,274.945312 C132.23872,276.820322 131.664507,279.105455 130.516064,281.800781 C129.367621,284.496107 127.684044,287.167956 125.465283,289.816406 C123.246522,292.464857 121.039512,294.855458 118.844189,296.988281 C116.648865,299.121104 114.766072,300.605465 113.195751,301.441406 C111.625431,302.277348 110.066853,302.695312 108.51997,302.695312 C106.535585,302.695312 105.543408,302.125006 105.543408,300.984375 C105.543408,300.515623 105.754343,300.144533 106.17622,299.871094 C106.598097,299.597655 107.043405,299.460938 107.512158,299.460938 C107.871534,299.460938 108.434029,299.562499 109.199658,299.765625 C110.199663,300.046876 111.019967,300.1875 111.660595,300.1875 C112.5981,300.1875 113.516059,299.925784 114.414501,299.402344 C115.312943,298.878904 116.422307,297.972663 117.742626,296.683594 C119.062946,295.394525 119.988717,294.253911 120.51997,293.261719 C121.051223,292.269526 121.523874,290.52345 121.937939,288.023438 C122.352003,285.523425 122.559033,282.835952 122.559033,279.960938 C122.559033,277.773427 122.35591,276.085943 121.949658,274.898438 C121.543406,273.710932 121.043411,273.117188 120.449658,273.117188 C119.309027,273.117188 118.605909,274.57811 118.340283,277.5 Z M134.01997,284.835938 C134.01997,282.960928 134.457466,280.91798 135.33247,278.707031 C136.207475,276.496083 137.457462,274.703132 139.08247,273.328125 C140.707478,271.953118 142.285587,271.265625 143.816845,271.265625 C145.207477,271.265625 146.351997,271.855463 147.250439,273.035156 C148.148881,274.21485 148.598095,275.81249 148.598095,277.828125 C148.598095,280.265637 148.0981,282.578114 147.098095,284.765625 C146.09809,286.953136 144.844196,288.6289 143.336376,289.792969 C141.828556,290.957037 140.348102,291.539062 138.89497,291.539062 C137.598089,291.539062 136.461381,291.039067 135.484814,290.039062 C134.508247,289.039058 134.01997,287.3047 134.01997,284.835938 Z M136.527783,287.53125 C136.527783,288.375004 136.74653,289.093747 137.184033,289.6875 C137.621535,290.281253 138.223091,290.578125 138.98872,290.578125 C141.082481,290.578125 142.80512,288.59377 144.156689,284.625 C145.508258,280.65623 146.184033,277.62501 146.184033,275.53125 C146.184033,274.45312 145.977003,273.644534 145.562939,273.105469 C145.148874,272.566404 144.527787,272.296875 143.699658,272.296875 C141.746523,272.296875 140.062946,274.1367 138.648876,277.816406 C137.234807,281.496112 136.527783,284.734361 136.527783,287.53125 Z M168.684033,286.171875 L169.668408,286.171875 C168.340276,289.828143 166.543419,291.65625 164.277783,291.65625 C163.512154,291.65625 162.937941,291.445315 162.555126,291.023438 C162.172312,290.60156 161.980908,289.968754 161.980908,289.125 C161.980908,287.937494 162.402778,286.039076 163.246533,283.429688 C160.512144,288.91409 157.809046,291.65625 155.137158,291.65625 C154.152778,291.65625 153.379348,291.351566 152.816845,290.742188 C152.254342,290.132809 151.973095,289.375005 151.973095,288.46875 C151.973095,287.578121 152.324654,286.101573 153.027783,284.039062 L155.910595,275.625 C156.332472,274.374994 156.543408,273.625001 156.543408,273.375 C156.543408,272.968748 156.340285,272.765625 155.934033,272.765625 C154.949653,272.765625 153.871539,274.085924 152.699658,276.726562 L151.574658,276.726562 C152.199661,275.085929 153.019965,273.746099 154.035595,272.707031 C155.051225,271.667964 156.051215,271.148438 157.035595,271.148438 C157.644973,271.148438 158.164499,271.339842 158.594189,271.722656 C159.023879,272.105471 159.23872,272.679684 159.23872,273.445312 C159.23872,273.99219 158.965285,275.085929 158.418408,276.726562 L155.465283,285.398438 C154.90278,287.085946 154.621533,288.19531 154.621533,288.726562 C154.621533,289.21094 154.730907,289.578124 154.949658,289.828125 C155.168409,290.078126 155.488718,290.203125 155.910595,290.203125 C157.285602,290.203125 158.918398,288.742202 160.809033,285.820312 C162.699667,282.898423 164.512149,278.554716 166.246533,272.789062 L166.64497,271.453125 L169.45747,271.453125 L165.355908,284.90625 C164.699654,287.093761 164.371533,288.41406 164.371533,288.867188 C164.371533,289.257814 164.449657,289.55078 164.605908,289.746094 C164.762158,289.941407 164.996531,290.039062 165.309033,290.039062 C166.496539,290.039062 167.621527,288.750013 168.684033,286.171875 Z M172.64497,277.476562 L171.61372,277.476562 C172.269973,275.726554 173.094184,274.234381 174.086376,273 C175.078569,271.765619 176.059028,271.148438 177.027783,271.148438 C177.699661,271.148438 178.199656,271.417966 178.527783,271.957031 C178.855909,272.496096 179.01997,273.312495 179.01997,274.40625 C179.01997,275.765632 178.668411,277.703112 177.965283,280.21875 C178.059033,280.062499 178.316843,279.500005 178.73872,278.53125 C179.894976,275.921862 180.910591,274.039068 181.785595,272.882812 C182.6606,271.726557 183.535591,271.148438 184.410595,271.148438 C184.957473,271.148438 185.394969,271.320311 185.723095,271.664062 C186.051222,272.007814 186.215283,272.421873 186.215283,272.90625 C186.215283,273.375002 186.078565,273.757811 185.805126,274.054688 C185.531688,274.351564 185.207472,274.5 184.83247,274.5 C184.410593,274.5 183.98091,274.24219 183.543408,273.726562 C183.371532,273.523436 183.199659,273.421875 183.027783,273.421875 C182.246529,273.421875 181.043416,275.300762 179.418408,279.058594 C177.7934,282.816425 176.480913,286.351546 175.480908,289.664062 L174.965283,291.351562 L172.152783,291.351562 L175.879345,278.929688 C176.582474,276.554676 176.934033,274.945317 176.934033,274.101562 C176.934033,273.648435 176.875439,273.312501 176.758251,273.09375 C176.641063,272.874999 176.465284,272.765625 176.230908,272.765625 C175.71528,272.765625 175.070755,273.320307 174.297314,274.429688 C173.523873,275.539068 172.973097,276.554683 172.64497,277.476562 Z M194.887158,285.84375 C194.887158,287.296882 194.328569,288.6289 193.211376,289.839844 C192.094183,291.050787 190.449669,291.65625 188.277783,291.65625 C186.6684,291.65625 185.46138,291.300785 184.656689,290.589844 C183.851997,289.878903 183.449658,289.117192 183.449658,288.304688 C183.449658,287.867185 183.57075,287.492189 183.812939,287.179688 C184.055128,286.867186 184.363718,286.710938 184.73872,286.710938 C185.582474,286.710938 186.004345,287.156246 186.004345,288.046875 C186.004345,288.250001 185.957471,288.539061 185.86372,288.914062 C185.80122,289.085938 185.76997,289.21875 185.76997,289.3125 C185.76997,289.687502 186.012155,290.011717 186.496533,290.285156 C186.98091,290.558595 187.559029,290.695312 188.230908,290.695312 C189.277788,290.695312 190.230903,290.363285 191.090283,289.699219 C191.949662,289.035153 192.379345,288.117193 192.379345,286.945312 C192.379345,285.929682 191.777789,284.328136 190.574658,282.140625 C189.168401,279.609362 188.465283,277.757818 188.465283,276.585938 C188.465283,275.08593 189.059027,273.820318 190.246533,272.789062 C191.434039,271.757807 192.785588,271.242188 194.30122,271.242188 C195.410601,271.242188 196.35981,271.523435 197.148876,272.085938 C197.937943,272.64844 198.33247,273.249997 198.33247,273.890625 C198.33247,274.718754 197.988724,275.132812 197.30122,275.132812 C196.785593,275.132812 196.410596,274.67188 196.17622,273.75 C195.926219,272.73437 195.246538,272.226562 194.137158,272.226562 C193.246528,272.226562 192.473098,272.468748 191.816845,272.953125 C191.160592,273.437502 190.83247,274.070309 190.83247,274.851562 C190.83247,275.914068 191.355902,277.374991 192.402783,279.234375 C193.387163,280.921883 194.047312,282.210933 194.383251,283.101562 C194.719191,283.992192 194.887158,284.906245 194.887158,285.84375 Z M210.027783,285.023438 L211.152783,285.023438 C209.168398,289.445335 206.621548,291.65625 203.512158,291.65625 C202.230901,291.65625 201.187943,291.207036 200.383251,290.308594 C199.57856,289.410152 199.17622,288.19532 199.17622,286.664062 C199.17622,284.726553 199.695746,282.539075 200.734814,280.101562 C201.773882,277.66405 203.250429,275.562509 205.164501,273.796875 C207.078573,272.031241 208.746526,271.148438 210.168408,271.148438 C211.043412,271.148438 211.707468,271.425778 212.160595,271.980469 C212.613722,272.535159 212.840283,273.226558 212.840283,274.054688 C212.840283,275.742196 211.996541,277.363273 210.309033,278.917969 C208.621524,280.472664 206.0903,281.968743 202.715283,283.40625 C202.27778,284.765632 202.059033,286.054681 202.059033,287.273438 C202.059033,288.273442 202.254343,289.023435 202.64497,289.523438 C203.035597,290.02344 203.613716,290.273438 204.379345,290.273438 C206.519981,290.273438 208.402775,288.523455 210.027783,285.023438 Z M203.066845,282.210938 C205.08248,281.304683 206.894962,280.054695 208.504345,278.460938 C210.113728,276.86718 210.918408,275.421881 210.918408,274.125 C210.918408,273.531247 210.797315,273.089845 210.555126,272.800781 C210.312938,272.511717 209.94966,272.367188 209.465283,272.367188 C208.527778,272.367188 207.42232,273.277335 206.148876,275.097656 C204.875433,276.917978 203.848099,279.289048 203.066845,282.210938 Z M222.777783,285.375 L223.809033,285.375 C222.215275,289.562521 220.16842,291.65625 217.668408,291.65625 C216.809028,291.65625 216.121535,291.371097 215.605908,290.800781 C215.09028,290.230466 214.83247,289.515629 214.83247,288.65625 C214.83247,287.812496 215.340278,285.726579 216.355908,282.398438 L221.840283,264.304688 C222.309035,262.77343 222.543408,261.882814 222.543408,261.632812 C222.543408,261.257811 222.43794,260.992188 222.227001,260.835938 C222.016063,260.679687 221.488724,260.601562 220.64497,260.601562 L219.730908,260.601562 L220.035595,259.617188 C222.613733,259.570312 224.512152,259.289065 225.730908,258.773438 L226.316845,258.773438 L218.76997,283.617188 C218.660595,284.007814 218.434034,284.718745 218.090283,285.75 C217.637155,287.109382 217.410595,288.140621 217.410595,288.84375 C217.410595,289.312502 217.500438,289.664061 217.680126,289.898438 C217.859815,290.132814 218.129343,290.25 218.48872,290.25 C219.019973,290.25 219.684029,289.882816 220.480908,289.148438 C221.277787,288.414059 222.043404,287.156259 222.777783,285.375 Z M238.55122,271.804688 L238.246533,272.835938 L234.14497,272.835938 L230.512158,286.546875 C228.855899,292.750031 227.043417,296.914052 225.074658,299.039062 C223.105898,301.164073 220.941857,302.226562 218.58247,302.226562 C217.269964,302.226562 216.086382,301.921878 215.031689,301.3125 C213.976996,300.703122 213.449658,299.945317 213.449658,299.039062 C213.449658,298.523435 213.613719,298.101564 213.941845,297.773438 C214.269972,297.445311 214.65278,297.28125 215.090283,297.28125 C215.60591,297.28125 216.019969,297.464842 216.33247,297.832031 C216.644972,298.199221 216.80122,298.593748 216.80122,299.015625 C216.80122,299.125001 216.777783,299.320311 216.730908,299.601562 L216.684033,300 C216.684033,300.296876 216.871531,300.570311 217.246533,300.820312 C217.621535,301.070314 218.074655,301.195312 218.605908,301.195312 C220.480917,301.195312 222.059026,300.195322 223.340283,298.195312 C224.621539,296.195303 226.07465,292.18753 227.699658,286.171875 L231.285595,272.835938 L226.668408,272.835938 L226.973095,271.804688 L231.61372,271.804688 C231.660595,271.617187 231.785594,271.164066 231.98872,270.445312 C234.098106,262.664024 237.512134,258.773438 242.230908,258.773438 C243.574664,258.773438 244.601998,259.07031 245.312939,259.664062 C246.02388,260.257815 246.379345,260.843747 246.379345,261.421875 C246.379345,262.250004 245.988724,262.664062 245.20747,262.664062 C244.582467,262.664062 243.918411,262.125005 243.215283,261.046875 C242.71528,260.265621 242.113724,259.875 241.410595,259.875 C240.34809,259.875 239.332475,260.363276 238.36372,261.339844 C237.394965,262.316411 236.324664,264.968728 235.152783,269.296875 L234.473095,271.804688 L238.55122,271.804688 Z M270.004345,271.804688 L269.67622,272.835938 L266.160595,272.835938 L263.066845,283.078125 C262.03559,286.437517 261.51997,288.390622 261.51997,288.9375 C261.51997,289.312502 261.602001,289.597655 261.766064,289.792969 C261.930127,289.988282 262.168406,290.085938 262.480908,290.085938 C263.04341,290.085938 263.777778,289.554693 264.684033,288.492188 C265.590287,287.429682 266.402779,286.093758 267.121533,284.484375 L268.152783,284.484375 C267.199653,286.812512 266.10982,288.589838 264.883251,289.816406 C263.656683,291.042975 262.5356,291.65625 261.51997,291.65625 C260.723091,291.65625 260.086379,291.375003 259.609814,290.8125 C259.133249,290.249997 258.89497,289.539067 258.89497,288.679688 C258.89497,287.945309 259.37934,285.992203 260.348095,282.820312 L263.371533,272.835938 L260.137158,272.835938 L260.465283,271.804688 L263.67622,271.804688 L265.83247,264.703125 L268.64497,264.703125 L266.48872,271.804688 L270.004345,271.804688 Z M269.910595,284.835938 C269.910595,282.960928 270.348091,280.91798 271.223095,278.707031 C272.0981,276.496083 273.348087,274.703132 274.973095,273.328125 C276.598103,271.953118 278.176212,271.265625 279.70747,271.265625 C281.098102,271.265625 282.242622,271.855463 283.141064,273.035156 C284.039506,274.21485 284.48872,275.81249 284.48872,277.828125 C284.48872,280.265637 283.988725,282.578114 282.98872,284.765625 C281.988715,286.953136 280.734821,288.6289 279.227001,289.792969 C277.719181,290.957037 276.238727,291.539062 274.785595,291.539062 C273.488714,291.539062 272.352006,291.039067 271.375439,290.039062 C270.398872,289.039058 269.910595,287.3047 269.910595,284.835938 Z M272.418408,287.53125 C272.418408,288.375004 272.637155,289.093747 273.074658,289.6875 C273.51216,290.281253 274.113716,290.578125 274.879345,290.578125 C276.973106,290.578125 278.695745,288.59377 280.047314,284.625 C281.398883,280.65623 282.074658,277.62501 282.074658,275.53125 C282.074658,274.45312 281.867628,273.644534 281.453564,273.105469 C281.039499,272.566404 280.418412,272.296875 279.590283,272.296875 C277.637148,272.296875 275.953571,274.1367 274.539501,277.816406 C273.125432,281.496112 272.418408,284.734361 272.418408,287.53125 Z M311.01997,271.804688 L310.691845,272.835938 L307.17622,272.835938 L304.08247,283.078125 C303.051215,286.437517 302.535595,288.390622 302.535595,288.9375 C302.535595,289.312502 302.617626,289.597655 302.781689,289.792969 C302.945752,289.988282 303.184031,290.085938 303.496533,290.085938 C304.059035,290.085938 304.793403,289.554693 305.699658,288.492188 C306.605912,287.429682 307.418404,286.093758 308.137158,284.484375 L309.168408,284.484375 C308.215278,286.812512 307.125445,288.589838 305.898876,289.816406 C304.672308,291.042975 303.551225,291.65625 302.535595,291.65625 C301.738716,291.65625 301.102004,291.375003 300.625439,290.8125 C300.148874,290.249997 299.910595,289.539067 299.910595,288.679688 C299.910595,287.945309 300.394965,285.992203 301.36372,282.820312 L304.387158,272.835938 L301.152783,272.835938 L301.480908,271.804688 L304.691845,271.804688 L306.848095,264.703125 L309.660595,264.703125 L307.504345,271.804688 L311.01997,271.804688 Z M312.285595,291.351562 L309.496533,291.351562 L317.723095,264.28125 C318.191847,262.749992 318.42622,261.859376 318.42622,261.609375 C318.42622,261.249998 318.320752,260.992188 318.109814,260.835938 C317.898875,260.679687 317.379349,260.601562 316.55122,260.601562 L315.80122,260.601562 L316.08247,259.617188 C318.566858,259.554687 320.410589,259.27344 321.61372,258.773438 L322.199658,258.773438 L316.879345,276.257812 C319.691859,272.851545 322.254334,271.148438 324.566845,271.148438 C325.613725,271.148438 326.394968,271.367185 326.910595,271.804688 C327.426223,272.24219 327.684033,272.906246 327.684033,273.796875 C327.684033,274.500004 327.2231,276.171862 326.30122,278.8125 L324.23872,284.695312 C323.441841,286.992199 323.043408,288.320311 323.043408,288.679688 C323.043408,289.070314 323.121532,289.367186 323.277783,289.570312 C323.434033,289.773439 323.668406,289.875 323.980908,289.875 C324.54341,289.875 325.176217,289.539066 325.879345,288.867188 C326.582474,288.195309 327.18403,287.35938 327.684033,286.359375 L328.83247,286.359375 C328.035591,287.953133 327.090288,289.23437 325.996533,290.203125 C324.902777,291.17188 323.863725,291.65625 322.879345,291.65625 C322.160592,291.65625 321.54341,291.390628 321.027783,290.859375 C320.512155,290.328122 320.254345,289.625004 320.254345,288.75 C320.254345,287.812495 320.691841,286.148449 321.566845,283.757812 L323.559033,278.34375 C324.480912,275.859363 324.941845,274.296878 324.941845,273.65625 C324.941845,273.265623 324.836377,272.972657 324.625439,272.777344 C324.4145,272.58203 324.090285,272.484375 323.652783,272.484375 C322.949654,272.484375 322.121537,272.769528 321.168408,273.339844 C320.215278,273.910159 319.2231,274.863275 318.191845,276.199219 C317.16059,277.535163 316.406691,278.789057 315.930126,279.960938 C315.453562,281.132818 314.832474,282.999987 314.066845,285.5625 L312.285595,291.351562 Z M341.254345,285.023438 L342.379345,285.023438 C340.39496,289.445335 337.848111,291.65625 334.73872,291.65625 C333.457464,291.65625 332.414505,291.207036 331.609814,290.308594 C330.805122,289.410152 330.402783,288.19532 330.402783,286.664062 C330.402783,284.726553 330.922309,282.539075 331.961376,280.101562 C333.000444,277.66405 334.476992,275.562509 336.391064,273.796875 C338.305136,272.031241 339.973088,271.148438 341.39497,271.148438 C342.269975,271.148438 342.93403,271.425778 343.387158,271.980469 C343.840285,272.535159 344.066845,273.226558 344.066845,274.054688 C344.066845,275.742196 343.223104,277.363273 341.535595,278.917969 C339.848087,280.472664 337.316862,281.968743 333.941845,283.40625 C333.504343,284.765632 333.285595,286.054681 333.285595,287.273438 C333.285595,288.273442 333.480906,289.023435 333.871533,289.523438 C334.26216,290.02344 334.840279,290.273438 335.605908,290.273438 C337.746543,290.273438 339.629337,288.523455 341.254345,285.023438 Z M334.293408,282.210938 C336.309043,281.304683 338.121525,280.054695 339.730908,278.460938 C341.340291,276.86718 342.14497,275.421881 342.14497,274.125 C342.14497,273.531247 342.023878,273.089845 341.781689,272.800781 C341.5395,272.511717 341.176223,272.367188 340.691845,272.367188 C339.75434,272.367188 338.648883,273.277335 337.375439,275.097656 C336.101995,276.917978 335.074662,279.289048 334.293408,282.210938 Z M372.684033,286.570312 L373.691845,286.570312 C373.019967,288.023445 372.148882,289.23437 371.078564,290.203125 C370.008246,291.17188 368.965288,291.65625 367.949658,291.65625 C367.277779,291.65625 366.680129,291.414065 366.156689,290.929688 C365.633249,290.44531 365.371533,289.757817 365.371533,288.867188 C365.371533,288.070309 365.754341,286.554699 366.51997,284.320312 L368.723095,277.945312 C369.379348,276.039053 369.70747,274.843752 369.70747,274.359375 C369.70747,273.843747 369.602002,273.457033 369.391064,273.199219 C369.180125,272.941405 368.863722,272.8125 368.441845,272.8125 C367.098088,272.8125 365.516073,273.929676 363.695751,276.164062 C361.87543,278.398449 359.980917,282.773405 358.012158,289.289062 L357.379345,291.328125 L354.590283,291.328125 L358.410595,278.765625 C359.066848,276.578114 359.39497,275.101566 359.39497,274.335938 C359.39497,273.867185 359.305127,273.515626 359.125439,273.28125 C358.945751,273.046874 358.66841,272.929688 358.293408,272.929688 C357.199652,272.929688 355.723104,274.08202 353.86372,276.386719 C352.004336,278.691418 350.152792,282.906219 348.309033,289.03125 L347.605908,291.328125 L344.793408,291.328125 L349.08247,277.265625 C349.660598,275.34374 349.949658,274.210939 349.949658,273.867188 C349.949658,273.617186 349.906689,273.429688 349.820751,273.304688 C349.734813,273.179687 349.598096,273.117188 349.410595,273.117188 C349.004343,273.117188 348.46138,273.445309 347.781689,274.101562 C347.101998,274.757816 346.426224,275.695306 345.754345,276.914062 L344.699658,276.914062 C345.449661,275.33593 346.371527,274.035161 347.465283,273.011719 C348.559038,271.988276 349.527778,271.476562 350.371533,271.476562 C350.980911,271.476562 351.461375,271.679685 351.812939,272.085938 C352.164503,272.49219 352.340283,273.039059 352.340283,273.726562 C352.340283,274.867193 351.863725,276.796861 350.910595,279.515625 C351.957475,277.312489 353.26215,275.41407 354.824658,273.820312 C356.387165,272.226555 357.801214,271.429688 359.066845,271.429688 C359.9731,271.429688 360.648874,271.691404 361.094189,272.214844 C361.539504,272.738284 361.762158,273.523432 361.762158,274.570312 C361.762158,275.851569 361.441848,277.398428 360.80122,279.210938 C362.129352,276.492174 363.535588,274.515631 365.01997,273.28125 C366.504353,272.046869 367.848089,271.429688 369.05122,271.429688 C369.957475,271.429688 370.71528,271.730466 371.324658,272.332031 C371.934036,272.933597 372.23872,273.749995 372.23872,274.78125 C372.23872,275.421878 372.187939,275.949217 372.086376,276.363281 C371.984813,276.777346 371.605911,277.96874 370.949658,279.9375 L369.121533,285.210938 C368.371529,287.351573 367.996533,288.671873 367.996533,289.171875 C367.996533,289.515627 368.070751,289.777343 368.219189,289.957031 C368.367627,290.13672 368.582469,290.226562 368.86372,290.226562 C369.410598,290.226562 370.004342,289.921878 370.64497,289.3125 C371.285598,288.703122 371.965279,287.789069 372.684033,286.570312 Z M375.42622,289.195312 C375.42622,288.523434 375.668405,287.945315 376.152783,287.460938 C376.63716,286.97656 377.223092,286.734375 377.910595,286.734375 C378.582474,286.734375 379.160593,286.97656 379.64497,287.460938 C380.129348,287.945315 380.371533,288.523434 380.371533,289.195312 C380.371533,289.882816 380.129348,290.468748 379.64497,290.953125 C379.160593,291.437502 378.582474,291.679688 377.910595,291.679688 C377.207467,291.679688 376.617629,291.433596 376.141064,290.941406 C375.664499,290.449216 375.42622,289.867191 375.42622,289.195312 Z" id="You-will-never-know" fill="#003057"></path>
            </g>
        </g>
    </g>
</svg>