<?xml version="1.0" encoding="UTF-8"?>
<svg width="503px" height="259px" viewBox="0 0 503 259" version="1.1" xmlns="http://www.w3.org/2000/svg" xmlns:xlink="http://www.w3.org/1999/xlink">
    <!-- Generator: Sketch 47.1 (45422) - http://www.bohemiancoding.com/sketch -->
    <title>dt_quote02</title>
    <desc>Created with Sketch.</desc>
    <defs></defs>
    <g id="Symbols" stroke="none" stroke-width="1" fill="none" fill-rule="evenodd">
        <g id="dt_quote02">
            <g id="Group" transform="translate(1.000000, 1.000000)">
                <path d="M501,256 L5.68434189e-14,256" id="Line-Copy-3" stroke="#FFFFFF" stroke-width="3"></path>
                <path d="M501,1 L5.68434189e-14,1" id="Line-Copy-5" stroke="#FFFFFF" stroke-width="3"></path>
                <path d="M183.58325,69.375 L183.14575,70.71875 C181.87491,70.71875 180.973878,70.848957 180.442625,71.109375 C179.911372,71.369793 179.515543,71.7395809 179.255125,72.21875 C178.994707,72.6979191 178.604086,73.8229078 178.08325,75.59375 L175.20825,85.0625 C173.749909,83.7499934 172.802002,83.09375 172.3645,83.09375 C172.156166,83.09375 171.906168,83.2083322 171.6145,83.4375 C168.051982,86.3125144 164.30202,87.75 160.3645,87.75 C156.156146,87.75 152.713472,86.2604316 150.036375,83.28125 C147.359278,80.3020684 146.02075,76.3646078 146.02075,71.46875 C146.02075,64.6562159 148.369685,58.3541956 153.067625,52.5625 C157.765565,46.7708044 163.4478,43.875 170.1145,43.875 C175.052025,43.875 178.697822,45.7187316 181.052,49.40625 L183.1145,45.5 L184.427,45.5 L181.83325,58.21875 L180.552,58.21875 C180.635334,57.2604119 180.677,56.4062538 180.677,55.65625 C180.677,53.3437384 180.322837,51.484382 179.6145,50.078125 C178.906163,48.671868 177.760341,47.4947964 176.177,46.546875 C174.593659,45.5989536 172.791593,45.125 170.77075,45.125 C168.354071,45.125 166.046803,45.8177014 163.848875,47.203125 C161.650947,48.5885486 159.708258,50.5468623 158.02075,53.078125 C156.333242,55.6093877 154.807215,59.005187 153.442625,63.265625 C152.078035,67.526063 151.39575,71.3229 151.39575,74.65625 C151.39575,78.7812706 152.36449,81.7708241 154.302,83.625 C156.23951,85.4791759 158.57282,86.40625 161.302,86.40625 C166.468693,86.40625 169.947824,83.5000291 171.7395,77.6875 L172.177,76.25 C172.656169,74.6874922 172.89575,73.6354194 172.89575,73.09375 C172.89575,71.5729091 171.552013,70.8125 168.8645,70.8125 L167.677,70.8125 L168.1145,69.375 L183.58325,69.375 Z M184.2395,78.78125 C184.2395,76.2812375 184.822828,73.5573064 185.9895,70.609375 C187.156173,67.6614436 188.822823,65.2708425 190.9895,63.4375 C193.156178,61.6041575 195.260323,60.6875 197.302,60.6875 C199.156176,60.6875 200.682202,61.4739505 201.880125,63.046875 C203.078048,64.6197995 203.677,66.7499866 203.677,69.4375 C203.677,72.6875163 203.01034,75.7708187 201.677,78.6875 C200.34366,81.6041813 198.671802,83.8385339 196.661375,85.390625 C194.650948,86.9427161 192.67701,87.71875 190.7395,87.71875 C189.010325,87.71875 187.494715,87.05209 186.192625,85.71875 C184.890535,84.38541 184.2395,82.0729331 184.2395,78.78125 Z M187.58325,82.375 C187.58325,83.5000056 187.874914,84.4583294 188.45825,85.25 C189.041586,86.0416706 189.843662,86.4375 190.8645,86.4375 C193.656181,86.4375 195.953033,83.7916931 197.755125,78.5 C199.557217,73.2083069 200.45825,69.1666806 200.45825,66.375 C200.45825,64.9374928 200.182211,63.8593786 199.630125,63.140625 C199.078039,62.4218714 198.249922,62.0625 197.14575,62.0625 C194.54157,62.0625 192.296801,64.5156005 190.411375,69.421875 C188.525949,74.3281495 187.58325,78.6458147 187.58325,82.375 Z M207.58325,78.78125 C207.58325,76.2812375 208.166578,73.5573064 209.33325,70.609375 C210.499923,67.6614436 212.166573,65.2708425 214.33325,63.4375 C216.499928,61.6041575 218.604073,60.6875 220.64575,60.6875 C222.499926,60.6875 224.025952,61.4739505 225.223875,63.046875 C226.421798,64.6197995 227.02075,66.7499866 227.02075,69.4375 C227.02075,72.6875163 226.35409,75.7708187 225.02075,78.6875 C223.68741,81.6041813 222.015552,83.8385339 220.005125,85.390625 C217.994698,86.9427161 216.02076,87.71875 214.08325,87.71875 C212.354075,87.71875 210.838465,87.05209 209.536375,85.71875 C208.234285,84.38541 207.58325,82.0729331 207.58325,78.78125 Z M210.927,82.375 C210.927,83.5000056 211.218664,84.4583294 211.802,85.25 C212.385336,86.0416706 213.187412,86.4375 214.20825,86.4375 C216.999931,86.4375 219.296783,83.7916931 221.098875,78.5 C222.900967,73.2083069 223.802,69.1666806 223.802,66.375 C223.802,64.9374928 223.525961,63.8593786 222.973875,63.140625 C222.421789,62.4218714 221.593672,62.0625 220.4895,62.0625 C217.88532,62.0625 215.640551,64.5156005 213.755125,69.421875 C211.869699,74.3281495 210.927,78.6458147 210.927,82.375 Z M252.927,81.3125 L254.45825,81.3125 C253.520745,83.0208419 252.338465,84.54166 250.911375,85.875 C249.484285,87.20834 248.177006,87.875 246.9895,87.875 C245.885328,87.875 245.052003,87.54167 244.4895,86.875 C243.926997,86.20833 243.64575,85.2187566 243.64575,83.90625 C243.64575,83.3020803 243.697833,82.7500025 243.802,82.25 C240.843652,86.0000187 238.104096,87.875 235.58325,87.875 C234.166576,87.875 232.958255,87.3020891 231.95825,86.15625 C230.958245,85.0104109 230.45825,83.3541775 230.45825,81.1875 C230.45825,78.1666516 231.291575,74.9218923 232.95825,71.453125 C234.624925,67.9843577 236.687404,65.2968845 239.14575,63.390625 C241.604096,61.4843655 243.739491,60.53125 245.552,60.53125 C246.489505,60.53125 247.286372,60.7499978 247.942625,61.1875 C248.598878,61.6250022 249.124915,62.2812456 249.52075,63.15625 L253.33325,50.5625 C253.791586,49.0624925 254.02075,48.1562516 254.02075,47.84375 C254.02075,47.3437475 253.880126,46.9895844 253.598875,46.78125 C253.317624,46.5729156 252.624922,46.46875 251.52075,46.46875 L250.64575,46.46875 L251.052,45.15625 C254.072848,45.15625 256.479074,44.7812538 258.27075,44.03125 L259.052,44.03125 L249.052,76.9375 C247.822827,81.0000203 247.20825,83.3958297 247.20825,84.125 C247.20825,84.6458359 247.307207,85.036457 247.505125,85.296875 C247.703043,85.557293 247.989498,85.6875 248.3645,85.6875 C248.989503,85.6875 249.682205,85.3229203 250.442625,84.59375 C251.203045,83.8645797 252.031162,82.7708406 252.927,81.3125 Z M234.052,82.625 C234.052,83.7916725 234.255123,84.671872 234.661375,85.265625 C235.067627,85.859378 235.666579,86.15625 236.45825,86.15625 C237.85409,86.15625 239.468658,85.1823014 241.302,83.234375 C243.135343,81.2864486 244.822826,78.0781473 246.3645,73.609375 C247.906174,69.1406027 248.677,66.3125059 248.677,65.125 C248.677,64.3541628 248.416586,63.6562531 247.89575,63.03125 C247.374914,62.4062469 246.687421,62.09375 245.83325,62.09375 C244.479077,62.09375 243.057216,62.890617 241.567625,64.484375 C240.078034,66.078133 238.45305,68.838522 236.692625,72.765625 C234.9322,76.692728 234.052,79.9791534 234.052,82.625 Z M285.02075,79.5 L286.39575,79.5 C284.270739,85.0833612 281.5416,87.875 278.20825,87.875 C277.062411,87.875 276.145753,87.4947955 275.45825,86.734375 C274.770747,85.9739545 274.427,85.0208391 274.427,83.875 C274.427,82.7499944 275.104077,79.9687722 276.45825,75.53125 L283.77075,51.40625 C284.395753,49.3645731 284.70825,48.177085 284.70825,47.84375 C284.70825,47.3437475 284.567626,46.9895844 284.286375,46.78125 C284.005124,46.5729156 283.302006,46.46875 282.177,46.46875 L280.95825,46.46875 L281.3645,45.15625 C284.802017,45.0937497 287.333242,44.7187534 288.95825,44.03125 L289.7395,44.03125 L279.677,77.15625 C279.531166,77.6770859 279.229086,78.6249931 278.77075,80 C278.16658,81.8125091 277.8645,83.1874953 277.8645,84.125 C277.8645,84.7500031 277.98429,85.2187484 278.223875,85.53125 C278.46346,85.8437516 278.822831,86 279.302,86 C280.010337,86 280.895745,85.5104216 281.95825,84.53125 C283.020755,83.5520784 284.041578,81.8750119 285.02075,79.5 Z M311.802,80.5625 L313.1145,80.5625 C311.343658,85.4375244 308.947848,87.875 305.927,87.875 C304.906162,87.875 304.140544,87.5937528 303.630125,87.03125 C303.119706,86.4687472 302.8645,85.6250056 302.8645,84.5 C302.8645,82.9166588 303.426994,80.3854341 304.552,76.90625 C300.906148,84.2187866 297.302018,87.875 293.7395,87.875 C292.426993,87.875 291.395754,87.4687541 290.64575,86.65625 C289.895746,85.8437459 289.52075,84.8333394 289.52075,83.625 C289.52075,82.4374941 289.989495,80.4687637 290.927,77.71875 L294.77075,66.5 C295.333253,64.833325 295.6145,63.833335 295.6145,63.5 C295.6145,62.9583306 295.343669,62.6875 294.802,62.6875 C293.489493,62.6875 292.052008,64.4478991 290.4895,67.96875 L288.9895,67.96875 C289.822838,65.7812391 290.916577,63.9947986 292.27075,62.609375 C293.624923,61.2239514 294.958243,60.53125 296.27075,60.53125 C297.083254,60.53125 297.775955,60.7864558 298.348875,61.296875 C298.921795,61.8072942 299.20825,62.5729116 299.20825,63.59375 C299.20825,64.3229203 298.84367,65.7812391 298.1145,67.96875 L294.177,79.53125 C293.426996,81.7812613 293.052,83.2604131 293.052,83.96875 C293.052,84.6145866 293.197832,85.104165 293.4895,85.4375 C293.781168,85.770835 294.208247,85.9375 294.77075,85.9375 C296.604093,85.9375 298.781154,83.9896028 301.302,80.09375 C303.822846,76.1978972 306.239488,70.4062884 308.552,62.71875 L309.08325,60.9375 L312.83325,60.9375 L307.3645,78.875 C306.489496,81.7916813 306.052,83.5520803 306.052,84.15625 C306.052,84.6770859 306.156166,85.067707 306.3645,85.328125 C306.572834,85.588543 306.885331,85.71875 307.302,85.71875 C308.885341,85.71875 310.385326,84.0000172 311.802,80.5625 Z M330.427,78.125 L331.677,78.125 C330.656162,81.1041816 329.229093,83.4739495 327.39575,85.234375 C325.562408,86.9948005 323.656177,87.875 321.677,87.875 C320.010325,87.875 318.66138,87.244798 317.630125,85.984375 C316.59887,84.723952 316.08325,82.9479281 316.08325,80.65625 C316.08325,77.9687366 316.775951,75.0364742 318.161375,71.859375 C319.546799,68.6822758 321.494696,66.0000109 324.005125,63.8125 C326.515554,61.6249891 328.729074,60.53125 330.64575,60.53125 C331.749922,60.53125 332.687413,60.8854131 333.45825,61.59375 C334.229087,62.3020869 334.6145,63.156245 334.6145,64.15625 C334.6145,65.6354241 334.020756,66.375 332.83325,66.375 C331.624911,66.375 330.9895,65.5520916 330.927,63.90625 C330.885333,62.6770772 330.416588,62.0625 329.52075,62.0625 C328.354078,62.0625 326.999924,63.1406142 325.45825,65.296875 C323.916576,67.4531358 322.593672,70.328107 321.4895,73.921875 C320.385328,77.515643 319.83325,80.2499906 319.83325,82.125 C319.83325,83.3125059 320.13533,84.2604131 320.7395,84.96875 C321.34367,85.6770869 322.072829,86.03125 322.927,86.03125 C324.156173,86.03125 325.494701,85.3177155 326.942625,83.890625 C328.390549,82.4635345 329.551996,80.5416787 330.427,78.125 Z M357.27075,79.875 L358.58325,79.875 C357.895747,82.7291809 356.906173,84.7760355 355.6145,86.015625 C354.322827,87.2552145 352.999923,87.875 351.64575,87.875 C348.97907,87.875 347.64575,86.1771003 347.64575,82.78125 C347.64575,82.3437478 347.718666,81.3125081 347.8645,79.6875 C348.072834,77.0624869 348.177,75.5729184 348.177,75.21875 C348.177,73.21874 347.385341,72.21875 345.802,72.21875 C345.031163,72.21875 344.286379,72.4791641 343.567625,73 C342.848871,73.5208359 342.328043,74.1666628 342.005125,74.9375 C341.682207,75.7083372 341.177003,77.2083222 340.4895,79.4375 L338.052,87.46875 L334.33325,87.46875 L345.39575,51.09375 C345.958253,49.2395741 346.2395,48.1562516 346.2395,47.84375 C346.2395,47.3437475 346.104085,46.9895844 345.83325,46.78125 C345.562415,46.5729156 344.874922,46.46875 343.77075,46.46875 L342.64575,46.46875 L343.052,45.15625 C346.427017,45.0937497 348.906159,44.7083369 350.4895,44 L351.27075,44 L342.70825,72.1875 C347.604108,66.8333066 350.963449,63.5520894 352.786375,62.34375 C354.609301,61.1354106 356.176993,60.53125 357.4895,60.53125 C359.343676,60.53125 360.27075,61.2083266 360.27075,62.5625 C360.27075,63.0833359 360.08846,63.5208316 359.723875,63.875 C359.35929,64.2291684 358.937419,64.40625 358.45825,64.40625 C358.041581,64.40625 357.479087,64.1875022 356.77075,63.75 C356.312414,63.4583319 355.833253,63.3125 355.33325,63.3125 C353.33324,63.3125 350.03119,65.9583069 345.427,71.25 C345.822835,71.1458328 346.135332,71.09375 346.3645,71.09375 C349.677017,71.09375 351.468665,74.4687162 351.7395,81.21875 C351.822834,83.0104256 351.973874,84.1458309 352.192625,84.625 C352.411376,85.1041691 352.812414,85.34375 353.39575,85.34375 C354.12492,85.34375 354.864496,84.807297 355.6145,83.734375 C356.364504,82.661453 356.916582,81.3750075 357.27075,79.875 Z M134.790281,113.8125 C134.790281,113.249997 134.989498,112.769533 135.387938,112.371094 C135.786377,111.972654 136.266841,111.773438 136.829344,111.773438 C137.391847,111.773438 137.872311,111.972654 138.27075,112.371094 C138.669189,112.769533 138.868406,113.249997 138.868406,113.8125 C138.868406,114.375003 138.669189,114.859373 138.27075,115.265625 C137.872311,115.671877 137.391847,115.875 136.829344,115.875 C136.251216,115.875 135.766846,115.667971 135.376219,115.253906 C134.985592,114.839842 134.790281,114.359378 134.790281,113.8125 Z M136.524656,138.867188 L137.649656,138.867188 C136.915278,140.38282 135.958256,141.726557 134.778563,142.898438 C133.598869,144.070318 132.462162,144.65625 131.368406,144.65625 C130.634028,144.65625 129.989503,144.394534 129.434813,143.871094 C128.880122,143.347654 128.602781,142.57813 128.602781,141.5625 C128.602781,140.734371 129.040277,139.148449 129.915281,136.804688 L132.610594,129.65625 C133.235597,127.984367 133.548094,126.968752 133.548094,126.609375 C133.548094,126.296873 133.473876,126.062501 133.325438,125.90625 C133.176999,125.749999 132.954345,125.671875 132.657469,125.671875 C132.048091,125.671875 131.325442,126.144527 130.4895,127.089844 C129.653558,128.035161 129.06372,128.890621 128.719969,129.65625 L127.594969,129.65625 C128.454348,127.953116 129.434807,126.60938 130.536375,125.625 C131.637943,124.64062 132.665276,124.148438 133.618406,124.148438 C134.352785,124.148438 134.954341,124.398435 135.423094,124.898438 C135.891846,125.39844 136.126219,126.054683 136.126219,126.867188 C136.126219,127.695317 135.71216,129.210926 134.884031,131.414062 L132.634031,137.507812 C131.805902,139.710949 131.391844,141.093747 131.391844,141.65625 C131.391844,142.109377 131.481687,142.449218 131.661375,142.675781 C131.841063,142.902345 132.10278,143.015625 132.446531,143.015625 C133.602787,143.015625 134.962148,141.632826 136.524656,138.867188 Z M149.696531,138.84375 C149.696531,140.296882 149.137943,141.6289 148.02075,142.839844 C146.903557,144.050787 145.259042,144.65625 143.087156,144.65625 C141.477773,144.65625 140.270754,144.300785 139.466063,143.589844 C138.661371,142.878903 138.259031,142.117192 138.259031,141.304688 C138.259031,140.867185 138.380124,140.492189 138.622313,140.179688 C138.864501,139.867186 139.173092,139.710938 139.548094,139.710938 C140.391848,139.710938 140.813719,140.156246 140.813719,141.046875 C140.813719,141.250001 140.766844,141.539061 140.673094,141.914062 C140.610593,142.085938 140.579344,142.21875 140.579344,142.3125 C140.579344,142.687502 140.821529,143.011717 141.305906,143.285156 C141.790284,143.558595 142.368403,143.695312 143.040281,143.695312 C144.087161,143.695312 145.040277,143.363285 145.899656,142.699219 C146.759036,142.035153 147.188719,141.117193 147.188719,139.945312 C147.188719,138.929682 146.587162,137.328136 145.384031,135.140625 C143.977774,132.609362 143.274656,130.757818 143.274656,129.585938 C143.274656,128.08593 143.8684,126.820318 145.055906,125.789062 C146.243412,124.757807 147.594961,124.242188 149.110594,124.242188 C150.219974,124.242188 151.169184,124.523435 151.95825,125.085938 C152.747316,125.64844 153.141844,126.249997 153.141844,126.890625 C153.141844,127.718754 152.798097,128.132812 152.110594,128.132812 C151.594966,128.132812 151.21997,127.67188 150.985594,126.75 C150.735593,125.73437 150.055912,125.226562 148.946531,125.226562 C148.055902,125.226562 147.282472,125.468748 146.626219,125.953125 C145.969965,126.437502 145.641844,127.070309 145.641844,127.851562 C145.641844,128.914068 146.165276,130.374991 147.212156,132.234375 C148.196536,133.921883 148.856686,135.210933 149.192625,136.101562 C149.528564,136.992192 149.696531,137.906245 149.696531,138.84375 Z M178.102781,124.804688 L177.774656,125.835938 L174.259031,125.835938 L171.165281,136.078125 C170.134026,139.437517 169.618406,141.390622 169.618406,141.9375 C169.618406,142.312502 169.700437,142.597655 169.8645,142.792969 C170.028563,142.988282 170.266842,143.085938 170.579344,143.085938 C171.141847,143.085938 171.876214,142.554693 172.782469,141.492188 C173.688723,140.429682 174.501215,139.093758 175.219969,137.484375 L176.251219,137.484375 C175.298089,139.812512 174.208256,141.589838 172.981688,142.816406 C171.755119,144.042975 170.634036,144.65625 169.618406,144.65625 C168.821527,144.65625 168.184815,144.375003 167.70825,143.8125 C167.231685,143.249997 166.993406,142.539067 166.993406,141.679688 C166.993406,140.945309 167.477776,138.992203 168.446531,135.820312 L171.469969,125.835938 L168.235594,125.835938 L168.563719,124.804688 L171.774656,124.804688 L173.930906,117.703125 L176.743406,117.703125 L174.587156,124.804688 L178.102781,124.804688 Z M179.368406,144.351562 L176.579344,144.351562 L184.805906,117.28125 C185.274659,115.749992 185.509031,114.859376 185.509031,114.609375 C185.509031,114.249998 185.403564,113.992188 185.192625,113.835938 C184.981686,113.679687 184.46216,113.601562 183.634031,113.601562 L182.884031,113.601562 L183.165281,112.617188 C185.649669,112.554687 187.4934,112.27344 188.696531,111.773438 L189.282469,111.773438 L183.962156,129.257812 C186.77467,125.851545 189.337145,124.148438 191.649656,124.148438 C192.696536,124.148438 193.477779,124.367185 193.993406,124.804688 C194.509034,125.24219 194.766844,125.906246 194.766844,126.796875 C194.766844,127.500004 194.305911,129.171862 193.384031,131.8125 L191.321531,137.695312 C190.524652,139.992199 190.126219,141.320311 190.126219,141.679688 C190.126219,142.070314 190.204343,142.367186 190.360594,142.570312 C190.516845,142.773439 190.751217,142.875 191.063719,142.875 C191.626222,142.875 192.259028,142.539066 192.962156,141.867188 C193.665285,141.195309 194.266841,140.35938 194.766844,139.359375 L195.915281,139.359375 C195.118402,140.953133 194.173099,142.23437 193.079344,143.203125 C191.985588,144.17188 190.946536,144.65625 189.962156,144.65625 C189.243403,144.65625 188.626221,144.390628 188.110594,143.859375 C187.594966,143.328122 187.337156,142.625004 187.337156,141.75 C187.337156,140.812495 187.774652,139.148449 188.649656,136.757812 L190.641844,131.34375 C191.563723,128.859363 192.024656,127.296878 192.024656,126.65625 C192.024656,126.265623 191.919189,125.972657 191.70825,125.777344 C191.497311,125.58203 191.173096,125.484375 190.735594,125.484375 C190.032465,125.484375 189.204349,125.769528 188.251219,126.339844 C187.298089,126.910159 186.305911,127.863275 185.274656,129.199219 C184.243401,130.535163 183.489502,131.789057 183.012938,132.960938 C182.536373,134.132818 181.915285,135.999987 181.149656,138.5625 L179.368406,144.351562 Z M208.337156,138.023438 L209.462156,138.023438 C207.477771,142.445335 204.930922,144.65625 201.821531,144.65625 C200.540275,144.65625 199.497317,144.207036 198.692625,143.308594 C197.887933,142.410152 197.485594,141.19532 197.485594,139.664062 C197.485594,137.726553 198.00512,135.539075 199.044188,133.101562 C200.083255,130.66405 201.559803,128.562509 203.473875,126.796875 C205.387947,125.031241 207.055899,124.148438 208.477781,124.148438 C209.352786,124.148438 210.016841,124.425778 210.469969,124.980469 C210.923096,125.535159 211.149656,126.226558 211.149656,127.054688 C211.149656,128.742196 210.305915,130.363273 208.618406,131.917969 C206.930898,133.472664 204.399673,134.968743 201.024656,136.40625 C200.587154,137.765632 200.368406,139.054681 200.368406,140.273438 C200.368406,141.273442 200.563717,142.023435 200.954344,142.523438 C201.344971,143.02344 201.92309,143.273438 202.688719,143.273438 C204.829354,143.273438 206.712148,141.523455 208.337156,138.023438 Z M201.376219,135.210938 C203.391854,134.304683 205.204336,133.054695 206.813719,131.460938 C208.423102,129.86718 209.227781,128.421881 209.227781,127.125 C209.227781,126.531247 209.106689,126.089845 208.8645,125.800781 C208.622311,125.511717 208.259034,125.367188 207.774656,125.367188 C206.837152,125.367188 205.731694,126.277335 204.45825,128.097656 C203.184806,129.917978 202.157473,132.289048 201.376219,135.210938 Z M225.118406,130.476562 L224.087156,130.476562 C224.74341,128.726554 225.56762,127.234381 226.559813,126 C227.552005,124.765619 228.532464,124.148438 229.501219,124.148438 C230.173097,124.148438 230.673092,124.417966 231.001219,124.957031 C231.329345,125.496096 231.493406,126.312495 231.493406,127.40625 C231.493406,128.765632 231.141847,130.703112 230.438719,133.21875 C230.532469,133.062499 230.790279,132.500005 231.212156,131.53125 C232.368412,128.921862 233.384027,127.039068 234.259031,125.882812 C235.134036,124.726557 236.009027,124.148438 236.884031,124.148438 C237.430909,124.148438 237.868405,124.320311 238.196531,124.664062 C238.524658,125.007814 238.688719,125.421873 238.688719,125.90625 C238.688719,126.375002 238.552001,126.757811 238.278563,127.054688 C238.005124,127.351564 237.680908,127.5 237.305906,127.5 C236.884029,127.5 236.454346,127.24219 236.016844,126.726562 C235.844968,126.523436 235.673095,126.421875 235.501219,126.421875 C234.719965,126.421875 233.516852,128.300762 231.891844,132.058594 C230.266836,135.816425 228.954349,139.351546 227.954344,142.664062 L227.438719,144.351562 L224.626219,144.351562 L228.352781,131.929688 C229.05591,129.554676 229.407469,127.945317 229.407469,127.101562 C229.407469,126.648435 229.348876,126.312501 229.231688,126.09375 C229.114499,125.874999 228.93872,125.765625 228.704344,125.765625 C228.188716,125.765625 227.544191,126.320307 226.77075,127.429688 C225.997309,128.539068 225.446533,129.554683 225.118406,130.476562 Z M248.368406,138.023438 L249.493406,138.023438 C247.509021,142.445335 244.962172,144.65625 241.852781,144.65625 C240.571525,144.65625 239.528567,144.207036 238.723875,143.308594 C237.919183,142.410152 237.516844,141.19532 237.516844,139.664062 C237.516844,137.726553 238.03637,135.539075 239.075438,133.101562 C240.114505,130.66405 241.591053,128.562509 243.505125,126.796875 C245.419197,125.031241 247.087149,124.148438 248.509031,124.148438 C249.384036,124.148438 250.048091,124.425778 250.501219,124.980469 C250.954346,125.535159 251.180906,126.226558 251.180906,127.054688 C251.180906,128.742196 250.337165,130.363273 248.649656,131.917969 C246.962148,133.472664 244.430923,134.968743 241.055906,136.40625 C240.618404,137.765632 240.399656,139.054681 240.399656,140.273438 C240.399656,141.273442 240.594967,142.023435 240.985594,142.523438 C241.376221,143.02344 241.95434,143.273438 242.719969,143.273438 C244.860604,143.273438 246.743398,141.523455 248.368406,138.023438 Z M241.407469,135.210938 C243.423104,134.304683 245.235586,133.054695 246.844969,131.460938 C248.454352,129.86718 249.259031,128.421881 249.259031,127.125 C249.259031,126.531247 249.137939,126.089845 248.89575,125.800781 C248.653561,125.511717 248.290284,125.367188 247.805906,125.367188 C246.868402,125.367188 245.762944,126.277335 244.4895,128.097656 C243.216056,129.917978 242.188723,132.289048 241.407469,135.210938 Z M262.735594,138.84375 C262.735594,140.296882 262.177006,141.6289 261.059813,142.839844 C259.942619,144.050787 258.298105,144.65625 256.126219,144.65625 C254.516836,144.65625 253.309817,144.300785 252.505125,143.589844 C251.700433,142.878903 251.298094,142.117192 251.298094,141.304688 C251.298094,140.867185 251.419186,140.492189 251.661375,140.179688 C251.903564,139.867186 252.212154,139.710938 252.587156,139.710938 C253.43091,139.710938 253.852781,140.156246 253.852781,141.046875 C253.852781,141.250001 253.805907,141.539061 253.712156,141.914062 C253.649656,142.085938 253.618406,142.21875 253.618406,142.3125 C253.618406,142.687502 253.860591,143.011717 254.344969,143.285156 C254.829346,143.558595 255.407465,143.695312 256.079344,143.695312 C257.126224,143.695312 258.079339,143.363285 258.938719,142.699219 C259.798098,142.035153 260.227781,141.117193 260.227781,139.945312 C260.227781,138.929682 259.626225,137.328136 258.423094,135.140625 C257.016837,132.609362 256.313719,130.757818 256.313719,129.585938 C256.313719,128.08593 256.907463,126.820318 258.094969,125.789062 C259.282475,124.757807 260.634024,124.242188 262.149656,124.242188 C263.259037,124.242188 264.208246,124.523435 264.997313,125.085938 C265.786379,125.64844 266.180906,126.249997 266.180906,126.890625 C266.180906,127.718754 265.83716,128.132812 265.149656,128.132812 C264.634029,128.132812 264.259032,127.67188 264.024656,126.75 C263.774655,125.73437 263.094974,125.226562 261.985594,125.226562 C261.094964,125.226562 260.321535,125.468748 259.665281,125.953125 C259.009028,126.437502 258.680906,127.070309 258.680906,127.851562 C258.680906,128.914068 259.204339,130.374991 260.251219,132.234375 C261.235599,133.921883 261.895748,135.210933 262.231688,136.101562 C262.567627,136.992192 262.735594,137.906245 262.735594,138.84375 Z M274.337156,113.8125 C274.337156,113.249997 274.536373,112.769533 274.934813,112.371094 C275.333252,111.972654 275.813716,111.773438 276.376219,111.773438 C276.938722,111.773438 277.419186,111.972654 277.817625,112.371094 C278.216064,112.769533 278.415281,113.249997 278.415281,113.8125 C278.415281,114.375003 278.216064,114.859373 277.817625,115.265625 C277.419186,115.671877 276.938722,115.875 276.376219,115.875 C275.798091,115.875 275.313721,115.667971 274.923094,115.253906 C274.532467,114.839842 274.337156,114.359378 274.337156,113.8125 Z M276.071531,138.867188 L277.196531,138.867188 C276.462153,140.38282 275.505131,141.726557 274.325438,142.898438 C273.145744,144.070318 272.009037,144.65625 270.915281,144.65625 C270.180903,144.65625 269.536378,144.394534 268.981688,143.871094 C268.426997,143.347654 268.149656,142.57813 268.149656,141.5625 C268.149656,140.734371 268.587152,139.148449 269.462156,136.804688 L272.157469,129.65625 C272.782472,127.984367 273.094969,126.968752 273.094969,126.609375 C273.094969,126.296873 273.020751,126.062501 272.872313,125.90625 C272.723874,125.749999 272.50122,125.671875 272.204344,125.671875 C271.594966,125.671875 270.872317,126.144527 270.036375,127.089844 C269.200433,128.035161 268.610595,128.890621 268.266844,129.65625 L267.141844,129.65625 C268.001223,127.953116 268.981682,126.60938 270.08325,125.625 C271.184818,124.64062 272.212151,124.148438 273.165281,124.148438 C273.89966,124.148438 274.501216,124.398435 274.969969,124.898438 C275.438721,125.39844 275.673094,126.054683 275.673094,126.867188 C275.673094,127.695317 275.259035,129.210926 274.430906,131.414062 L272.180906,137.507812 C271.352777,139.710949 270.938719,141.093747 270.938719,141.65625 C270.938719,142.109377 271.028562,142.449218 271.20825,142.675781 C271.387938,142.902345 271.649655,143.015625 271.993406,143.015625 C273.149662,143.015625 274.509023,141.632826 276.071531,138.867188 Z M295.548094,139.734375 L296.696531,139.734375 C295.993403,141.015631 295.106693,142.156245 294.036375,143.15625 C292.966057,144.156255 291.985598,144.65625 291.094969,144.65625 C290.26684,144.65625 289.641846,144.406252 289.219969,143.90625 C288.798092,143.406248 288.587156,142.664067 288.587156,141.679688 C288.587156,141.22656 288.626218,140.812502 288.704344,140.4375 C286.485583,143.250014 284.430916,144.65625 282.540281,144.65625 C281.477776,144.65625 280.571535,144.226567 279.821531,143.367188 C279.071528,142.507808 278.696531,141.265633 278.696531,139.640625 C278.696531,137.374989 279.321525,134.941419 280.571531,132.339844 C281.821538,129.738268 283.368397,127.722663 285.212156,126.292969 C287.055915,124.863274 288.657462,124.148438 290.016844,124.148438 C290.719972,124.148438 291.317623,124.312498 291.809813,124.640625 C292.302002,124.968752 292.69653,125.460934 292.993406,126.117188 L295.852781,116.671875 C296.196533,115.546869 296.368406,114.867189 296.368406,114.632812 C296.368406,114.257811 296.262939,113.992188 296.052,113.835938 C295.841061,113.679687 295.321535,113.601562 294.493406,113.601562 L293.837156,113.601562 L294.141844,112.617188 C296.40748,112.617188 298.21215,112.33594 299.555906,111.773438 L300.141844,111.773438 L292.641844,136.453125 C291.719964,139.500015 291.259031,141.296872 291.259031,141.84375 C291.259031,142.234377 291.333249,142.527343 291.481688,142.722656 C291.630126,142.91797 291.844967,143.015625 292.126219,143.015625 C292.594971,143.015625 293.114497,142.74219 293.684813,142.195312 C294.255128,141.648435 294.876215,140.82813 295.548094,139.734375 Z M281.391844,140.71875 C281.391844,141.593754 281.544186,142.253904 281.848875,142.699219 C282.153564,143.144533 282.602778,143.367188 283.196531,143.367188 C284.243411,143.367188 285.454337,142.636726 286.829344,141.175781 C288.204351,139.714836 289.469963,137.308611 290.626219,133.957031 C291.782475,130.605452 292.360594,128.484379 292.360594,127.59375 C292.360594,127.015622 292.165283,126.49219 291.774656,126.023438 C291.384029,125.554685 290.868409,125.320312 290.227781,125.320312 C289.212151,125.320312 288.145756,125.917963 287.028563,127.113281 C285.911369,128.3086 284.692632,130.378892 283.372313,133.324219 C282.051993,136.269546 281.391844,138.734365 281.391844,140.71875 Z M316.196531,139.171875 L317.180906,139.171875 C315.852775,142.828143 314.055918,144.65625 311.790281,144.65625 C311.024652,144.65625 310.450439,144.445315 310.067625,144.023438 C309.684811,143.60156 309.493406,142.968754 309.493406,142.125 C309.493406,140.937494 309.915277,139.039076 310.759031,136.429688 C308.024643,141.91409 305.321545,144.65625 302.649656,144.65625 C301.665276,144.65625 300.891847,144.351566 300.329344,143.742188 C299.766841,143.132809 299.485594,142.375005 299.485594,141.46875 C299.485594,140.578121 299.837153,139.101573 300.540281,137.039062 L303.423094,128.625 C303.844971,127.374994 304.055906,126.625001 304.055906,126.375 C304.055906,125.968748 303.852783,125.765625 303.446531,125.765625 C302.462151,125.765625 301.384037,127.085924 300.212156,129.726562 L299.087156,129.726562 C299.712159,128.085929 300.532464,126.746099 301.548094,125.707031 C302.563724,124.667964 303.563714,124.148438 304.548094,124.148438 C305.157472,124.148438 305.676998,124.339842 306.106688,124.722656 C306.536377,125.105471 306.751219,125.679684 306.751219,126.445312 C306.751219,126.99219 306.477784,128.085929 305.930906,129.726562 L302.977781,138.398438 C302.415278,140.085946 302.134031,141.19531 302.134031,141.726562 C302.134031,142.21094 302.243405,142.578124 302.462156,142.828125 C302.680907,143.078126 303.001217,143.203125 303.423094,143.203125 C304.798101,143.203125 306.430897,141.742202 308.321531,138.820312 C310.212166,135.898423 312.024648,131.554716 313.759031,125.789062 L314.157469,124.453125 L316.969969,124.453125 L312.868406,137.90625 C312.212153,140.093761 311.884031,141.41406 311.884031,141.867188 C311.884031,142.257814 311.962155,142.55078 312.118406,142.746094 C312.274657,142.941407 312.50903,143.039062 312.821531,143.039062 C314.009037,143.039062 315.134026,141.750013 316.196531,139.171875 Z M329.884031,138.023438 L331.009031,138.023438 C329.024646,142.445335 326.477797,144.65625 323.368406,144.65625 C322.08715,144.65625 321.044192,144.207036 320.2395,143.308594 C319.434808,142.410152 319.032469,141.19532 319.032469,139.664062 C319.032469,137.726553 319.551995,135.539075 320.591063,133.101562 C321.63013,130.66405 323.106678,128.562509 325.02075,126.796875 C326.934822,125.031241 328.602774,124.148438 330.024656,124.148438 C330.899661,124.148438 331.563716,124.425778 332.016844,124.980469 C332.469971,125.535159 332.696531,126.226558 332.696531,127.054688 C332.696531,128.742196 331.85279,130.363273 330.165281,131.917969 C328.477773,133.472664 325.946548,134.968743 322.571531,136.40625 C322.134029,137.765632 321.915281,139.054681 321.915281,140.273438 C321.915281,141.273442 322.110592,142.023435 322.501219,142.523438 C322.891846,143.02344 323.469965,143.273438 324.235594,143.273438 C326.376229,143.273438 328.259023,141.523455 329.884031,138.023438 Z M322.923094,135.210938 C324.938729,134.304683 326.751211,133.054695 328.360594,131.460938 C329.969977,129.86718 330.774656,128.421881 330.774656,127.125 C330.774656,126.531247 330.653564,126.089845 330.411375,125.800781 C330.169186,125.511717 329.805909,125.367188 329.321531,125.367188 C328.384027,125.367188 327.278569,126.277335 326.005125,128.097656 C324.731681,129.917978 323.704348,132.289048 322.923094,135.210938 Z M346.055906,137.835938 C346.055906,135.960928 346.493402,133.91798 347.368406,131.707031 C348.243411,129.496083 349.493398,127.703132 351.118406,126.328125 C352.743414,124.953118 354.321524,124.265625 355.852781,124.265625 C357.243413,124.265625 358.387933,124.855463 359.286375,126.035156 C360.184817,127.21485 360.634031,128.81249 360.634031,130.828125 C360.634031,133.265637 360.134036,135.578114 359.134031,137.765625 C358.134026,139.953136 356.880133,141.6289 355.372313,142.792969 C353.864492,143.957037 352.384039,144.539062 350.930906,144.539062 C349.634025,144.539062 348.497317,144.039067 347.52075,143.039062 C346.544183,142.039058 346.055906,140.3047 346.055906,137.835938 Z M348.563719,140.53125 C348.563719,141.375004 348.782467,142.093747 349.219969,142.6875 C349.657471,143.281253 350.259027,143.578125 351.024656,143.578125 C353.118417,143.578125 354.841056,141.59377 356.192625,137.625 C357.544194,133.65623 358.219969,130.62501 358.219969,128.53125 C358.219969,127.45312 358.01294,126.644534 357.598875,126.105469 C357.18481,125.566404 356.563723,125.296875 355.735594,125.296875 C353.782459,125.296875 352.098882,127.1367 350.684813,130.816406 C349.270743,134.496112 348.563719,137.734361 348.563719,140.53125 Z M376.407469,124.804688 L376.102781,125.835938 L372.001219,125.835938 L368.368406,139.546875 C366.712148,145.750031 364.899666,149.914052 362.930906,152.039062 C360.962146,154.164073 358.798106,155.226562 356.438719,155.226562 C355.126212,155.226562 353.94263,154.921878 352.887938,154.3125 C351.833245,153.703122 351.305906,152.945317 351.305906,152.039062 C351.305906,151.523435 351.469967,151.101564 351.798094,150.773438 C352.12622,150.445311 352.509029,150.28125 352.946531,150.28125 C353.462159,150.28125 353.876217,150.464842 354.188719,150.832031 C354.50122,151.199221 354.657469,151.593748 354.657469,152.015625 C354.657469,152.125001 354.634031,152.320311 354.587156,152.601562 L354.540281,153 C354.540281,153.296876 354.727779,153.570311 355.102781,153.820312 C355.477783,154.070314 355.930904,154.195312 356.462156,154.195312 C358.337166,154.195312 359.915275,153.195323 361.196531,151.195312 C362.477788,149.195302 363.930898,145.18753 365.555906,139.171875 L369.141844,125.835938 L364.524656,125.835938 L364.829344,124.804688 L369.469969,124.804688 C369.516844,124.617187 369.641843,124.164066 369.844969,123.445312 C371.954354,115.664024 375.368383,111.773438 380.087156,111.773438 C381.430913,111.773438 382.458246,112.07031 383.169188,112.664062 C383.880129,113.257815 384.235594,113.843747 384.235594,114.421875 C384.235594,115.250004 383.844973,115.664062 383.063719,115.664062 C382.438716,115.664062 381.77466,115.125005 381.071531,114.046875 C380.571529,113.265621 379.969972,112.875 379.266844,112.875 C378.204338,112.875 377.188724,113.363276 376.219969,114.339844 C375.251214,115.316411 374.180912,117.968728 373.009031,122.296875 L372.329344,124.804688 L376.407469,124.804688 Z M122.661375,188.125 L121.223875,188.125 L127.130125,178.65625 C128.8593,175.906236 129.994706,173.958339 130.536375,172.8125 C131.078044,171.666661 131.703038,169.937512 132.411375,167.625 L132.848875,166.125 L136.598875,166.125 L134.473875,173.125 L131.848875,180.5 C134.682223,176.520813 137.369696,174.53125 139.911375,174.53125 C141.453049,174.53125 142.765536,175.244785 143.848875,176.671875 C144.932214,178.098965 145.473875,179.885406 145.473875,182.03125 C145.473875,184.552096 144.828048,187.437484 143.536375,190.6875 C142.244702,193.937516 140.416595,196.614573 138.052,198.71875 C135.687405,200.822927 133.328053,201.875 130.973875,201.875 C128.723864,201.875 127.296795,200.812511 126.692625,198.6875 L123.036375,210.78125 C122.578039,212.281258 122.348875,213.197915 122.348875,213.53125 C122.348875,213.885418 122.499915,214.187499 122.802,214.4375 C123.104085,214.687501 123.984284,214.8125 125.442625,214.8125 L126.848875,214.8125 L126.411375,216.1875 L113.348875,216.1875 L113.786375,214.8125 L114.473875,214.8125 C116.307218,214.8125 117.400957,214.687501 117.755125,214.4375 C118.109293,214.187499 118.650955,212.885428 119.380125,210.53125 L125.880125,189.0625 C127.255132,184.583311 128.838449,180.01044 130.630125,175.34375 C130.421791,175.635418 129.869713,176.572909 128.973875,178.15625 C128.869708,178.322918 128.536378,178.854162 127.973875,179.75 L122.661375,188.125 Z M128.442625,192.90625 C127.880122,194.760426 127.598875,196.093746 127.598875,196.90625 C127.598875,197.927088 127.880122,198.791663 128.442625,199.5 C129.005128,200.208337 129.796787,200.5625 130.817625,200.5625 C132.338466,200.5625 133.895742,199.692717 135.4895,197.953125 C137.083258,196.213533 138.541577,193.317729 139.8645,189.265625 C141.187423,185.213521 141.848875,182.166677 141.848875,180.125 C141.848875,178.79166 141.640544,177.79167 141.223875,177.125 C140.807206,176.45833 140.182213,176.125 139.348875,176.125 C138.223869,176.125 136.729093,176.947908 134.8645,178.59375 C132.999907,180.239592 131.275966,183.645807 129.692625,188.8125 L128.442625,192.90625 Z M149.786375,182.96875 L148.411375,182.96875 C149.286379,180.635405 150.385327,178.645842 151.70825,177 C153.031173,175.354158 154.338452,174.53125 155.630125,174.53125 C156.525963,174.53125 157.192623,174.890621 157.630125,175.609375 C158.067627,176.328129 158.286375,177.416659 158.286375,178.875 C158.286375,180.687509 157.81763,183.270817 156.880125,186.625 C157.005126,186.416666 157.348872,185.666673 157.911375,184.375 C159.453049,180.895816 160.807203,178.385424 161.973875,176.84375 C163.140548,175.302076 164.307203,174.53125 165.473875,174.53125 C166.203045,174.53125 166.786373,174.760414 167.223875,175.21875 C167.661377,175.677086 167.880125,176.229163 167.880125,176.875 C167.880125,177.500003 167.697835,178.010415 167.33325,178.40625 C166.968665,178.802085 166.536378,179 166.036375,179 C165.473872,179 164.900961,178.656253 164.317625,177.96875 C164.088457,177.697915 163.859293,177.5625 163.630125,177.5625 C162.588453,177.5625 160.984303,180.067683 158.817625,185.078125 C156.650948,190.088567 154.900965,194.802061 153.567625,199.21875 L152.880125,201.46875 L149.130125,201.46875 L154.098875,184.90625 C155.03638,181.739567 155.505125,179.593756 155.505125,178.46875 C155.505125,177.86458 155.427001,177.416668 155.27075,177.125 C155.114499,176.833332 154.880127,176.6875 154.567625,176.6875 C153.880122,176.6875 153.020755,177.427076 151.9895,178.90625 C150.958245,180.385424 150.223877,181.739577 149.786375,182.96875 Z M180.786375,193.03125 L182.286375,193.03125 C179.640528,198.927113 176.244729,201.875 172.098875,201.875 C170.390533,201.875 168.999922,201.276048 167.927,200.078125 C166.854078,198.880202 166.317625,197.260427 166.317625,195.21875 C166.317625,192.635404 167.010326,189.718766 168.39575,186.46875 C169.781174,183.218734 171.749904,180.416678 174.302,178.0625 C176.854096,175.708322 179.078032,174.53125 180.973875,174.53125 C182.140548,174.53125 183.025955,174.901038 183.630125,175.640625 C184.234295,176.380212 184.536375,177.302078 184.536375,178.40625 C184.536375,180.656261 183.411386,182.817698 181.161375,184.890625 C178.911364,186.963552 175.536398,188.958324 171.036375,190.875 C170.453039,192.687509 170.161375,194.406242 170.161375,196.03125 C170.161375,197.36459 170.421789,198.36458 170.942625,199.03125 C171.463461,199.69792 172.234287,200.03125 173.255125,200.03125 C176.109306,200.03125 178.619698,197.69794 180.786375,193.03125 Z M171.505125,189.28125 C174.192638,188.072911 176.609281,186.406261 178.755125,184.28125 C180.900969,182.156239 181.973875,180.229175 181.973875,178.5 C181.973875,177.708329 181.812418,177.119794 181.4895,176.734375 C181.166582,176.348956 180.682212,176.15625 180.036375,176.15625 C178.786369,176.15625 177.312425,177.36978 175.6145,179.796875 C173.916575,182.22397 172.546797,185.385397 171.505125,189.28125 Z M187.848875,188.125 L186.411375,188.125 L192.317625,178.65625 C194.0468,175.906236 195.182206,173.958339 195.723875,172.8125 C196.265544,171.666661 196.890538,169.937512 197.598875,167.625 L198.036375,166.125 L201.786375,166.125 L199.661375,173.125 L197.036375,180.5 C199.869723,176.520813 202.557196,174.53125 205.098875,174.53125 C206.640549,174.53125 207.953036,175.244785 209.036375,176.671875 C210.119714,178.098965 210.661375,179.885406 210.661375,182.03125 C210.661375,184.552096 210.015548,187.437484 208.723875,190.6875 C207.432202,193.937516 205.604095,196.614573 203.2395,198.71875 C200.874905,200.822927 198.515553,201.875 196.161375,201.875 C193.911364,201.875 192.484295,200.812511 191.880125,198.6875 L188.223875,210.78125 C187.765539,212.281258 187.536375,213.197915 187.536375,213.53125 C187.536375,213.885418 187.687415,214.187499 187.9895,214.4375 C188.291585,214.687501 189.171784,214.8125 190.630125,214.8125 L192.036375,214.8125 L191.598875,216.1875 L178.536375,216.1875 L178.973875,214.8125 L179.661375,214.8125 C181.494718,214.8125 182.588457,214.687501 182.942625,214.4375 C183.296793,214.187499 183.838455,212.885428 184.567625,210.53125 L191.067625,189.0625 C192.442632,184.583311 194.025949,180.01044 195.817625,175.34375 C195.609291,175.635418 195.057213,176.572909 194.161375,178.15625 C194.057208,178.322918 193.723878,178.854162 193.161375,179.75 L187.848875,188.125 Z M193.630125,192.90625 C193.067622,194.760426 192.786375,196.093746 192.786375,196.90625 C192.786375,197.927088 193.067622,198.791663 193.630125,199.5 C194.192628,200.208337 194.984287,200.5625 196.005125,200.5625 C197.525966,200.5625 199.083242,199.692717 200.677,197.953125 C202.270758,196.213533 203.729077,193.317729 205.052,189.265625 C206.374923,185.213521 207.036375,182.166677 207.036375,180.125 C207.036375,178.79166 206.828044,177.79167 206.411375,177.125 C205.994706,176.45833 205.369713,176.125 204.536375,176.125 C203.411369,176.125 201.916593,176.947908 200.052,178.59375 C198.187407,180.239592 196.463466,183.645807 194.880125,188.8125 L193.630125,192.90625 Z M233.911375,175 L237.661375,175 L232.098875,193.3125 C231.286371,195.958347 230.880125,197.562497 230.880125,198.125 C230.880125,198.541669 230.973874,198.859374 231.161375,199.078125 C231.348876,199.296876 231.630123,199.40625 232.005125,199.40625 C233.442632,199.40625 235.098866,197.760433 236.973875,194.46875 L238.286375,194.46875 C237.473871,196.343759 236.312424,198.046867 234.802,199.578125 C233.291576,201.109383 231.900965,201.875 230.630125,201.875 C229.650953,201.875 228.900961,201.51042 228.380125,200.78125 C227.859289,200.05208 227.598875,199.156255 227.598875,198.09375 C227.598875,197.239579 227.807206,196.125007 228.223875,194.75 C227.28637,196.354175 225.927009,197.9427 224.14575,199.515625 C222.364491,201.08855 220.692633,201.875 219.130125,201.875 C217.671784,201.875 216.416589,201.255215 215.3645,200.015625 C214.312411,198.776035 213.786375,197.104177 213.786375,195 C213.786375,192.166652 214.598867,189.130225 216.223875,185.890625 C217.848883,182.651025 219.968654,179.947927 222.58325,177.78125 C225.197846,175.614573 227.432199,174.53125 229.286375,174.53125 C230.369714,174.53125 231.22908,174.791664 231.8645,175.3125 C232.49992,175.833336 232.921791,176.614578 233.130125,177.65625 L233.911375,175 Z M217.567625,195.9375 C217.567625,197.312507 217.775956,198.348955 218.192625,199.046875 C218.609294,199.744795 219.234288,200.09375 220.067625,200.09375 C221.442632,200.09375 223.093657,199.083343 225.02075,197.0625 C226.947843,195.041657 228.619701,191.947937 230.036375,187.78125 C231.453049,183.614563 232.161375,180.781257 232.161375,179.28125 C232.161375,178.406246 231.937419,177.661461 231.4895,177.046875 C231.041581,176.432289 230.400963,176.125 229.567625,176.125 C227.025946,176.125 224.390555,178.635392 221.661375,183.65625 C218.932195,188.677108 217.567625,192.770817 217.567625,195.9375 Z M241.630125,182.96875 L240.255125,182.96875 C241.130129,180.635405 242.229077,178.645842 243.552,177 C244.874923,175.354158 246.182202,174.53125 247.473875,174.53125 C248.369713,174.53125 249.036373,174.890621 249.473875,175.609375 C249.911377,176.328129 250.130125,177.416659 250.130125,178.875 C250.130125,180.687509 249.66138,183.270817 248.723875,186.625 C248.848876,186.416666 249.192622,185.666673 249.755125,184.375 C251.296799,180.895816 252.650953,178.385424 253.817625,176.84375 C254.984298,175.302076 256.150953,174.53125 257.317625,174.53125 C258.046795,174.53125 258.630123,174.760414 259.067625,175.21875 C259.505127,175.677086 259.723875,176.229163 259.723875,176.875 C259.723875,177.500003 259.541585,178.010415 259.177,178.40625 C258.812415,178.802085 258.380128,179 257.880125,179 C257.317622,179 256.744711,178.656253 256.161375,177.96875 C255.932207,177.697915 255.703043,177.5625 255.473875,177.5625 C254.432203,177.5625 252.828053,180.067683 250.661375,185.078125 C248.494698,190.088567 246.744715,194.802061 245.411375,199.21875 L244.723875,201.46875 L240.973875,201.46875 L245.942625,184.90625 C246.88013,181.739567 247.348875,179.593756 247.348875,178.46875 C247.348875,177.86458 247.270751,177.416668 247.1145,177.125 C246.958249,176.833332 246.723877,176.6875 246.411375,176.6875 C245.723872,176.6875 244.864505,177.427076 243.83325,178.90625 C242.801995,180.385424 242.067627,181.739577 241.630125,182.96875 Z M278.598875,175 L282.348875,175 L276.786375,193.3125 C275.973871,195.958347 275.567625,197.562497 275.567625,198.125 C275.567625,198.541669 275.661374,198.859374 275.848875,199.078125 C276.036376,199.296876 276.317623,199.40625 276.692625,199.40625 C278.130132,199.40625 279.786366,197.760433 281.661375,194.46875 L282.973875,194.46875 C282.161371,196.343759 280.999924,198.046867 279.4895,199.578125 C277.979076,201.109383 276.588465,201.875 275.317625,201.875 C274.338453,201.875 273.588461,201.51042 273.067625,200.78125 C272.546789,200.05208 272.286375,199.156255 272.286375,198.09375 C272.286375,197.239579 272.494706,196.125007 272.911375,194.75 C271.97387,196.354175 270.614509,197.9427 268.83325,199.515625 C267.051991,201.08855 265.380133,201.875 263.817625,201.875 C262.359284,201.875 261.104089,201.255215 260.052,200.015625 C258.999911,198.776035 258.473875,197.104177 258.473875,195 C258.473875,192.166652 259.286367,189.130225 260.911375,185.890625 C262.536383,182.651025 264.656154,179.947927 267.27075,177.78125 C269.885346,175.614573 272.119699,174.53125 273.973875,174.53125 C275.057214,174.53125 275.91658,174.791664 276.552,175.3125 C277.18742,175.833336 277.609291,176.614578 277.817625,177.65625 L278.598875,175 Z M262.255125,195.9375 C262.255125,197.312507 262.463456,198.348955 262.880125,199.046875 C263.296794,199.744795 263.921788,200.09375 264.755125,200.09375 C266.130132,200.09375 267.781157,199.083343 269.70825,197.0625 C271.635343,195.041657 273.307201,191.947937 274.723875,187.78125 C276.140549,183.614563 276.848875,180.781257 276.848875,179.28125 C276.848875,178.406246 276.624919,177.661461 276.177,177.046875 C275.729081,176.432289 275.088463,176.125 274.255125,176.125 C271.713446,176.125 269.078055,178.635392 266.348875,183.65625 C263.619695,188.677108 262.255125,192.770817 262.255125,195.9375 Z M300.973875,175.40625 L300.536375,176.78125 L295.848875,176.78125 L291.723875,190.4375 C290.348868,194.916689 289.661375,197.52083 289.661375,198.25 C289.661375,198.750002 289.770749,199.130207 289.9895,199.390625 C290.208251,199.651043 290.525956,199.78125 290.942625,199.78125 C291.692629,199.78125 292.671786,199.072924 293.880125,197.65625 C295.088464,196.239576 296.171787,194.458344 297.130125,192.3125 L298.505125,192.3125 C297.234285,195.416682 295.781175,197.78645 294.14575,199.421875 C292.510325,201.0573 291.015548,201.875 289.661375,201.875 C288.59887,201.875 287.74992,201.500004 287.1145,200.75 C286.47908,199.999996 286.161375,199.052089 286.161375,197.90625 C286.161375,196.927078 286.807202,194.322938 288.098875,190.09375 L292.130125,176.78125 L287.817625,176.78125 L288.255125,175.40625 L292.536375,175.40625 L295.411375,165.9375 L299.161375,165.9375 L296.286375,175.40625 L300.973875,175.40625 Z M309.911375,160.75 C309.911375,159.999996 310.176997,159.359378 310.70825,158.828125 C311.239503,158.296872 311.880121,158.03125 312.630125,158.03125 C313.380129,158.03125 314.020747,158.296872 314.552,158.828125 C315.083253,159.359378 315.348875,159.999996 315.348875,160.75 C315.348875,161.500004 315.083253,162.145831 314.552,162.6875 C314.020747,163.229169 313.380129,163.5 312.630125,163.5 C311.859288,163.5 311.213461,163.223961 310.692625,162.671875 C310.171789,162.119789 309.911375,161.47917 309.911375,160.75 Z M312.223875,194.15625 L313.723875,194.15625 C312.744703,196.177093 311.468675,197.968742 309.89575,199.53125 C308.322825,201.093758 306.807216,201.875 305.348875,201.875 C304.369703,201.875 303.510337,201.526045 302.77075,200.828125 C302.031163,200.130205 301.661375,199.104173 301.661375,197.75 C301.661375,196.645828 302.244703,194.531266 303.411375,191.40625 L307.005125,181.875 C307.838463,179.645822 308.255125,178.291669 308.255125,177.8125 C308.255125,177.395831 308.156168,177.083334 307.95825,176.875 C307.760332,176.666666 307.46346,176.5625 307.067625,176.5625 C306.255121,176.5625 305.291589,177.192702 304.177,178.453125 C303.062411,179.713548 302.275961,180.854162 301.817625,181.875 L300.317625,181.875 C301.463464,179.604155 302.770743,177.812507 304.2395,176.5 C305.708257,175.187493 307.078035,174.53125 308.348875,174.53125 C309.328047,174.53125 310.130122,174.86458 310.755125,175.53125 C311.380128,176.19792 311.692625,177.072911 311.692625,178.15625 C311.692625,179.260422 311.140547,181.281235 310.036375,184.21875 L307.036375,192.34375 C305.932203,195.281265 305.380125,197.124996 305.380125,197.875 C305.380125,198.47917 305.499915,198.93229 305.7395,199.234375 C305.979085,199.53646 306.328039,199.6875 306.786375,199.6875 C308.328049,199.6875 310.140531,197.843768 312.223875,194.15625 Z M316.192625,192.78125 C316.192625,190.281238 316.775953,187.557306 317.942625,184.609375 C319.109298,181.661444 320.775948,179.270843 322.942625,177.4375 C325.109303,175.604157 327.213448,174.6875 329.255125,174.6875 C331.109301,174.6875 332.635327,175.47395 333.83325,177.046875 C335.031173,178.6198 335.630125,180.749987 335.630125,183.4375 C335.630125,186.687516 334.963465,189.770819 333.630125,192.6875 C332.296785,195.604181 330.624927,197.838534 328.6145,199.390625 C326.604073,200.942716 324.630135,201.71875 322.692625,201.71875 C320.96345,201.71875 319.44784,201.05209 318.14575,199.71875 C316.84366,198.38541 316.192625,196.072933 316.192625,192.78125 Z M319.536375,196.375 C319.536375,197.500006 319.828039,198.458329 320.411375,199.25 C320.994711,200.041671 321.796787,200.4375 322.817625,200.4375 C325.609306,200.4375 327.906158,197.791693 329.70825,192.5 C331.510342,187.208307 332.411375,183.166681 332.411375,180.375 C332.411375,178.937493 332.135336,177.859379 331.58325,177.140625 C331.031164,176.421871 330.203047,176.0625 329.098875,176.0625 C326.494695,176.0625 324.249926,178.5156 322.3645,183.421875 C320.479074,188.32815 319.536375,192.645815 319.536375,196.375 Z M362.192625,195.125 L363.786375,195.125 C362.536369,197.375011 361.26034,199.062494 359.95825,200.1875 C358.65616,201.312506 357.328048,201.875 355.973875,201.875 C355.03637,201.875 354.229087,201.588545 353.552,201.015625 C352.874913,200.442705 352.536375,199.593756 352.536375,198.46875 C352.536375,197.531245 353.015537,195.677097 353.973875,192.90625 L357.317625,183.375 C358.213463,180.77082 358.661375,179.083337 358.661375,178.3125 C358.661375,177.624997 358.510335,177.114585 358.20825,176.78125 C357.906165,176.447915 357.442628,176.28125 356.817625,176.28125 C355.234284,176.28125 353.166596,178.140606 350.6145,181.859375 C348.062404,185.578144 345.869718,190.447887 344.036375,196.46875 L342.505125,201.46875 L338.692625,201.46875 L344.192625,183.71875 C345.19263,180.4479 345.692625,178.572919 345.692625,178.09375 C345.692625,177.739582 345.630126,177.479168 345.505125,177.3125 C345.380124,177.145833 345.18221,177.0625 344.911375,177.0625 C343.682202,177.0625 342.223883,178.583318 340.536375,181.625 L339.098875,181.625 C341.703055,176.89581 344.17178,174.53125 346.505125,174.53125 C347.317629,174.53125 347.926998,174.776039 348.33325,175.265625 C348.739502,175.755211 348.942625,176.499995 348.942625,177.5 C348.942625,179.291676 348.244715,182.062481 346.848875,185.8125 C350.619727,178.291629 354.286357,174.53125 357.848875,174.53125 C358.994714,174.53125 359.994704,174.911455 360.848875,175.671875 C361.703046,176.432295 362.130125,177.541659 362.130125,179 C362.130125,179.937505 361.703046,181.687487 360.848875,184.25 L357.505125,194.21875 C356.609287,196.906263 356.161375,198.406248 356.161375,198.71875 C356.161375,199.114585 356.260332,199.411457 356.45825,199.609375 C356.656168,199.807293 356.942623,199.90625 357.317625,199.90625 C358.025962,199.90625 358.786371,199.505212 359.598875,198.703125 C360.411379,197.901038 361.275954,196.708341 362.192625,195.125 Z M366.223875,198.59375 C366.223875,197.697912 366.546788,196.927087 367.192625,196.28125 C367.838462,195.635413 368.619704,195.3125 369.536375,195.3125 C370.432213,195.3125 371.203038,195.635413 371.848875,196.28125 C372.494712,196.927087 372.817625,197.697912 372.817625,198.59375 C372.817625,199.510421 372.494712,200.291663 371.848875,200.9375 C371.203038,201.583337 370.432213,201.90625 369.536375,201.90625 C368.59887,201.90625 367.81242,201.578128 367.177,200.921875 C366.54158,200.265622 366.223875,199.489588 366.223875,198.59375 Z" id="Good-luck-is-the-res" fill="#003057"></path>
            </g>
        </g>
    </g>
</svg>