<?xml version="1.0" encoding="UTF-8"?>
<svg width="215px" height="256px" viewBox="0 0 215 256" version="1.1" xmlns="http://www.w3.org/2000/svg" xmlns:xlink="http://www.w3.org/1999/xlink">
    <!-- Generator: Sketch 47.1 (45422) - http://www.bohemiancoding.com/sketch -->
    <title>mobile_quote01</title>
    <desc>Created with Sketch.</desc>
    <defs></defs>
    <g id="Symbols" stroke="none" stroke-width="1" fill="none" fill-rule="evenodd">
        <g id="mobile_quote01">
            <path d="M202,2 L13,2" id="Line-Copy-2" stroke="#FFFFFF" stroke-width="2" stroke-linecap="square"></path>
            <path d="M202,255 L13,255" id="Line-Copy-3" stroke="#FFFFFF" stroke-width="2" stroke-linecap="square"></path>
            <path d="M36.1931152,32.9125977 L35.4680176,32.9125977 C36.2951702,30.7641494 37.2055614,29.0749573 38.1992188,27.8449707 C39.1928761,26.6149841 40.1354936,26 41.0270996,26 C41.757572,26 42.3752416,26.4538529 42.880127,27.3615723 C43.3850123,28.2692916 43.6374512,29.5234295 43.6374512,31.1240234 C43.6374512,33.2509872 43.3151888,35.7485208 42.6706543,38.6166992 C44.0778879,35.3618001 45.6865144,32.4453254 47.496582,29.8671875 C49.3066497,27.2890496 50.9206472,26 52.338623,26 C52.9724153,26 53.4907206,26.1772443 53.8935547,26.5317383 C54.2963887,26.8862322 54.4978027,27.3320286 54.4978027,27.8691406 C54.4978027,28.1699234 54.4038095,28.4545885 54.2158203,28.7231445 C54.0278311,28.9917006 53.7727067,29.1259766 53.4504395,29.1259766 C52.7951627,29.1259766 52.4621583,28.6694382 52.451416,27.7563477 C52.451416,27.2192356 52.2043482,26.9506836 51.7102051,26.9506836 C51.1301241,26.9506836 50.3217825,27.5307559 49.2851562,28.690918 C48.24853,29.85108 47.0588446,31.6100956 45.7160645,33.9680176 C44.3732843,36.3259395 43.2802777,38.8046745 42.4370117,41.4042969 C41.5937458,44.0039192 41.1721191,45.5185525 41.1721191,45.9482422 C41.1721191,46.5068387 41.4057594,46.9042957 41.8730469,47.140625 C42.3403344,47.3769543 42.8586397,47.4951172 43.4279785,47.4951172 L44.3786621,47.4951172 L44.1530762,48.2363281 L34.0339355,48.2363281 L34.2595215,47.4951172 L35.2263184,47.4951172 C36.4401916,47.4951172 37.3103001,47.1594272 37.8366699,46.4880371 C38.3630397,45.816647 39.0424763,43.6736021 39.875,40.0588379 C40.7075237,36.4440737 41.1237793,33.5034293 41.1237793,31.2368164 C41.1237793,29.9584897 41.0297861,29.0024446 40.8417969,28.3686523 C40.6538077,27.7348601 40.366457,27.4179688 39.9797363,27.4179688 C39.4533665,27.4179688 38.7873575,28.0571225 37.9816895,29.3354492 C37.1760214,30.6137759 36.5798359,31.8061468 36.1931152,32.9125977 Z M47.6174316,43.9985352 C47.6174316,42.7094662 47.9182099,41.3049392 48.5197754,39.7849121 C49.1213409,38.264885 49.9807073,37.0322313 51.0979004,36.0869141 C52.2150935,35.1415968 53.3000436,34.6689453 54.3527832,34.6689453 C55.3088427,34.6689453 56.0957,35.0744588 56.7133789,35.885498 C57.3310578,36.6965373 57.6398926,37.7949149 57.6398926,39.1806641 C57.6398926,40.8564537 57.296146,42.4462815 56.6086426,43.9501953 C55.9211391,45.4541091 55.0590872,46.6061972 54.0224609,47.4064941 C52.9858347,48.2067911 51.9680226,48.6069336 50.9689941,48.6069336 C50.0773881,48.6069336 49.2959018,48.263187 48.6245117,47.5756836 C47.9531216,46.8881802 47.6174316,45.6958093 47.6174316,43.9985352 Z M49.3415527,45.8515625 C49.3415527,46.4316435 49.4919419,46.9257792 49.7927246,47.3339844 C50.0935074,47.7421895 50.5070774,47.9462891 51.0334473,47.9462891 C52.4729076,47.9462891 53.6572219,46.5820449 54.5864258,43.8535156 C55.5156296,41.1249864 55.9802246,39.0410228 55.9802246,37.6015625 C55.9802246,36.8603479 55.837892,36.3044452 55.5532227,35.9338379 C55.2685533,35.5632306 54.8415556,35.3779297 54.2722168,35.3779297 C52.9294366,35.3779297 51.7719775,36.6428096 50.7998047,39.1726074 C49.8276319,41.7024052 49.3415527,43.9287013 49.3415527,45.8515625 Z M71.4489746,44.9169922 L72.1257324,44.9169922 C71.2126419,47.4306766 69.9773027,48.6875 68.4196777,48.6875 C67.8933079,48.6875 67.4985365,48.5424819 67.2353516,48.2524414 C66.9721667,47.9624009 66.8405762,47.5273467 66.8405762,46.9472656 C66.8405762,46.1308553 67.1306123,44.8256926 67.7106934,43.0317383 C65.8308011,46.8022649 63.9724213,48.6875 62.135498,48.6875 C61.4587369,48.6875 60.9270039,48.4780294 60.5402832,48.059082 C60.1535625,47.6401346 59.9602051,47.1191437 59.9602051,46.4960938 C59.9602051,45.883786 60.2019019,44.8686594 60.6853027,43.4506836 L62.6672363,37.6660156 C62.9572768,36.8066363 63.1022949,36.2910165 63.1022949,36.1191406 C63.1022949,35.8398424 62.9626479,35.7001953 62.6833496,35.7001953 C62.0065884,35.7001953 61.2653849,36.6079011 60.4597168,38.4233398 L59.6862793,38.4233398 C60.1159689,37.2954045 60.6799281,36.3742711 61.3781738,35.6599121 C62.0764195,34.9455531 62.7639126,34.5883789 63.4406738,34.5883789 C63.8596212,34.5883789 64.2167954,34.7199694 64.512207,34.9831543 C64.8076187,35.2463392 64.9553223,35.6411106 64.9553223,36.1674805 C64.9553223,36.5434589 64.7673359,37.2954045 64.3913574,38.4233398 L62.361084,44.3852539 C61.9743633,45.545416 61.7810059,46.3081036 61.7810059,46.6733398 C61.7810059,47.0063493 61.8562004,47.2587882 62.0065918,47.4306641 C62.1569832,47.6025399 62.3771958,47.6884766 62.6672363,47.6884766 C63.6125536,47.6884766 64.7351009,46.6840921 66.0349121,44.675293 C67.3347233,42.6664939 68.5808046,39.6801956 69.7731934,35.7163086 L70.0471191,34.7978516 L71.9807129,34.7978516 L69.1608887,44.046875 C68.7097145,45.5507888 68.4841309,46.4584945 68.4841309,46.7700195 C68.4841309,47.0385756 68.5378413,47.2399896 68.6452637,47.3742676 C68.7526861,47.5085456 68.9138173,47.5756836 69.1286621,47.5756836 C69.9450724,47.5756836 70.7185022,46.689462 71.4489746,44.9169922 Z M82.8088379,37.0698242 L82.1159668,37.0698242 C82.5349142,35.4692303 83.0988734,34.6689453 83.8078613,34.6689453 C84.237551,34.6689453 84.6833473,34.9374973 85.1452637,35.4746094 C85.5964378,35.990237 85.9777816,36.2480469 86.2893066,36.2480469 C86.5900894,36.2480469 86.804931,36.0063501 86.9338379,35.5229492 C87.1057137,34.8998992 87.3581526,34.5883789 87.6911621,34.5883789 C88.0241716,34.5883789 88.1906738,34.738768 88.1906738,35.0395508 C88.1906738,35.1791999 87.8952666,35.7592722 87.3044434,36.7797852 C85.9401787,39.1001093 85.0512716,41.0229416 84.6376953,42.5483398 C84.224119,44.0737381 84.017334,45.1210909 84.017334,45.6904297 C84.017334,46.238284 84.1489245,46.702879 84.4121094,47.0842285 C84.6752943,47.4655781 85.0485816,47.65625 85.5319824,47.65625 C86.2409703,47.65625 87.0627395,47.3178745 87.9973145,46.6411133 C88.9318894,45.9643521 89.678464,45.287601 90.2370605,44.6108398 C90.2048338,44.3422838 90.1887207,44.0576187 90.1887207,43.7568359 C90.1887207,41.5439342 90.634517,39.4626562 91.526123,37.5129395 C92.4177291,35.5632227 93.3576611,34.5883789 94.3459473,34.5883789 C94.7541524,34.5883789 95.0576162,34.733397 95.2563477,35.0234375 C95.4550791,35.313478 95.5544434,35.7485323 95.5544434,36.3286133 C95.5544434,37.3168995 95.2778348,38.4018496 94.7246094,39.5834961 C94.171384,40.7651426 93.3361872,42.0434502 92.2189941,43.418457 C92.3156743,44.7827217 92.5869118,45.8408166 93.0327148,46.5927734 C93.4785179,47.3447303 94.0344205,47.7207031 94.7004395,47.7207031 C95.3342317,47.7207031 96.0700642,47.3474158 96.907959,46.6008301 C97.7458538,45.8542443 98.4951139,44.7263259 99.1557617,43.217041 C99.8164096,41.7077561 100.146729,40.4321341 100.146729,39.3901367 C100.146729,38.7670867 99.9748552,38.0849646 99.6311035,37.34375 C99.3195785,36.677731 99.1638184,36.1191429 99.1638184,35.6679688 C99.1638184,35.3349593 99.2524405,35.0717783 99.4296875,34.878418 C99.6069345,34.6850576 99.7976064,34.5883789 100.001709,34.5883789 C100.302492,34.5883789 100.581786,34.7978495 100.8396,35.2167969 C101.097413,35.6357443 101.226318,36.3339795 101.226318,37.3115234 C101.226318,38.7294993 100.885257,40.4562886 100.203125,42.4919434 C99.5209927,44.5275981 98.5703186,46.0690866 97.3510742,47.1164551 C96.1318298,48.1638236 94.9636286,48.6875 93.8464355,48.6875 C92.9011183,48.6875 92.1357451,48.3410679 91.550293,47.6481934 C90.9648408,46.9553188 90.5969246,46.238285 90.4465332,45.4970703 C89.415278,46.5605522 88.4216356,47.3608372 87.4655762,47.8979492 C86.5095167,48.4350613 85.5910689,48.7036133 84.7102051,48.7036133 C83.8185991,48.7036133 83.1445335,48.4296902 82.6879883,47.8818359 C82.231443,47.3339816 82.0031738,46.6518596 82.0031738,45.8354492 C82.0031738,44.0414949 83.1579474,41.506364 85.4675293,38.2299805 C86.0368681,37.4457969 86.3698726,36.9624033 86.4665527,36.7797852 C86.0046364,37.0375989 85.5695821,37.1665039 85.161377,37.1665039 C84.7853985,37.1665039 84.3879415,36.9677754 83.9689941,36.5703125 C83.786376,36.3876944 83.6252448,36.2963867 83.4855957,36.2963867 C83.2277819,36.2963867 83.0183114,36.5058573 82.8571777,36.9248047 L82.8088379,37.0698242 Z M92.0900879,42.4355469 C93.0031784,41.2109314 93.687986,40.0856985 94.1445312,39.0598145 C94.6010765,38.0339304 94.8293457,37.1127971 94.8293457,36.2963867 C94.8293457,35.9633772 94.7836919,35.7136239 94.6923828,35.5471191 C94.6010738,35.3806144 94.4587412,35.2973633 94.2653809,35.2973633 C93.8356912,35.2973633 93.3603542,35.8344673 92.8393555,36.9086914 C92.3183568,37.9829155 92.0578613,39.5458882 92.0578613,41.5976562 C92.0578613,41.8339856 92.0686034,42.1132796 92.0900879,42.4355469 Z M107.301025,27.4824219 C107.301025,27.0957012 107.437987,26.7653822 107.711914,26.4914551 C107.985841,26.2175279 108.31616,26.0805664 108.702881,26.0805664 C109.089602,26.0805664 109.419921,26.2175279 109.693848,26.4914551 C109.967775,26.7653822 110.104736,27.0957012 110.104736,27.4824219 C110.104736,27.8691426 109.967775,28.202147 109.693848,28.4814453 C109.419921,28.7607436 109.089602,28.9003906 108.702881,28.9003906 C108.305418,28.9003906 107.972413,28.7580581 107.703857,28.4733887 C107.435301,28.1887193 107.301025,27.8584003 107.301025,27.4824219 Z M108.493408,44.7075195 L109.266846,44.7075195 C108.76196,45.7495169 108.104008,46.6733358 107.292969,47.4790039 C106.48193,48.284672 105.700443,48.6875 104.948486,48.6875 C104.443601,48.6875 104.00049,48.5075702 103.619141,48.1477051 C103.237791,47.78784 103.047119,47.2587926 103.047119,46.5605469 C103.047119,45.9912081 103.347897,44.900887 103.949463,43.2895508 L105.80249,38.375 C106.23218,37.2255802 106.447021,36.527345 106.447021,36.2802734 C106.447021,36.0654286 106.395997,35.9042974 106.293945,35.796875 C106.191894,35.6894526 106.038819,35.6357422 105.834717,35.6357422 C105.415769,35.6357422 104.918948,35.9606901 104.344238,36.6105957 C103.769528,37.2605013 103.364015,37.8486302 103.127686,38.375 L102.354248,38.375 C102.945071,37.2040957 103.619137,36.2802768 104.376465,35.6035156 C105.133793,34.9267544 105.840085,34.5883789 106.495361,34.5883789 C107.000247,34.5883789 107.413817,34.7602522 107.736084,35.1040039 C108.058351,35.4477556 108.219482,35.898923 108.219482,36.4575195 C108.219482,37.0268583 107.934817,38.0688401 107.365479,39.5834961 L105.818604,43.7729492 C105.249265,45.2876052 104.9646,46.2382793 104.9646,46.625 C104.9646,46.936525 105.026367,47.1701652 105.149902,47.3259277 C105.273438,47.4816902 105.453368,47.5595703 105.689697,47.5595703 C106.484623,47.5595703 107.419184,46.6088962 108.493408,44.7075195 Z M116.437256,44.3691406 L117.14624,44.3691406 C116.050532,47.2480613 114.643319,48.6875 112.924561,48.6875 C112.333737,48.6875 111.861086,48.491457 111.506592,48.0993652 C111.152098,47.7072734 110.974854,47.2158233 110.974854,46.625 C110.974854,46.044919 111.323971,44.6108513 112.022217,42.3227539 L115.792725,29.8833008 C116.114992,28.8305611 116.276123,28.2182626 116.276123,28.0463867 C116.276123,27.7885729 116.203614,27.6059576 116.058594,27.4985352 C115.913573,27.3911127 115.551028,27.3374023 114.970947,27.3374023 L114.342529,27.3374023 L114.552002,26.6606445 C116.324472,26.6284178 117.629634,26.4350604 118.467529,26.0805664 L118.870361,26.0805664 L113.681885,43.1606445 C113.606689,43.4292006 113.450929,43.9179652 113.2146,44.6269531 C112.903075,45.5615281 112.747314,46.2705054 112.747314,46.7539062 C112.747314,47.0761735 112.809081,47.3178703 112.932617,47.4790039 C113.056153,47.6401375 113.241454,47.7207031 113.488525,47.7207031 C113.853762,47.7207031 114.3103,47.4682642 114.858154,46.9633789 C115.406009,46.4584936 115.932371,45.5937561 116.437256,44.3691406 Z M124.348877,44.3691406 L125.057861,44.3691406 C123.962153,47.2480613 122.55494,48.6875 120.836182,48.6875 C120.245358,48.6875 119.772707,48.491457 119.418213,48.0993652 C119.063719,47.7072734 118.886475,47.2158233 118.886475,46.625 C118.886475,46.044919 119.235592,44.6108513 119.933838,42.3227539 L123.704346,29.8833008 C124.026613,28.8305611 124.187744,28.2182626 124.187744,28.0463867 C124.187744,27.7885729 124.115235,27.6059576 123.970215,27.4985352 C123.825195,27.3911127 123.462649,27.3374023 122.882568,27.3374023 L122.25415,27.3374023 L122.463623,26.6606445 C124.236093,26.6284178 125.541256,26.4350604 126.37915,26.0805664 L126.781982,26.0805664 L121.593506,43.1606445 C121.51831,43.4292006 121.36255,43.9179652 121.126221,44.6269531 C120.814696,45.5615281 120.658936,46.2705054 120.658936,46.7539062 C120.658936,47.0761735 120.720703,47.3178703 120.844238,47.4790039 C120.967774,47.6401375 121.153075,47.7207031 121.400146,47.7207031 C121.765383,47.7207031 122.221921,47.4682642 122.769775,46.9633789 C123.31763,46.4584936 123.843992,45.5937561 124.348877,44.3691406 Z M146.295166,45.2070312 L147.116943,45.2070312 C146.472409,46.3671933 145.814456,47.2373018 145.143066,47.8173828 C144.471676,48.3974638 143.786869,48.6875 143.088623,48.6875 C142.605222,48.6875 142.188967,48.5397964 141.839844,48.2443848 C141.490721,47.9489731 141.316162,47.5112334 141.316162,46.9311523 C141.316162,46.4477515 141.56323,45.4917064 142.057373,44.0629883 L143.781494,39.1484375 C144.243411,37.8056573 144.474365,36.9355489 144.474365,36.5380859 C144.474365,36.183592 144.396485,35.920411 144.240723,35.7485352 C144.08496,35.5766593 143.845949,35.4907227 143.523682,35.4907227 C142.707271,35.4907227 141.64112,36.4494533 140.325195,38.3669434 C139.009271,40.2844334 137.878667,42.7953946 136.93335,45.8999023 L136.143799,48.4780273 L134.177979,48.4780273 L137.013916,39.3256836 C137.529544,37.6391517 137.787354,36.6723645 137.787354,36.425293 C137.787354,36.2426749 137.755127,36.1083989 137.690674,36.0224609 C137.62622,35.936523 137.524171,35.8935547 137.384521,35.8935547 C136.750729,35.8935547 135.998784,36.6777265 135.128662,38.2460938 L134.387451,38.2460938 C135.730231,35.807605 137.003168,34.5883789 138.206299,34.5883789 C138.625246,34.5883789 138.939452,34.7145983 139.148926,34.967041 C139.358399,35.2194837 139.463135,35.603513 139.463135,36.1191406 C139.463135,37.0429734 139.103275,38.47167 138.383545,40.4052734 C140.327891,36.5273244 142.218497,34.5883789 144.05542,34.5883789 C144.646243,34.5883789 145.161863,34.7844219 145.602295,35.1765137 C146.042727,35.5686055 146.262939,36.1406212 146.262939,36.8925781 C146.262939,37.375979 146.042727,38.2783137 145.602295,39.5996094 L143.878174,44.7397461 C143.416257,46.1254952 143.185303,46.898925 143.185303,47.0600586 C143.185303,47.2641612 143.236328,47.4172358 143.338379,47.5192871 C143.44043,47.6213384 143.588134,47.6723633 143.781494,47.6723633 C144.14673,47.6723633 144.538816,47.4655782 144.957764,47.052002 C145.376711,46.6384257 145.822507,46.0234416 146.295166,45.2070312 Z M155.818115,44.1274414 L156.591553,44.1274414 C155.227288,47.1674957 153.476329,48.6875 151.338623,48.6875 C150.457759,48.6875 149.740725,48.3786652 149.1875,47.7609863 C148.634275,47.1433075 148.357666,46.3081107 148.357666,45.2553711 C148.357666,43.9233332 148.71484,42.419442 149.429199,40.7436523 C150.143558,39.0678627 151.158685,37.6230529 152.474609,36.4091797 C153.790534,35.1953064 154.937251,34.5883789 155.914795,34.5883789 C156.51636,34.5883789 156.972899,34.7790508 157.284424,35.1604004 C157.595949,35.54175 157.751709,36.017087 157.751709,36.5864258 C157.751709,37.7465878 157.171637,38.8610786 156.011475,39.9299316 C154.851313,40.9987846 153.111096,42.0273388 150.790771,43.015625 C150.489989,43.9502 150.3396,44.8364216 150.3396,45.6743164 C150.3396,46.3618198 150.473876,46.8774397 150.742432,47.2211914 C151.010988,47.5649431 151.408445,47.7368164 151.934814,47.7368164 C153.406501,47.7368164 154.700922,46.5337034 155.818115,44.1274414 Z M151.032471,42.1938477 C152.41822,41.5707977 153.664301,40.7114313 154.770752,39.6157227 C155.877203,38.5200141 156.43042,37.5263716 156.43042,36.6347656 C156.43042,36.2265605 156.347169,35.9230967 156.180664,35.7243652 C156.014159,35.5256338 155.764406,35.4262695 155.431396,35.4262695 C154.786862,35.4262695 154.02686,36.0519957 153.151367,37.3034668 C152.275875,38.5549379 151.569583,40.1850485 151.032471,42.1938477 Z M159.443604,37.0859375 L158.782959,37.0859375 C159.287844,35.4208901 159.980708,34.5883789 160.861572,34.5883789 C161.334231,34.5883789 161.801511,34.9804648 162.263428,35.7646484 C162.435304,36.0654312 162.644774,36.2158203 162.891846,36.2158203 C163.149659,36.2158203 163.348388,35.9956077 163.488037,35.5551758 C163.69214,34.9106413 163.955321,34.5883789 164.277588,34.5883789 C164.524659,34.5883789 164.648193,34.7065418 164.648193,34.9428711 C164.648193,35.1684582 164.481691,35.5927703 164.148682,36.2158203 C162.859613,38.6220823 161.970706,40.4831477 161.481934,41.7990723 C160.993162,43.1149968 160.748779,44.2939401 160.748779,45.3359375 C160.748779,46.0878944 160.90991,46.6706522 161.232178,47.0842285 C161.554445,47.4978048 161.925047,47.7045898 162.343994,47.7045898 C163.600836,47.7045898 164.822748,46.724375 166.009766,44.763916 C167.196783,42.803457 167.790283,40.8994233 167.790283,39.0517578 C167.790283,38.3212854 167.634523,37.590824 167.322998,36.8603516 C167.129638,36.4091774 167.032959,36.0170915 167.032959,35.684082 C167.032959,34.9536096 167.306882,34.5883789 167.854736,34.5883789 C168.177004,34.5883789 168.440185,34.7763653 168.644287,35.1523438 C168.84839,35.5283222 168.950439,36.038571 168.950439,36.6831055 C168.950439,38.1118235 168.638919,39.8654681 168.015869,41.9440918 C167.392819,44.0227155 166.495855,45.6662537 165.324951,46.8747559 C164.154047,48.083258 162.92945,48.6875 161.651123,48.6875 C160.802486,48.6875 160.123049,48.424319 159.612793,47.8979492 C159.102537,47.3715794 158.847412,46.641118 158.847412,45.706543 C158.847412,44.7397413 159.110593,43.6655333 159.636963,42.4838867 C160.163333,41.3022402 161.049554,39.80372 162.295654,37.9882812 C162.489015,37.708983 162.666259,37.4243179 162.827393,37.1342773 C162.967042,36.897948 163.06372,36.7421879 163.117432,36.6669922 C162.687742,36.9355482 162.301027,37.0698242 161.957275,37.0698242 C161.602781,37.0698242 161.296632,36.9409193 161.038818,36.6831055 C160.75952,36.4145494 160.507081,36.2802734 160.281494,36.2802734 C159.927,36.2802734 159.647706,36.5488254 159.443604,37.0859375 Z M178.118896,44.1274414 L178.892334,44.1274414 C177.528069,47.1674957 175.77711,48.6875 173.639404,48.6875 C172.758541,48.6875 172.041507,48.3786652 171.488281,47.7609863 C170.935056,47.1433075 170.658447,46.3081107 170.658447,45.2553711 C170.658447,43.9233332 171.015621,42.419442 171.72998,40.7436523 C172.44434,39.0678627 173.459466,37.6230529 174.775391,36.4091797 C176.091315,35.1953064 177.238032,34.5883789 178.215576,34.5883789 C178.817142,34.5883789 179.27368,34.7790508 179.585205,35.1604004 C179.89673,35.54175 180.05249,36.017087 180.05249,36.5864258 C180.05249,37.7465878 179.472418,38.8610786 178.312256,39.9299316 C177.152094,40.9987846 175.411877,42.0273388 173.091553,43.015625 C172.79077,43.9502 172.640381,44.8364216 172.640381,45.6743164 C172.640381,46.3618198 172.774657,46.8774397 173.043213,47.2211914 C173.311769,47.5649431 173.709226,47.7368164 174.235596,47.7368164 C175.707283,47.7368164 177.001703,46.5337034 178.118896,44.1274414 Z M173.333252,42.1938477 C174.719001,41.5707977 175.965082,40.7114313 177.071533,39.6157227 C178.177984,38.5200141 178.731201,37.5263716 178.731201,36.6347656 C178.731201,36.2265605 178.64795,35.9230967 178.481445,35.7243652 C178.314941,35.5256338 178.065187,35.4262695 177.732178,35.4262695 C177.087643,35.4262695 176.327641,36.0519957 175.452148,37.3034668 C174.576656,38.5549379 173.870364,40.1850485 173.333252,42.1938477 Z M181.406006,38.9389648 L180.697021,38.9389648 C181.148196,37.7358338 181.71484,36.7099652 182.396973,35.8613281 C183.079105,35.0126911 183.75317,34.5883789 184.419189,34.5883789 C184.881106,34.5883789 185.224852,34.7736798 185.450439,35.1442871 C185.676027,35.5148944 185.788818,36.0761681 185.788818,36.828125 C185.788818,37.7627 185.547122,39.0947179 185.063721,40.8242188 C185.128174,40.7167963 185.305418,40.3300815 185.595459,39.6640625 C186.390385,37.8701082 187.08862,36.5756876 187.690186,35.7807617 C188.291751,34.9858359 188.893308,34.5883789 189.494873,34.5883789 C189.870851,34.5883789 190.17163,34.7065418 190.397217,34.9428711 C190.622804,35.1792004 190.735596,35.4638655 190.735596,35.796875 C190.735596,36.1191422 190.641603,36.3823232 190.453613,36.5864258 C190.265624,36.7905284 190.042726,36.8925781 189.784912,36.8925781 C189.494872,36.8925781 189.199464,36.7153338 188.898682,36.3608398 C188.780517,36.2211907 188.662354,36.1513672 188.544189,36.1513672 C188.007077,36.1513672 187.179937,37.4431023 186.062744,40.0266113 C184.945551,42.6101203 184.043216,45.040516 183.355713,47.3178711 L183.001221,48.4780273 L181.067627,48.4780273 L183.629639,39.9379883 C184.11304,38.3051676 184.354736,37.1987334 184.354736,36.6186523 C184.354736,36.3071273 184.314454,36.0761726 184.233887,35.9257812 C184.15332,35.7753899 184.032472,35.7001953 183.871338,35.7001953 C183.516844,35.7001953 183.073733,36.0815392 182.541992,36.8442383 C182.010251,37.6069374 181.631593,38.3051726 181.406006,38.9389648 Z M48.3557129,88.2265625 L49.2785645,88.2265625 C48.7951636,90.2334085 48.0993698,91.6726031 47.1911621,92.5441895 C46.2829544,93.4157758 45.352788,93.8515625 44.4006348,93.8515625 C42.5256254,93.8515625 41.5881348,92.6577268 41.5881348,90.2700195 C41.5881348,89.9624008 41.6394038,89.2373104 41.7419434,88.0947266 C41.8884285,86.2490142 41.9616699,85.2016614 41.9616699,84.9526367 C41.9616699,83.5463797 41.4050349,82.8432617 40.291748,82.8432617 C39.7497531,82.8432617 39.2260767,83.0263654 38.7207031,83.3925781 C38.2153295,83.7587909 37.8491222,84.2128879 37.6220703,84.7548828 C37.3950184,85.2968777 37.0397973,86.3515547 36.5563965,87.9189453 L34.8425293,93.565918 L32.2277832,93.565918 L40.0061035,67.9897461 C40.4016133,66.6860286 40.5993652,65.9243175 40.5993652,65.7045898 C40.5993652,65.3530256 40.5041513,65.1040046 40.3137207,64.9575195 C40.1232901,64.8110344 39.6398965,64.737793 38.8635254,64.737793 L38.0725098,64.737793 L38.3581543,63.8149414 C40.731213,63.7709959 42.4743597,63.5000025 43.5876465,63.0019531 L44.1369629,63.0019531 L38.1164551,82.8212891 C41.5588551,79.0566218 43.920892,76.749516 45.2026367,75.8999023 C46.4843814,75.0502887 47.5866653,74.6254883 48.5095215,74.6254883 C49.8132389,74.6254883 50.4650879,75.1015577 50.4650879,76.0537109 C50.4650879,76.4199237 50.3369153,76.7275378 50.0805664,76.9765625 C49.8242175,77.2255872 49.5275896,77.3500977 49.1906738,77.3500977 C48.8977036,77.3500977 48.5021998,77.1962906 48.0041504,76.8886719 C47.6818832,76.6835927 47.3449725,76.5810547 46.9934082,76.5810547 C45.5871512,76.5810547 43.265397,78.4413876 40.0280762,82.1621094 C40.3063979,82.0888668 40.5261222,82.0522461 40.6872559,82.0522461 C43.0163691,82.0522461 44.2761221,84.4252692 44.4665527,89.1713867 C44.5251468,90.4311586 44.6313469,91.2294905 44.7851562,91.5664062 C44.9389656,91.903322 45.2209452,92.0717773 45.6311035,92.0717773 C46.1438014,92.0717773 46.6638157,91.6945839 47.1911621,90.9401855 C47.7185085,90.1857872 48.1066882,89.2812553 48.3557129,88.2265625 Z M66.8786621,89.1054688 L67.9992676,89.1054688 C67.1203569,90.6875079 66.2231491,91.8740195 65.3076172,92.6650391 C64.3920853,93.4560586 63.4582567,93.8515625 62.5061035,93.8515625 C61.8469205,93.8515625 61.2792993,93.6501485 60.8032227,93.2473145 C60.3271461,92.8444804 60.0891113,92.2475625 60.0891113,91.456543 C60.0891113,90.79736 60.426022,89.4936621 61.0998535,87.5454102 L63.4509277,80.84375 C64.0808137,79.0126862 64.395752,77.8261746 64.395752,77.2841797 C64.395752,76.8007788 64.2895518,76.4418957 64.0771484,76.2075195 C63.864745,75.9731434 63.5388206,75.855957 63.0993652,75.855957 C61.9860784,75.855957 60.5322355,77.163317 58.737793,79.7780762 C56.9433504,82.3928353 55.4016178,85.8168734 54.1125488,90.050293 L53.0358887,93.565918 L50.3552246,93.565918 L54.2224121,81.0854492 C54.9255406,78.785633 55.2770996,77.4672868 55.2770996,77.1303711 C55.2770996,76.8813464 55.2331547,76.6982428 55.1452637,76.5810547 C55.0573726,76.4638666 54.9182138,76.4052734 54.7277832,76.4052734 C53.8635211,76.4052734 52.8381407,77.4745987 51.6516113,79.6132812 L50.6408691,79.6132812 C52.471933,76.2880693 54.2077555,74.6254883 55.8483887,74.6254883 C56.4196806,74.6254883 56.8481431,74.7976057 57.1337891,75.1418457 C57.419435,75.4860857 57.5622559,76.0097621 57.5622559,76.7128906 C57.5622559,77.9726625 57.0715381,79.9208853 56.0900879,82.5576172 C58.7414683,77.2695048 61.3195676,74.6254883 63.8244629,74.6254883 C64.630131,74.6254883 65.333249,74.8928196 65.9338379,75.4274902 C66.5344268,75.9621609 66.8347168,76.7421824 66.8347168,77.7675781 C66.8347168,78.4267611 66.5344268,79.6572176 65.9338379,81.4589844 L63.5827637,88.4682617 C62.9528777,90.3579196 62.6379395,91.4125966 62.6379395,91.6323242 C62.6379395,91.9106459 62.7075188,92.1193841 62.8466797,92.2585449 C62.9858405,92.3977058 63.1872545,92.4672852 63.4509277,92.4672852 C63.9489771,92.4672852 64.4836397,92.1853056 65.0549316,91.6213379 C65.6262236,91.0573702 66.2341276,90.2187556 66.8786621,89.1054688 Z M70.1745605,87.4575195 C70.1745605,85.6996982 70.5847127,83.7844342 71.4050293,81.7116699 C72.2253459,79.6389057 73.3972092,77.9580143 74.9206543,76.6689453 C76.4440994,75.3798764 77.9235768,74.7353516 79.3591309,74.7353516 C80.6628483,74.7353516 81.7358356,75.2883245 82.578125,76.3942871 C83.4204144,77.5002497 83.8415527,78.9980374 83.8415527,80.8876953 C83.8415527,83.172863 83.3728074,85.3408101 82.4353027,87.3916016 C81.497798,89.4423931 80.3222727,91.0134223 78.9086914,92.1047363 C77.4951101,93.1960504 76.1071845,93.7416992 74.744873,93.7416992 C73.5290467,93.7416992 72.4633835,93.2729539 71.5478516,92.3354492 C70.6323196,91.3979445 70.1745605,89.7719842 70.1745605,87.4575195 Z M72.5256348,89.984375 C72.5256348,90.7753946 72.7307108,91.449216 73.1408691,92.0058594 C73.5510274,92.5625028 74.1149866,92.8408203 74.8327637,92.8408203 C76.7956641,92.8408203 78.4106382,90.9804874 79.6777344,87.2597656 C80.9448306,83.5390439 81.5783691,80.6972754 81.5783691,78.734375 C81.5783691,77.7236278 81.3842793,76.9655787 80.9960938,76.4602051 C80.6079082,75.9548315 80.0256386,75.7021484 79.2492676,75.7021484 C77.4182037,75.7021484 75.8398504,77.4269847 74.5141602,80.876709 C73.1884699,84.3264333 72.5256348,87.3622916 72.5256348,89.984375 Z M88.4997559,78.0092773 L87.5549316,78.0092773 C88.1262236,75.8266492 88.8952588,74.7353516 89.8620605,74.7353516 C90.448001,74.7353516 91.0559051,75.1015588 91.685791,75.8339844 C92.3010285,76.5371129 92.8210428,76.8886719 93.2458496,76.8886719 C93.6560079,76.8886719 93.9489737,76.5590853 94.1247559,75.8999023 C94.359132,75.0502887 94.7033669,74.6254883 95.1574707,74.6254883 C95.6115745,74.6254883 95.838623,74.8305644 95.838623,75.2407227 C95.838623,75.4311533 95.435795,76.222161 94.630127,77.6137695 C92.7697661,80.7778479 91.55762,83.3998919 90.9936523,85.4799805 C90.4296847,87.560069 90.1477051,88.9882774 90.1477051,89.7646484 C90.1477051,90.5117225 90.3271466,91.1452611 90.6860352,91.6652832 C91.0449237,92.1853053 91.5539518,92.4453125 92.2131348,92.4453125 C93.1799365,92.4453125 94.3005307,91.9838913 95.5749512,91.0610352 C96.8493716,90.138179 97.8674278,89.2153366 98.6291504,88.2924805 C98.5852049,87.9262677 98.5632324,87.538088 98.5632324,87.1279297 C98.5632324,84.1103365 99.1711365,81.2722301 100.386963,78.6135254 C101.602789,75.9548207 102.884515,74.6254883 104.232178,74.6254883 C104.788821,74.6254883 105.202635,74.8232402 105.473633,75.21875 C105.74463,75.6142598 105.880127,76.2075156 105.880127,76.9985352 C105.880127,78.3461981 105.502933,79.8256755 104.748535,81.4370117 C103.994137,83.0483479 102.855232,84.7914945 101.331787,86.6665039 C101.463624,88.5268648 101.833493,89.9697214 102.441406,90.9951172 C103.049319,92.0205129 103.807369,92.5332031 104.715576,92.5332031 C105.579838,92.5332031 106.583246,92.024175 107.72583,91.0061035 C108.868414,89.988032 109.890132,88.4499615 110.791016,86.3918457 C111.691899,84.3337299 112.142334,82.5942454 112.142334,81.1733398 C112.142334,80.3237262 111.907961,79.3935597 111.439209,78.3828125 C111.014402,77.4746048 110.802002,76.7128937 110.802002,76.0976562 C110.802002,75.6435524 110.92285,75.2846693 111.164551,75.0209961 C111.406251,74.7573229 111.666258,74.6254883 111.94458,74.6254883 C112.354738,74.6254883 112.735594,74.91113 113.087158,75.4824219 C113.438722,76.0537138 113.614502,77.0058527 113.614502,78.3388672 C113.614502,80.2724706 113.149419,82.6271834 112.219238,85.4030762 C111.289058,88.178969 109.992684,90.2809987 108.330078,91.7092285 C106.667472,93.1374583 105.074471,93.8515625 103.551025,93.8515625 C102.261956,93.8515625 101.218266,93.3791551 100.419922,92.4343262 C99.621578,91.4894972 99.1198741,90.5117238 98.9147949,89.5009766 C97.5085379,90.9511791 96.153571,92.0424768 94.8498535,92.7749023 C93.5461361,93.5073279 92.2937072,93.8735352 91.0925293,93.8735352 C89.8767029,93.8735352 88.9575226,93.5000037 88.3349609,92.7529297 C87.7123992,92.0058556 87.401123,91.0756892 87.401123,89.9624023 C87.401123,87.516101 88.9758143,84.0591044 92.1252441,79.5913086 C92.9016152,78.5219673 93.3557122,77.8627942 93.4875488,77.6137695 C92.8576629,77.9653338 92.2644071,78.1411133 91.7077637,78.1411133 C91.1950658,78.1411133 90.653079,77.8701199 90.0817871,77.328125 C89.8327624,77.0791003 89.6130381,76.9545898 89.4226074,76.9545898 C89.0710432,76.9545898 88.7854015,77.2402315 88.5656738,77.8115234 L88.4997559,78.0092773 Z M101.156006,85.3261719 C102.401129,83.6562417 103.334958,82.1218332 103.95752,80.7229004 C104.580081,79.3239676 104.891357,78.0678767 104.891357,76.9545898 C104.891357,76.500486 104.829102,76.1599132 104.70459,75.9328613 C104.580078,75.7058094 104.385988,75.5922852 104.122314,75.5922852 C103.536374,75.5922852 102.888187,76.3246997 102.177734,77.7895508 C101.467282,79.2544019 101.112061,81.3857282 101.112061,84.1835938 C101.112061,84.505861 101.126709,84.8867166 101.156006,85.3261719 Z M127.633057,80.5800781 L126.710205,80.5800781 C126.885987,78.4999896 127.343746,76.9875536 128.083496,76.0427246 C128.823246,75.0978957 129.617916,74.6254883 130.467529,74.6254883 C131.551519,74.6254883 132.41943,75.2883234 133.071289,76.6140137 C133.723148,77.9397039 134.049072,79.957506 134.049072,82.6674805 C134.049072,86.1977716 133.646244,89.4277197 132.840576,92.3574219 C134.27613,90.7900312 135.678704,88.7978636 137.04834,86.3808594 C138.417976,83.9638551 139.102783,81.9057702 139.102783,80.206543 C139.102783,79.4008749 138.868411,78.602543 138.399658,77.8115234 C137.930906,77.0351524 137.696533,76.4492207 137.696533,76.0537109 C137.696533,75.6728497 137.810057,75.339601 138.037109,75.0539551 C138.264161,74.7683091 138.538817,74.6254883 138.861084,74.6254883 C139.38843,74.6254883 139.820555,74.9257782 140.157471,75.5263672 C140.494386,76.1269561 140.662842,77.0131777 140.662842,78.1850586 C140.662842,79.9428799 140.124517,82.0851924 139.047852,84.6120605 C137.971186,87.1389286 136.392833,89.6437864 134.312744,92.126709 C132.232656,94.6096316 130.163585,96.8508201 128.105469,98.8503418 C126.047353,100.849864 124.282234,102.241451 122.810059,103.025146 C121.337883,103.808842 119.876716,104.200684 118.426514,104.200684 C116.566153,104.200684 115.635986,103.666021 115.635986,102.59668 C115.635986,102.157224 115.833738,101.809327 116.229248,101.552979 C116.624758,101.29663 117.042234,101.168457 117.481689,101.168457 C117.818605,101.168457 118.345944,101.263671 119.063721,101.454102 C120.001225,101.717775 120.770261,101.849609 121.37085,101.849609 C122.24976,101.849609 123.110347,101.604251 123.952637,101.113525 C124.794926,100.6228 125.834955,99.7731994 127.072754,98.5646973 C128.310553,97.3561951 129.178464,96.2868699 129.676514,95.3566895 C130.174563,94.426509 130.617674,92.7895625 131.005859,90.4458008 C131.394045,88.1020391 131.588135,85.582533 131.588135,82.887207 C131.588135,80.8364155 131.397707,79.2544001 131.016846,78.1411133 C130.635984,77.0278265 130.167239,76.4711914 129.610596,76.4711914 C128.541254,76.4711914 127.882081,77.8408066 127.633057,80.5800781 Z M142.332764,87.4575195 C142.332764,85.6996982 142.742916,83.7844342 143.563232,81.7116699 C144.383549,79.6389057 145.555412,77.9580143 147.078857,76.6689453 C148.602303,75.3798764 150.08178,74.7353516 151.517334,74.7353516 C152.821051,74.7353516 153.894039,75.2883245 154.736328,76.3942871 C155.578617,77.5002497 155.999756,78.9980374 155.999756,80.8876953 C155.999756,83.172863 155.531011,85.3408101 154.593506,87.3916016 C153.656001,89.4423931 152.480476,91.0134223 151.066895,92.1047363 C149.653313,93.1960504 148.265388,93.7416992 146.903076,93.7416992 C145.68725,93.7416992 144.621587,93.2729539 143.706055,92.3354492 C142.790523,91.3979445 142.332764,89.7719842 142.332764,87.4575195 Z M144.683838,89.984375 C144.683838,90.7753946 144.888914,91.449216 145.299072,92.0058594 C145.709231,92.5625028 146.27319,92.8408203 146.990967,92.8408203 C148.953867,92.8408203 150.568841,90.9804874 151.835938,87.2597656 C153.103034,83.5390439 153.736572,80.6972754 153.736572,78.734375 C153.736572,77.7236278 153.542482,76.9655787 153.154297,76.4602051 C152.766111,75.9548315 152.183842,75.7021484 151.407471,75.7021484 C149.576407,75.7021484 147.998054,77.4269847 146.672363,80.876709 C145.346673,84.3264333 144.683838,87.3622916 144.683838,89.984375 Z M174.830322,88.7099609 L175.753174,88.7099609 C174.50805,92.1377125 172.823497,93.8515625 170.699463,93.8515625 C169.981686,93.8515625 169.443361,93.6538106 169.084473,93.2583008 C168.725584,92.862791 168.546143,92.2695352 168.546143,91.4785156 C168.546143,90.3652288 168.941646,88.5854615 169.732666,86.1391602 C167.169177,91.2807874 164.635022,93.8515625 162.130127,93.8515625 C161.207271,93.8515625 160.48218,93.5659208 159.954834,92.9946289 C159.427488,92.423337 159.163818,91.7128949 159.163818,90.8632812 C159.163818,90.0283161 159.493405,88.6440526 160.152588,86.7104492 L162.855225,78.8222656 C163.250734,77.6503848 163.448486,76.9472668 163.448486,76.7128906 C163.448486,76.3320293 163.258059,76.1416016 162.877197,76.1416016 C161.954341,76.1416016 160.943609,77.3793822 159.844971,79.8549805 L158.790283,79.8549805 C159.376224,78.3168868 160.145259,77.0607959 161.097412,76.0866699 C162.049565,75.112544 162.987056,74.6254883 163.909912,74.6254883 C164.481204,74.6254883 164.96826,74.8049298 165.371094,75.1638184 C165.773928,75.5227069 165.975342,76.0610316 165.975342,76.7788086 C165.975342,77.2915065 165.718997,78.3168868 165.206299,79.8549805 L162.437744,87.9848633 C161.910398,89.5669024 161.646729,90.6069311 161.646729,91.1049805 C161.646729,91.5590843 161.749267,91.9033191 161.954346,92.1376953 C162.159425,92.3720715 162.459715,92.4892578 162.855225,92.4892578 C164.144294,92.4892578 165.67504,91.1196426 167.44751,88.3803711 C169.21998,85.6410996 170.919181,81.5688747 172.545166,76.1635742 L172.918701,74.9111328 L175.55542,74.9111328 L171.710205,87.5234375 C171.094968,89.574229 170.787354,90.8120096 170.787354,91.2368164 C170.787354,91.6030292 170.860595,91.8776846 171.00708,92.060791 C171.153565,92.2438974 171.37329,92.3354492 171.66626,92.3354492 C172.779547,92.3354492 173.834224,91.1269652 174.830322,88.7099609 Z M178.543701,80.5581055 L177.576904,80.5581055 C178.192142,78.9174723 178.964839,77.5185605 179.89502,76.3613281 C180.8252,75.2040958 181.74438,74.6254883 182.652588,74.6254883 C183.282474,74.6254883 183.751219,74.8781713 184.058838,75.3835449 C184.366457,75.8889185 184.520264,76.6542917 184.520264,77.6796875 C184.520264,78.9541079 184.190677,80.770496 183.531494,83.1289062 C183.619385,82.9824211 183.861082,82.4550827 184.256592,81.546875 C185.340582,79.1005737 186.292721,77.3354546 187.113037,76.2514648 C187.933354,75.167475 188.753658,74.6254883 189.573975,74.6254883 C190.086672,74.6254883 190.496825,74.7866195 190.804443,75.1088867 C191.112062,75.431154 191.265869,75.8193337 191.265869,76.2734375 C191.265869,76.7128928 191.137697,77.071776 190.881348,77.3500977 C190.624999,77.6284194 190.321047,77.7675781 189.969482,77.7675781 C189.573973,77.7675781 189.171145,77.5258813 188.760986,77.0424805 C188.599853,76.8520498 188.438722,76.7568359 188.277588,76.7568359 C187.545162,76.7568359 186.417244,78.5182929 184.893799,82.0412598 C183.370354,85.5642266 182.139897,88.8784024 181.202393,91.9838867 L180.718994,93.565918 L178.082275,93.565918 L181.575928,81.9204102 C182.235111,79.6938365 182.564697,78.1850625 182.564697,77.394043 C182.564697,76.9692362 182.509766,76.6542979 182.399902,76.4492188 C182.290039,76.2441396 182.125245,76.1416016 181.905518,76.1416016 C181.422117,76.1416016 180.817875,76.6616159 180.092773,77.7016602 C179.367672,78.7417044 178.85132,79.6938433 178.543701,80.5581055 Z M48.9387207,134.369141 L49.6477051,134.369141 C48.5519965,137.248061 47.144784,138.6875 45.4260254,138.6875 C44.8352021,138.6875 44.3625506,138.491457 44.0080566,138.099365 C43.6535627,137.707273 43.4763184,137.215823 43.4763184,136.625 C43.4763184,136.044919 43.825436,134.610851 44.5236816,132.322754 L48.2941895,119.883301 C48.6164567,118.830561 48.7775879,118.218263 48.7775879,118.046387 C48.7775879,117.788573 48.7050789,117.605958 48.5600586,117.498535 C48.4150383,117.391113 48.0524931,117.337402 47.4724121,117.337402 L46.8439941,117.337402 L47.0534668,116.660645 C48.8259366,116.628418 50.1310993,116.43506 50.9689941,116.080566 L51.3718262,116.080566 L46.1833496,133.160645 C46.1081539,133.429201 45.9523938,133.917965 45.7160645,134.626953 C45.4045395,135.561528 45.2487793,136.270505 45.2487793,136.753906 C45.2487793,137.076173 45.3105463,137.31787 45.434082,137.479004 C45.5576178,137.640138 45.7429187,137.720703 45.9899902,137.720703 C46.3552264,137.720703 46.8117648,137.468264 47.3596191,136.963379 C47.9074734,136.458494 48.4338354,135.593756 48.9387207,134.369141 Z M55.6257324,117.482422 C55.6257324,117.095701 55.7626939,116.765382 56.0366211,116.491455 C56.3105482,116.217528 56.6408672,116.080566 57.0275879,116.080566 C57.4143086,116.080566 57.7446275,116.217528 58.0185547,116.491455 C58.2924818,116.765382 58.4294434,117.095701 58.4294434,117.482422 C58.4294434,117.869143 58.2924818,118.202147 58.0185547,118.481445 C57.7446275,118.760744 57.4143086,118.900391 57.0275879,118.900391 C56.630125,118.900391 56.2971205,118.758058 56.0285645,118.473389 C55.7600084,118.188719 55.6257324,117.8584 55.6257324,117.482422 Z M56.8181152,134.70752 L57.5915527,134.70752 C57.0866674,135.749517 56.428715,136.673336 55.6176758,137.479004 C54.8066366,138.284672 54.0251502,138.6875 53.2731934,138.6875 C52.768308,138.6875 52.3251972,138.50757 51.9438477,138.147705 C51.5624981,137.78784 51.3718262,137.258793 51.3718262,136.560547 C51.3718262,135.991208 51.6726044,134.900887 52.2741699,133.289551 L54.1271973,128.375 C54.5568869,127.22558 54.7717285,126.527345 54.7717285,126.280273 C54.7717285,126.065429 54.7207036,125.904297 54.6186523,125.796875 C54.5166011,125.689453 54.3635264,125.635742 54.1594238,125.635742 C53.7404764,125.635742 53.2436552,125.96069 52.6689453,126.610596 C52.0942354,127.260501 51.6887219,127.84863 51.4523926,128.375 L50.6789551,128.375 C51.2697783,127.204096 51.9438439,126.280277 52.7011719,125.603516 C53.4584999,124.926754 54.1647916,124.588379 54.8200684,124.588379 C55.3249537,124.588379 55.7385238,124.760252 56.060791,125.104004 C56.3830583,125.447756 56.5441895,125.898923 56.5441895,126.45752 C56.5441895,127.026858 56.2595243,128.06884 55.6901855,129.583496 L54.1433105,133.772949 C53.5739718,135.287605 53.2893066,136.238279 53.2893066,136.625 C53.2893066,136.936525 53.3510736,137.170165 53.4746094,137.325928 C53.5981451,137.48169 53.778075,137.55957 54.0144043,137.55957 C54.8093301,137.55957 55.7438911,136.608896 56.8181152,134.70752 Z M77.604248,135.190918 L78.2971191,135.190918 C77.8352028,136.189946 77.2363318,137.022458 76.5004883,137.688477 C75.7646448,138.354496 75.0476109,138.6875 74.3493652,138.6875 C73.8874489,138.6875 73.4765643,138.520998 73.1166992,138.187988 C72.7568341,137.854979 72.5769043,137.382327 72.5769043,136.77002 C72.5769043,136.222165 72.8400853,135.180183 73.3664551,133.644043 L74.8811035,129.26123 C75.3322776,127.950677 75.5578613,127.128908 75.5578613,126.795898 C75.5578613,126.441404 75.4853523,126.175538 75.340332,125.998291 C75.1953118,125.821044 74.9777847,125.732422 74.6877441,125.732422 C73.7639114,125.732422 72.6762758,126.500481 71.4248047,128.036621 C70.1733336,129.572762 68.8708564,132.580544 67.517334,137.060059 L67.0822754,138.461914 L65.1647949,138.461914 L67.7912598,129.825195 C68.2424339,128.321282 68.4680176,127.306155 68.4680176,126.779785 C68.4680176,126.457518 68.4062506,126.215821 68.2827148,126.054688 C68.1591791,125.893554 67.9685071,125.812988 67.7106934,125.812988 C66.9587365,125.812988 65.9436099,126.605217 64.6652832,128.189697 C63.3869565,129.774178 62.11402,132.671854 60.8464355,136.882812 L60.3630371,138.461914 L58.4294434,138.461914 L61.3781738,128.793945 C61.7756368,127.47265 61.9743652,126.693849 61.9743652,126.45752 C61.9743652,126.285644 61.9448245,126.156739 61.8857422,126.070801 C61.8266599,125.984863 61.7326667,125.941895 61.6037598,125.941895 C61.3244615,125.941895 60.9511742,126.167478 60.4838867,126.618652 C60.0165992,127.069826 59.5520043,127.714351 59.0900879,128.552246 L58.3649902,128.552246 C58.8806178,127.46728 59.5144005,126.573002 60.2663574,125.869385 C61.0183143,125.165768 61.6843233,124.813965 62.2644043,124.813965 C62.6833517,124.813965 63.0136707,124.953612 63.2553711,125.23291 C63.4970715,125.512208 63.6179199,125.888181 63.6179199,126.36084 C63.6179199,127.145023 63.2902865,128.47167 62.6350098,130.34082 C63.3547399,128.826164 64.2517036,127.521002 65.3259277,126.425293 C66.4001519,125.329584 67.3723101,124.781738 68.2424316,124.781738 C68.8654816,124.781738 69.3300766,124.961668 69.6362305,125.321533 C69.9423843,125.681398 70.095459,126.221188 70.095459,126.940918 C70.095459,127.821782 69.8752463,128.885248 69.4348145,130.131348 C70.347905,128.262198 71.3146922,126.903325 72.3352051,126.054688 C73.355718,125.20605 74.2795369,124.781738 75.1066895,124.781738 C75.7297394,124.781738 76.2507303,124.988523 76.6696777,125.4021 C77.0886251,125.815676 77.2980957,126.37695 77.2980957,127.085938 C77.2980957,127.526369 77.2631839,127.888915 77.1933594,128.173584 C77.1235348,128.458253 76.8630394,129.277337 76.4118652,130.630859 L75.1550293,134.256348 C74.6394017,135.728035 74.3815918,136.63574 74.3815918,136.979492 C74.3815918,137.215821 74.4326167,137.395751 74.534668,137.519287 C74.6367193,137.642823 74.7844229,137.70459 74.9777832,137.70459 C75.3537616,137.70459 75.7619607,137.495119 76.2023926,137.076172 C76.6428245,136.657224 77.110105,136.028813 77.604248,135.190918 Z M84.5007324,117.482422 C84.5007324,117.095701 84.6376939,116.765382 84.9116211,116.491455 C85.1855482,116.217528 85.5158672,116.080566 85.9025879,116.080566 C86.2893086,116.080566 86.6196275,116.217528 86.8935547,116.491455 C87.1674818,116.765382 87.3044434,117.095701 87.3044434,117.482422 C87.3044434,117.869143 87.1674818,118.202147 86.8935547,118.481445 C86.6196275,118.760744 86.2893086,118.900391 85.9025879,118.900391 C85.505125,118.900391 85.1721205,118.758058 84.9035645,118.473389 C84.6350084,118.188719 84.5007324,117.8584 84.5007324,117.482422 Z M85.6931152,134.70752 L86.4665527,134.70752 C85.9616674,135.749517 85.303715,136.673336 84.4926758,137.479004 C83.6816366,138.284672 82.9001502,138.6875 82.1481934,138.6875 C81.643308,138.6875 81.2001972,138.50757 80.8188477,138.147705 C80.4374981,137.78784 80.2468262,137.258793 80.2468262,136.560547 C80.2468262,135.991208 80.5476044,134.900887 81.1491699,133.289551 L83.0021973,128.375 C83.4318869,127.22558 83.6467285,126.527345 83.6467285,126.280273 C83.6467285,126.065429 83.5957036,125.904297 83.4936523,125.796875 C83.3916011,125.689453 83.2385264,125.635742 83.0344238,125.635742 C82.6154764,125.635742 82.1186552,125.96069 81.5439453,126.610596 C80.9692354,127.260501 80.5637219,127.84863 80.3273926,128.375 L79.5539551,128.375 C80.1447783,127.204096 80.8188439,126.280277 81.5761719,125.603516 C82.3334999,124.926754 83.0397916,124.588379 83.6950684,124.588379 C84.1999537,124.588379 84.6135238,124.760252 84.935791,125.104004 C85.2580583,125.447756 85.4191895,125.898923 85.4191895,126.45752 C85.4191895,127.026858 85.1345243,128.06884 84.5651855,129.583496 L83.0183105,133.772949 C82.4489718,135.287605 82.1643066,136.238279 82.1643066,136.625 C82.1643066,136.936525 82.2260736,137.170165 82.3496094,137.325928 C82.4731451,137.48169 82.653075,137.55957 82.8894043,137.55957 C83.6843301,137.55957 84.6188911,136.608896 85.6931152,134.70752 Z M95.7155762,125.039551 L95.4899902,125.748535 L93.072998,125.748535 L90.9460449,132.790039 C90.237057,135.099621 89.8825684,136.442381 89.8825684,136.818359 C89.8825684,137.076173 89.9389643,137.272216 90.0517578,137.406494 C90.1645513,137.540772 90.3283681,137.60791 90.5432129,137.60791 C90.9299336,137.60791 91.4348113,137.242679 92.0578613,136.512207 C92.6809113,135.781735 93.2394995,134.863287 93.7336426,133.756836 L94.442627,133.756836 C93.7873502,135.35743 93.0380902,136.579341 92.1948242,137.422607 C91.3515583,138.265873 90.580814,138.6875 89.8825684,138.6875 C89.3347141,138.6875 88.8969743,138.494143 88.5693359,138.107422 C88.2416976,137.720701 88.0778809,137.231937 88.0778809,136.641113 C88.0778809,136.136228 88.4108853,134.793468 89.0769043,132.612793 L91.1555176,125.748535 L88.9318848,125.748535 L89.1574707,125.039551 L91.3649902,125.039551 L92.8474121,120.157227 L94.7810059,120.157227 L93.298584,125.039551 L95.7155762,125.039551 Z M102.6604,134.691406 C102.6604,135.690435 102.276371,136.606197 101.508301,137.438721 C100.740231,138.271244 99.6096266,138.6875 98.1164551,138.6875 C97.0100042,138.6875 96.1801785,138.443118 95.6269531,137.954346 C95.0737277,137.465574 94.7971191,136.941897 94.7971191,136.383301 C94.7971191,136.082518 94.8803703,135.824708 95.046875,135.609863 C95.2133797,135.395018 95.4255358,135.287598 95.6833496,135.287598 C96.2634306,135.287598 96.5534668,135.593747 96.5534668,136.206055 C96.5534668,136.345704 96.5212406,136.544432 96.4567871,136.802246 C96.4138181,136.920411 96.392334,137.011718 96.392334,137.076172 C96.392334,137.333986 96.5588362,137.556884 96.8918457,137.744873 C97.2248552,137.932862 97.6223121,138.026855 98.0842285,138.026855 C98.8039587,138.026855 99.4592256,137.798586 100.050049,137.342041 C100.640872,136.885496 100.936279,136.254399 100.936279,135.44873 C100.936279,134.750485 100.522709,133.649422 99.6955566,132.145508 C98.7287549,130.405265 98.2453613,129.132328 98.2453613,128.32666 C98.2453613,127.295405 98.6535604,126.425297 99.4699707,125.716309 C100.286381,125.007321 101.215571,124.652832 102.257568,124.652832 C103.020267,124.652832 103.672849,124.846189 104.215332,125.23291 C104.757815,125.619631 105.029053,126.033201 105.029053,126.473633 C105.029053,127.042972 104.792727,127.327637 104.320068,127.327637 C103.965574,127.327637 103.707764,127.010745 103.546631,126.376953 C103.374755,125.678707 102.907475,125.32959 102.144775,125.32959 C101.532468,125.32959 101.000735,125.496092 100.549561,125.829102 C100.098386,126.162111 99.8728027,126.597165 99.8728027,127.134277 C99.8728027,127.86475 100.232662,128.869134 100.952393,130.147461 C101.629154,131.307623 102.083007,132.193845 102.313965,132.806152 C102.544923,133.41846 102.6604,134.046872 102.6604,134.691406 Z M126.008545,134.916992 L126.685303,134.916992 C125.772212,137.430677 124.536873,138.6875 122.979248,138.6875 C122.452878,138.6875 122.058107,138.542482 121.794922,138.252441 C121.531737,137.962401 121.400146,137.527347 121.400146,136.947266 C121.400146,136.130855 121.690183,134.825693 122.270264,133.031738 C120.390371,136.802265 118.531992,138.6875 116.695068,138.6875 C116.018307,138.6875 115.486574,138.478029 115.099854,138.059082 C114.713133,137.640135 114.519775,137.119144 114.519775,136.496094 C114.519775,135.883786 114.761472,134.868659 115.244873,133.450684 L117.226807,127.666016 C117.516847,126.806636 117.661865,126.291016 117.661865,126.119141 C117.661865,125.839842 117.522218,125.700195 117.24292,125.700195 C116.566159,125.700195 115.824955,126.607901 115.019287,128.42334 L114.24585,128.42334 C114.675539,127.295405 115.239498,126.374271 115.937744,125.659912 C116.63599,124.945553 117.323483,124.588379 118.000244,124.588379 C118.419192,124.588379 118.776366,124.719969 119.071777,124.983154 C119.367189,125.246339 119.514893,125.641111 119.514893,126.16748 C119.514893,126.543459 119.326906,127.295405 118.950928,128.42334 L116.920654,134.385254 C116.533934,135.545416 116.340576,136.308104 116.340576,136.67334 C116.340576,137.006349 116.415771,137.258788 116.566162,137.430664 C116.716553,137.60254 116.936766,137.688477 117.226807,137.688477 C118.172124,137.688477 119.294671,136.684092 120.594482,134.675293 C121.894294,132.666494 123.140375,129.680196 124.332764,125.716309 L124.606689,124.797852 L126.540283,124.797852 L123.720459,134.046875 C123.269285,135.550789 123.043701,136.458495 123.043701,136.77002 C123.043701,137.038576 123.097412,137.23999 123.204834,137.374268 C123.312256,137.508546 123.473388,137.575684 123.688232,137.575684 C124.504643,137.575684 125.278073,136.689462 126.008545,134.916992 Z M139.994873,135.207031 L140.81665,135.207031 C140.172116,136.367193 139.514164,137.237302 138.842773,137.817383 C138.171383,138.397464 137.486576,138.6875 136.78833,138.6875 C136.304929,138.6875 135.888674,138.539796 135.539551,138.244385 C135.190428,137.948973 135.015869,137.511233 135.015869,136.931152 C135.015869,136.447751 135.262937,135.491706 135.75708,134.062988 L137.481201,129.148438 C137.943118,127.805657 138.174072,126.935549 138.174072,126.538086 C138.174072,126.183592 138.096192,125.920411 137.94043,125.748535 C137.784667,125.576659 137.545656,125.490723 137.223389,125.490723 C136.406978,125.490723 135.340827,126.449453 134.024902,128.366943 C132.708978,130.284433 131.578374,132.795395 130.633057,135.899902 L129.843506,138.478027 L127.877686,138.478027 L130.713623,129.325684 C131.229251,127.639152 131.487061,126.672365 131.487061,126.425293 C131.487061,126.242675 131.454834,126.108399 131.390381,126.022461 C131.325927,125.936523 131.223878,125.893555 131.084229,125.893555 C130.450436,125.893555 129.698491,126.677727 128.828369,128.246094 L128.087158,128.246094 C129.429938,125.807605 130.702875,124.588379 131.906006,124.588379 C132.324953,124.588379 132.639159,124.714598 132.848633,124.967041 C133.058107,125.219484 133.162842,125.603513 133.162842,126.119141 C133.162842,127.042973 132.802982,128.47167 132.083252,130.405273 C134.027598,126.527324 135.918204,124.588379 137.755127,124.588379 C138.34595,124.588379 138.86157,124.784422 139.302002,125.176514 C139.742434,125.568605 139.962646,126.140621 139.962646,126.892578 C139.962646,127.375979 139.742434,128.278314 139.302002,129.599609 L137.577881,134.739746 C137.115964,136.125495 136.88501,136.898925 136.88501,137.060059 C136.88501,137.264161 136.936035,137.417236 137.038086,137.519287 C137.140137,137.621338 137.287841,137.672363 137.481201,137.672363 C137.846437,137.672363 138.238523,137.465578 138.657471,137.052002 C139.076418,136.638426 139.522214,136.023442 139.994873,135.207031 Z M148.309326,134.369141 L149.018311,134.369141 C147.922602,137.248061 146.515389,138.6875 144.796631,138.6875 C144.205808,138.6875 143.733156,138.491457 143.378662,138.099365 C143.024168,137.707273 142.846924,137.215823 142.846924,136.625 C142.846924,136.044919 143.196041,134.610851 143.894287,132.322754 L147.664795,119.883301 C147.987062,118.830561 148.148193,118.218263 148.148193,118.046387 C148.148193,117.788573 148.075684,117.605958 147.930664,117.498535 C147.785644,117.391113 147.423099,117.337402 146.843018,117.337402 L146.2146,117.337402 L146.424072,116.660645 C148.196542,116.628418 149.501705,116.43506 150.3396,116.080566 L150.742432,116.080566 L145.553955,133.160645 C145.478759,133.429201 145.322999,133.917965 145.08667,134.626953 C144.775145,135.561528 144.619385,136.270505 144.619385,136.753906 C144.619385,137.076173 144.681152,137.31787 144.804688,137.479004 C144.928223,137.640138 145.113524,137.720703 145.360596,137.720703 C145.725832,137.720703 146.18237,137.468264 146.730225,136.963379 C147.278079,136.458494 147.804441,135.593756 148.309326,134.369141 Z M157.429443,134.127441 L158.202881,134.127441 C156.838616,137.167496 155.087657,138.6875 152.949951,138.6875 C152.069087,138.6875 151.352054,138.378665 150.798828,137.760986 C150.245603,137.143307 149.968994,136.308111 149.968994,135.255371 C149.968994,133.923333 150.326168,132.419442 151.040527,130.743652 C151.754886,129.067863 152.770013,127.623053 154.085938,126.40918 C155.401862,125.195306 156.548579,124.588379 157.526123,124.588379 C158.127689,124.588379 158.584227,124.779051 158.895752,125.1604 C159.207277,125.54175 159.363037,126.017087 159.363037,126.586426 C159.363037,127.746588 158.782965,128.861079 157.622803,129.929932 C156.462641,130.998785 154.722424,132.027339 152.4021,133.015625 C152.101317,133.9502 151.950928,134.836422 151.950928,135.674316 C151.950928,136.36182 152.085204,136.87744 152.35376,137.221191 C152.622316,137.564943 153.019773,137.736816 153.546143,137.736816 C155.01783,137.736816 156.31225,136.533703 157.429443,134.127441 Z M152.643799,132.193848 C154.029548,131.570798 155.275629,130.711431 156.38208,129.615723 C157.488531,128.520014 158.041748,127.526372 158.041748,126.634766 C158.041748,126.22656 157.958497,125.923097 157.791992,125.724365 C157.625487,125.525634 157.375734,125.42627 157.042725,125.42627 C156.39819,125.42627 155.638188,126.051996 154.762695,127.303467 C153.887203,128.554938 153.180911,130.185049 152.643799,132.193848 Z M167.306885,134.691406 C167.306885,135.690435 166.922855,136.606197 166.154785,137.438721 C165.386715,138.271244 164.256111,138.6875 162.762939,138.6875 C161.656489,138.6875 160.826663,138.443118 160.273438,137.954346 C159.720212,137.465574 159.443604,136.941897 159.443604,136.383301 C159.443604,136.082518 159.526855,135.824708 159.693359,135.609863 C159.859864,135.395018 160.07202,135.287598 160.329834,135.287598 C160.909915,135.287598 161.199951,135.593747 161.199951,136.206055 C161.199951,136.345704 161.167725,136.544432 161.103271,136.802246 C161.060303,136.920411 161.038818,137.011718 161.038818,137.076172 C161.038818,137.333986 161.205321,137.556884 161.53833,137.744873 C161.87134,137.932862 162.268797,138.026855 162.730713,138.026855 C163.450443,138.026855 164.10571,137.798586 164.696533,137.342041 C165.287356,136.885496 165.582764,136.254399 165.582764,135.44873 C165.582764,134.750485 165.169194,133.649422 164.342041,132.145508 C163.375239,130.405265 162.891846,129.132328 162.891846,128.32666 C162.891846,127.295405 163.300045,126.425297 164.116455,125.716309 C164.932865,125.007321 165.862055,124.652832 166.904053,124.652832 C167.666752,124.652832 168.319333,124.846189 168.861816,125.23291 C169.4043,125.619631 169.675537,126.033201 169.675537,126.473633 C169.675537,127.042972 169.439211,127.327637 168.966553,127.327637 C168.612059,127.327637 168.354249,127.010745 168.193115,126.376953 C168.021239,125.678707 167.553959,125.32959 166.79126,125.32959 C166.178952,125.32959 165.647219,125.496092 165.196045,125.829102 C164.744871,126.162111 164.519287,126.597165 164.519287,127.134277 C164.519287,127.86475 164.879147,128.869134 165.598877,130.147461 C166.275638,131.307623 166.729491,132.193845 166.960449,132.806152 C167.191407,133.41846 167.306885,134.046872 167.306885,134.691406 Z M177.619385,134.691406 C177.619385,135.690435 177.235355,136.606197 176.467285,137.438721 C175.699215,138.271244 174.568611,138.6875 173.075439,138.6875 C171.968989,138.6875 171.139163,138.443118 170.585938,137.954346 C170.032712,137.465574 169.756104,136.941897 169.756104,136.383301 C169.756104,136.082518 169.839355,135.824708 170.005859,135.609863 C170.172364,135.395018 170.38452,135.287598 170.642334,135.287598 C171.222415,135.287598 171.512451,135.593747 171.512451,136.206055 C171.512451,136.345704 171.480225,136.544432 171.415771,136.802246 C171.372803,136.920411 171.351318,137.011718 171.351318,137.076172 C171.351318,137.333986 171.517821,137.556884 171.85083,137.744873 C172.18384,137.932862 172.581297,138.026855 173.043213,138.026855 C173.762943,138.026855 174.41821,137.798586 175.009033,137.342041 C175.599856,136.885496 175.895264,136.254399 175.895264,135.44873 C175.895264,134.750485 175.481694,133.649422 174.654541,132.145508 C173.687739,130.405265 173.204346,129.132328 173.204346,128.32666 C173.204346,127.295405 173.612545,126.425297 174.428955,125.716309 C175.245365,125.007321 176.174555,124.652832 177.216553,124.652832 C177.979252,124.652832 178.631833,124.846189 179.174316,125.23291 C179.7168,125.619631 179.988037,126.033201 179.988037,126.473633 C179.988037,127.042972 179.751711,127.327637 179.279053,127.327637 C178.924559,127.327637 178.666749,127.010745 178.505615,126.376953 C178.333739,125.678707 177.866459,125.32959 177.10376,125.32959 C176.491452,125.32959 175.959719,125.496092 175.508545,125.829102 C175.057371,126.162111 174.831787,126.597165 174.831787,127.134277 C174.831787,127.86475 175.191647,128.869134 175.911377,130.147461 C176.588138,131.307623 177.041991,132.193845 177.272949,132.806152 C177.503907,133.41846 177.619385,134.046872 177.619385,134.691406 Z M46.5979004,170.580078 L45.6750488,170.580078 C45.850831,168.49999 46.3085901,166.987554 47.0483398,166.042725 C47.7880896,165.097896 48.5827594,164.625488 49.432373,164.625488 C50.5163628,164.625488 51.3842741,165.288323 52.0361328,166.614014 C52.6879915,167.939704 53.013916,169.957506 53.013916,172.66748 C53.013916,176.197772 52.611088,179.42772 51.8054199,182.357422 C53.240974,180.790031 54.6435478,178.797864 56.0131836,176.380859 C57.3828193,173.963855 58.067627,171.90577 58.067627,170.206543 C58.067627,169.400875 57.8332543,168.602543 57.364502,167.811523 C56.8957496,167.035152 56.661377,166.449221 56.661377,166.053711 C56.661377,165.67285 56.7749012,165.339601 57.0019531,165.053955 C57.229005,164.768309 57.5036605,164.625488 57.8259277,164.625488 C58.3532741,164.625488 58.7853987,164.925778 59.1223145,165.526367 C59.4592302,166.126956 59.6276855,167.013178 59.6276855,168.185059 C59.6276855,169.94288 59.0893609,172.085192 58.0126953,174.612061 C56.9360298,177.138929 55.3576764,179.643786 53.2775879,182.126709 C51.1974994,184.609632 49.1284283,186.85082 47.0703125,188.850342 C45.0121967,190.849864 43.2470777,192.241451 41.7749023,193.025146 C40.302727,193.808842 38.84156,194.200684 37.3913574,194.200684 C35.5309966,194.200684 34.6008301,193.666021 34.6008301,192.59668 C34.6008301,192.157224 34.798582,191.809327 35.1940918,191.552979 C35.5896016,191.29663 36.0070779,191.168457 36.4465332,191.168457 C36.783449,191.168457 37.3107874,191.263671 38.0285645,191.454102 C38.9660691,191.717775 39.7351044,191.849609 40.3356934,191.849609 C41.214604,191.849609 42.0751911,191.604251 42.9174805,191.113525 C43.7597698,190.6228 44.7997985,189.773199 46.0375977,188.564697 C47.2753968,187.356195 48.1433081,186.28687 48.6413574,185.356689 C49.1394068,184.426509 49.5825176,182.789562 49.9707031,180.445801 C50.3588887,178.102039 50.5529785,175.582533 50.5529785,172.887207 C50.5529785,170.836416 50.3625507,169.2544 49.9816895,168.141113 C49.6008282,167.027826 49.1320829,166.471191 48.5754395,166.471191 C47.5060982,166.471191 46.8469251,167.840807 46.5979004,170.580078 Z M61.2976074,177.45752 C61.2976074,175.699698 61.7077596,173.784434 62.5280762,171.71167 C63.3483928,169.638906 64.5202561,167.958014 66.0437012,166.668945 C67.5671463,165.379876 69.0466237,164.735352 70.4821777,164.735352 C71.7858952,164.735352 72.8588825,165.288325 73.7011719,166.394287 C74.5434612,167.50025 74.9645996,168.998037 74.9645996,170.887695 C74.9645996,173.172863 74.4958543,175.34081 73.5583496,177.391602 C72.6208449,179.442393 71.4453196,181.013422 70.0317383,182.104736 C68.618157,183.19605 67.2302314,183.741699 65.8679199,183.741699 C64.6520935,183.741699 63.5864304,183.272954 62.6708984,182.335449 C61.7553665,181.397945 61.2976074,179.771984 61.2976074,177.45752 Z M63.6486816,179.984375 C63.6486816,180.775395 63.8537577,181.449216 64.263916,182.005859 C64.6740743,182.562503 65.2380335,182.84082 65.9558105,182.84082 C67.918711,182.84082 69.5336851,180.980487 70.8007812,177.259766 C72.0678774,173.539044 72.701416,170.697275 72.701416,168.734375 C72.701416,167.723628 72.5073262,166.965579 72.1191406,166.460205 C71.7309551,165.954831 71.1486855,165.702148 70.3723145,165.702148 C68.5412506,165.702148 66.9628973,167.426985 65.637207,170.876709 C64.3115168,174.326433 63.6486816,177.362292 63.6486816,179.984375 Z M93.795166,178.709961 L94.7180176,178.709961 C93.4728942,182.137712 91.7883407,183.851562 89.6643066,183.851562 C88.9465296,183.851562 88.4082049,183.653811 88.0493164,183.258301 C87.6904279,182.862791 87.5109863,182.269535 87.5109863,181.478516 C87.5109863,180.365229 87.9064902,178.585461 88.6975098,176.13916 C86.1340204,181.280787 83.599866,183.851562 81.0949707,183.851562 C80.1721145,183.851562 79.4470241,183.565921 78.9196777,182.994629 C78.3923313,182.423337 78.1286621,181.712895 78.1286621,180.863281 C78.1286621,180.028316 78.4582487,178.644053 79.1174316,176.710449 L81.8200684,168.822266 C82.2155781,167.650385 82.4133301,166.947267 82.4133301,166.712891 C82.4133301,166.332029 82.2229023,166.141602 81.842041,166.141602 C80.9191848,166.141602 79.9084528,167.379382 78.8098145,169.85498 L77.755127,169.85498 C78.3410674,168.316887 79.1101027,167.060796 80.0622559,166.08667 C81.0144091,165.112544 81.9518997,164.625488 82.8747559,164.625488 C83.4460478,164.625488 83.9331035,164.80493 84.3359375,165.163818 C84.7387715,165.522707 84.9401855,166.061032 84.9401855,166.778809 C84.9401855,167.291506 84.6838405,168.316887 84.1711426,169.85498 L81.4025879,177.984863 C80.8752415,179.566902 80.6115723,180.606931 80.6115723,181.10498 C80.6115723,181.559084 80.7141103,181.903319 80.9191895,182.137695 C81.1242686,182.372071 81.4245586,182.489258 81.8200684,182.489258 C83.1091373,182.489258 84.6398837,181.119643 86.4123535,178.380371 C88.1848233,175.6411 89.8840251,171.568875 91.5100098,166.163574 L91.8835449,164.911133 L94.5202637,164.911133 L90.6750488,177.523438 C90.0598114,179.574229 89.7521973,180.81201 89.7521973,181.236816 C89.7521973,181.603029 89.8254387,181.877685 89.9719238,182.060791 C90.1184089,182.243897 90.3381333,182.335449 90.6311035,182.335449 C91.7443903,182.335449 92.7990673,181.126965 93.795166,178.709961 Z M108.428955,174.183594 L107.418213,174.183594 L111.571045,167.525879 C112.786871,165.592275 113.585203,164.22266 113.966064,163.416992 C114.346926,162.611324 114.786374,161.395516 115.284424,159.769531 L115.592041,158.714844 L118.22876,158.714844 L116.734619,163.636719 L114.888916,168.822266 C116.881113,166.0244 118.770743,164.625488 120.557861,164.625488 C121.641851,164.625488 122.564693,165.127192 123.326416,166.130615 C124.088139,167.134038 124.468994,168.390129 124.468994,169.898926 C124.468994,171.671396 124.014897,173.700184 123.106689,175.985352 C122.198482,178.270519 120.913094,180.152825 119.250488,181.632324 C117.587882,183.111824 115.928963,183.851562 114.273682,183.851562 C112.691642,183.851562 111.688235,183.1045 111.263428,181.610352 L108.692627,190.11377 C108.37036,191.168462 108.209229,191.812987 108.209229,192.047363 C108.209229,192.296388 108.315429,192.508788 108.527832,192.68457 C108.740235,192.860352 109.359126,192.948242 110.384521,192.948242 L111.373291,192.948242 L111.065674,193.915039 L101.881104,193.915039 L102.188721,192.948242 L102.672119,192.948242 C103.961188,192.948242 104.730223,192.860352 104.979248,192.68457 C105.228273,192.508788 105.609128,191.59327 106.121826,189.937988 L110.692139,174.842773 C111.65894,171.693344 112.77221,168.478044 114.031982,165.196777 C113.885497,165.401856 113.497318,166.06103 112.867432,167.174316 C112.794189,167.291504 112.559816,167.665036 112.164307,168.294922 L108.428955,174.183594 Z M112.493896,177.54541 C112.098387,178.849128 111.900635,179.786618 111.900635,180.35791 C111.900635,181.075687 112.098387,181.683591 112.493896,182.181641 C112.889406,182.67969 113.446041,182.928711 114.163818,182.928711 C115.23316,182.928711 116.328119,182.317145 117.44873,181.093994 C118.569342,179.870843 119.594722,177.834731 120.524902,174.985596 C121.455083,172.13646 121.920166,169.994148 121.920166,168.558594 C121.920166,167.621089 121.773683,166.917971 121.480713,166.449219 C121.187743,165.980466 120.748294,165.746094 120.162354,165.746094 C119.371334,165.746094 118.320319,166.324701 117.009277,167.481934 C115.698236,168.639166 114.48609,171.034162 113.372803,174.666992 L112.493896,177.54541 Z M143.013916,178.709961 L143.936768,178.709961 C142.691644,182.137712 141.007091,183.851562 138.883057,183.851562 C138.16528,183.851562 137.626955,183.653811 137.268066,183.258301 C136.909178,182.862791 136.729736,182.269535 136.729736,181.478516 C136.729736,180.365229 137.12524,178.585461 137.91626,176.13916 C135.35277,181.280787 132.818616,183.851562 130.313721,183.851562 C129.390865,183.851562 128.665774,183.565921 128.138428,182.994629 C127.611081,182.423337 127.347412,181.712895 127.347412,180.863281 C127.347412,180.028316 127.676999,178.644053 128.336182,176.710449 L131.038818,168.822266 C131.434328,167.650385 131.63208,166.947267 131.63208,166.712891 C131.63208,166.332029 131.441652,166.141602 131.060791,166.141602 C130.137935,166.141602 129.127203,167.379382 128.028564,169.85498 L126.973877,169.85498 C127.559817,168.316887 128.328853,167.060796 129.281006,166.08667 C130.233159,165.112544 131.17065,164.625488 132.093506,164.625488 C132.664798,164.625488 133.151853,164.80493 133.554688,165.163818 C133.957522,165.522707 134.158936,166.061032 134.158936,166.778809 C134.158936,167.291506 133.90259,168.316887 133.389893,169.85498 L130.621338,177.984863 C130.093992,179.566902 129.830322,180.606931 129.830322,181.10498 C129.830322,181.559084 129.93286,181.903319 130.137939,182.137695 C130.343019,182.372071 130.643309,182.489258 131.038818,182.489258 C132.327887,182.489258 133.858634,181.119643 135.631104,178.380371 C137.403573,175.6411 139.102775,171.568875 140.72876,166.163574 L141.102295,164.911133 L143.739014,164.911133 L139.893799,177.523438 C139.278561,179.574229 138.970947,180.81201 138.970947,181.236816 C138.970947,181.603029 139.044189,181.877685 139.190674,182.060791 C139.337159,182.243897 139.556883,182.335449 139.849854,182.335449 C140.96314,182.335449 142.017817,181.126965 143.013916,178.709961 Z M155.714111,178.402344 C155.714111,179.764655 155.190435,181.013422 154.143066,182.148682 C153.095698,183.283941 151.553965,183.851562 149.517822,183.851562 C148.009026,183.851562 146.877445,183.518314 146.123047,182.851807 C145.368649,182.185299 144.991455,181.471195 144.991455,180.709473 C144.991455,180.299314 145.104979,179.947755 145.332031,179.654785 C145.559083,179.361815 145.848387,179.215332 146.199951,179.215332 C146.990971,179.215332 147.386475,179.632808 147.386475,180.467773 C147.386475,180.658204 147.34253,180.929197 147.254639,181.280762 C147.196045,181.441895 147.166748,181.566406 147.166748,181.654297 C147.166748,182.005861 147.393797,182.309813 147.8479,182.566162 C148.302004,182.822511 148.843991,182.950684 149.473877,182.950684 C150.455327,182.950684 151.348873,182.639407 152.154541,182.016846 C152.960209,181.394284 153.363037,180.533697 153.363037,179.435059 C153.363037,178.482905 152.799078,176.981456 151.671143,174.930664 C150.352777,172.557605 149.693604,170.821783 149.693604,169.723145 C149.693604,168.316888 150.250239,167.130376 151.363525,166.163574 C152.476812,165.196773 153.743889,164.713379 155.164795,164.713379 C156.204839,164.713379 157.094723,164.977048 157.834473,165.504395 C158.574222,166.031741 158.944092,166.5957 158.944092,167.196289 C158.944092,167.97266 158.621829,168.36084 157.977295,168.36084 C157.493894,168.36084 157.142335,167.928715 156.922607,167.064453 C156.688231,166.1123 156.051031,165.63623 155.010986,165.63623 C154.176021,165.63623 153.450931,165.863279 152.835693,166.317383 C152.220456,166.771487 151.912842,167.364742 151.912842,168.097168 C151.912842,169.093267 152.40356,170.462882 153.38501,172.206055 C154.307866,173.788094 154.926756,174.996578 155.241699,175.831543 C155.556642,176.666508 155.714111,177.523433 155.714111,178.402344 Z M161.49292,183.565918 L158.878174,183.565918 L166.590576,158.1875 C167.030031,156.751946 167.249756,155.916993 167.249756,155.682617 C167.249756,155.345701 167.15088,155.104005 166.953125,154.95752 C166.75537,154.811034 166.268314,154.737793 165.491943,154.737793 L164.788818,154.737793 L165.05249,153.814941 C167.381603,153.756347 169.110102,153.492678 170.238037,153.023926 L170.787354,153.023926 L165.799561,169.415527 C168.436292,166.222152 170.838612,164.625488 173.006592,164.625488 C173.988042,164.625488 174.720457,164.830564 175.203857,165.240723 C175.687258,165.650881 175.928955,166.273433 175.928955,167.108398 C175.928955,167.767581 175.49683,169.334949 174.632568,171.810547 L172.698975,177.325684 C171.951901,179.479015 171.578369,180.724119 171.578369,181.061035 C171.578369,181.427248 171.651611,181.705565 171.798096,181.895996 C171.944581,182.086427 172.164305,182.181641 172.457275,182.181641 C172.984622,182.181641 173.577878,181.866702 174.237061,181.236816 C174.896244,180.60693 175.460203,179.823247 175.928955,178.885742 L177.005615,178.885742 C176.258541,180.37989 175.37232,181.58105 174.346924,182.489258 C173.321528,183.397465 172.347417,183.851562 171.424561,183.851562 C170.750729,183.851562 170.172122,183.602542 169.688721,183.104492 C169.20532,182.606443 168.963623,181.94727 168.963623,181.126953 C168.963623,180.248042 169.373775,178.687999 170.194092,176.446777 L172.061768,171.371094 C172.92603,169.041981 173.358154,167.577151 173.358154,166.976562 C173.358154,166.61035 173.259278,166.335694 173.061523,166.152588 C172.863769,165.969482 172.559817,165.87793 172.149658,165.87793 C171.490475,165.87793 170.714116,166.145261 169.820557,166.679932 C168.926997,167.214602 167.996831,168.108148 167.030029,169.360596 C166.063228,170.613043 165.356448,171.788569 164.909668,172.887207 C164.462888,173.985845 163.880619,175.736316 163.162842,178.138672 L161.49292,183.565918 Z M19.7978516,218.955078 L19.1210938,218.955078 C19.2500006,217.42968 19.5856906,216.32056 20.1281738,215.627686 C20.670657,214.934811 21.2534149,214.588379 21.8764648,214.588379 C22.6713907,214.588379 23.3078589,215.074458 23.7858887,216.046631 C24.2639184,217.018804 24.5029297,218.498525 24.5029297,220.48584 C24.5029297,223.07472 24.2075225,225.443349 23.6166992,227.591797 C24.6694389,226.442377 25.697993,224.981454 26.7023926,223.208984 C27.7067921,221.436515 28.2089844,219.927252 28.2089844,218.681152 C28.2089844,218.090329 28.0371111,217.504886 27.6933594,216.924805 C27.3496077,216.355466 27.1777344,215.925783 27.1777344,215.635742 C27.1777344,215.356444 27.2609855,215.112062 27.4274902,214.902588 C27.593995,214.693114 27.795409,214.588379 28.0317383,214.588379 C28.418459,214.588379 28.7353503,214.808592 28.9824219,215.249023 C29.2294934,215.689455 29.3530273,216.339351 29.3530273,217.19873 C29.3530273,218.487799 28.9582559,220.058829 28.1687012,221.911865 C27.3791464,223.764902 26.2216873,225.601798 24.6962891,227.422607 C23.1708908,229.243417 21.653572,230.886956 20.1442871,232.353271 C18.6350022,233.819587 17.3405816,234.840085 16.2609863,235.414795 C15.1813911,235.989505 14.1098686,236.276855 13.0463867,236.276855 C11.6821221,236.276855 11,235.88477 11,235.100586 C11,234.778319 11.1450181,234.523194 11.4350586,234.335205 C11.7250991,234.147216 12.0312484,234.053223 12.3535156,234.053223 C12.6005872,234.053223 12.9873021,234.123046 13.5136719,234.262695 C14.2011753,234.456056 14.7651345,234.552734 15.2055664,234.552734 C15.8501009,234.552734 16.4811981,234.372805 17.098877,234.012939 C17.7165558,233.653074 18.4792435,233.030034 19.3869629,232.143799 C20.2946823,231.257564 20.9311505,230.473392 21.2963867,229.79126 C21.6616229,229.109127 21.9865708,227.9087 22.2712402,226.189941 C22.5559096,224.471183 22.6982422,222.623545 22.6982422,220.646973 C22.6982422,219.143059 22.5585951,217.982914 22.2792969,217.166504 C21.9999986,216.350094 21.656252,215.941895 21.2480469,215.941895 C20.4638633,215.941895 19.9804697,216.946279 19.7978516,218.955078 Z M30.5776367,223.998535 C30.5776367,222.709466 30.878415,221.304939 31.4799805,219.784912 C32.081546,218.264885 32.9409124,217.032231 34.0581055,216.086914 C35.1752986,215.141597 36.2602486,214.668945 37.3129883,214.668945 C38.2690477,214.668945 39.0559051,215.074459 39.673584,215.885498 C40.2912629,216.696537 40.6000977,217.794915 40.6000977,219.180664 C40.6000977,220.856454 40.2563511,222.446282 39.5688477,223.950195 C38.8813442,225.454109 38.0192923,226.606197 36.982666,227.406494 C35.9460397,228.206791 34.9282277,228.606934 33.9291992,228.606934 C33.0375932,228.606934 32.2561069,228.263187 31.5847168,227.575684 C30.9133267,226.88818 30.5776367,225.695809 30.5776367,223.998535 Z M32.3017578,225.851562 C32.3017578,226.431644 32.4521469,226.925779 32.7529297,227.333984 C33.0537124,227.74219 33.4672825,227.946289 33.9936523,227.946289 C35.4331127,227.946289 36.617427,226.582045 37.5466309,223.853516 C38.4758347,221.124986 38.9404297,219.041023 38.9404297,217.601562 C38.9404297,216.860348 38.7980971,216.304445 38.5134277,215.933838 C38.2287583,215.563231 37.8017607,215.37793 37.2324219,215.37793 C35.8896417,215.37793 34.7321826,216.64281 33.7600098,219.172607 C32.7878369,221.702405 32.3017578,223.928701 32.3017578,225.851562 Z M54.4091797,224.916992 L55.0859375,224.916992 C54.172847,227.430677 52.9375078,228.6875 51.3798828,228.6875 C50.853513,228.6875 50.4587416,228.542482 50.1955566,228.252441 C49.9323717,227.962401 49.8007812,227.527347 49.8007812,226.947266 C49.8007812,226.130855 50.0908174,224.825693 50.6708984,223.031738 C48.7910062,226.802265 46.9326264,228.6875 45.0957031,228.6875 C44.4189419,228.6875 43.887209,228.478029 43.5004883,228.059082 C43.1137676,227.640135 42.9204102,227.119144 42.9204102,226.496094 C42.9204102,225.883786 43.162107,224.868659 43.6455078,223.450684 L45.6274414,217.666016 C45.9174819,216.806636 46.0625,216.291016 46.0625,216.119141 C46.0625,215.839842 45.922853,215.700195 45.6435547,215.700195 C44.9667935,215.700195 44.22559,216.607901 43.4199219,218.42334 L42.6464844,218.42334 C43.076174,217.295405 43.6401332,216.374271 44.3383789,215.659912 C45.0366246,214.945553 45.7241177,214.588379 46.4008789,214.588379 C46.8198263,214.588379 47.1770005,214.719969 47.4724121,214.983154 C47.7678237,215.246339 47.9155273,215.641111 47.9155273,216.16748 C47.9155273,216.543459 47.7275409,217.295405 47.3515625,218.42334 L45.3212891,224.385254 C44.9345684,225.545416 44.7412109,226.308104 44.7412109,226.67334 C44.7412109,227.006349 44.8164055,227.258788 44.9667969,227.430664 C45.1171883,227.60254 45.3374009,227.688477 45.6274414,227.688477 C46.5727586,227.688477 47.695306,226.684092 48.9951172,224.675293 C50.2949284,222.666494 51.5410097,219.680196 52.7333984,215.716309 L53.0073242,214.797852 L54.940918,214.797852 L52.1210938,224.046875 C51.6699196,225.550789 51.4443359,226.458495 51.4443359,226.77002 C51.4443359,227.038576 51.4980463,227.23999 51.6054688,227.374268 C51.7128912,227.508546 51.8740224,227.575684 52.0888672,227.575684 C52.9052775,227.575684 53.6787073,226.689462 54.4091797,224.916992 Z M57.1323242,218.938965 L56.4233398,218.938965 C56.874514,217.735834 57.4411587,216.709965 58.123291,215.861328 C58.8054233,215.012691 59.4794889,214.588379 60.1455078,214.588379 C60.6074242,214.588379 60.9511707,214.77368 61.1767578,215.144287 C61.4023449,215.514894 61.5151367,216.076168 61.5151367,216.828125 C61.5151367,217.7627 61.2734399,219.094718 60.7900391,220.824219 C60.8544925,220.716796 61.0317368,220.330081 61.3217773,219.664062 C62.1167032,217.870108 62.8149384,216.575688 63.4165039,215.780762 C64.0180694,214.985836 64.6196259,214.588379 65.2211914,214.588379 C65.5971698,214.588379 65.8979481,214.706542 66.1235352,214.942871 C66.3491222,215.1792 66.4619141,215.463866 66.4619141,215.796875 C66.4619141,216.119142 66.3679209,216.382323 66.1799316,216.586426 C65.9919424,216.790528 65.7690443,216.892578 65.5112305,216.892578 C65.22119,216.892578 64.9257828,216.715334 64.625,216.36084 C64.5068353,216.221191 64.3886725,216.151367 64.2705078,216.151367 C63.7333958,216.151367 62.9062556,217.443102 61.7890625,220.026611 C60.6718694,222.61012 59.7695347,225.040516 59.0820312,227.317871 L58.7275391,228.478027 L56.7939453,228.478027 L59.355957,219.937988 C59.8393579,218.305168 60.0810547,217.198733 60.0810547,216.618652 C60.0810547,216.307127 60.0407719,216.076173 59.9602051,215.925781 C59.8796383,215.77539 59.7587899,215.700195 59.5976562,215.700195 C59.2431623,215.700195 58.8000515,216.081539 58.2683105,216.844238 C57.7365696,217.606937 57.3579113,218.305173 57.1323242,218.938965 Z M72.4238281,224.691406 C72.4238281,225.690435 72.0397988,226.606197 71.2717285,227.438721 C70.5036583,228.271244 69.3730543,228.6875 67.8798828,228.6875 C66.773432,228.6875 65.9436063,228.443118 65.3903809,227.954346 C64.8371554,227.465574 64.5605469,226.941897 64.5605469,226.383301 C64.5605469,226.082518 64.643798,225.824708 64.8103027,225.609863 C64.9768075,225.395018 65.1889636,225.287598 65.4467773,225.287598 C66.0268584,225.287598 66.3168945,225.593747 66.3168945,226.206055 C66.3168945,226.345704 66.2846683,226.544432 66.2202148,226.802246 C66.1772459,226.920411 66.1557617,227.011718 66.1557617,227.076172 C66.1557617,227.333986 66.322264,227.556884 66.6552734,227.744873 C66.9882829,227.932862 67.3857399,228.026855 67.8476562,228.026855 C68.5673864,228.026855 69.2226533,227.798586 69.8134766,227.342041 C70.4042998,226.885496 70.699707,226.254399 70.699707,225.44873 C70.699707,224.750485 70.2861369,223.649422 69.4589844,222.145508 C68.4921827,220.405265 68.0087891,219.132328 68.0087891,218.32666 C68.0087891,217.295405 68.4169881,216.425297 69.2333984,215.716309 C70.0498088,215.007321 70.9789987,214.652832 72.0209961,214.652832 C72.7836952,214.652832 73.4362766,214.846189 73.9787598,215.23291 C74.5212429,215.619631 74.7924805,216.033201 74.7924805,216.473633 C74.7924805,217.042972 74.5561547,217.327637 74.0834961,217.327637 C73.7290021,217.327637 73.4711922,217.010745 73.3100586,216.376953 C73.1381827,215.678707 72.6709023,215.32959 71.9082031,215.32959 C71.2958954,215.32959 70.7641624,215.496092 70.3129883,215.829102 C69.8618142,216.162111 69.6362305,216.597165 69.6362305,217.134277 C69.6362305,217.86475 69.9960902,218.869134 70.7158203,220.147461 C71.3925815,221.307623 71.8464344,222.193845 72.0773926,222.806152 C72.3083508,223.41846 72.4238281,224.046872 72.4238281,224.691406 Z M82.8330078,224.127441 L83.6064453,224.127441 C82.2421807,227.167496 80.4912216,228.6875 78.3535156,228.6875 C77.4726518,228.6875 76.755618,228.378665 76.2023926,227.760986 C75.6491672,227.143307 75.3725586,226.308111 75.3725586,225.255371 C75.3725586,223.923333 75.7297328,222.419442 76.4440918,220.743652 C77.1584508,219.067863 78.1735774,217.623053 79.489502,216.40918 C80.8054265,215.195306 81.9521435,214.588379 82.9296875,214.588379 C83.531253,214.588379 83.9877914,214.779051 84.2993164,215.1604 C84.6108414,215.54175 84.7666016,216.017087 84.7666016,216.586426 C84.7666016,217.746588 84.1865292,218.861079 83.0263672,219.929932 C81.8662051,220.998785 80.1259882,222.027339 77.8056641,223.015625 C77.5048813,223.9502 77.3544922,224.836422 77.3544922,225.674316 C77.3544922,226.36182 77.4887682,226.87744 77.7573242,227.221191 C78.0258802,227.564943 78.4233372,227.736816 78.949707,227.736816 C80.4213941,227.736816 81.7158147,226.533703 82.8330078,224.127441 Z M78.0473633,222.193848 C79.4331124,221.570798 80.6791937,220.711431 81.7856445,219.615723 C82.8920954,218.520014 83.4453125,217.526372 83.4453125,216.634766 C83.4453125,216.22656 83.3620614,215.923097 83.1955566,215.724365 C83.0290519,215.525634 82.7792985,215.42627 82.4462891,215.42627 C81.8017546,215.42627 81.0417524,216.051996 80.1662598,217.303467 C79.2907671,218.554938 78.5844753,220.185049 78.0473633,222.193848 Z M91.5986328,224.369141 L92.3076172,224.369141 C91.2119086,227.248061 89.8046961,228.6875 88.0859375,228.6875 C87.4951142,228.6875 87.0224627,228.491457 86.6679688,228.099365 C86.3134748,227.707273 86.1362305,227.215823 86.1362305,226.625 C86.1362305,226.044919 86.4853481,224.610851 87.1835938,222.322754 L90.9541016,209.883301 C91.2763688,208.830561 91.4375,208.218263 91.4375,208.046387 C91.4375,207.788573 91.364991,207.605958 91.2199707,207.498535 C91.0749504,207.391113 90.7124052,207.337402 90.1323242,207.337402 L89.5039062,207.337402 L89.7133789,206.660645 C91.4858487,206.628418 92.7910114,206.43506 93.6289062,206.080566 L94.0317383,206.080566 L88.8432617,223.160645 C88.768066,223.429201 88.6123059,223.917965 88.3759766,224.626953 C88.0644516,225.561528 87.9086914,226.270505 87.9086914,226.753906 C87.9086914,227.076173 87.9704584,227.31787 88.0939941,227.479004 C88.2175299,227.640138 88.4028308,227.720703 88.6499023,227.720703 C89.0151385,227.720703 89.4716769,227.468264 90.0195312,226.963379 C90.5673856,226.458494 91.0937475,225.593756 91.5986328,224.369141 Z M102.442871,215.039551 L102.233398,215.748535 L99.4135742,215.748535 L96.9160156,225.174805 C95.7773381,229.439474 94.5312568,232.302239 93.1777344,233.763184 C91.824212,235.224128 90.3364339,235.95459 88.7143555,235.95459 C87.8120072,235.95459 86.9982946,235.745119 86.2731934,235.326172 C85.5480921,234.907224 85.1855469,234.386234 85.1855469,233.763184 C85.1855469,233.40869 85.2983387,233.118653 85.5239258,232.893066 C85.7495128,232.667479 86.0126938,232.554688 86.3134766,232.554688 C86.6679705,232.554688 86.9526356,232.680907 87.1674805,232.93335 C87.3823253,233.185792 87.4897461,233.45703 87.4897461,233.74707 C87.4897461,233.822266 87.473633,233.956542 87.4414062,234.149902 L87.4091797,234.423828 C87.4091797,234.627931 87.5380846,234.815917 87.7958984,234.987793 C88.0537122,235.159669 88.3652325,235.245605 88.7304688,235.245605 C90.0195377,235.245605 91.1044878,234.558112 91.9853516,233.183105 C92.8662153,231.808099 93.8652288,229.052755 94.9824219,224.916992 L97.4477539,215.748535 L94.2734375,215.748535 L94.4829102,215.039551 L97.6733398,215.039551 C97.7055666,214.910644 97.7915032,214.599124 97.9311523,214.10498 C99.3813549,208.755344 101.728499,206.080566 104.972656,206.080566 C105.896489,206.080566 106.602781,206.284666 107.091553,206.692871 C107.580325,207.101076 107.824707,207.503904 107.824707,207.901367 C107.824707,208.470706 107.556155,208.755371 107.019043,208.755371 C106.589353,208.755371 106.132815,208.384769 105.649414,207.643555 C105.305662,207.106443 104.892092,206.837891 104.408691,206.837891 C103.678219,206.837891 102.979984,207.173581 102.313965,207.844971 C101.647946,208.516361 100.912113,210.339829 100.106445,213.31543 L99.6391602,215.039551 L102.442871,215.039551 Z M124.066895,215.039551 L123.841309,215.748535 L121.424316,215.748535 L119.297363,222.790039 C118.588375,225.099621 118.233887,226.442381 118.233887,226.818359 C118.233887,227.076173 118.290283,227.272216 118.403076,227.406494 C118.51587,227.540772 118.679686,227.60791 118.894531,227.60791 C119.281252,227.60791 119.78613,227.242679 120.40918,226.512207 C121.03223,225.781735 121.590818,224.863287 122.084961,223.756836 L122.793945,223.756836 C122.138669,225.35743 121.389409,226.579341 120.546143,227.422607 C119.702877,228.265873 118.932132,228.6875 118.233887,228.6875 C117.686032,228.6875 117.248293,228.494143 116.920654,228.107422 C116.593016,227.720701 116.429199,227.231937 116.429199,226.641113 C116.429199,226.136228 116.762204,224.793468 117.428223,222.612793 L119.506836,215.748535 L117.283203,215.748535 L117.508789,215.039551 L119.716309,215.039551 L121.19873,210.157227 L123.132324,210.157227 L121.649902,215.039551 L124.066895,215.039551 Z M124.002441,223.998535 C124.002441,222.709466 124.30322,221.304939 124.904785,219.784912 C125.506351,218.264885 126.365717,217.032231 127.48291,216.086914 C128.600103,215.141597 129.685053,214.668945 130.737793,214.668945 C131.693852,214.668945 132.48071,215.074459 133.098389,215.885498 C133.716068,216.696537 134.024902,217.794915 134.024902,219.180664 C134.024902,220.856454 133.681156,222.446282 132.993652,223.950195 C132.306149,225.454109 131.444097,226.606197 130.407471,227.406494 C129.370844,228.206791 128.353032,228.606934 127.354004,228.606934 C126.462398,228.606934 125.680912,228.263187 125.009521,227.575684 C124.338131,226.88818 124.002441,225.695809 124.002441,223.998535 Z M125.726562,225.851562 C125.726562,226.431644 125.876952,226.925779 126.177734,227.333984 C126.478517,227.74219 126.892087,227.946289 127.418457,227.946289 C128.857917,227.946289 130.042232,226.582045 130.971436,223.853516 C131.900639,221.124986 132.365234,219.041023 132.365234,217.601562 C132.365234,216.860348 132.222902,216.304445 131.938232,215.933838 C131.653563,215.563231 131.226565,215.37793 130.657227,215.37793 C129.314446,215.37793 128.156987,216.64281 127.184814,219.172607 C126.212642,221.702405 125.726562,223.928701 125.726562,225.851562 Z M152.265137,215.039551 L152.039551,215.748535 L149.622559,215.748535 L147.495605,222.790039 C146.786618,225.099621 146.432129,226.442381 146.432129,226.818359 C146.432129,227.076173 146.488525,227.272216 146.601318,227.406494 C146.714112,227.540772 146.877929,227.60791 147.092773,227.60791 C147.479494,227.60791 147.984372,227.242679 148.607422,226.512207 C149.230472,225.781735 149.78906,224.863287 150.283203,223.756836 L150.992188,223.756836 C150.336911,225.35743 149.587651,226.579341 148.744385,227.422607 C147.901119,228.265873 147.130375,228.6875 146.432129,228.6875 C145.884275,228.6875 145.446535,228.494143 145.118896,228.107422 C144.791258,227.720701 144.627441,227.231937 144.627441,226.641113 C144.627441,226.136228 144.960446,224.793468 145.626465,222.612793 L147.705078,215.748535 L145.481445,215.748535 L145.707031,215.039551 L147.914551,215.039551 L149.396973,210.157227 L151.330566,210.157227 L149.848145,215.039551 L152.265137,215.039551 Z M153.135254,228.478027 L151.217773,228.478027 L156.873535,209.867188 C157.195802,208.814448 157.356934,208.202149 157.356934,208.030273 C157.356934,207.783202 157.284425,207.605958 157.139404,207.498535 C156.994384,207.391113 156.63721,207.337402 156.067871,207.337402 L155.552246,207.337402 L155.745605,206.660645 C157.453622,206.617676 158.721187,206.424318 159.54834,206.080566 L159.951172,206.080566 L156.293457,218.101074 C158.22706,215.759266 159.988762,214.588379 161.578613,214.588379 C162.298343,214.588379 162.835447,214.738768 163.189941,215.039551 C163.544435,215.340334 163.72168,215.796872 163.72168,216.40918 C163.72168,216.892581 163.404788,218.041983 162.770996,219.857422 L161.353027,223.901855 C160.805173,225.480965 160.53125,226.394042 160.53125,226.641113 C160.53125,226.909669 160.58496,227.113769 160.692383,227.253418 C160.799805,227.393067 160.960936,227.462891 161.175781,227.462891 C161.562502,227.462891 161.997556,227.231936 162.480957,226.77002 C162.964358,226.308103 163.377928,225.733402 163.72168,225.045898 L164.51123,225.045898 C163.963376,226.141607 163.31348,227.022458 162.561523,227.688477 C161.809567,228.354496 161.095218,228.6875 160.418457,228.6875 C159.924314,228.6875 159.500002,228.504885 159.145508,228.139648 C158.791014,227.774412 158.61377,227.291019 158.61377,226.689453 C158.61377,226.044919 158.914548,224.900887 159.516113,223.257324 L160.885742,219.535156 C161.519534,217.82714 161.836426,216.752932 161.836426,216.3125 C161.836426,216.043944 161.763917,215.84253 161.618896,215.708252 C161.473876,215.573974 161.250978,215.506836 160.950195,215.506836 C160.466794,215.506836 159.897464,215.702879 159.242188,216.094971 C158.586911,216.487063 157.904789,217.142329 157.195801,218.060791 C156.486813,218.979253 155.968507,219.841305 155.640869,220.646973 C155.313231,221.452641 154.886233,222.736319 154.359863,224.498047 L153.135254,228.478027 Z M173.05127,224.127441 L173.824707,224.127441 C172.460442,227.167496 170.709483,228.6875 168.571777,228.6875 C167.690914,228.6875 166.97388,228.378665 166.420654,227.760986 C165.867429,227.143307 165.59082,226.308111 165.59082,225.255371 C165.59082,223.923333 165.947994,222.419442 166.662354,220.743652 C167.376713,219.067863 168.391839,217.623053 169.707764,216.40918 C171.023688,215.195306 172.170405,214.588379 173.147949,214.588379 C173.749515,214.588379 174.206053,214.779051 174.517578,215.1604 C174.829103,215.54175 174.984863,216.017087 174.984863,216.586426 C174.984863,217.746588 174.404791,218.861079 173.244629,219.929932 C172.084467,220.998785 170.34425,222.027339 168.023926,223.015625 C167.723143,223.9502 167.572754,224.836422 167.572754,225.674316 C167.572754,226.36182 167.70703,226.87744 167.975586,227.221191 C168.244142,227.564943 168.641599,227.736816 169.167969,227.736816 C170.639656,227.736816 171.934076,226.533703 173.05127,224.127441 Z M168.265625,222.193848 C169.651374,221.570798 170.897455,220.711431 172.003906,219.615723 C173.110357,218.520014 173.663574,217.526372 173.663574,216.634766 C173.663574,216.22656 173.580323,215.923097 173.413818,215.724365 C173.247314,215.525634 172.99756,215.42627 172.664551,215.42627 C172.020016,215.42627 171.260014,216.051996 170.384521,217.303467 C169.509029,218.554938 168.802737,220.185049 168.265625,222.193848 Z M194.65918,225.190918 L195.352051,225.190918 C194.890134,226.189946 194.291263,227.022458 193.55542,227.688477 C192.819576,228.354496 192.102543,228.6875 191.404297,228.6875 C190.942381,228.6875 190.531496,228.520998 190.171631,228.187988 C189.811766,227.854979 189.631836,227.382327 189.631836,226.77002 C189.631836,226.222165 189.895017,225.180183 190.421387,223.644043 L191.936035,219.26123 C192.387209,217.950677 192.612793,217.128908 192.612793,216.795898 C192.612793,216.441404 192.540284,216.175538 192.395264,215.998291 C192.250243,215.821044 192.032716,215.732422 191.742676,215.732422 C190.818843,215.732422 189.731207,216.500481 188.479736,218.036621 C187.228265,219.572762 185.925788,222.580544 184.572266,227.060059 L184.137207,228.461914 L182.219727,228.461914 L184.846191,219.825195 C185.297366,218.321282 185.522949,217.306155 185.522949,216.779785 C185.522949,216.457518 185.461182,216.215821 185.337646,216.054688 C185.214111,215.893554 185.023439,215.812988 184.765625,215.812988 C184.013668,215.812988 182.998542,216.605217 181.720215,218.189697 C180.441888,219.774178 179.168952,222.671854 177.901367,226.882812 L177.417969,228.461914 L175.484375,228.461914 L178.433105,218.793945 C178.830568,217.47265 179.029297,216.693849 179.029297,216.45752 C179.029297,216.285644 178.999756,216.156739 178.940674,216.070801 C178.881592,215.984863 178.787598,215.941895 178.658691,215.941895 C178.379393,215.941895 178.006106,216.167478 177.538818,216.618652 C177.071531,217.069826 176.606936,217.714351 176.14502,218.552246 L175.419922,218.552246 C175.935549,217.46728 176.569332,216.573002 177.321289,215.869385 C178.073246,215.165768 178.739255,214.813965 179.319336,214.813965 C179.738283,214.813965 180.068602,214.953612 180.310303,215.23291 C180.552003,215.512208 180.672852,215.888181 180.672852,216.36084 C180.672852,217.145023 180.345218,218.47167 179.689941,220.34082 C180.409672,218.826164 181.306635,217.521002 182.380859,216.425293 C183.455083,215.329584 184.427242,214.781738 185.297363,214.781738 C185.920413,214.781738 186.385008,214.961668 186.691162,215.321533 C186.997316,215.681398 187.150391,216.221188 187.150391,216.940918 C187.150391,217.821782 186.930178,218.885248 186.489746,220.131348 C187.402837,218.262198 188.369624,216.903325 189.390137,216.054688 C190.41065,215.20605 191.334469,214.781738 192.161621,214.781738 C192.784671,214.781738 193.305662,214.988523 193.724609,215.4021 C194.143557,215.815676 194.353027,216.37695 194.353027,217.085938 C194.353027,217.526369 194.318116,217.888915 194.248291,218.173584 C194.178466,218.458253 193.917971,219.277337 193.466797,220.630859 L192.209961,224.256348 C191.694333,225.728035 191.436523,226.63574 191.436523,226.979492 C191.436523,227.215821 191.487548,227.395751 191.5896,227.519287 C191.691651,227.642823 191.839355,227.70459 192.032715,227.70459 C192.408693,227.70459 192.816892,227.495119 193.257324,227.076172 C193.697756,226.657224 194.165037,226.028813 194.65918,225.190918 Z M196.544434,226.995605 C196.544434,226.533689 196.710936,226.136232 197.043945,225.803223 C197.376955,225.470213 197.779783,225.303711 198.252441,225.303711 C198.714358,225.303711 199.111815,225.470213 199.444824,225.803223 C199.777834,226.136232 199.944336,226.533689 199.944336,226.995605 C199.944336,227.468264 199.777834,227.871092 199.444824,228.204102 C199.111815,228.537111 198.714358,228.703613 198.252441,228.703613 C197.769041,228.703613 197.363527,228.534426 197.035889,228.196045 C196.70825,227.857664 196.544434,227.457522 196.544434,226.995605 Z" id="You-will-never-know" fill="#003057"></path>
        </g>
    </g>
</svg>