<?xml version="1.0" encoding="UTF-8"?>
<svg width="111px" height="86px" viewBox="0 0 111 86" version="1.1" xmlns="http://www.w3.org/2000/svg" xmlns:xlink="http://www.w3.org/1999/xlink">
    <!-- Generator: Sketch 47.1 (45422) - http://www.bohemiancoding.com/sketch -->
    <title>mobile_cash</title>
    <desc>Created with Sketch.</desc>
    <defs>
        <rect id="path-1" x="0" y="0" width="44.4874101" height="80.2882736"></rect>
        <linearGradient x1="0%" y1="21.089596%" x2="100%" y2="21.0895956%" id="linearGradient-2">
            <stop stop-color="#00C9EE" offset="0%"></stop>
            <stop stop-color="#0099D8" offset="100%"></stop>
        </linearGradient>
        <rect id="path-3" x="0" y="0" width="44.4874101" height="80.2882736"></rect>
        <linearGradient x1="0%" y1="22.6962967%" x2="100%" y2="22.6962969%" id="linearGradient-4">
            <stop stop-color="#00C9EE" offset="0%"></stop>
            <stop stop-color="#0099D8" offset="100%"></stop>
        </linearGradient>
        <rect id="path-5" x="0" y="0" width="44.4874101" height="80.2882736"></rect>
        <linearGradient x1="0%" y1="17.1628218%" x2="100%" y2="17.1628222%" id="linearGradient-6">
            <stop stop-color="#00C9EE" offset="0%"></stop>
            <stop stop-color="#0099D8" offset="100%"></stop>
        </linearGradient>
        <rect id="path-7" x="0" y="0" width="44.4874101" height="80.2882736"></rect>
        <linearGradient x1="0%" y1="16.1624344%" x2="100%" y2="16.1624342%" id="linearGradient-8">
            <stop stop-color="#00C9EE" offset="0%"></stop>
            <stop stop-color="#0099D8" offset="100%"></stop>
        </linearGradient>
    </defs>
    <g id="Symbols" stroke="none" stroke-width="1" fill="none" fill-rule="evenodd">
        <g id="mobile_cash">
            <g id="Group-9" transform="translate(55.500000, 43.000000) rotate(-270.000000) translate(-55.500000, -43.000000) translate(13.000000, -12.000000)">
                <g id="Group" transform="translate(0.791367, 0.724669)">
                    <g id="Group-8" transform="translate(40.212715, 62.471894) rotate(-30.000000) translate(-40.212715, -62.471894) translate(17.712715, 21.971894)">
                        <g id="Group-7">
                            <g id="Rectangle-10">
                                <use fill="#FFFFFF" fill-rule="evenodd" xlink:href="#path-1"></use>
                                <rect stroke="#0099D8" stroke-width="2" x="1" y="1" width="42.4874101" height="78.2882736"></rect>
                            </g>
                            <path d="M39.7690484,29.4095187 L39.7690484,5.397531 L5.39241334,5.397531 L5.39241334,29.4095187 C9.03794203,23.7973878 15.374289,20.0838363 22.5807309,20.0838363 C29.7871727,20.0838363 36.1235197,23.7973878 39.7690484,29.4095187 Z M39.7690484,51.5534463 L39.7690484,75.565434 L5.39241334,75.565434 L5.39241334,51.5534463 C9.03794203,57.1655772 15.374289,60.8791287 22.5807309,60.8791287 C29.7871727,60.8791287 36.1235197,57.1655772 39.7690484,51.5534463 Z" id="Combined-Shape" fill="url(#linearGradient-2)"></path>
                        </g>
                    </g>
                    <g id="Group-8" transform="translate(45.552101, 53.890993) rotate(-20.000000) translate(-45.552101, -53.890993) translate(23.052101, 13.390993)">
                        <g id="Group-7">
                            <g id="Rectangle-10">
                                <use fill="#FFFFFF" fill-rule="evenodd" xlink:href="#path-3"></use>
                                <rect stroke="#0099D8" stroke-width="2" x="1" y="1" width="42.4874101" height="78.2882736"></rect>
                            </g>
                            <path d="M39.7690484,29.4095187 L39.7690484,5.397531 L5.39241334,5.397531 L5.39241334,29.4095187 C9.03794203,23.7973878 15.374289,20.0838363 22.5807309,20.0838363 C29.7871727,20.0838363 36.1235197,23.7973878 39.7690484,29.4095187 Z M39.7690484,51.5534463 L39.7690484,75.565434 L5.39241334,75.565434 L5.39241334,51.5534463 C9.03794203,57.1655772 15.374289,60.8791287 22.5807309,60.8791287 C29.7871727,60.8791287 36.1235197,57.1655772 39.7690484,51.5534463 Z" id="Combined-Shape" fill="url(#linearGradient-4)"></path>
                        </g>
                    </g>
                    <g id="Group-8" transform="translate(52.126666, 46.367208) rotate(-10.000000) translate(-52.126666, -46.367208) translate(29.626666, 5.867208)">
                        <g id="Group-7">
                            <g id="Rectangle-10">
                                <use fill="#FFFFFF" fill-rule="evenodd" xlink:href="#path-5"></use>
                                <rect stroke="#0099D8" stroke-width="2" x="1" y="1" width="42.4874101" height="78.2882736"></rect>
                            </g>
                            <path d="M39.7690484,29.4095187 L39.7690484,5.397531 L5.39241334,5.397531 L5.39241334,29.4095187 C9.03794203,23.7973878 15.374289,20.0838363 22.5807309,20.0838363 C29.7871727,20.0838363 36.1235197,23.7973878 39.7690484,29.4095187 Z M39.7690484,51.5534463 L39.7690484,75.565434 L5.39241334,75.565434 L5.39241334,51.5534463 C9.03794203,57.1655772 15.374289,60.8791287 22.5807309,60.8791287 C29.7871727,60.8791287 36.1235197,57.1655772 39.7690484,51.5534463 Z" id="Combined-Shape" fill="url(#linearGradient-6)"></path>
                        </g>
                    </g>
                    <g id="Group-6" transform="translate(38.386854, 0.000000)">
                        <g id="Rectangle-10">
                            <use fill="#FFFFFF" fill-rule="evenodd" xlink:href="#path-7"></use>
                            <rect stroke="#0099D8" stroke-width="2" x="1" y="1" width="42.4874101" height="78.2882736"></rect>
                        </g>
                        <path d="M39.7690484,29.4095187 L39.7690484,5.397531 L5.39241334,5.397531 L5.39241334,29.4095187 C9.03794203,23.7973878 15.374289,20.0838363 22.5807309,20.0838363 C29.7871727,20.0838363 36.1235197,23.7973878 39.7690484,29.4095187 Z M39.7690484,51.5534463 L39.7690484,75.565434 L5.39241334,75.565434 L5.39241334,51.5534463 C9.03794203,57.1655772 15.374289,60.8791287 22.5807309,60.8791287 C29.7871727,60.8791287 36.1235197,57.1655772 39.7690484,51.5534463 Z" id="Combined-Shape" fill="url(#linearGradient-8)"></path>
                        <text id="$" transform="translate(24.081528, 40.934737) rotate(270.000000) translate(-24.081528, -40.934737) " font-family="Gotham-Bold, Gotham" font-size="31" font-weight="bold" fill="#003957">
                            <tspan x="14.6448045" y="54.4347365">$</tspan>
                        </text>
                    </g>
                </g>
            </g>
        </g>
    </g>
</svg>