<?xml version="1.0" encoding="UTF-8"?>
<svg width="43px" height="33px" viewBox="0 0 43 33" version="1.1" xmlns="http://www.w3.org/2000/svg" xmlns:xlink="http://www.w3.org/1999/xlink">
    <!-- Generator: Sketch 47.1 (45422) - http://www.bohemiancoding.com/sketch -->
    <title>overview</title>
    <desc>Created with Sketch.</desc>
    <defs></defs>
    <g id="MockUp" stroke="none" stroke-width="1" fill="none" fill-rule="evenodd">
        <g id="Drawer-Style-Nav-Copy" transform="translate(-84.000000, -159.000000)">
            <g id="overview" transform="translate(83.000000, 159.000000)">
                <g id="Overview" transform="translate(0.957447, 0.944444)">
                    <g id="overview" transform="translate(0.000000, 7.611111)">
                        <path d="M6.21724894e-13,11.8055556 C4.18028258,4.76838829 12.2604043,3.55271368e-15 21.5425532,3.55271368e-15 C30.8247021,3.55271368e-15 38.9048238,4.76838829 43.0851064,11.8055556 C38.9048238,18.8427228 30.8247021,23.6111111 21.5425532,23.6111111 C12.2604043,23.6111111 4.18028258,18.8427228 -2.33812969e-13,11.8055556 Z" id="Combined-Shape" fill="#FFFFFF"></path>
                        <path d="M12.3890042,5.76724501 C11.2160578,7.49393731 10.5319149,9.57093636 10.5319149,11.8055556 C10.5319149,17.8039816 15.4615456,22.6666667 21.5425532,22.6666667 C27.6235608,22.6666667 32.5531915,17.8039816 32.5531915,11.8055556 C32.5531915,5.80712952 27.6235608,0.944444444 21.5425532,0.944444444 C20.5666002,0.944444444 19.6203041,1.06969591 18.7192836,1.30479203 C20.1659438,2.01691308 21.1595745,3.49121714 21.1595745,5.19444444 C21.1595745,7.59381486 19.1877222,9.53888889 16.7553191,9.53888889 C14.5197614,9.53888889 12.6732293,7.89589163 12.3890042,5.76724501 Z" id="Combined-Shape" fill="#0099D8"></path>
                    </g>
                    <polygon id="Rectangle-5" fill="#FFFFFF" points="2.87234043 0 41.1702128 0 41.1702128 3.77777778 2.87234043 3.77777778"></polygon>
                </g>
            </g>
        </g>
    </g>
</svg>