<?xml version="1.0" encoding="UTF-8"?>
<svg width="45px" height="36px" viewBox="0 0 45 36" version="1.1" xmlns="http://www.w3.org/2000/svg" xmlns:xlink="http://www.w3.org/1999/xlink">
    <!-- Generator: Sketch 47.1 (45422) - http://www.bohemiancoding.com/sketch -->
    <title>standings</title>
    <desc>Created with Sketch.</desc>
    <defs></defs>
    <g id="MockUp" stroke="none" stroke-width="1" fill="none" fill-rule="evenodd">
        <g id="Drawer-Style-Nav-Copy" transform="translate(-83.000000, -302.000000)" fill="#FFFFFF">
            <g id="standings" transform="translate(83.000000, 302.000000)">
                <g id="Standings" transform="translate(0.957447, 0.947368)">
                    <g id="Group-2" transform="translate(14.361702, 0.000000)">
                        <g id="Group" transform="translate(1.914894, 0.000000)">
                            <ellipse id="Oval" cx="5.74468085" cy="2.84210526" rx="2.87234043" ry="2.84210526"></ellipse>
                            <path d="M8.66119199,15.5795721 L10.5319149,15.5795721 L8.68421053,5.68421053 L1.84770437,5.68421053 L0,15.5795721 L1.87072291,15.5795721 L3.22881672,26.5263158 L7.30309817,26.5263158 L8.66119199,15.5795721 Z" id="Combined-Shape"></path>
                        </g>
                        <rect id="Rectangle-4" x="0" y="26.5263158" width="14.3617021" height="7.57894737"></rect>
                    </g>
                    <g id="Group-2-Copy-2" transform="translate(0.000000, 1.894737)">
                        <g id="Group" transform="translate(1.914894, 0.000000)">
                            <ellipse id="Oval" cx="5.74468085" cy="2.84210526" rx="2.87234043" ry="2.84210526"></ellipse>
                            <path d="M8.66119199,15.5795721 L10.5319149,15.5795721 L8.68421053,5.68421053 L1.84770437,5.68421053 L0,15.5795721 L1.87072291,15.5795721 L3.22881672,26.5263158 L7.30309817,26.5263158 L8.66119199,15.5795721 Z" id="Combined-Shape"></path>
                        </g>
                        <rect id="Rectangle-4" x="0" y="26.5263158" width="14.3617021" height="5.68421053"></rect>
                    </g>
                    <g id="Group-2-Copy" transform="translate(28.723404, 3.789474)">
                        <g id="Group" transform="translate(1.914894, 0.000000)">
                            <ellipse id="Oval" cx="5.74468085" cy="2.84210526" rx="2.87234043" ry="2.84210526"></ellipse>
                            <path d="M8.66119199,15.5795721 L10.5319149,15.5795721 L8.68421053,5.68421053 L1.84770437,5.68421053 L0,15.5795721 L1.87072291,15.5795721 L3.22881672,26.5263158 L7.30309817,26.5263158 L8.66119199,15.5795721 Z" id="Combined-Shape"></path>
                        </g>
                        <rect id="Rectangle-4" x="0" y="26.5263158" width="14.3617021" height="3.78947368"></rect>
                    </g>
                </g>
            </g>
        </g>
    </g>
</svg>